<svg width="566" height="431" viewBox="0 0 566 431" fill="none" xmlns="http://www.w3.org/2000/svg">
<path d="M466.468 62.8881C466.468 62.8881 422.627 4.375 349.853 0.242914C277.079 -3.88917 236.489 45.5604 206.699 82.6543C176.91 119.748 86.7246 98.3021 32.1103 155.176C-22.5041 212.05 3.98015 244.998 28.0295 277.96C52.0789 310.922 75.0808 315.907 75.0808 343.084C75.0808 370.261 88.3297 406.542 140.455 414.779C192.58 423.016 246.364 372.781 283.595 391.748C320.825 410.715 383.302 425.536 421.579 414.779C459.857 404.022 448.254 364.503 489.592 351.321C530.93 338.139 570.677 296.927 564.883 252.422C559.088 207.918 525.993 199.68 511.928 156.829C497.863 113.977 478.057 81.0151 466.468 62.8881Z" fill="#EAE9FD"/>
<path d="M516.322 424.045C516.322 426.443 440.147 428.381 346.289 428.381C252.432 428.381 176.257 426.443 176.257 424.045C176.257 421.647 252.432 419.724 346.289 419.724C440.147 419.724 516.322 421.661 516.322 424.045Z" fill="#2E353A"/>
<path d="M381.792 22.2578H222.03C217.056 22.2578 213.025 26.2732 213.025 31.2265V93.4244C213.025 98.3777 217.056 102.393 222.03 102.393H381.792C386.765 102.393 390.797 98.3777 390.797 93.4244V31.2265C390.797 26.2732 386.765 22.2578 381.792 22.2578Z" fill="#3506B7"/>
<path d="M213.025 88.3033V117.228L229.226 98.6538" fill="#3506B7"/>
<path d="M381.806 22.2579H221.989C220.807 22.2579 219.637 22.49 218.545 22.9409C217.453 23.3918 216.461 24.0526 215.626 24.8856C214.791 25.7186 214.129 26.7074 213.678 27.7954C213.227 28.8835 212.996 30.0494 212.998 31.2266V117.228L225.947 102.393H381.806C382.987 102.393 384.158 102.161 385.25 101.71C386.341 101.259 387.333 100.598 388.168 99.7654C389.003 98.9324 389.665 97.9436 390.116 96.8556C390.567 95.7675 390.799 94.6016 390.797 93.4244V31.2266C390.799 30.0494 390.567 28.8835 390.116 27.7954C389.665 26.7074 389.003 25.7186 388.168 24.8856C387.333 24.0526 386.341 23.3918 385.25 22.9409C384.158 22.49 382.987 22.2579 381.806 22.2579Z" fill="#3506B7"/>
<path opacity="0.1" d="M381.806 22.2579H221.989C220.807 22.2579 219.637 22.49 218.545 22.9409C217.453 23.3918 216.461 24.0526 215.626 24.8856C214.791 25.7186 214.129 26.7074 213.678 27.7954C213.227 28.8835 212.996 30.0494 212.998 31.2266V117.228L225.947 102.393H381.806C382.987 102.393 384.158 102.161 385.25 101.71C386.341 101.259 387.333 100.598 388.168 99.7654C389.003 98.9324 389.665 97.9436 390.116 96.8556C390.567 95.7675 390.799 94.6016 390.797 93.4244V31.2266C390.799 30.0494 390.567 28.8835 390.116 27.7954C389.665 26.7074 389.003 25.7186 388.168 24.8856C387.333 24.0526 386.341 23.3918 385.25 22.9409C384.158 22.49 382.987 22.2579 381.806 22.2579Z" fill="#3506B7"/>
<path d="M349.853 66.2202H235.061C234.21 66.2202 233.393 65.8834 232.791 65.2838C232.189 64.6841 231.851 63.8709 231.851 63.0229C231.854 62.1773 232.194 61.3675 232.796 60.7708C233.398 60.1741 234.212 59.8391 235.061 59.8391H349.853C350.702 59.8391 351.517 60.1741 352.118 60.7708C352.72 61.3675 353.06 62.1773 353.063 63.0229C353.063 63.4428 352.98 63.8585 352.819 64.2465C352.658 64.6344 352.421 64.9869 352.123 65.2838C351.825 65.5807 351.471 65.8162 351.082 65.9769C350.692 66.1375 350.275 66.2202 349.853 66.2202Z" fill="white"/>
<path d="M349.853 80.9064H235.061C234.639 80.9064 234.222 80.8237 233.833 80.663C233.443 80.5023 233.089 80.2668 232.791 79.9699C232.493 79.673 232.257 79.3205 232.095 78.9326C231.934 78.5447 231.851 78.1289 231.851 77.709C231.854 76.8634 232.194 76.0536 232.796 75.4569C233.398 74.8603 234.212 74.5253 235.061 74.5253H349.853C350.702 74.5253 351.517 74.8603 352.118 75.4569C352.72 76.0536 353.06 76.8634 353.063 77.709C353.063 78.1289 352.98 78.5447 352.819 78.9326C352.658 79.3205 352.421 79.673 352.123 79.9699C351.825 80.2668 351.471 80.5023 351.082 80.663C350.692 80.8237 350.275 80.9064 349.853 80.9064Z" fill="white"/>
<path d="M241.468 51.5342C247.838 51.5342 253.003 46.3906 253.003 40.0457C253.003 33.7007 247.838 28.5571 241.468 28.5571C235.097 28.5571 229.933 33.7007 229.933 40.0457C229.933 46.3906 235.097 51.5342 241.468 51.5342Z" fill="white"/>
<path d="M381.792 130.708H222.03C217.057 130.708 213.025 134.723 213.025 139.676V201.875C213.025 206.828 217.057 210.843 222.03 210.843H381.792C386.765 210.843 390.797 206.828 390.797 201.875V139.676C390.797 134.723 386.765 130.708 381.792 130.708Z" fill="#3506B7"/>
<path d="M213.025 196.74V225.678L229.226 207.09" fill="#3506B7"/>
<path d="M381.806 130.708H221.989C219.604 130.708 217.317 131.651 215.631 133.331C213.945 135.01 212.998 137.288 212.998 139.663V225.678L225.947 210.775H381.806C384.19 210.775 386.477 209.832 388.163 208.153C389.85 206.473 390.797 204.195 390.797 201.82V139.663C390.797 137.288 389.85 135.01 388.163 133.331C386.477 131.651 384.19 130.708 381.806 130.708Z" fill="#3506B7"/>
<path opacity="0.1" d="M381.806 130.708H221.989C219.604 130.708 217.317 131.651 215.631 133.331C213.945 135.01 212.998 137.288 212.998 139.663V225.678L225.947 210.775H381.806C384.19 210.775 386.477 209.832 388.163 208.153C389.85 206.473 390.797 204.195 390.797 201.82V139.663C390.797 137.288 389.85 135.01 388.163 133.331C386.477 131.651 384.19 130.708 381.806 130.708Z" fill="#3506B7"/>
<path d="M349.853 174.657H235.061C234.212 174.657 233.398 174.322 232.796 173.726C232.194 173.129 231.854 172.319 231.851 171.473C231.851 170.625 232.189 169.812 232.791 169.213C233.393 168.613 234.21 168.276 235.061 168.276H349.853C350.275 168.276 350.692 168.359 351.082 168.52C351.471 168.68 351.825 168.916 352.123 169.213C352.421 169.509 352.658 169.862 352.819 170.25C352.98 170.638 353.063 171.054 353.063 171.473C353.06 172.319 352.72 173.129 352.118 173.726C351.517 174.322 350.702 174.657 349.853 174.657Z" fill="white"/>
<path d="M349.853 189.343H235.061C234.212 189.343 233.398 189.008 232.796 188.411C232.194 187.815 231.854 187.005 231.851 186.159C231.851 185.312 232.189 184.498 232.791 183.899C233.393 183.299 234.21 182.962 235.061 182.962H349.853C350.275 182.962 350.692 183.045 351.082 183.206C351.471 183.366 351.825 183.602 352.123 183.899C352.421 184.196 352.658 184.548 352.819 184.936C352.98 185.324 353.063 185.74 353.063 186.159C353.06 187.005 352.72 187.815 352.118 188.411C351.517 189.008 350.702 189.343 349.853 189.343Z" fill="white"/>
<path d="M241.468 159.971C247.838 159.971 253.003 154.828 253.003 148.483C253.003 142.138 247.838 136.994 241.468 136.994C235.097 136.994 229.933 142.138 229.933 148.483C229.933 154.828 235.097 159.971 241.468 159.971Z" fill="white"/>
<path d="M90.1857 289.488C90.0633 289.488 89.5192 280.994 89.5464 280.452C89.8593 274.179 94.1849 262.23 101.027 260.415C102.169 260.143 103.356 260.114 104.51 260.33C105.664 260.546 106.76 261.002 107.725 261.668C108.69 262.334 109.504 263.195 110.112 264.195C110.721 265.196 111.11 266.313 111.256 267.473C112.045 272.378 108.835 277.607 105.584 281.021C101.748 284.977 90.1857 289.488 90.1857 289.488Z" fill="#5F8A28"/>
<path d="M81.2625 256.757C81.1401 256.757 81.8882 248.276 81.9971 247.734C83.2757 241.584 89.3697 230.42 96.3886 229.662C97.5592 229.566 98.7369 229.717 99.845 230.105C100.953 230.493 101.967 231.109 102.82 231.913C103.673 232.716 104.347 233.69 104.798 234.771C105.248 235.851 105.465 237.014 105.434 238.183C105.434 243.155 101.503 247.843 97.7761 250.701C93.3824 254.061 81.2625 256.757 81.2625 256.757Z" fill="#5F8A28"/>
<path d="M79.0042 218.132C78.8818 218.132 79.6436 209.651 79.7524 209.109C81.0174 202.959 87.1114 191.795 94.1439 191.037C95.3139 190.941 96.491 191.092 97.5985 191.48C98.7059 191.868 99.7188 192.484 100.571 193.288C101.423 194.092 102.096 195.066 102.545 196.147C102.994 197.227 103.209 198.389 103.176 199.558C103.176 204.53 99.2585 209.204 95.5178 212.076C91.1241 215.436 79.0178 218.132 79.0042 218.132Z" fill="#5F8A28"/>
<path d="M75.1004 181.783C74.978 181.783 75.7398 173.289 75.8486 172.761C77.1136 166.596 83.2076 155.447 90.2401 154.674C91.4108 154.581 92.5882 154.734 93.6957 155.123C94.8031 155.513 95.8158 156.13 96.6678 156.935C97.5198 157.74 98.192 158.715 98.6408 159.796C99.0895 160.877 99.3046 162.04 99.2722 163.209C99.2722 168.168 95.3547 172.855 91.614 175.714C87.2203 179.074 75.114 181.783 75.1004 181.783Z" fill="#5F8A28"/>
<path d="M63.4566 152.615C63.3478 152.615 61.8243 144.256 61.7835 143.714C61.3754 137.441 64.3 125.072 70.87 122.498C71.9732 122.097 73.1489 121.932 74.3204 122.014C75.4919 122.096 76.6328 122.423 77.6687 122.974C78.7046 123.525 79.6122 124.288 80.3322 125.212C81.0522 126.136 81.5685 127.201 81.8473 128.337C83.2076 133.119 80.6231 138.674 77.7665 142.413C74.4475 146.816 63.4566 152.615 63.4566 152.615Z" fill="#5F8A28"/>
<path d="M86.5808 289.584C86.7168 289.584 83.0033 281.848 82.704 281.387C79.3442 276.076 69.7 267.758 62.8579 269.506C61.7298 269.826 60.6823 270.38 59.7836 271.131C58.8849 271.882 58.1551 272.814 57.6418 273.864C57.1285 274.915 56.8431 276.061 56.8044 277.229C56.7656 278.397 56.9743 279.56 57.4168 280.642C59.1307 285.316 64.4902 288.31 69.0062 289.678C74.3384 291.291 86.5808 289.584 86.5808 289.584Z" fill="#5F8A28"/>
<path d="M79.4398 252.381C79.5758 252.381 74.7197 245.282 74.366 244.876C70.2853 240.121 59.4032 233.36 52.942 236.11C51.8728 236.596 50.9185 237.301 50.1416 238.179C49.3647 239.058 48.7826 240.089 48.4334 241.207C48.0842 242.324 47.9757 243.503 48.1151 244.665C48.2544 245.827 48.6385 246.947 49.2421 247.951C51.6361 252.3 57.4036 254.454 62.0693 255.132C67.5375 255.918 79.4398 252.381 79.4398 252.381Z" fill="#5F8A28"/>
<path d="M77.3857 215.937C77.5081 215.937 72.6656 208.838 72.312 208.432C68.2312 203.677 57.3491 196.916 50.8743 199.68C49.7936 200.162 48.828 200.868 48.0415 201.75C47.255 202.631 46.6654 203.67 46.3118 204.795C45.9582 205.921 45.8486 207.109 45.9902 208.28C46.1319 209.451 46.5216 210.578 47.1336 211.588C49.5412 215.937 55.2951 218.091 59.9744 218.755C65.4835 219.487 77.3857 215.951 77.3857 215.937Z" fill="#5F8A28"/>
<path d="M73.8624 182.501C73.9984 182.501 69.1423 175.402 68.7886 174.996C64.7079 170.241 53.8258 163.48 47.3646 166.23C46.2954 166.716 45.3411 167.421 44.5642 168.299C43.7873 169.178 43.2052 170.209 42.856 171.327C42.5068 172.444 42.3983 173.623 42.5377 174.785C42.677 175.947 43.0611 177.067 43.6647 178.071C46.0587 182.434 51.8262 184.574 56.4919 185.252C61.9601 186.038 73.8624 182.501 73.8624 182.501Z" fill="#5F8A28"/>
<path d="M63.5383 153.712C63.6607 153.712 58.0973 147.182 57.662 146.803C53.0371 142.535 41.5565 136.994 35.3946 140.449C34.3829 141.049 33.51 141.855 32.8332 142.815C32.1564 143.774 31.691 144.866 31.4675 146.017C31.244 147.168 31.2675 148.354 31.5364 149.496C31.8052 150.637 32.3135 151.71 33.0277 152.642C35.8979 156.706 41.8558 158.224 46.6303 158.373C52.0985 158.535 63.5383 153.726 63.5383 153.712Z" fill="#5F8A28"/>
<path d="M48.6979 129.923C48.8203 129.923 46.8615 121.604 46.6847 121.089C44.5491 115.169 36.9317 104.994 29.8583 105.225C28.686 105.296 27.5417 105.612 26.5001 106.152C25.4585 106.693 24.5428 107.446 23.8127 108.362C23.0826 109.278 22.5544 110.338 22.2625 111.471C21.9706 112.604 21.9215 113.785 22.1185 114.939C22.7986 119.87 27.3827 123.934 31.4906 126.238C36.3196 128.947 48.6843 129.923 48.6979 129.923Z" fill="#5F8A28"/>
<path d="M102.074 333.384C102.074 333.384 100.619 330.064 98.3335 324.252C96.0483 318.44 92.8925 310.054 89.5463 299.866C87.8732 294.772 86.1728 289.218 84.5133 283.297C83.67 280.317 82.9082 277.323 82.0785 274.112C81.7248 272.54 81.3847 270.955 81.0311 269.357C80.6774 267.758 80.4325 266.064 80.1333 264.398C79.0596 257.564 78.3648 250.675 78.0521 243.765C77.712 236.733 77.576 229.621 77.3992 222.508C77.2223 215.396 77.0455 208.31 76.4742 201.374C75.9759 194.58 74.9987 187.83 73.5496 181.174C72.0901 174.974 70.078 168.917 67.5373 163.074C65.2683 157.817 62.693 152.696 59.8246 147.738C57.1993 143.091 54.506 139.013 52.0984 135.409C49.6907 131.806 47.4327 128.771 45.5419 126.292C41.7604 121.333 39.3936 118.678 39.3936 118.678C39.3936 118.678 41.8148 121.292 45.7188 126.156C47.6503 128.608 49.9628 131.575 52.52 135.152C55.0773 138.729 57.7978 142.739 60.532 147.345C63.5468 152.273 66.2719 157.371 68.6935 162.613C71.4067 168.47 73.5962 174.554 75.2364 180.794C76.8508 187.48 77.9917 194.271 78.6506 201.116C79.3715 208.12 79.7388 215.247 80.0109 222.359C80.2829 229.472 80.623 236.557 81.1127 243.507C81.5711 250.285 82.3975 257.032 83.5883 263.721C83.9284 265.333 84.1324 266.904 84.5541 268.503C84.9758 270.102 85.3295 271.673 85.7103 273.231C86.5537 276.198 87.4107 279.287 88.3084 282.173C90.0632 287.985 91.8723 293.445 93.6406 298.43C97.1501 308.456 100.442 316.666 102.85 322.383C105.257 328.1 106.74 331.27 106.74 331.27C106.964 331.856 106.957 332.505 106.72 333.086C106.484 333.667 106.035 334.137 105.464 334.401C104.893 334.666 104.243 334.705 103.644 334.511C103.046 334.317 102.543 333.905 102.237 333.356L102.074 333.384Z" fill="#5F8A28"/>
<path d="M134.108 280.872C133.986 280.872 135.904 272.54 136.081 272.025C138.176 266.105 145.739 255.876 152.798 256.066C153.971 256.129 155.117 256.437 156.162 256.97C157.206 257.503 158.127 258.25 158.862 259.162C159.598 260.073 160.132 261.129 160.43 262.26C160.728 263.391 160.784 264.572 160.593 265.726C159.953 270.657 155.396 274.762 151.302 277.092C146.432 279.829 134.19 280.872 134.108 280.872Z" fill="#5F8A28"/>
<path d="M134.898 246.976C134.775 246.976 137.931 239.009 138.189 238.535C141.168 232.981 150.187 224.012 157.138 225.272C158.287 225.511 159.374 225.989 160.326 226.675C161.278 227.36 162.074 228.237 162.663 229.25C163.252 230.262 163.62 231.386 163.744 232.55C163.868 233.713 163.744 234.889 163.381 236.002C162.021 240.784 156.866 244.131 152.499 245.824C147.289 247.802 134.911 246.976 134.898 246.976Z" fill="#5F8A28"/>
<path d="M143.712 209.299C143.576 209.299 146.732 201.333 146.99 200.858C149.969 195.317 159.001 186.349 165.952 187.595C167.102 187.836 168.189 188.316 169.14 189.002C170.092 189.689 170.887 190.568 171.475 191.582C172.063 192.595 172.43 193.721 172.552 194.885C172.673 196.049 172.548 197.226 172.182 198.339C170.822 203.107 165.667 206.467 161.3 208.161C156.158 210.139 143.712 209.299 143.712 209.299Z" fill="#5F8A28"/>
<path d="M150.391 173.356C150.255 173.356 153.411 165.404 153.669 164.916C156.648 159.375 165.68 150.407 172.631 151.667C173.781 151.906 174.867 152.384 175.818 153.069C176.77 153.755 177.566 154.632 178.154 155.645C178.741 156.657 179.108 157.782 179.23 158.945C179.352 160.109 179.226 161.285 178.861 162.396C177.501 167.179 172.346 170.525 167.979 172.218C162.756 174.196 150.391 173.356 150.391 173.356Z" fill="#5F8A28"/>
<path d="M147.575 142.075C147.439 142.075 148.378 133.607 148.5 133.079C149.86 126.942 156.226 115.914 163.272 115.304C164.444 115.235 165.618 115.411 166.717 115.823C167.815 116.235 168.815 116.872 169.65 117.694C170.485 118.515 171.138 119.503 171.564 120.592C171.991 121.681 172.183 122.848 172.128 124.016C172.128 128.988 168.047 133.58 164.211 136.358C159.749 139.623 147.575 142.075 147.575 142.075Z" fill="#5F8A28"/>
<path d="M130.681 279.951C130.803 279.951 129.443 271.524 129.32 271.009C127.62 264.954 120.751 254.251 113.691 253.98C112.516 253.967 111.351 254.2 110.272 254.665C109.193 255.131 108.225 255.817 107.431 256.68C106.637 257.543 106.034 258.563 105.661 259.673C105.289 260.783 105.156 261.96 105.271 263.125C105.584 268.083 109.869 272.473 113.8 275.06C118.397 278.109 130.667 279.951 130.681 279.951Z" fill="#5F8A28"/>
<path d="M134.408 242.261C134.544 242.261 131.905 234.132 131.687 233.617C129.076 227.886 120.656 218.349 113.637 219.148C112.474 219.313 111.359 219.721 110.364 220.344C109.37 220.967 108.518 221.791 107.865 222.764C107.212 223.737 106.772 224.835 106.573 225.989C106.375 227.142 106.422 228.324 106.713 229.458C107.774 234.308 112.685 238.007 116.956 239.971C121.948 242.288 134.394 242.261 134.408 242.261Z" fill="#5F8A28"/>
<path d="M142.841 206.738C142.964 206.738 140.338 198.61 140.121 198.095C137.523 192.378 129.103 182.84 122.084 183.639C120.917 183.802 119.797 184.209 118.799 184.833C117.8 185.457 116.946 186.284 116.291 187.26C115.636 188.236 115.195 189.339 114.998 190.497C114.801 191.654 114.851 192.84 115.147 193.976C116.221 198.84 121.118 202.525 125.403 204.489C130.422 206.765 142.828 206.738 142.841 206.738Z" fill="#5F8A28"/>
<path d="M149.003 173.655C149.139 173.655 146.5 165.526 146.283 165.011C143.671 159.294 135.265 149.743 128.232 150.556C127.07 150.719 125.955 151.125 124.96 151.747C123.966 152.369 123.114 153.192 122.461 154.164C121.808 155.135 121.367 156.233 121.169 157.385C120.97 158.538 121.018 159.719 121.308 160.852C122.369 165.716 127.28 169.401 131.565 171.365C136.584 173.655 149.003 173.655 149.003 173.655Z" fill="#5F8A28"/>
<path d="M147.317 143.159C147.453 143.159 143.943 135.342 143.658 134.867C140.434 129.448 131.021 120.899 124.124 122.471C122.986 122.761 121.922 123.287 121.002 124.015C120.082 124.742 119.327 125.655 118.785 126.693C118.243 127.732 117.928 128.872 117.858 130.04C117.789 131.208 117.968 132.377 118.384 133.472C119.975 138.173 125.253 141.303 129.729 142.793C134.979 144.541 147.317 143.159 147.317 143.159Z" fill="#5F8A28"/>
<path d="M139.89 116.144C139.998 116.144 140.502 107.65 140.461 107.108C140.107 100.822 135.714 88.8996 128.871 87.1248C127.727 86.8616 126.54 86.8413 125.388 87.0653C124.235 87.2892 123.142 87.7524 122.181 88.4246C121.22 89.0968 120.412 89.963 119.809 90.9668C119.207 91.9707 118.823 93.0897 118.683 94.251C117.921 99.1689 121.159 104.371 124.437 107.799C128.287 111.701 139.876 116.131 139.89 116.144Z" fill="#5F8A28"/>
<path d="M132.993 326.325C132.993 326.325 132.531 322.735 132 316.503C131.47 310.271 130.83 301.357 130.545 290.64C130.395 285.221 130.341 279.477 130.449 273.326C130.449 270.237 130.613 267.148 130.735 263.843C130.844 262.244 130.966 260.618 131.075 258.993C131.184 257.367 131.456 255.66 131.633 253.98C132.565 247.141 133.868 240.357 135.537 233.658C137.21 226.816 139.114 219.948 140.978 213.092C142.841 206.237 144.678 199.382 146.119 192.554C147.58 185.903 148.566 179.157 149.071 172.368C149.421 166.007 149.203 159.628 148.418 153.306C147.746 147.62 146.738 141.979 145.399 136.412C144.202 131.209 142.8 126.535 141.522 122.403C140.243 118.271 138.924 114.708 137.836 111.809C135.618 105.983 134.108 102.759 134.108 102.759C134.108 102.759 135.686 105.956 138.026 111.728C139.196 114.613 140.542 118.149 141.957 122.254C143.372 126.359 144.841 131.033 146.147 136.222C147.615 141.796 148.755 147.451 149.561 153.157C150.497 159.543 150.861 165.999 150.649 172.449C150.286 179.337 149.436 186.191 148.105 192.96C146.745 199.87 145.113 206.806 143.385 213.716C141.658 220.625 139.917 227.507 138.407 234.308C136.907 240.934 135.772 247.637 135.006 254.386C134.87 256.026 134.625 257.584 134.571 259.236C134.516 260.889 134.408 262.501 134.326 264.1C134.326 267.189 134.231 270.386 134.326 273.407C134.326 279.49 134.53 285.235 134.802 290.532C135.305 301.14 136.162 309.959 136.802 316.097C137.441 322.234 137.985 325.729 137.985 325.729C138.032 326.05 138.016 326.377 137.936 326.692C137.857 327.007 137.715 327.303 137.521 327.563C137.326 327.824 137.082 328.043 136.803 328.21C136.523 328.376 136.213 328.486 135.89 328.534C135.568 328.581 135.239 328.564 134.923 328.485C134.607 328.405 134.31 328.265 134.049 328.071C133.787 327.877 133.567 327.634 133.399 327.356C133.232 327.077 133.122 326.768 133.075 326.447V326.379L132.993 326.325Z" fill="#5F8A28"/>
<path d="M148.772 415.903H91.1787L74.978 321.963H164.973L148.772 415.903Z" fill="#2E353A"/>
<path d="M249.602 424.79C318.77 424.79 374.841 368.945 374.841 300.056C374.841 231.167 318.77 175.321 249.602 175.321C180.435 175.321 124.363 231.167 124.363 300.056C124.363 368.945 180.435 424.79 249.602 424.79Z" fill="#7708B2"/>
<path d="M249.602 425.413C224.708 425.413 200.374 418.061 179.675 404.287C158.977 390.512 142.845 370.934 133.318 348.028C123.792 325.122 121.299 299.916 126.156 275.599C131.012 251.282 143 228.946 160.602 211.414C178.205 193.883 200.632 181.943 225.047 177.106C249.462 172.269 274.77 174.752 297.768 184.24C320.767 193.728 340.424 209.795 354.255 230.41C368.085 251.025 375.467 275.262 375.467 300.056C375.427 333.29 362.154 365.153 338.558 388.653C314.962 412.154 282.971 425.374 249.602 425.413ZM249.602 175.931C224.953 175.931 200.858 183.21 180.363 196.849C159.868 210.488 143.895 229.874 134.462 252.555C125.029 275.236 122.561 300.193 127.37 324.271C132.179 348.349 144.048 370.466 161.478 387.825C178.907 405.184 201.113 417.006 225.289 421.796C249.464 426.585 274.522 424.127 297.295 414.732C320.067 405.337 339.531 389.428 353.225 369.016C366.92 348.603 374.229 324.605 374.229 300.056C374.196 267.145 361.056 235.593 337.691 212.322C314.326 189.051 282.645 175.963 249.602 175.931Z" fill="#2E353A"/>
<path d="M216.425 382.088C205.831 378.194 196.12 372.239 187.86 364.57C179.527 356.592 173.07 346.877 168.952 336.12C164.283 324.058 161.97 311.22 162.137 298.294C162.048 287.258 164.003 276.299 167.905 265.969C171.432 256.493 176.716 247.761 183.48 240.228C196.847 225.63 214.133 215.151 233.292 210.03C242.693 207.518 252.383 206.243 262.116 206.236C270.192 206.207 278.241 207.163 286.084 209.082C293.663 210.95 300.917 213.941 307.603 217.955C314.212 221.917 320.133 226.918 325.137 232.763C330.374 239.044 334.366 246.257 336.903 254.02C339.841 262.857 341.289 272.118 341.188 281.427C341.087 299.336 334.647 316.635 323.002 330.281C317.968 336.006 311.987 340.831 305.318 344.546C299.579 347.862 293.085 349.662 286.451 349.776C281.898 349.831 277.452 348.404 273.787 345.712C271.937 344.358 270.431 342.592 269.39 340.555C268.348 338.517 267.8 336.265 267.789 333.979C260.026 344.872 249.525 350.318 236.285 350.318C225.503 350.318 216.888 346.646 210.44 339.303C203.993 331.96 200.782 322.929 200.81 312.208C200.839 304.052 202.265 295.961 205.026 288.282C207.728 280.519 211.599 273.21 216.507 266.606C221.378 260.093 227.599 254.701 234.748 250.795C241.877 246.784 249.929 244.684 258.117 244.699C263.806 244.641 269.418 246.006 274.44 248.668C279.334 251.254 283.302 255.286 285.798 260.211L286.859 256.77C287.345 255.324 288.166 254.014 289.256 252.944C290.346 251.875 291.675 251.077 293.134 250.616C294.592 250.155 296.14 250.044 297.649 250.292C299.159 250.54 300.589 251.139 301.822 252.042C302.609 252.681 303.234 253.497 303.645 254.422C304.056 255.347 304.243 256.356 304.189 257.366C304.19 258.334 304.029 259.296 303.713 260.211L286.832 316.096C284.928 322.491 283.976 326.876 283.976 329.251C283.976 333.279 286.039 335.289 290.165 335.28C295.551 335.28 300.843 332.814 306.039 327.883C311.638 322.319 315.958 315.612 318.703 308.225C321.935 300.143 323.588 291.521 323.573 282.822C323.652 275.158 322.528 267.529 320.24 260.211C318.343 253.901 315.316 247.984 311.303 242.748C307.494 237.977 302.893 233.89 297.701 230.663C292.516 227.412 286.859 224.976 280.929 223.442C274.853 221.865 268.599 221.068 262.32 221.071C254.337 221.081 246.394 222.199 238.72 224.391C230.841 226.636 223.331 230.009 216.425 234.402C209.461 238.783 203.154 244.124 197.695 250.267C192.063 256.735 187.674 264.179 184.745 272.228C181.488 281.003 179.856 290.294 179.93 299.649C179.753 310.731 181.773 321.739 185.874 332.042C189.374 340.977 194.933 348.968 202.102 355.371C209.013 361.361 216.997 365.999 225.634 369.041C234.739 372.251 244.337 373.856 253.996 373.783C264.321 373.801 274.587 372.243 284.438 369.163C285.432 368.828 286.477 368.668 287.526 368.689C288.523 368.648 289.518 368.824 290.44 369.202C291.363 369.581 292.193 370.155 292.872 370.883C294.177 372.233 294.903 374.036 294.899 375.91C295.028 377.417 294.604 378.92 293.706 380.141C292.809 381.361 291.497 382.216 290.015 382.548C277.721 386.294 264.947 388.247 252.091 388.347C239.919 388.437 227.833 386.316 216.425 382.088ZM259.409 328.33C264.538 324.644 268.351 319.422 270.292 313.427L281.174 275.303L280.453 273.759C279.761 272.502 278.925 271.329 277.963 270.264C276.663 268.775 275.248 267.389 273.733 266.118C271.786 264.557 269.575 263.355 267.204 262.568C261.045 260.397 254.29 260.63 248.296 263.219C245.038 264.617 242.043 266.56 239.441 268.963C236.725 271.482 234.311 274.305 232.245 277.376C230.089 280.555 228.265 283.947 226.804 287.496C225.34 291.034 224.206 294.698 223.417 298.443C222.638 302.004 222.237 305.637 222.22 309.281C222.206 311.618 222.346 313.954 222.642 316.272C222.894 318.326 223.35 320.35 224.002 322.314C224.578 324.093 225.397 325.785 226.437 327.341C227.396 328.781 228.603 330.042 230.001 331.066C231.488 332.149 233.161 332.952 234.938 333.437C237.028 334.016 239.19 334.294 241.359 334.264C247.87 334.333 254.219 332.246 259.409 328.33Z" fill="white"/>
<path d="M419.92 195.155C419.92 195.155 415.839 202.715 415.241 203.771C414.642 204.828 412.452 210.545 413.105 211.9C413.758 213.255 414.384 214.027 415.676 214.244C416.968 214.46 418.029 216.804 420.165 217.224C421.509 217.489 422.875 217.634 424.246 217.658C424.582 217.904 424.97 218.069 425.38 218.142C425.79 218.215 426.212 218.193 426.613 218.078C427.891 217.658 428.966 217.021 429.823 213.39C430.346 211.592 430.49 209.705 430.244 207.849L429.864 200.52L419.92 195.155Z" fill="#FFE0BD"/>
<path d="M425.851 218.864C425.205 218.855 424.574 218.667 424.028 218.322C422.685 218.286 421.347 218.136 420.029 217.875C418.807 217.543 417.712 216.854 416.887 215.897C416.52 215.46 416.054 215.116 415.527 214.894C414.827 214.739 414.179 214.408 413.644 213.934C413.108 213.46 412.703 212.858 412.466 212.185C411.582 210.437 414.153 204.219 414.629 203.433C415.255 202.39 419.254 194.911 419.295 194.83C419.384 194.674 419.53 194.557 419.703 194.505C419.869 194.438 420.054 194.438 420.22 194.505L430.149 199.856C430.251 199.914 430.337 199.997 430.398 200.096C430.46 200.195 430.496 200.308 430.503 200.425L430.884 207.741C431.133 209.662 430.98 211.613 430.435 213.472C429.592 217.089 428.49 218.092 426.776 218.661C426.48 218.776 426.168 218.845 425.851 218.864ZM420.206 196.076C419.227 197.892 416.37 203.216 415.826 204.124C415.078 205.357 413.282 210.735 413.704 211.575C414.384 212.93 414.901 213.417 415.785 213.567C416.59 213.804 417.306 214.276 417.839 214.921C418.481 215.693 419.338 216.258 420.301 216.547C421.597 216.797 422.912 216.937 424.232 216.967C424.39 216.967 424.543 217.019 424.668 217.116C424.912 217.293 425.192 217.412 425.489 217.466C425.786 217.52 426.091 217.507 426.382 217.428C427.32 217.116 428.299 216.791 429.102 213.228C429.596 211.522 429.739 209.734 429.524 207.971L429.156 200.926L420.206 196.076Z" fill="#2E353A"/>
<path d="M443.507 398.711C443.507 398.711 437.699 408.127 437.699 410.403C437.699 412.679 445.697 416.865 449.125 418.382C452.553 419.9 458.647 421.092 463.598 421.796C468.549 422.501 478.833 424.506 475.84 420.658C472.848 416.811 454.457 406.677 453.695 405.471C452.752 404.345 451.694 403.319 450.54 402.409L443.507 398.711Z" fill="white"/>
<path d="M473.365 423.612C470.462 423.494 467.571 423.173 464.713 422.65L463.489 422.46C456.579 421.403 451.655 420.238 448.853 418.992C448.363 418.775 437.019 413.722 437.019 410.403C437.019 408.005 442.324 399.334 442.922 398.345C443.015 398.201 443.158 398.096 443.324 398.051C443.49 398.006 443.666 398.024 443.82 398.101L450.852 401.813C452.115 402.775 453.261 403.88 454.267 405.106C454.593 405.485 457.586 407.354 460.483 409.17C466.659 413.004 474.33 417.786 476.316 420.252C477.037 421.146 477.214 421.918 476.833 422.555C476.452 423.192 475.255 423.612 473.365 423.612ZM443.711 399.605C441.507 403.236 438.338 408.967 438.338 410.443C438.338 411.92 444.16 415.497 449.356 417.8C452.077 418.992 456.865 420.116 463.666 421.16L464.877 421.349C467.38 421.742 474.997 422.948 475.623 421.891C475.623 421.891 475.623 421.62 475.215 421.119C473.378 418.829 465.489 413.912 459.721 410.281C455.083 407.395 453.423 406.338 453.083 405.837C452.181 404.765 451.169 403.788 450.063 402.924L443.711 399.605Z" fill="#2E353A"/>
<path d="M452.607 413.546L454.647 416.581C456.842 419.897 459.822 422.623 463.326 424.52C468.767 427.446 477.146 430.792 484.464 428.787C496.462 425.495 466.264 407.355 466.264 407.355C466.264 407.355 455.504 414.806 452.607 413.546Z" fill="white"/>
<path d="M479.703 430.074C473.664 430.074 467.461 427.554 462.999 425.116C459.404 423.172 456.34 420.381 454.076 416.987L452.036 413.939C451.951 413.823 451.905 413.683 451.905 413.539C451.905 413.395 451.951 413.255 452.036 413.139C452.132 413.026 452.261 412.947 452.406 412.913C452.55 412.879 452.702 412.892 452.838 412.95C454.593 413.708 461.49 409.82 465.829 406.826C465.937 406.753 466.065 406.714 466.196 406.714C466.327 406.714 466.455 406.753 466.563 406.826C468.835 408.181 488.749 420.374 487.892 426.552C487.702 427.906 486.532 428.936 484.6 429.478C483.002 429.894 481.355 430.095 479.703 430.074ZM453.94 414.305L455.205 416.215C457.344 419.43 460.239 422.076 463.639 423.923C469.189 426.904 477.241 430.061 484.287 428.137C486.409 427.541 486.545 426.619 486.586 426.321C487.198 421.891 472.48 411.934 466.278 408.167C464.115 409.604 457.613 413.871 453.94 414.305Z" fill="#2E353A"/>
<path d="M456.062 414.982C459.367 419.961 464.375 423.577 470.154 425.156C480.016 427.961 482.846 427.256 484.954 424.452" fill="white"/>
<path d="M479.567 427.622C476.305 427.438 473.08 426.828 469.977 425.807C464.015 424.203 458.854 420.471 455.477 415.321C455.431 415.244 455.401 415.16 455.388 415.072C455.376 414.984 455.381 414.894 455.404 414.808C455.427 414.722 455.467 414.642 455.521 414.572C455.576 414.501 455.644 414.443 455.722 414.399C455.879 414.31 456.066 414.285 456.241 414.331C456.417 414.376 456.567 414.488 456.66 414.643C459.894 419.452 464.748 422.95 470.345 424.506C479.962 427.216 482.587 426.538 484.41 424.045C484.52 423.905 484.681 423.812 484.858 423.787C485.036 423.761 485.216 423.806 485.362 423.91C485.506 424.018 485.602 424.178 485.627 424.356C485.653 424.534 485.606 424.715 485.498 424.858C484.832 425.788 483.936 426.531 482.897 427.016C481.858 427.5 480.711 427.709 479.567 427.622Z" fill="#2E353A"/>
<path d="M438.447 408.668C438.447 408.668 449.329 416.432 454.647 416.581L438.447 408.668Z" fill="white"/>
<path d="M454.593 417.258C449.152 417.109 438.474 409.535 438.025 409.224C437.881 409.116 437.786 408.957 437.758 408.78C437.73 408.603 437.772 408.422 437.875 408.275C437.926 408.203 437.99 408.141 438.065 408.093C438.139 408.045 438.223 408.013 438.31 407.998C438.398 407.982 438.487 407.985 438.574 408.005C438.66 408.024 438.742 408.061 438.814 408.113C438.923 408.194 449.601 415.768 454.634 415.903C454.815 415.91 454.987 415.988 455.111 416.12C455.236 416.251 455.304 416.426 455.3 416.607C455.297 416.696 455.276 416.784 455.238 416.865C455.201 416.946 455.148 417.018 455.082 417.079C455.016 417.139 454.939 417.186 454.855 417.217C454.771 417.247 454.682 417.261 454.593 417.258Z" fill="#2E353A"/>
<path d="M414.819 197.756C414.819 197.756 424.477 213.702 426.544 217.401C428.612 221.099 454.675 250.782 465.013 276.334C475.351 301.885 485.294 324.943 484.872 332.367C484.451 339.792 450.512 402.41 450.512 402.41L443.48 398.711C443.48 398.711 454.226 339.778 453.001 333.6C451.777 327.422 413.785 266.024 413.785 266.024C413.785 266.024 395.993 253.668 388.552 239.24" fill="#2E353A"/>
<path d="M416.193 237.6C416.193 237.6 410.82 249.129 410.82 250.782C410.82 252.435 441.018 341.024 449.71 361.21C455.212 374.141 460.042 387.345 464.183 400.77C464.183 400.77 467.502 404.834 465.013 409.007C462.523 413.18 452.607 416.011 450.539 412.299C448.472 408.587 428.19 389.268 419.512 369.867C410.834 350.467 398.414 317.532 391.368 305.176C382.086 289.356 373.8 272.977 366.557 256.133C357.443 234.714 348.071 211.493 348.071 211.493C360.355 212.516 372.721 211.135 384.472 207.429C403.515 201.251 411.677 189.424 411.677 189.424C411.677 189.424 416.519 201.752 417.757 204.137" fill="#2E353A"/>
<path d="M419.036 272.391C418.942 272.39 418.85 272.361 418.773 272.308C418.695 272.255 418.635 272.18 418.601 272.093L409.079 247.436C409.046 247.344 409.041 247.245 409.066 247.151C409.09 247.057 409.142 246.972 409.215 246.908L419.879 237.803C419.97 237.72 420.089 237.673 420.212 237.673C420.336 237.673 420.455 237.72 420.546 237.803C420.629 237.891 420.675 238.008 420.675 238.128C420.675 238.249 420.629 238.366 420.546 238.454L410.126 247.355L419.526 271.741C419.571 271.856 419.569 271.984 419.521 272.098C419.472 272.212 419.381 272.303 419.267 272.351L419.036 272.391Z" fill="white"/>
<path d="M409.5 247.721C409.384 247.722 409.272 247.678 409.187 247.599C409.14 247.556 409.103 247.503 409.077 247.445C409.051 247.387 409.038 247.324 409.038 247.26C409.038 247.192 409.038 239.755 405.692 235.067C404.862 233.861 404.195 232.913 403.638 232.141C401.896 229.675 401.366 228.93 401.053 227.697C400.837 226.255 400.837 224.79 401.053 223.348C401.076 223.229 401.144 223.122 401.242 223.049C401.34 222.976 401.462 222.943 401.584 222.955C401.645 222.964 401.703 222.984 401.756 223.015C401.809 223.046 401.856 223.088 401.892 223.137C401.929 223.186 401.956 223.242 401.97 223.302C401.985 223.361 401.988 223.423 401.978 223.484C401.786 224.809 401.786 226.155 401.978 227.48C402.25 228.537 402.713 229.187 404.427 231.612C404.971 232.385 405.651 233.333 406.481 234.539C409.5 238.86 409.922 245.065 409.99 246.84L429.319 246.095C429.442 246.095 429.561 246.14 429.652 246.223C429.743 246.306 429.799 246.42 429.809 246.542C429.813 246.603 429.804 246.664 429.783 246.722C429.762 246.779 429.73 246.831 429.688 246.876C429.645 246.92 429.595 246.956 429.538 246.98C429.482 247.004 429.421 247.016 429.36 247.016L409.555 247.775L409.5 247.721Z" fill="white"/>
<path d="M474.276 335.429C465.665 335.429 454.729 329.874 454.239 329.63C454.131 329.573 454.05 329.475 454.014 329.358C453.979 329.241 453.991 329.115 454.049 329.007C454.076 328.953 454.114 328.904 454.161 328.864C454.207 328.824 454.261 328.794 454.319 328.775C454.377 328.756 454.439 328.749 454.5 328.754C454.561 328.759 454.62 328.776 454.675 328.804C454.797 328.872 467.23 335.185 475.745 334.44C475.807 334.434 475.869 334.441 475.928 334.46C475.987 334.479 476.042 334.51 476.089 334.55C476.136 334.591 476.174 334.64 476.202 334.696C476.229 334.751 476.245 334.812 476.248 334.873C476.254 334.934 476.247 334.995 476.229 335.053C476.211 335.111 476.181 335.165 476.142 335.211C476.103 335.258 476.055 335.296 476.001 335.324C475.947 335.352 475.887 335.369 475.827 335.375C475.323 335.415 474.806 335.429 474.276 335.429Z" fill="white"/>
<path d="M473.12 342.582H473.011C465.38 340.672 456.81 333.681 456.443 333.383C456.36 333.295 456.313 333.179 456.313 333.058C456.313 332.937 456.36 332.821 456.443 332.733C456.481 332.686 456.528 332.646 456.582 332.617C456.636 332.588 456.694 332.57 456.755 332.564C456.816 332.557 456.877 332.563 456.936 332.581C456.994 332.598 457.048 332.627 457.096 332.665C457.177 332.733 465.869 339.832 473.296 341.675C473.356 341.69 473.411 341.718 473.459 341.755C473.508 341.792 473.549 341.838 473.579 341.891C473.609 341.944 473.629 342.003 473.636 342.063C473.644 342.124 473.639 342.185 473.623 342.244C473.597 342.353 473.531 342.448 473.437 342.511C473.344 342.574 473.231 342.599 473.12 342.582Z" fill="white"/>
<path d="M409.119 240.513C409.046 240.513 408.973 240.496 408.907 240.463C408.84 240.43 408.783 240.382 408.739 240.323C408.703 240.273 408.678 240.216 408.664 240.156C408.651 240.095 408.65 240.033 408.662 239.972C408.673 239.912 408.696 239.854 408.731 239.803C408.765 239.751 408.809 239.707 408.861 239.673C410.697 238.4 413.608 235.947 413.608 234.742C413.608 233.942 412.615 232.994 411.554 232.032C410.38 231.055 409.41 229.859 408.698 228.51C408.004 226.898 405.515 220.571 405.977 219.026C405.996 218.968 406.026 218.915 406.065 218.868C406.105 218.822 406.153 218.784 406.207 218.756C406.262 218.728 406.321 218.711 406.382 218.707C406.443 218.702 406.504 218.709 406.562 218.728C406.681 218.768 406.779 218.854 406.835 218.965C406.891 219.077 406.9 219.206 406.861 219.324C406.576 220.151 408.058 224.743 409.514 228.103C410.179 229.328 411.075 230.414 412.153 231.301C413.418 232.506 414.506 233.536 414.506 234.728C414.506 236.814 409.881 240.052 409.351 240.418C409.283 240.469 409.204 240.502 409.119 240.513Z" fill="white"/>
<path d="M363.796 243.169C363.697 243.173 363.6 243.145 363.519 243.091C363.437 243.036 363.375 242.957 363.342 242.865C363.309 242.773 363.306 242.672 363.333 242.578C363.361 242.484 363.418 242.402 363.496 242.342L367.305 239.308C370.964 236.408 373.222 228.998 373.249 228.917C373.287 228.799 373.369 228.701 373.478 228.643C373.588 228.584 373.715 228.571 373.834 228.605C373.952 228.642 374.051 228.724 374.109 228.833C374.168 228.942 374.181 229.069 374.147 229.187C374.052 229.499 371.767 236.95 367.89 240.026L364.081 243.06C364.002 243.129 363.901 243.167 363.796 243.169Z" fill="white"/>
<path d="M454.226 414.142C454.157 414.14 454.091 414.123 454.03 414.092C453.969 414.062 453.915 414.019 453.872 413.966C449.002 408.02 444.604 401.706 440.718 395.08C435.454 385.705 420.314 360.059 420.151 359.856C418.749 356.77 417.708 353.533 417.05 350.21C416.955 349.695 416.887 349.221 416.819 348.855C416.315 345.441 416.098 344.032 411.541 341.106C406.984 338.179 406.698 333.085 406.317 327.626C406.236 326.339 406.14 325.011 405.991 323.697C405.379 318.278 390.933 293.892 380.391 276.171C377.997 272.107 375.82 268.476 374.052 265.455C364.612 249.279 358.083 228.008 358.015 227.792C357.98 227.673 357.994 227.546 358.052 227.437C358.111 227.328 358.209 227.247 358.327 227.209C358.385 227.191 358.447 227.184 358.507 227.19C358.568 227.196 358.627 227.214 358.68 227.243C358.734 227.272 358.781 227.312 358.818 227.359C358.856 227.407 358.883 227.462 358.899 227.521C358.967 227.738 365.469 248.913 374.855 264.98C376.623 268.002 378.799 271.673 381.193 275.697C391.79 293.512 406.29 317.925 406.916 323.588C407.065 324.943 407.161 326.298 407.256 327.571C407.623 332.991 407.936 337.705 412.044 340.333C416.955 343.477 417.199 345.116 417.744 348.706C417.744 349.153 417.88 349.614 417.961 350.129C418.607 353.353 419.62 356.494 420.981 359.49C421.103 359.72 436.257 385.366 441.534 394.714C445.396 401.286 449.762 407.55 454.593 413.451C454.632 413.498 454.66 413.552 454.678 413.61C454.695 413.669 454.701 413.73 454.695 413.79C454.688 413.851 454.67 413.909 454.641 413.963C454.612 414.016 454.572 414.063 454.525 414.101C454.432 414.147 454.327 414.161 454.226 414.142Z" fill="white"/>
<path d="M348.071 211.494C348.071 211.494 348.942 221.086 352.751 224.12C356.559 227.155 367.985 229.81 383.601 226.83C399.217 223.849 416.356 210.573 417.88 205.966C419.403 201.36 411.65 189.438 411.65 189.438C411.65 189.438 402.645 202.173 377.507 206.346C352.37 210.518 348.071 211.494 348.071 211.494Z" fill="#FFE092"/>
<path d="M370.366 228.794C361.157 228.794 354.845 226.667 352.315 224.649C348.33 221.465 347.432 211.968 347.391 211.561C347.377 211.4 347.421 211.239 347.516 211.107C347.611 210.975 347.75 210.882 347.908 210.843C348.085 210.843 352.519 209.746 377.398 205.614C401.883 201.549 410.997 189.112 411.092 188.991C411.156 188.903 411.24 188.831 411.337 188.782C411.434 188.733 411.541 188.707 411.65 188.706C411.761 188.708 411.87 188.738 411.968 188.793C412.065 188.847 412.147 188.924 412.207 189.018C413.024 190.264 420.097 201.4 418.519 206.129C416.846 211.114 399.312 224.405 383.724 227.439C379.325 228.317 374.852 228.771 370.366 228.794ZM348.819 212.035C349.078 214.122 350.18 221.194 353.172 223.592C356.573 226.301 367.468 229.228 383.465 226.112C399.19 223.05 415.88 209.759 417.24 205.695C418.315 202.471 413.921 194.328 411.582 190.562C409.16 193.448 399.448 203.338 377.575 206.955C357.416 210.315 350.642 211.588 348.819 212.035Z" fill="#2E353A"/>
<path d="M448.472 118.515C442.255 114.451 393.857 76.896 389.3 75.2431C384.744 73.5903 375.698 75.2431 375.698 75.2431C375.698 75.2431 347.649 78.6572 341.773 81.0145C341.215 81.2313 328.578 88.4658 328.17 88.8452C323.614 92.5573 303.686 101.689 298.326 113.231C292.246 126.291 345.677 204.923 348.166 211.507C350.655 218.092 363.7 219.717 375.698 218.065C387.695 216.412 398.224 214 406.916 204.097C408.492 202.124 409.812 199.962 410.847 197.662C412.089 195.091 412.406 192.173 411.745 189.397C408.643 176.527 400.727 139.419 395.503 114.884C404.209 120.479 422.314 131.846 432.842 135.856C446.907 141.275 457.667 137.509 457.667 132.971C457.667 128.432 454.674 122.634 448.472 118.515Z" fill="#FFE092"/>
<path d="M431.673 126.522C423.379 125.707 415.347 123.183 408.086 119.111C408.086 119.111 418.845 114.166 419.253 111.687C419.661 109.208 404.359 111.281 406.426 110.454C408.494 109.628 411.391 107.568 406.426 107.568C402.468 107.309 398.569 106.479 394.85 105.103L395.408 114.844C400.142 117.892 407.65 122.62 415.186 126.955C422.274 130.667 429.573 133.964 437.046 136.832C437.046 136.832 446.146 128.175 431.673 126.522Z" fill="#FFE092"/>
<path d="M320.757 102.84C329.912 101.485 355.43 115.982 355.43 115.982C341.406 106.498 329.136 97.6107 320.743 93.6006L305.277 104.439L304.216 105.428C306.012 105.076 312.895 103.951 320.757 102.84Z" fill="#3F87C7"/>
<path opacity="0.86" d="M320.757 102.84C329.912 101.485 355.43 115.982 355.43 115.982C341.406 106.498 329.136 97.6107 320.743 93.6006L305.277 104.439L304.216 105.428C306.012 105.076 312.895 103.951 320.757 102.84Z" fill="#FFE092"/>
<path d="M366.897 219.338C357.729 219.338 349.472 217.157 347.432 211.738C346.834 210.139 342.807 203.609 337.706 195.399C316.037 160.391 293.28 122.241 297.619 112.933C301.7 104.154 313.766 96.9061 321.75 92.1102C323.785 90.9589 325.751 89.6923 327.64 88.3168C328.13 87.9239 340.794 80.6623 341.474 80.3913C347.378 78.0204 374.42 74.7147 375.576 74.5793C375.916 74.5115 384.866 72.9129 389.532 74.5793C392.552 75.6766 413.241 91.2702 429.864 103.802C438.869 110.576 446.636 116.456 448.839 117.919C455.777 122.525 458.252 128.676 458.252 132.903C458.202 133.687 457.958 134.447 457.54 135.114C457.122 135.781 456.544 136.334 455.858 136.723C451.845 139.433 443.072 140.449 432.503 136.425C425.116 133.607 412.656 126.657 396.415 116.266C401.856 142.075 409.324 176.838 412.303 189.194C413.004 192.123 412.673 195.204 411.364 197.919C410.301 200.283 408.929 202.497 407.283 204.503C398.197 214.84 387.138 217.116 375.657 218.688C372.756 219.104 369.829 219.321 366.897 219.338ZM383.765 75.1889C381.089 75.2291 378.42 75.4692 375.78 75.907C375.453 75.907 347.718 79.3346 341.977 81.6377C341.229 81.9764 329.109 88.9264 328.497 89.3735C326.561 90.791 324.539 92.0895 322.444 93.2617C314.609 97.9764 302.775 105.103 298.857 113.583C294.45 123.067 323.342 169.685 338.862 194.762C344.399 203.704 348.058 209.665 348.711 211.331C351.118 217.726 364.286 218.986 375.508 217.441C386.73 215.897 397.53 213.688 406.304 203.704C407.846 201.779 409.135 199.667 410.14 197.417C411.309 194.989 411.607 192.235 410.983 189.614C407.936 176.987 400.264 141.018 394.742 115.101C394.715 114.968 394.728 114.831 394.779 114.706C394.829 114.581 394.916 114.473 395.027 114.396C395.139 114.324 395.269 114.285 395.402 114.285C395.534 114.285 395.665 114.324 395.776 114.396C412.616 125.235 425.484 132.456 432.992 135.301C443.031 139.135 451.492 138.227 455.083 135.761C455.577 135.483 455.999 135.093 456.313 134.622C456.628 134.152 456.826 133.613 456.892 133.052C456.892 129.177 454.58 123.5 448.091 119.192C445.847 117.702 438.066 111.836 429.048 105.035C413.364 93.2211 391.899 77.0314 389.07 76.0018C387.358 75.4445 385.566 75.1699 383.765 75.1889Z" fill="#2E353A"/>
<path d="M304.883 104.791C304.883 104.791 299.918 110.21 297.987 112.716C287.622 125.98 254.635 168.479 254.268 171.907C253.901 175.335 255.465 177.638 263.531 180.727C271.598 183.815 325.559 129.963 325.559 129.963" fill="#FFE092"/>
<g style="mix-blend-mode:multiply" opacity="0.8">
<path d="M304.964 104.953L304.271 105.4C303.264 106.511 301.088 108.936 299.401 110.928L274.345 143.66C274.345 143.66 273.57 144.527 272.346 145.963C262.946 158.44 254.757 169.699 254.254 171.704C254.254 171.771 254.254 171.839 254.254 171.893C253.928 175.131 255.506 177.597 263.531 180.672C264.959 181.214 267.789 179.995 271.502 177.624C269.615 177.246 267.813 176.53 266.184 175.511C261.627 172.625 265.354 169.739 265.354 169.739C265.354 169.739 271.271 172.097 277.106 173.682C278.317 172.774 279.582 171.798 280.874 170.769C279.631 169.958 278.453 169.052 277.351 168.059C272.386 163.534 268.251 158.996 268.251 158.996L306.175 106.281L304.964 104.953Z" fill="#FFE092"/>
</g>
<path d="M414.071 102.326L395.408 114.844C398.129 114.464 411.024 109.912 411.024 109.912" fill="#FFE092"/>
<path d="M395.408 115.521C395.272 115.523 395.138 115.482 395.025 115.405C394.913 115.327 394.828 115.216 394.783 115.087C394.725 114.946 394.718 114.79 394.763 114.645C394.807 114.499 394.901 114.373 395.027 114.288L413.704 101.77C413.777 101.719 413.859 101.683 413.946 101.664C414.033 101.645 414.123 101.644 414.21 101.661C414.298 101.677 414.381 101.711 414.455 101.76C414.53 101.809 414.593 101.872 414.642 101.946C414.742 102.097 414.777 102.282 414.742 102.459C414.706 102.636 414.602 102.793 414.452 102.894L399.149 113.164C403.842 111.728 410.711 109.316 410.806 109.275C410.987 109.216 411.183 109.231 411.353 109.316C411.523 109.401 411.652 109.55 411.711 109.729C411.771 109.909 411.756 110.105 411.671 110.274C411.585 110.443 411.436 110.571 411.255 110.63C410.725 110.806 398.21 115.209 395.504 115.589L395.408 115.521Z" fill="#2E353A"/>
<path d="M413.309 110.21C413.151 110.207 412.999 110.15 412.878 110.049C412.757 109.948 412.674 109.809 412.643 109.654C412.611 109.478 412.65 109.297 412.752 109.15C412.854 109.003 413.01 108.902 413.187 108.869L417.376 108.11C417.555 108.078 417.738 108.117 417.888 108.218C418.038 108.319 418.143 108.475 418.179 108.652C418.196 108.741 418.196 108.833 418.177 108.922C418.158 109.01 418.122 109.095 418.07 109.169C418.018 109.244 417.951 109.307 417.874 109.356C417.797 109.404 417.711 109.437 417.621 109.451L413.432 110.21H413.309Z" fill="#2E353A"/>
<path d="M275.039 158.752C272.159 158.666 269.295 159.207 266.646 160.337L275.039 158.752Z" fill="white"/>
<path d="M266.646 161.055C266.466 161.089 266.279 161.05 266.127 160.947C265.975 160.844 265.871 160.686 265.837 160.506C265.802 160.326 265.841 160.141 265.944 159.989C266.048 159.838 266.207 159.734 266.388 159.7C269.134 158.525 272.106 157.966 275.093 158.061C275.183 158.068 275.27 158.092 275.35 158.133C275.43 158.173 275.501 158.229 275.559 158.297C275.617 158.365 275.661 158.444 275.689 158.529C275.716 158.614 275.726 158.703 275.719 158.792C275.702 158.971 275.615 159.136 275.478 159.252C275.341 159.368 275.164 159.427 274.984 159.416C272.216 159.336 269.463 159.858 266.918 160.946C266.837 161.003 266.744 161.04 266.646 161.055Z" fill="#2E353A"/>
<path d="M315.71 140.178C315.71 140.178 326.198 136.981 328.973 134.854L315.71 140.178Z" fill="white"/>
<path d="M315.711 140.855C315.53 140.88 315.347 140.833 315.202 140.724C315.056 140.614 314.961 140.452 314.935 140.272C314.91 140.093 314.958 139.911 315.067 139.766C315.177 139.621 315.34 139.525 315.52 139.5C315.616 139.5 325.913 136.33 328.565 134.298C328.708 134.189 328.888 134.14 329.067 134.163C329.245 134.186 329.407 134.278 329.517 134.42C329.624 134.563 329.67 134.742 329.647 134.918C329.625 135.095 329.534 135.256 329.395 135.368C326.538 137.549 316.35 140.665 315.915 140.787C315.852 140.824 315.783 140.847 315.711 140.855Z" fill="#2E353A"/>
<path d="M331.544 133.797C331.544 133.797 333.258 132.307 333.897 132.307L331.544 133.797Z" fill="white"/>
<path d="M331.544 134.475C331.447 134.474 331.35 134.453 331.261 134.413C331.173 134.374 331.093 134.316 331.027 134.244C330.902 134.115 330.832 133.943 330.832 133.763C330.832 133.584 330.902 133.411 331.027 133.282C331.796 132.492 332.764 131.921 333.829 131.63C334.01 131.63 334.183 131.701 334.31 131.828C334.438 131.955 334.509 132.127 334.509 132.307C334.506 132.485 334.433 132.656 334.306 132.782C334.18 132.908 334.009 132.981 333.829 132.984C333.129 133.336 332.486 133.793 331.925 134.339C331.816 134.423 331.682 134.471 331.544 134.475Z" fill="#2E353A"/>
<path d="M395.408 115.521C395.24 115.519 395.078 115.456 394.953 115.344C394.828 115.231 394.748 115.078 394.728 114.911L393.028 97.5023C393.019 97.4133 393.027 97.3235 393.053 97.2379C393.079 97.1523 393.122 97.0726 393.179 97.0035C393.236 96.9343 393.306 96.8769 393.385 96.8346C393.464 96.7924 393.55 96.7661 393.64 96.7572C393.729 96.7483 393.819 96.757 393.905 96.7828C393.991 96.8086 394.071 96.851 394.141 96.9077C394.21 96.9643 394.268 97.0339 394.31 97.1127C394.352 97.1915 394.379 97.2779 394.388 97.3668L396.102 114.789C396.111 114.878 396.103 114.967 396.077 115.052C396.051 115.137 396.008 115.216 395.951 115.284C395.894 115.352 395.824 115.408 395.744 115.449C395.665 115.49 395.579 115.514 395.49 115.521H395.408Z" fill="#2E353A"/>
<path d="M254.227 172.083C254.227 172.083 251.819 181.255 267.258 185.062C274.59 186.864 323.11 198.61 323.11 198.61C323.11 198.61 327.45 189.343 324.974 189.343C322.498 189.343 277.759 159.714 277.759 159.714" fill="#FFE092"/>
<path d="M323.11 199.395H322.947C322.947 199.395 274.427 187.595 267.095 185.848C260.974 184.344 256.825 181.783 254.771 178.383C253.575 176.499 253.146 174.231 253.574 172.042C253.622 171.87 253.735 171.723 253.89 171.632C254.045 171.541 254.229 171.513 254.404 171.555C254.576 171.602 254.723 171.716 254.812 171.87C254.901 172.025 254.926 172.209 254.88 172.381C254.572 174.233 254.959 176.133 255.968 177.719C257.832 180.835 261.695 183.138 267.421 184.493C274.223 186.186 317.37 196.686 322.729 197.959C324.403 194.274 325.45 190.698 324.974 190.142C322.389 190.142 284.914 165.35 277.433 160.337C277.283 160.235 277.179 160.079 277.143 159.902C277.108 159.724 277.143 159.54 277.242 159.389C277.292 159.315 277.355 159.252 277.429 159.203C277.504 159.154 277.587 159.12 277.674 159.104C277.762 159.087 277.852 159.088 277.939 159.107C278.026 159.126 278.108 159.162 278.181 159.213C295.796 170.904 322.811 188.422 325.001 188.76C325.223 188.764 325.44 188.821 325.635 188.927C325.829 189.034 325.995 189.186 326.117 189.37C327.246 191.145 324.566 197.187 323.709 199.003C323.656 199.117 323.572 199.214 323.466 199.284C323.36 199.353 323.237 199.392 323.11 199.395Z" fill="#2E353A"/>
<path d="M324.974 189.384C324.974 189.384 340.903 196.808 342.141 198.867C343.378 200.926 346.221 211.629 346.221 214.935C346.221 218.241 345.813 218.227 343.746 218.227C341.678 218.227 336.291 210.396 335.054 208.744C333.816 207.091 330.973 207.091 327.191 204.679C326.138 204.013 325.232 203.14 324.53 202.112C323.829 201.085 323.345 199.925 323.111 198.705L324.974 189.384Z" fill="#FFE0BD"/>
<path d="M343.8 218.904C342.018 218.904 339.08 215.368 335.217 210.058C334.945 209.678 334.727 209.367 334.564 209.163C333.787 208.394 332.813 207.85 331.748 207.592C330.032 206.984 328.393 206.18 326.865 205.194C325.72 204.477 324.736 203.533 323.973 202.422C323.21 201.31 322.685 200.054 322.43 198.732C322.424 198.664 322.424 198.596 322.43 198.528L324.294 189.248C324.315 189.149 324.357 189.054 324.418 188.973C324.479 188.891 324.558 188.823 324.648 188.774C324.74 188.728 324.843 188.703 324.947 188.703C325.051 188.703 325.153 188.728 325.246 188.774C327.967 190.021 341.433 196.388 342.712 198.515C343.99 200.642 346.942 211.534 346.942 214.935C346.942 218.335 346.316 218.904 343.8 218.904ZM323.804 198.678C324.047 199.789 324.51 200.841 325.166 201.771C325.823 202.702 326.659 203.492 327.627 204.097C329.071 205.022 330.618 205.777 332.238 206.345C333.547 206.684 334.732 207.39 335.652 208.378C335.815 208.581 336.047 208.892 336.319 209.285C341.297 216.14 343.12 217.577 343.8 217.577C345.596 217.577 345.596 217.576 345.596 214.962C345.596 211.765 342.766 201.238 341.515 199.233C340.726 197.878 331.544 193.272 325.423 190.386L323.804 198.678Z" fill="#2E353A"/>
<path d="M318.173 197.743C318.105 197.756 318.036 197.756 317.969 197.743C317.883 197.717 317.803 197.674 317.734 197.616C317.666 197.559 317.609 197.488 317.569 197.408C317.528 197.329 317.504 197.242 317.498 197.152C317.492 197.063 317.504 196.974 317.533 196.889L320.009 189.235C320.034 189.147 320.077 189.066 320.134 188.995C320.192 188.924 320.263 188.865 320.344 188.823C320.425 188.78 320.513 188.754 320.604 188.746C320.695 188.738 320.787 188.748 320.874 188.777C320.961 188.805 321.041 188.85 321.11 188.91C321.179 188.97 321.235 189.043 321.275 189.125C321.315 189.207 321.338 189.296 321.342 189.387C321.347 189.478 321.333 189.569 321.301 189.655L318.826 197.309C318.774 197.439 318.683 197.549 318.567 197.627C318.45 197.704 318.313 197.745 318.173 197.743Z" fill="#2E353A"/>
<path d="M438.95 131.656C438.95 131.656 434.869 145.665 433.155 153.902C431.441 162.139 419.92 195.115 419.92 195.115L429.85 201.292C429.85 201.292 451.777 156.042 455.953 146.125C460.129 136.208 458.85 128.811 454.715 124.693" fill="#FFE092"/>
<path d="M429.85 202.01C429.724 202.007 429.602 201.97 429.496 201.902L419.566 195.724C419.434 195.643 419.334 195.52 419.282 195.374C419.23 195.229 419.23 195.07 419.281 194.925C419.39 194.599 430.87 161.909 432.489 153.821C434.107 145.733 438.27 131.656 438.27 131.507C438.32 131.328 438.441 131.175 438.604 131.084C438.767 130.992 438.96 130.969 439.14 131.02C439.321 131.07 439.474 131.19 439.566 131.352C439.657 131.515 439.681 131.707 439.63 131.887C439.63 132.022 435.481 145.963 433.849 154.078C432.298 161.814 422.3 190.508 420.763 194.87L429.591 200.357C432.312 194.654 451.505 154.959 455.314 145.854C458.987 137.062 458.592 129.597 454.226 125.167C454.099 125.041 454.029 124.871 454.029 124.693C454.029 124.515 454.099 124.344 454.226 124.219C454.352 124.093 454.523 124.022 454.702 124.022C454.88 124.022 455.052 124.093 455.178 124.219C459.966 128.974 460.469 137.062 456.538 146.383C452.457 156.178 430.693 201.17 430.462 201.631C430.422 201.716 430.363 201.792 430.29 201.853C430.217 201.914 430.132 201.958 430.04 201.983L429.85 202.01Z" fill="#2E353A"/>
<path d="M421.797 190.399C422.545 190.399 431.972 195.575 431.972 195.575L421.797 190.399Z" fill="#2E353A"/>
<path d="M356.559 115.982C354.274 115.602 342.073 107.636 333.693 101.188C325.314 94.7388 320.744 93.6008 320.744 93.6008L315.031 97.3942C314.166 94.6215 314.44 91.6206 315.792 89.0487C318.078 84.876 326.076 80.7032 334.074 77.6685C342.073 74.6338 351.213 72.0461 356.94 72.0461C362.667 72.0461 364.177 74.3222 364.177 77.3569C364.177 80.3916 364.177 89.8751 362.272 97.0825C360.368 104.29 356.559 115.982 356.559 115.982Z" fill="white"/>
<g style="mix-blend-mode:multiply">
<path d="M352.968 76.4221C352.968 76.4221 349.445 86.9352 345.922 90.0919C343.201 92.364 340.257 94.3566 337.134 96.0393C337.134 96.0393 335.026 88.6829 329.748 88.6829C324.47 88.6829 316.377 92.1918 316.377 92.1918C316.377 92.1918 316.377 89.3874 323.056 85.8785L329.748 82.3832L345.228 76.4221H352.968Z" fill="#3F87C7"/>
</g>
<path opacity="0.5" d="M352.968 76.4221C352.968 76.4221 349.445 86.9352 345.922 90.0919C343.201 92.364 340.257 94.3566 337.134 96.0393C337.134 96.0393 335.026 88.6829 329.748 88.6829C324.47 88.6829 316.377 92.1918 316.377 92.1918C316.377 92.1918 316.377 89.3874 323.056 85.8785L329.748 82.3832L345.228 76.4221H352.968Z" fill="white"/>
<path d="M356.559 116.659H356.437C353.907 116.239 341.379 107.962 333.312 101.757C326.307 96.3375 321.981 94.7254 320.88 94.3731L315.439 97.9904C315.35 98.0439 315.251 98.0787 315.148 98.0926C315.045 98.1066 314.94 98.0995 314.84 98.0717C314.742 98.0382 314.654 97.9829 314.581 97.9102C314.507 97.8374 314.452 97.749 314.418 97.6517C313.952 96.1893 313.783 94.6491 313.921 93.1209C314.059 91.5927 314.501 90.1071 315.221 88.7508C317.941 83.6839 328.089 79.2674 333.87 77.0591C338.413 75.3385 349.758 71.3284 356.994 71.3284C362.313 71.3284 364.911 73.2792 364.911 77.3165C364.911 80.4325 364.911 89.9295 362.98 97.2182C361.048 104.507 357.294 116.104 357.253 116.185C357.21 116.331 357.117 116.459 356.991 116.545C356.864 116.631 356.712 116.672 356.559 116.659ZM320.744 92.9235H320.907C321.097 92.9235 325.722 94.1699 334.115 100.632C341.991 106.688 352.968 113.895 356.11 115.128C356.926 112.581 359.987 102.935 361.551 96.8117C363.442 89.6991 363.442 80.3376 363.442 77.2623C363.442 74.9727 362.667 72.6289 356.886 72.6289C351.961 72.6289 343.718 74.6882 334.265 78.2784C324.811 81.8685 318.213 85.9193 316.336 89.3469C315.211 91.4759 314.874 93.9316 315.384 96.2834L320.308 93.0183C320.438 92.9379 320.592 92.9045 320.744 92.9235Z" fill="#2E353A"/>
<path d="M322.648 67.8322C327.111 72.7337 330.243 78.6886 331.748 85.1329C334.224 95.8492 349.785 108.449 353.512 108.449C357.24 108.449 356.981 90.0778 355.743 84.7264C354.505 79.375 349.54 64.9465 349.54 64.9465C349.54 64.9465 329.735 55.463 322.648 67.8322Z" fill="white"/>
<path d="M353.567 109.127C349.568 109.127 333.653 96.1749 331.136 85.2824C329.644 78.9658 326.575 73.1268 322.213 68.307C322.108 68.202 322.041 68.0656 322.021 67.9188C322.001 67.772 322.03 67.6228 322.104 67.4941C329.368 54.732 349.676 64.2291 349.88 64.3374C349.963 64.376 350.037 64.4307 350.097 64.4982C350.158 64.5657 350.205 64.6446 350.234 64.7303C350.438 65.3129 355.226 79.2401 356.464 84.5779C357.539 89.2655 358.042 104.669 355.185 108.26C355.002 108.519 354.76 108.733 354.479 108.884C354.198 109.034 353.886 109.117 353.567 109.127ZM323.546 67.738C327.91 72.6594 330.972 78.5871 332.456 84.9844C334.931 95.6194 350.397 107.772 353.567 107.772C353.567 107.772 353.825 107.772 354.111 107.406C356.423 104.52 356.274 89.7939 355.131 84.876C353.988 79.9581 349.69 67.467 349.037 65.4348C346.765 64.4323 329.966 57.4281 323.546 67.738Z" fill="#2E353A"/>
<g style="mix-blend-mode:multiply">
<path d="M352.968 76.4218C352.968 76.4218 349.445 86.9349 345.922 90.0915C343.201 92.3636 340.257 94.3562 337.135 96.039C337.135 96.039 335.026 88.6825 329.749 88.6825C324.471 88.6825 316.377 92.1914 316.377 92.1914C316.377 92.1914 316.377 89.387 323.056 85.8781L329.749 82.3828L345.228 76.4218H352.968Z" fill="#3F87C7"/>
</g>
<path opacity="0.5" d="M352.968 76.4218C352.968 76.4218 349.445 86.9349 345.922 90.0915C343.201 92.3636 340.257 94.3562 337.135 96.039C337.135 96.039 335.026 88.6825 329.749 88.6825C324.471 88.6825 316.377 92.1914 316.377 92.1914C316.377 92.1914 316.377 89.387 323.056 85.8781L329.749 82.3828L345.228 76.4218H352.968Z" fill="#FFE0BD"/>
<path d="M322.648 67.833C327.11 72.7344 330.243 78.6893 331.748 85.1336C334.224 95.85 349.785 108.449 353.512 108.449C357.239 108.449 356.981 90.0786 355.743 84.7271C354.505 79.3757 349.54 64.9472 349.54 64.9472C349.54 64.9472 329.735 55.4637 322.648 67.833Z" fill="#FFE0BD"/>
<path d="M353.567 109.126C349.568 109.126 333.652 96.1747 331.136 85.2823C329.644 78.9657 326.575 73.1267 322.213 68.3069C322.108 68.2019 322.04 68.0656 322.021 67.9188C322.001 67.7719 322.03 67.6228 322.104 67.4941C329.368 54.7321 349.676 64.229 349.88 64.3374C349.963 64.376 350.036 64.4307 350.097 64.4982C350.158 64.5657 350.204 64.6446 350.234 64.7303C350.438 65.3129 355.226 79.24 356.464 84.5778C357.539 89.2653 358.042 104.669 355.185 108.259C355.002 108.519 354.76 108.733 354.479 108.883C354.198 109.034 353.886 109.117 353.567 109.126ZM323.546 67.7379C327.909 72.6594 330.972 78.587 332.455 84.9842C334.931 95.6193 350.397 107.772 353.567 107.772C353.567 107.772 353.825 107.772 354.111 107.406C356.423 104.52 356.274 89.7937 355.131 84.8759C353.988 79.958 349.69 67.467 349.037 65.4348C346.765 64.4323 329.966 57.4281 323.546 67.7379Z" fill="#2E353A"/>
<path d="M309.576 47.9714C312.494 55.8759 316.104 63.5101 320.363 70.7859C326.647 81.0688 338.781 86.8943 345.514 84.2118C352.247 81.5294 356.831 72.8723 355.036 59.46C354.641 56.5065 352.057 55.3008 351.227 52.686C348.248 43.2026 345.215 34.0578 344.167 30.576C342.807 26.0916 332.034 21.6208 320.812 24.7504C309.59 27.8799 307.78 37.2279 309.576 47.9714Z" fill="#FFE0BD"/>
<path d="M346.861 39.7617C346.861 39.7617 342.78 42.7828 333.612 41.0351C324.444 39.2875 318.132 39.6804 318.486 42.0919C318.839 44.5033 319.547 47.687 319.547 47.687C319.547 47.687 308.542 38.2037 318.513 35.6838C325.695 33.8278 329.844 36.6457 331.599 37.0386C333.353 37.4315 346.861 39.7617 346.861 39.7617Z" fill="#3F87C7"/>
<path d="M346.861 39.7617C346.861 39.7617 342.78 42.7828 333.612 41.0351C324.444 39.2875 318.132 39.6804 318.486 42.0919C318.839 44.5033 319.547 47.687 319.547 47.687C319.547 47.687 308.542 38.2037 318.513 35.6838C325.695 33.8278 329.844 36.6457 331.599 37.0386C333.353 37.4315 346.861 39.7617 346.861 39.7617Z" fill="#FFE0BD"/>
<path d="M341.76 85.5936C334.455 85.5936 324.947 79.6461 319.778 71.1787C315.482 63.8609 311.841 56.1814 308.896 48.2286C308.888 48.1929 308.888 48.156 308.896 48.1202C306.651 34.7756 310.487 26.9043 320.608 24.0864C332.347 20.8078 343.378 25.6308 344.807 30.359C345.296 31.9983 346.167 34.8705 347.377 38.4877C348.738 42.5521 350.275 47.4699 351.853 52.5097C352.247 53.5124 352.829 54.4317 353.567 55.2193C354.667 56.3694 355.404 57.8154 355.689 59.3785C357.702 74.4301 351.88 82.4098 345.759 84.8484C344.486 85.3485 343.128 85.6014 341.76 85.5936ZM310.242 47.7951C313.141 55.6356 316.718 63.2103 320.934 70.4335C327.259 80.7705 339.216 85.9864 345.269 83.5749C350.914 81.326 356.273 73.834 354.356 59.5411C354.106 58.2354 353.488 57.0275 352.574 56.0593C351.714 55.1206 351.053 54.0195 350.628 52.8213C349.051 47.7951 347.459 42.8637 346.153 38.8129C344.997 35.2362 344.072 32.3506 343.569 30.6842C342.426 26.9179 332.374 22.1626 321.043 25.265C311.684 27.9475 308.161 35.2904 310.242 47.7951Z" fill="#2E353A"/>
<path d="M317.669 62.7252C317.669 62.7252 310.474 59.5958 310.025 62.7252C309.576 65.8547 312.745 68.1442 315.86 69.499C316.637 69.9221 317.522 70.1056 318.404 70.026C319.286 69.9464 320.124 69.6073 320.811 69.0519" fill="#FFE0BD"/>
<path d="M318.132 70.6913C317.259 70.6804 316.398 70.4914 315.602 70.1358C311.154 68.2392 308.936 65.5974 309.358 62.6982C309.394 62.3668 309.511 62.0492 309.698 61.7729C309.885 61.4966 310.137 61.2702 310.433 61.1131C312.596 59.9074 317.397 61.9395 317.941 62.1834C318.095 62.2638 318.211 62.3993 318.267 62.5624C318.324 62.7254 318.315 62.9037 318.244 63.0609C318.173 63.2181 318.045 63.3424 317.885 63.4084C317.725 63.4744 317.546 63.4772 317.384 63.4162C315.588 62.6305 312.283 61.6415 311.086 62.2918C310.977 62.351 310.885 62.4368 310.818 62.541C310.752 62.6452 310.713 62.7646 310.705 62.8879C310.269 65.909 313.915 67.9411 316.146 68.8894C316.8 69.2519 317.547 69.4155 318.294 69.3601C319.041 69.3047 319.755 69.0328 320.349 68.5779C320.48 68.4677 320.648 68.4109 320.819 68.4186C320.99 68.4264 321.152 68.4982 321.272 68.6198C321.392 68.7413 321.462 68.9035 321.468 69.0741C321.473 69.2446 321.414 69.4109 321.301 69.5397C320.429 70.3085 319.296 70.7199 318.132 70.6913Z" fill="#2E353A"/>
<path d="M347.037 45.0316C347.037 45.0316 339.025 43.1349 342.453 53.7698C343.133 55.8697 347.799 58.3218 347.799 58.3218C347.799 58.3218 347.418 61.7358 345.514 62.1152" fill="#FFE0BD"/>
<path d="M345.5 62.793C345.344 62.7906 345.193 62.7358 345.072 62.6374C344.951 62.5391 344.867 62.403 344.834 62.2511C344.816 62.163 344.816 62.0722 344.834 61.9841C344.852 61.896 344.887 61.8123 344.938 61.7379C344.988 61.6635 345.053 61.5999 345.129 61.5508C345.204 61.5017 345.289 61.468 345.378 61.4518C346.357 61.2486 346.86 59.6364 347.051 58.7422C345.799 58.0378 342.453 56.0327 341.814 54.0277C340.535 50.0717 340.644 47.2538 342.127 45.6552C343.949 43.6908 347.051 44.4088 347.187 44.4359C347.362 44.4777 347.512 44.5867 347.607 44.739C347.701 44.8913 347.731 45.0745 347.69 45.2488C347.671 45.3358 347.634 45.4182 347.583 45.4909C347.531 45.5636 347.465 45.6251 347.389 45.6719C347.313 45.7187 347.228 45.7497 347.139 45.7631C347.051 45.7766 346.961 45.7721 346.874 45.75C346.874 45.75 344.398 45.1946 343.12 46.5764C341.841 47.9583 342.004 50.2072 343.12 53.6077C343.555 54.9625 346.425 56.8727 348.125 57.7668C348.244 57.834 348.34 57.9335 348.402 58.0537C348.465 58.1738 348.492 58.3094 348.479 58.4442C348.479 58.8506 347.976 62.373 345.65 62.8337L345.5 62.793Z" fill="#2E353A"/>
<path d="M341.311 69.7018C341.311 69.7018 335.598 70.8398 333.312 68.1846L341.311 69.7018Z" fill="#FFE0BD"/>
<path d="M338.576 70.6908C337.526 70.7738 336.47 70.6385 335.474 70.2933C334.479 69.9482 333.567 69.4008 332.795 68.6858C332.737 68.6182 332.693 68.5399 332.666 68.4553C332.638 68.3707 332.627 68.2815 332.634 68.1928C332.641 68.1042 332.666 68.0177 332.706 67.9384C332.746 67.8591 332.802 67.7885 332.87 67.7307C332.938 67.6729 333.017 67.629 333.102 67.6014C333.187 67.5739 333.276 67.5632 333.365 67.5702C333.454 67.5771 333.541 67.6014 333.621 67.6417C333.7 67.6821 333.771 67.7376 333.829 67.8052C335.829 70.1354 341.134 69.16 341.188 69.16C341.275 69.1403 341.365 69.1386 341.452 69.1548C341.54 69.171 341.623 69.205 341.697 69.2545C341.771 69.3039 341.834 69.368 341.882 69.4426C341.93 69.5172 341.963 69.6008 341.977 69.6883C341.995 69.7755 341.995 69.8653 341.978 69.9527C341.961 70.04 341.927 70.1232 341.878 70.1974C341.829 70.2716 341.765 70.3355 341.691 70.3853C341.617 70.4351 341.534 70.4699 341.447 70.4876C340.498 70.6375 339.537 70.7054 338.576 70.6908Z" fill="#2E353A"/>
<path d="M332.931 51.8732C332.931 51.8732 328.742 50.3558 326.457 52.2526C325.233 53.1005 324.287 54.2878 323.736 55.6668" fill="#FFE0BD"/>
<path d="M323.791 56.3303H323.627C323.541 56.3082 323.459 56.2693 323.388 56.2157C323.316 56.1622 323.256 56.0951 323.21 56.0184C323.165 55.9416 323.135 55.8566 323.123 55.7683C323.11 55.6801 323.115 55.5902 323.138 55.5039C323.707 53.9936 324.71 52.6837 326.022 51.7377C328.579 49.6243 332.986 51.1823 333.163 51.25C333.248 51.2787 333.326 51.3243 333.393 51.3839C333.46 51.4435 333.514 51.516 333.552 51.5969C333.591 51.6779 333.612 51.7657 333.615 51.8551C333.618 51.9445 333.603 52.0336 333.571 52.117C333.51 52.2859 333.383 52.4235 333.22 52.4997C333.057 52.576 332.87 52.5845 332.7 52.5235C332.7 52.5235 328.851 51.1687 326.892 52.7809C325.814 53.5598 324.972 54.619 324.457 55.8426C324.413 55.9844 324.325 56.1084 324.205 56.1962C324.085 56.284 323.94 56.331 323.791 56.3303Z" fill="#2E353A"/>
<path d="M332.823 58.3629C333.367 59.6228 333.258 60.8692 332.578 61.1537C331.898 61.4382 330.918 60.666 330.374 59.4061C329.83 58.1461 329.953 56.9133 330.633 56.6153C331.313 56.3172 332.292 57.1436 332.823 58.3629Z" fill="#2E353A"/>
<path d="M346.52 51.7242C347.064 52.9706 346.942 54.217 346.276 54.5151C345.609 54.8131 344.602 54.0138 344.072 52.7674C343.541 51.521 343.637 50.2611 344.317 49.9766C344.997 49.6921 345.976 50.4778 346.52 51.7242Z" fill="#2E353A"/>
<path d="M315.67 64.5265C315.67 64.5265 320.213 61.2344 319.383 58.3487C318.554 55.463 316.908 55.463 318.567 53.8237C320.227 52.1844 321.451 51.3445 321.043 48.8788C320.635 46.4131 314.01 42.281 316.078 39.8153C318.145 37.3496 317.316 34.3962 334.278 38.5689C351.241 42.7416 362 36.1032 357.035 29.9254C352.07 23.7476 347.935 22.9212 347.935 22.9212C347.935 22.9212 357.457 18.8568 349.595 14.6705C341.732 10.4843 323.94 10.6062 314.01 18.3826C304.08 26.1591 306.148 32.7569 306.148 32.7569C306.148 32.7569 300.775 33.5833 300.353 41.8339C299.932 50.0845 315.67 64.5265 315.67 64.5265Z" fill="#2E353A"/>
<path d="M342.739 36.9298C339.123 36.7786 335.563 35.9896 332.224 34.5996C329.608 33.4882 326.82 32.8284 323.981 32.6487C317.411 32.6487 316.051 36.3608 315.996 36.5234C315.978 36.5812 315.948 36.6347 315.908 36.6807C315.869 36.7267 315.82 36.7641 315.765 36.7907C315.71 36.8173 315.651 36.8326 315.59 36.8355C315.529 36.8385 315.468 36.8291 315.411 36.8079C315.353 36.7894 315.299 36.7597 315.253 36.7204C315.206 36.681 315.168 36.6329 315.14 36.5787C315.112 36.5246 315.095 36.4654 315.091 36.4048C315.086 36.3441 315.093 36.2831 315.112 36.2253C315.18 36.0492 316.704 31.7139 323.981 31.7139C326.929 31.8875 329.824 32.5706 332.537 33.7325C336.767 35.2363 341.161 36.7943 346.684 35.575C349.676 34.9112 351.431 33.8409 351.866 32.4183C352.438 30.5894 350.669 28.6791 350.656 28.652C350.569 28.5657 350.521 28.4488 350.521 28.3269C350.521 28.205 350.569 28.088 350.656 28.0017C350.746 27.9179 350.865 27.8713 350.989 27.8713C351.113 27.8713 351.232 27.9179 351.322 28.0017C351.404 28.0965 353.471 30.332 352.75 32.6758C352.193 34.4505 350.22 35.724 346.874 36.4692C345.516 36.7683 344.13 36.9227 342.739 36.9298Z" fill="white"/>
<path d="M312.392 35.7919C312.268 35.7815 312.153 35.7233 312.072 35.6296C311.99 35.5359 311.949 35.4143 311.956 35.2906C311.956 35.1958 312.759 26.2544 320.716 24.2493C325.409 23.0707 330.837 23.9513 335.203 24.6557C337.924 25.1028 340.359 25.4957 341.379 25.1028C341.491 25.0789 341.608 25.096 341.708 25.151C341.808 25.206 341.885 25.2952 341.925 25.4022C341.965 25.5092 341.964 25.6269 341.924 25.7337C341.884 25.8404 341.806 25.9291 341.705 25.9834C340.454 26.444 338.073 26.0647 335.054 25.577C330.769 24.8725 325.437 24.019 320.948 25.1435C313.63 26.9995 312.895 35.2771 312.881 35.3584C312.878 35.4189 312.863 35.4782 312.836 35.5327C312.809 35.5873 312.772 35.6361 312.727 35.6764C312.681 35.7167 312.628 35.7476 312.571 35.7674C312.513 35.7873 312.452 35.7956 312.392 35.7919Z" fill="white"/>
<path d="M307.127 49.7734C307.035 49.7718 306.945 49.7436 306.869 49.6921C305.647 48.6721 304.701 47.365 304.114 45.8889C303.527 44.4129 303.319 42.8145 303.509 41.2383C303.89 35.2772 308.487 35.2095 308.542 35.2095C308.653 35.2283 308.753 35.2856 308.826 35.3711C308.898 35.4567 308.938 35.565 308.938 35.6769C308.938 35.7888 308.898 35.8971 308.826 35.9826C308.753 36.0682 308.653 36.1254 308.542 36.1443C308.379 36.1443 304.76 36.2256 304.461 41.2925C304.277 42.7101 304.45 44.151 304.966 45.4851C305.481 46.8192 306.322 48.0043 307.413 48.9335C307.463 48.9673 307.506 49.0109 307.539 49.0616C307.571 49.1124 307.594 49.1692 307.604 49.2287C307.614 49.2882 307.612 49.3491 307.598 49.4078C307.584 49.4665 307.558 49.5218 307.522 49.5702C307.48 49.6362 307.422 49.6899 307.352 49.7257C307.283 49.7615 307.205 49.7779 307.127 49.7734Z" fill="white"/>
<path d="M309.943 45.9259C309.854 45.926 309.767 45.9004 309.692 45.8524C309.618 45.8043 309.558 45.7358 309.522 45.655C309.186 45.0369 308.987 44.3545 308.938 43.6535C308.888 42.9525 308.99 42.2492 309.236 41.5905C309.836 40.2992 310.905 39.2824 312.229 38.7454C312.285 38.7215 312.345 38.7092 312.406 38.7092C312.467 38.7093 312.527 38.7218 312.583 38.7459C312.639 38.77 312.69 38.8052 312.732 38.8493C312.774 38.8935 312.806 38.9458 312.827 39.0028C312.872 39.1161 312.87 39.2423 312.821 39.354C312.773 39.4656 312.682 39.5537 312.569 39.599C311.486 40.0559 310.606 40.8887 310.093 41.9428C309.9 42.4838 309.825 43.0593 309.872 43.6315C309.919 44.2036 310.087 44.7593 310.365 45.2621C310.416 45.3754 310.42 45.5042 310.377 45.6208C310.334 45.7373 310.247 45.8323 310.134 45.8853C310.074 45.9118 310.009 45.9256 309.943 45.9259Z" fill="white"/>
<path d="M310.991 53.2685C310.916 53.2669 310.842 53.2477 310.776 53.2124C310.71 53.1771 310.653 53.1267 310.61 53.0653L308.855 50.6267C308.783 50.5261 308.754 50.401 308.774 50.2791C308.795 50.1571 308.863 50.0482 308.964 49.9764C309.065 49.9045 309.19 49.8755 309.313 49.8959C309.435 49.9162 309.545 49.9841 309.617 50.0847L311.371 52.5369C311.441 52.6361 311.468 52.7583 311.448 52.8774C311.428 52.9966 311.361 53.1029 311.263 53.1737C311.186 53.2361 311.09 53.2697 310.991 53.2685Z" fill="white"/>
</svg>
