<svg width="598" height="430" viewBox="0 0 598 430" fill="none" xmlns="http://www.w3.org/2000/svg">
<path d="M561.718 420.988C565.817 405.514 579.167 353.572 588.235 300.964C599.043 238.156 608.505 151.644 565.241 115.35C521.978 79.0555 465.183 122.333 435.438 108.381C405.692 94.4279 404.345 24.636 324.542 3.71435C244.74 -17.2073 200.143 55.3375 164.993 94.4134C129.844 133.489 90.595 106.975 39.2462 148.847C-11.5692 190.256 31.5256 377.768 69.1037 420.988H561.718Z" fill="#3F87C7"/>
<path opacity="0.7" d="M561.718 420.988C565.817 405.514 579.167 353.572 588.235 300.964C599.043 238.156 608.505 151.644 565.241 115.35C521.978 79.0555 465.183 122.333 435.438 108.381C405.692 94.4279 404.345 24.636 324.542 3.71435C244.74 -17.2073 200.143 55.3375 164.993 94.4134C129.844 133.489 90.595 106.975 39.2462 148.847C-11.5692 190.256 31.5256 377.768 69.1037 420.988H561.718Z" fill="white"/>
<path d="M575.713 127.071H465.52C464.985 127.075 464.473 127.296 464.095 127.686C463.716 128.077 463.502 128.605 463.499 129.157V421.828C463.499 422.383 463.711 422.915 464.09 423.309C464.468 423.702 464.983 423.926 465.52 423.929H575.713C576.253 423.929 576.771 423.708 577.153 423.314C577.534 422.92 577.749 422.386 577.749 421.828V129.157C577.745 128.603 577.529 128.072 577.148 127.681C576.766 127.29 576.251 127.071 575.713 127.071ZM573.692 419.742H467.555V131.258H573.692V419.742Z" fill="white"/>
<path d="M475.248 191.473H566C566.266 191.473 566.53 191.419 566.776 191.313C567.023 191.207 567.246 191.052 567.434 190.857C567.622 190.662 567.77 190.43 567.871 190.175C567.972 189.92 568.023 189.647 568.021 189.372V139.922C568.023 139.648 567.972 139.376 567.871 139.122C567.77 138.868 567.621 138.637 567.433 138.443C567.245 138.249 567.021 138.095 566.775 137.991C566.529 137.887 566.266 137.834 566 137.836H475.248C474.981 137.834 474.717 137.887 474.47 137.991C474.223 138.095 473.999 138.248 473.809 138.442C473.62 138.636 473.47 138.866 473.368 139.121C473.265 139.375 473.212 139.647 473.212 139.922V189.372C473.212 189.929 473.427 190.464 473.808 190.858C474.19 191.252 474.708 191.473 475.248 191.473ZM477.269 141.98H563.964V187.242H477.269V141.98Z" fill="white"/>
<path d="M475.248 261.714H566C566.266 261.716 566.529 261.663 566.775 261.559C567.021 261.455 567.245 261.301 567.433 261.107C567.621 260.913 567.77 260.682 567.871 260.428C567.972 260.174 568.023 259.902 568.021 259.628V210.178C568.023 209.903 567.972 209.63 567.871 209.375C567.77 209.12 567.622 208.888 567.434 208.693C567.246 208.498 567.023 208.343 566.776 208.237C566.53 208.131 566.266 208.077 566 208.077H475.248C474.708 208.077 474.19 208.298 473.808 208.692C473.427 209.086 473.212 209.621 473.212 210.178V259.628C473.212 259.903 473.265 260.175 473.368 260.43C473.47 260.684 473.62 260.914 473.809 261.108C473.999 261.302 474.223 261.455 474.47 261.559C474.717 261.663 474.981 261.716 475.248 261.714ZM477.269 212.264H563.964V257.541H477.269V212.264Z" fill="white"/>
<path d="M475.248 331.97H565.999C566.536 331.97 567.05 331.75 567.429 331.359C567.808 330.967 568.021 330.437 568.021 329.883V280.419C568.021 279.866 567.808 279.335 567.429 278.944C567.05 278.552 566.536 278.333 565.999 278.333H475.248C474.71 278.333 474.195 278.552 473.813 278.943C473.432 279.334 473.216 279.864 473.212 280.419V329.883C473.216 330.438 473.432 330.969 473.813 331.359C474.195 331.75 474.71 331.97 475.248 331.97ZM477.269 282.52H563.964V327.782H477.269V282.52Z" fill="white"/>
<path d="M475.248 402.225H566C566.266 402.225 566.53 402.171 566.777 402.065C567.023 401.959 567.246 401.804 567.434 401.609C567.622 401.414 567.771 401.182 567.871 400.927C567.972 400.672 568.023 400.4 568.021 400.124V350.617C568.023 350.342 567.972 350.07 567.871 349.816C567.77 349.562 567.621 349.331 567.433 349.137C567.245 348.943 567.022 348.789 566.775 348.685C566.529 348.581 566.266 348.528 566 348.53H475.248C474.981 348.528 474.717 348.581 474.47 348.685C474.223 348.789 473.999 348.942 473.81 349.136C473.62 349.33 473.47 349.561 473.368 349.815C473.265 350.069 473.213 350.341 473.213 350.617V400.066C473.205 400.347 473.252 400.627 473.351 400.888C473.45 401.15 473.599 401.388 473.788 401.59C473.978 401.791 474.205 401.951 474.456 402.06C474.707 402.169 474.976 402.225 475.248 402.225ZM477.269 352.775H563.964V398.038H477.269V352.775Z" fill="white"/>
<path d="M437.684 23.1727H140.877C140.35 23.1725 139.845 23.3843 139.467 23.7631C139.09 24.1419 138.87 24.6578 138.856 25.2011V177.796C138.856 178.071 138.908 178.343 139.011 178.598C139.113 178.852 139.263 179.082 139.453 179.276C139.642 179.47 139.866 179.623 140.113 179.727C140.36 179.831 140.624 179.884 140.891 179.882H437.684C437.95 179.884 438.213 179.831 438.459 179.727C438.705 179.623 438.929 179.469 439.117 179.275C439.305 179.081 439.454 178.85 439.555 178.596C439.656 178.342 439.707 178.07 439.705 177.796V25.2011C439.694 24.6566 439.476 24.1386 439.097 23.759C438.719 23.3794 438.211 23.1687 437.684 23.1727ZM435.648 27.3599V168.943H142.898V27.3019L435.648 27.3599Z" fill="white"/>
<path d="M504.772 324.943L498.385 424.509C498.35 425.015 498.13 425.489 497.771 425.835C497.412 426.182 496.939 426.376 496.448 426.378C496.189 426.378 495.933 426.325 495.695 426.22C495.457 426.116 495.242 425.963 495.063 425.771C494.883 425.579 494.743 425.352 494.65 425.102C494.558 424.853 494.515 424.587 494.525 424.321L497.15 324.943H504.772Z" fill="#263238" stroke="#263238" stroke-linecap="round" stroke-linejoin="round"/>
<path d="M521.112 324.943L527.499 424.509C527.531 425.014 527.747 425.487 528.104 425.834C528.461 426.181 528.932 426.375 529.422 426.378C529.682 426.378 529.938 426.325 530.177 426.22C530.416 426.116 530.632 425.964 530.812 425.772C530.993 425.58 531.135 425.353 531.229 425.104C531.323 424.854 531.367 424.588 531.36 424.321L528.706 325.001L521.112 324.943Z" fill="#263238" stroke="#263238" stroke-linecap="round" stroke-linejoin="round"/>
<path d="M457.073 324.943L463.46 424.509C463.492 425.014 463.708 425.487 464.065 425.834C464.422 426.181 464.893 426.375 465.383 426.378C465.642 426.378 465.899 426.325 466.138 426.22C466.376 426.116 466.592 425.964 466.773 425.772C466.954 425.58 467.095 425.353 467.189 425.104C467.283 424.854 467.328 424.588 467.32 424.321L464.653 325.001L457.073 324.943Z" fill="#263238" stroke="#263238" stroke-linecap="round" stroke-linejoin="round"/>
<path d="M430.978 324.943L424.591 424.509C424.555 425.015 424.336 425.489 423.977 425.835C423.618 426.182 423.145 426.376 422.654 426.378C422.395 426.376 422.139 426.321 421.901 426.216C421.664 426.112 421.448 425.959 421.268 425.768C421.088 425.576 420.946 425.35 420.851 425.101C420.757 424.853 420.711 424.588 420.716 424.321L423.384 325.001L430.978 324.943Z" fill="#263238" stroke="#263238" stroke-linecap="round" stroke-linejoin="round"/>
<path d="M542.252 224.565C542.252 224.565 478.522 222.102 473.132 222.102C467.741 222.102 466.492 224.565 466.492 224.565L457.396 290.764C457.396 290.764 429.11 282.433 423.566 283.52C418.021 284.606 426.303 326.145 426.303 326.145H458.308L458.884 323.653H531.148L550.338 229.303C549.173 224.985 542.252 224.565 542.252 224.565Z" fill="#263238" stroke="#263238" stroke-linecap="round" stroke-linejoin="round"/>
<path d="M517.995 265.974C517.995 265.974 524.481 309.44 517.041 314.511C515.89 315.293 509.643 319.002 503.803 318.394C499.115 317.901 465.987 318.394 465.987 318.394C465.987 318.394 461.382 309.353 460.456 302.688C459.53 296.023 466.773 267.423 466.773 267.423L517.995 265.974Z" fill="#99C33E" stroke="#263238" stroke-linecap="round" stroke-linejoin="round"/>
<path d="M463.741 289.257C463.741 289.257 415.789 294.401 413.529 295.791C411.269 297.182 400.896 306.528 402.678 312.598C404.461 318.669 399.969 319.133 404.082 320.074C408.195 321.016 466.492 321.002 466.492 321.002" fill="#3F87C7"/>
<path d="M463.741 289.257C463.741 289.257 415.789 294.401 413.529 295.791C411.269 297.182 400.896 306.528 402.678 312.598C404.461 318.669 399.969 319.133 404.082 320.074C408.195 321.016 466.492 321.002 466.492 321.002" stroke="#263238" stroke-linecap="round" stroke-linejoin="round"/>
<path d="M420.127 326.073H534.068V317.293H420.127V326.073Z" fill="#263238" stroke="#263238" stroke-linecap="round" stroke-linejoin="round"/>
<path d="M507.159 291.126H438.516C438.516 291.126 434.908 295.328 434.445 304.166C433.982 313.004 434.908 314.902 441.239 317.206C447.57 319.51 503.804 318.336 503.804 318.336" fill="#3F87C7"/>
<path d="M507.159 291.126H438.516C438.516 291.126 434.908 295.328 434.445 304.166C433.982 313.004 434.908 314.902 441.239 317.206C447.57 319.51 503.804 318.336 503.804 318.336" stroke="#263238" stroke-linecap="round" stroke-linejoin="round"/>
<path d="M453.072 403.558L445.885 385.984L434.108 388.287L443.12 403.964L437.926 414.7L426.696 422.278C426.696 422.278 425.391 423.611 431.006 423.161C436.621 422.712 448.272 423.161 448.272 423.161L455.613 414.251C455.613 414.251 458.28 409.716 453.072 403.558Z" fill="#B16548" stroke="#263238" stroke-linecap="round" stroke-linejoin="round"/>
<path d="M456.217 411.237L456.511 422.727H454.757L452.413 416.989L456.217 411.237Z" fill="#263238" stroke="#263238" stroke-linecap="round" stroke-linejoin="round"/>
<path d="M448.286 423.219L455.627 414.309C455.627 414.309 457.523 410.991 454.912 406.209C449.69 415.424 442.741 418.192 442.741 418.192L435.498 416.395L426.71 422.335C426.71 422.335 425.405 423.668 431.02 423.219C436.635 422.77 448.286 423.219 448.286 423.219Z" fill="#263238" stroke="#263238" stroke-linecap="round" stroke-linejoin="round"/>
<path d="M424.843 314.004L448.917 389.128L431.834 392.257L398.144 314.018C398.144 314.018 395.435 302.34 402.664 298.617C409.893 294.893 431.16 293.01 431.16 293.01" fill="#3F87C7"/>
<path d="M424.843 314.004L448.917 389.128L431.834 392.257L398.144 314.018C398.144 314.018 395.435 302.34 402.664 298.617C409.893 294.893 431.16 293.01 431.16 293.01" stroke="#263238" stroke-linecap="round" stroke-linejoin="round"/>
<path d="M502.063 326.058C502.063 326.058 493.767 284.461 499.326 283.433C504.885 282.404 533.156 290.677 533.156 290.677L542.252 224.565C542.252 224.565 551.854 223 552.864 231.809C553.875 240.619 534.068 326.058 534.068 326.058H502.063Z" fill="#263238" stroke="#263238" stroke-linecap="round" stroke-linejoin="round"/>
<path d="M404.377 203.586L400.095 196.341C399.683 195.647 399.102 195.076 398.41 194.685C397.718 194.294 396.94 194.096 396.151 194.11L392.122 194.182L385.23 192.053C384.792 191.921 384.326 191.926 383.891 192.068C383.456 192.21 383.072 192.482 382.787 192.849L382.535 193.183L388.879 196.08L382.549 198.486L375.825 194.965C375.56 194.825 375.255 194.785 374.965 194.854C374.675 194.923 374.417 195.096 374.238 195.342C374.034 195.615 373.943 195.96 373.986 196.302C374.028 196.644 374.199 196.955 374.463 197.167L383.868 204.658C384.163 204.894 384.503 205.063 384.866 205.153C385.229 205.243 385.607 205.252 385.974 205.179L396.375 203.021L399.281 206.295L404.377 203.586Z" fill="#B16548" stroke="#263238" stroke-linecap="round" stroke-linejoin="round"/>
<path d="M476.894 188.72L438.333 230.346L401.527 199.645L396.445 203.455L436.943 250.819L472.051 231.302L476.894 188.72Z" fill="#99C33E" stroke="#263238" stroke-linecap="round" stroke-linejoin="round"/>
<path d="M534.588 199.355L554.801 263.467L537.367 263.989L520.031 233.896C520.031 233.896 529.773 203.542 534.588 199.355Z" fill="#99C33E" stroke="#263238" stroke-linecap="round" stroke-linejoin="round"/>
<path d="M512.591 188.344L534.588 199.427L516.171 252.586L518.347 267.408L466.773 267.495L472.922 243.618L468.71 228.318C468.164 226.332 468.135 224.233 468.626 222.233L476.88 188.793L498.554 185.199L512.591 188.344Z" fill="#99C33E" stroke="#263238" stroke-linecap="round" stroke-linejoin="round"/>
<path d="M517.729 162.264C517.729 162.264 515.96 168.827 515.132 173.174C514.303 177.52 512.633 186.214 512.787 189.474C512.942 192.734 499.648 206.614 497.978 204.542C496.307 202.47 494.553 190.43 494.553 190.43L496.209 170.957C496.209 170.957 513.531 151.151 517.729 162.264Z" fill="#B16548" stroke="#263238" stroke-linecap="round" stroke-linejoin="round"/>
<path d="M489.949 152.122C489.949 152.122 487.576 156.164 487.576 157.917C487.576 159.67 488.404 163.104 488.264 164.104C488.124 165.104 485.765 168.451 485.457 169.581C485.301 170.041 485.314 170.543 485.493 170.994C485.671 171.445 486.003 171.813 486.425 172.029C486.998 172.332 487.556 172.666 488.096 173.029C488.096 173.029 488.798 181.954 489.921 184.258C491.044 186.561 492.012 187.576 495.353 187.865C498.694 188.155 506.653 184.548 507.762 181.664C508.871 178.781 509.025 175.333 509.166 171.16C509.306 166.987 506.513 161.018 504.421 155.324C502.33 149.63 493.57 146.5 489.949 152.122Z" fill="#B16548" stroke="#263238" stroke-linecap="round" stroke-linejoin="round"/>
<path d="M490.045 149C490.045 149 496.587 143.756 505.281 153.721C513.976 163.686 508.84 176.097 515.021 179.488C521.202 182.879 534.7 170.935 536.836 164.46C538.972 157.984 538.19 139.121 525.545 135C512.899 130.879 494.359 136.94 490.045 149Z" fill="#263238" stroke="#263238" stroke-linecap="round" stroke-linejoin="round"/>
<path d="M489.087 153.748C488.966 152.551 489.108 151.342 489.501 150.211C489.895 149.08 490.53 148.058 491.359 147.222C492.187 146.386 493.187 145.758 494.283 145.387C495.378 145.015 496.541 144.91 497.681 145.078C506.922 145.599 507.883 160.835 512.744 166.937C517.605 173.039 520.045 172.016 520.045 172.016C520.045 172.016 511.783 174.545 506.423 171.494C501.063 168.443 498.476 151.238 489.087 153.748Z" fill="#263238" stroke="#263238" stroke-linecap="round" stroke-linejoin="round"/>
<path d="M506.106 172.073C506.106 172.073 513.518 162.061 515.258 169.537C516.999 177.013 511.047 178.839 508.24 177.984C505.432 177.129 505.825 175.579 505.825 175.579" fill="#B16548"/>
<path d="M506.106 172.073C506.106 172.073 513.518 162.061 515.258 169.537C516.999 177.013 511.047 178.839 508.24 177.984C505.432 177.129 505.825 175.579 505.825 175.579" stroke="#263238" stroke-linecap="round" stroke-linejoin="round"/>
<path d="M489.612 257.744C489.612 257.744 475.462 259.773 473.104 259.773C470.746 259.773 464.85 267.481 464.85 267.481H490.791L489.612 257.744Z" fill="#B16548" stroke="#263238" stroke-linecap="round" stroke-linejoin="round"/>
<path d="M549.72 247.921L554.801 259.744C555.029 260.44 555.094 261.181 554.992 261.908C554.889 262.635 554.622 263.327 554.212 263.927C553.801 264.527 553.259 265.019 552.63 265.362C552.001 265.705 551.302 265.89 550.59 265.901L489.247 266.264L489.64 257.744L537.198 249.978" fill="#99C33E"/>
<path d="M549.72 247.921L554.801 259.744C555.029 260.44 555.094 261.181 554.992 261.908C554.889 262.635 554.622 263.327 554.212 263.927C553.801 264.527 553.259 265.019 552.63 265.362C552.001 265.705 551.302 265.89 550.59 265.901L489.247 266.264L489.64 257.744L537.198 249.978" stroke="#263238" stroke-linecap="round" stroke-linejoin="round"/>
<path d="M467.615 411.237L467.91 422.727H466.155L463.811 416.989L467.615 411.237Z" fill="#263238" stroke="#263238" stroke-linecap="round" stroke-linejoin="round"/>
<path d="M464.471 403.558L462.211 386.838L450.447 387.621L454.518 404.08L449.324 414.816L438.094 422.393C438.094 422.393 436.803 423.726 442.418 423.277C448.033 422.828 459.684 423.277 459.684 423.277L467.026 414.367C467.026 414.367 469.679 409.716 464.471 403.558Z" fill="#B16548" stroke="#263238" stroke-linecap="round" stroke-linejoin="round"/>
<path d="M459.684 423.219L467.026 414.309C467.026 414.309 468.921 410.991 466.296 406.209C461.074 415.424 454.125 418.192 454.125 418.192L446.896 416.395L438.094 422.335C438.094 422.335 436.803 423.668 442.418 423.219C448.033 422.77 459.684 423.219 459.684 423.219Z" fill="#263238" stroke="#263238" stroke-linecap="round" stroke-linejoin="round"/>
<path d="M459.081 301.065L464.12 389.91L448.159 390.301L432.578 309.585C432.578 309.585 432.873 294.212 437.631 292.445C442.39 290.677 455.024 292.575 455.024 292.575" fill="#3F87C7"/>
<path d="M459.081 301.065L464.12 389.91L448.159 390.301L432.578 309.585C432.578 309.585 432.873 294.212 437.631 292.445C442.39 290.677 455.024 292.575 455.024 292.575" stroke="#263238" stroke-linecap="round" stroke-linejoin="round"/>
<path d="M389.315 109.829L409.122 167.132C409.122 167.132 406.511 180.099 398.65 179.563C390.789 179.027 388.697 167.668 386.606 166.045C384.514 164.423 381.37 151.991 381.37 151.991L389.315 109.829Z" fill="#3F87C7" stroke="#263238" stroke-linecap="round" stroke-linejoin="round"/>
<path d="M338.078 98.3398L305.877 110.336L318.23 202.499H376.33L389.315 109.829L354.558 98.6006L338.078 98.3398Z" fill="#3F87C7" stroke="#263238" stroke-linecap="round" stroke-linejoin="round"/>
<path d="M356.384 88.0095L355.092 98.7746L347 120.5L338.851 98.6007V78.418C338.851 78.418 351.021 81.562 356.384 88.0095Z" fill="#EFC0B5" stroke="#263238" stroke-linecap="round" stroke-linejoin="round"/>
<path d="M334.077 65.639C334.077 55.8591 340.984 47.9338 349.519 47.9338C358.053 47.9338 362.784 56.2938 362.784 66.0736C362.784 69.2322 362.152 74.6509 361.9 77.5342C361.465 82.4603 360.019 84.5467 357.197 88.9657C347.946 103.454 340.352 82.1995 336.464 75.0566C334.89 72.1844 334.068 68.9388 334.077 65.639Z" fill="#EFC0B5" stroke="#263238" stroke-linecap="round" stroke-linejoin="round"/>
<path d="M356.229 68.7104L357.534 78.809L352.944 78.6786" fill="#EFC0B5"/>
<path d="M356.229 68.7104L357.534 78.809L352.944 78.6786" stroke="#263238" stroke-linecap="round" stroke-linejoin="round"/>
<path d="M366.476 66.9573L344.409 67.0587C344.138 67.9444 344.097 68.8881 344.289 69.7956C344.481 70.7031 344.9 71.5428 345.504 72.2311C346.908 73.68 352.621 73.1729 353.534 72.7962C354.446 72.4195 354.937 68.2757 354.937 68.2757H356.58C356.58 68.2757 356.762 72.6223 359.121 72.9845C361.479 73.3468 364.553 73.2308 365.143 72.7962C367.754 70.9851 366.476 66.9573 366.476 66.9573Z" fill="white" stroke="#263238" stroke-linecap="round" stroke-linejoin="round"/>
<path d="M336.801 76.6938C336.801 76.6938 336.866 74.8633 338.045 78.5C339.224 82.1367 335.7 78.0284 341.609 76C339.045 70 340.485 76 340.485 76C340.485 76 342.545 76 341.545 77.5C340.38 78.6881 338.545 77.5 340.493 76.4576C340.1 75.2406 341.77 76.6504 341.77 76.6504L340.493 71.4924L343.118 69.7537C343.497 69.428 343.743 68.9671 343.808 68.4625C343.873 67.9579 343.752 67.4465 343.469 67.0299L342.234 65.1898C342.081 64.9645 341.974 64.7099 341.919 64.4412C341.863 64.1724 341.861 63.8949 341.911 63.625C342.234 62.0458 343.118 58.7713 345.167 57.8296C347.975 56.627 351.386 58.3801 354.53 59.1915C357.675 60.0029 361.086 57.0761 361.086 57.0761L362.49 61.8864C365.602 58.8716 367.813 55.0004 368.863 50.7301C370.435 43.848 354.362 41.0227 349.21 41.0227C344.059 41.0227 335.889 43.9204 333.53 51.5415C331.172 59.1625 335.411 75.3319 336.801 76.6938Z" fill="#263238" stroke="#263238" stroke-linecap="round" stroke-linejoin="round"/>
<path d="M337.545 73.4918C337.545 73.4918 333.207 68.5657 333.207 73.941C333.207 79.3163 334.513 79.3163 337.11 81.1853C339.707 83.0544 340.591 80.7362 340.591 80.7362" fill="#EFC0B5"/>
<path d="M337.545 73.4918C337.545 73.4918 333.207 68.5657 333.207 73.941C333.207 79.3163 334.513 79.3163 337.11 81.1853C339.707 83.0544 340.591 80.7362 340.591 80.7362" stroke="#263238" stroke-linecap="round" stroke-linejoin="round"/>
<path d="M395.463 407.47H395.66L395.281 405.5L376.33 202.513H318.23L299.125 407.456H299.335L311.66 408.542C311.66 408.542 325.332 361.164 325.332 357.629C325.332 354.094 329.235 321.407 329.235 321.407L348.621 251.065L365.76 321.407C365.76 321.407 369.663 354.166 369.663 357.629C369.663 361.092 383.349 408.571 383.349 408.571L394.944 407.543H395.463V407.47Z" fill="#263238" stroke="#263238" stroke-linecap="round" stroke-linejoin="round"/>
<path d="M371.993 214.452L359.064 233.505" stroke="white" stroke-width="0.5" stroke-linecap="round" stroke-linejoin="round"/>
<path d="M365.072 218.741L357.225 232.085" stroke="white" stroke-width="0.5" stroke-linecap="round" stroke-linejoin="round"/>
<path d="M328.154 217.799L339.679 230.65" stroke="white" stroke-width="0.5" stroke-linecap="round" stroke-linejoin="round"/>
<path d="M327.227 222.551L343.834 239.706" stroke="white" stroke-width="0.5" stroke-linecap="round" stroke-linejoin="round"/>
<path d="M299.335 407.456C299.335 407.456 291.937 413.469 287.67 415.12C283.403 416.772 275.43 421.162 275.43 421.162C275.43 421.162 275.429 423.915 282.35 423.915H309.512L309.049 407.456H299.335Z" fill="white" stroke="#263238" stroke-linecap="round" stroke-linejoin="round"/>
<path d="M309.414 420.915C298.568 421.427 287.701 421.248 276.876 420.379L275.472 421.162C275.472 421.162 275.472 423.915 282.392 423.915H309.555L309.414 420.915Z" fill="white" stroke="#263238" stroke-linecap="round" stroke-linejoin="round"/>
<path d="M394.34 407.456C394.34 407.456 401.752 413.469 406.005 415.12C410.259 416.772 418.26 421.162 418.26 421.162C418.26 421.162 418.26 423.915 411.325 423.915H384.177L384.668 407.456H394.34Z" fill="white" stroke="#263238" stroke-linecap="round" stroke-linejoin="round"/>
<path d="M384.261 420.915C395.108 421.427 405.975 421.248 416.8 420.379L418.204 421.162C418.204 421.162 418.204 423.915 411.269 423.915H384.177L384.261 420.915Z" fill="white" stroke="#263238" stroke-linecap="round" stroke-linejoin="round"/>
<path d="M305.877 110.336L284.484 169.291H305.006L312.671 153.208L305.877 110.336Z" fill="#3F87C7" stroke="#263238" stroke-linecap="round" stroke-linejoin="round"/>
<path d="M399.464 160.163C390.901 156.512 363.43 154.701 361.998 154.701C360.567 154.701 315.914 150.905 312.25 150.354C308.586 149.804 304.389 158.468 304.389 158.468L323.76 157.917L347.329 162.786C347.329 162.786 395.056 180.621 398.65 179.549C399.14 179.38 399.583 179.092 399.942 178.709" fill="#3F87C7"/>
<path d="M399.464 160.163C390.901 156.512 363.43 154.701 361.998 154.701C360.567 154.701 315.914 150.905 312.25 150.354C308.586 149.804 304.389 158.468 304.389 158.468L323.76 157.917L347.329 162.786C347.329 162.786 395.056 180.621 398.65 179.549C399.14 179.38 399.583 179.092 399.942 178.709" stroke="#263238" stroke-linecap="round" stroke-linejoin="round"/>
<path d="M299.672 157.396L373.509 149.833L374.042 156.309L310.144 176.318C310.144 176.318 298.634 179.013 289.72 177.39C280.806 175.767 285.017 166.581 287.109 161.177" fill="#3F87C7"/>
<path d="M299.672 157.396L373.509 149.833L374.042 156.309L310.144 176.318C310.144 176.318 298.634 179.013 289.72 177.39C280.806 175.767 285.017 166.581 287.109 161.177" stroke="#263238" stroke-linecap="round" stroke-linejoin="round"/>
<path d="M373.523 149.833L387.658 149.282L391.842 157.932L374.042 156.324L373.523 149.833Z" fill="#EFC0B5" stroke="#263238" stroke-linecap="round" stroke-linejoin="round"/>
<path d="M467.672 276.956L479.73 425.132C479.761 425.353 479.837 425.564 479.951 425.754C480.065 425.944 480.215 426.108 480.392 426.235C480.57 426.363 480.771 426.451 480.983 426.496C481.195 426.54 481.413 426.54 481.625 426.494C481.986 426.402 482.303 426.178 482.517 425.864C482.731 425.549 482.828 425.166 482.79 424.784L474.578 277L467.672 276.956Z" fill="#263238" stroke="#263238" stroke-linecap="round" stroke-linejoin="round"/>
<path d="M548.709 276.956L560.81 425.625C560.839 425.846 560.913 426.059 561.027 426.25C561.14 426.441 561.29 426.605 561.468 426.733C561.646 426.861 561.848 426.95 562.061 426.993C562.274 427.037 562.493 427.035 562.705 426.987C563.066 426.894 563.382 426.67 563.597 426.356C563.811 426.042 563.908 425.659 563.87 425.277L555.63 276.956H548.709Z" fill="#263238" stroke="#263238" stroke-linecap="round" stroke-linejoin="round"/>
<path d="M214.282 276.956L207.979 423.842C207.945 424.228 208.044 424.613 208.26 424.929C208.477 425.245 208.795 425.472 209.159 425.567C209.367 425.622 209.585 425.63 209.797 425.591C210.009 425.552 210.21 425.466 210.387 425.34C210.564 425.214 210.713 425.049 210.823 424.859C210.933 424.668 211.002 424.454 211.026 424.234L221.231 276.956H214.282Z" fill="#263238" stroke="#263238" stroke-linecap="round" stroke-linejoin="round"/>
<path d="M139.589 276.956L133.244 423.292C133.213 423.679 133.316 424.064 133.534 424.38C133.753 424.696 134.073 424.921 134.437 425.016C134.646 425.069 134.863 425.075 135.074 425.035C135.285 424.995 135.485 424.909 135.662 424.783C135.838 424.657 135.987 424.494 136.097 424.304C136.208 424.115 136.279 423.903 136.304 423.683L146.467 276.898L139.589 276.956Z" fill="#263238" stroke="#263238" stroke-linecap="round" stroke-linejoin="round"/>
<path d="M564.487 268.741H135.097V281.462H564.487V268.741Z" fill="#3F87C7" stroke="#263238" stroke-linecap="round" stroke-linejoin="round"/>
<path d="M564.487 268.741H135.097V273.102H564.487V268.741Z" fill="#263238" stroke="#263238" stroke-linecap="round" stroke-linejoin="round"/>
<path d="M564.473 268.741H457.031V281.462H564.473V268.741Z" fill="#263238" stroke="#263238" stroke-linecap="round" stroke-linejoin="round"/>
<path d="M568.305 264.51H131.265V269.364H568.305V264.51Z" fill="#3F87C7" stroke="#263238" stroke-linecap="round" stroke-linejoin="round"/>
<path d="M568.292 264.51H461.509V269.364H568.292V264.51Z" fill="#263238" stroke="#263238" stroke-linecap="round" stroke-linejoin="round"/>
<path d="M228.615 264.076H287.263C287.486 264.078 287.706 264.011 287.893 263.885C288.08 263.759 288.227 263.578 288.316 263.366L304.557 225.145C304.632 224.966 304.662 224.77 304.645 224.576C304.628 224.382 304.564 224.195 304.46 224.032C304.355 223.87 304.213 223.737 304.046 223.645C303.879 223.553 303.693 223.506 303.504 223.508H244.856C244.636 223.508 244.421 223.573 244.237 223.697C244.052 223.82 243.907 223.996 243.817 224.203L227.632 262.424C227.556 262.598 227.523 262.789 227.535 262.98C227.547 263.17 227.604 263.355 227.701 263.518C227.798 263.681 227.932 263.816 228.091 263.914C228.25 264.011 228.43 264.067 228.615 264.076Z" fill="white" stroke="#263238" stroke-linecap="round" stroke-linejoin="round"/>
<path d="M234.117 261.091H284.16C284.348 261.091 284.531 261.035 284.688 260.929C284.845 260.824 284.969 260.674 285.045 260.497L298.9 227.883C298.975 227.729 299.01 227.558 299.002 227.386C298.994 227.214 298.943 227.047 298.854 226.901C298.765 226.755 298.641 226.636 298.494 226.554C298.347 226.472 298.182 226.431 298.015 226.434H247.972C247.781 226.433 247.593 226.49 247.433 226.598C247.273 226.706 247.148 226.861 247.073 227.043L233.247 259.686C233.182 259.837 233.154 260.002 233.166 260.167C233.178 260.332 233.229 260.491 233.316 260.63C233.402 260.769 233.52 260.884 233.66 260.965C233.8 261.045 233.957 261.089 234.117 261.091Z" fill="#214185" stroke="#263238" stroke-linecap="round" stroke-linejoin="round"/>
<path d="M288.077 261.54H199.964V264.51H288.077V261.54Z" fill="white" stroke="#263238" stroke-linecap="round" stroke-linejoin="round"/>
<path d="M288.091 261.54H245.375V264.51H288.091V261.54Z" fill="white" stroke="#263238" stroke-linecap="round" stroke-linejoin="round"/>
<path d="M316.39 240.865H300.85V264.569H316.39V240.865Z" fill="white" stroke="#263238" stroke-linecap="round" stroke-linejoin="round"/>
<path d="M315.702 261.338H314.074C313.735 261.338 313.41 261.199 313.171 260.951C312.931 260.704 312.796 260.369 312.796 260.019C312.796 259.669 312.931 259.334 313.171 259.087C313.41 258.84 313.735 258.701 314.074 258.701H315.702C316.345 258.697 316.961 258.431 317.415 257.962C317.87 257.493 318.127 256.858 318.131 256.194V250.399C318.127 249.735 317.87 249.1 317.415 248.63C316.961 248.161 316.345 247.896 315.702 247.892H313.611C313.443 247.892 313.277 247.858 313.122 247.792C312.967 247.725 312.826 247.628 312.707 247.506C312.589 247.383 312.495 247.238 312.43 247.078C312.366 246.918 312.333 246.747 312.333 246.574C312.333 246.4 312.366 246.229 312.43 246.069C312.495 245.909 312.589 245.764 312.707 245.641C312.826 245.519 312.967 245.422 313.122 245.355C313.277 245.289 313.443 245.255 313.611 245.255H315.702C316.357 245.255 317.005 245.388 317.609 245.647C318.214 245.905 318.763 246.284 319.226 246.762C319.689 247.239 320.056 247.806 320.306 248.43C320.557 249.054 320.685 249.723 320.685 250.399V256.194C320.685 256.869 320.557 257.538 320.306 258.162C320.056 258.786 319.689 259.353 319.226 259.831C318.763 260.309 318.214 260.688 317.609 260.946C317.005 261.205 316.357 261.338 315.702 261.338Z" fill="white" stroke="#263238" stroke-linecap="round" stroke-linejoin="round"/>
<path d="M437.8 264.076H379.152C378.93 264.075 378.714 264.007 378.53 263.881C378.345 263.755 378.2 263.576 378.113 263.366L361.872 225.145C361.797 224.967 361.767 224.772 361.783 224.579C361.8 224.386 361.862 224.2 361.965 224.038C362.068 223.876 362.208 223.743 362.373 223.65C362.538 223.558 362.723 223.509 362.91 223.508H421.559C421.78 223.507 421.998 223.572 422.184 223.695C422.371 223.818 422.519 223.995 422.611 224.203L438.853 262.424C438.927 262.604 438.956 262.8 438.939 262.995C438.922 263.19 438.859 263.377 438.755 263.541C438.65 263.704 438.509 263.839 438.342 263.932C438.176 264.025 437.989 264.075 437.8 264.076Z" fill="white" stroke="#263238" stroke-linecap="round" stroke-linejoin="round"/>
<path d="M378.337 264.51H466.45V261.54H378.337V264.51Z" fill="white" stroke="#263238" stroke-linecap="round" stroke-linejoin="round"/>
<path d="M378.338 264.51H439.091V261.54H378.338V264.51Z" fill="white" stroke="#263238" stroke-linecap="round" stroke-linejoin="round"/>
<path d="M401.331 239.373C401.648 239.993 401.782 240.696 401.714 241.395C401.646 242.093 401.38 242.755 400.949 243.298C400.518 243.841 399.942 244.24 399.292 244.446C398.642 244.652 397.948 244.656 397.296 244.456C396.644 244.256 396.064 243.862 395.628 243.324C395.192 242.785 394.92 242.126 394.846 241.428C394.771 240.731 394.898 240.026 395.21 239.403C395.522 238.779 396.006 238.265 396.6 237.924C397.414 237.47 398.369 237.368 399.255 237.64C400.142 237.911 400.888 238.534 401.331 239.373Z" fill="white" stroke="#263238" stroke-linecap="round" stroke-linejoin="round"/>
<path d="M127.082 126.868L131.405 170.957L151.057 229.68L144.333 233.65L121.256 179.897L109.731 133.75C109.731 133.75 108.763 119.87 113.578 117.813C118.392 115.755 125.158 117.943 127.082 126.868Z" fill="#99C33E" stroke="#263238" stroke-linecap="round" stroke-linejoin="round"/>
<path d="M151.114 229.738C151.114 229.738 155.437 239.17 155.929 241.647C156.42 244.125 156.911 249.181 155.016 251.442C152.728 254.166 150.636 252.065 150.636 252.065C150.636 252.065 144.867 250.616 144.867 245.617C144.867 240.619 144.39 233.708 144.39 233.708L151.114 229.738Z" fill="white" stroke="#263238" stroke-linecap="round" stroke-linejoin="round"/>
<path d="M146.397 244.531L154.497 246.704" stroke="#263238" stroke-linecap="round" stroke-linejoin="round"/>
<path d="M148.334 238.894L150.637 242.633C150.637 242.633 145.274 252.094 148.152 249.616C151.03 247.139 156.406 244.125 155.929 241.647C155.116 239.047 154.043 236.542 152.728 234.171" fill="white"/>
<path d="M148.334 238.894L150.637 242.633C150.637 242.633 145.274 252.094 148.152 249.616C151.03 247.139 156.406 244.125 155.929 241.647C155.116 239.047 154.043 236.542 152.728 234.171" stroke="#263238" stroke-linecap="round" stroke-linejoin="round"/>
<path d="M99.3875 73.8831C99.3875 73.8831 94.4463 68.3774 83.0479 71.9126C71.6496 75.4478 69.0105 94.2831 69.3615 103.686C69.7124 113.089 78.4858 123.695 75.8327 128.404C73.1796 133.113 63.2833 144.095 64.0413 155.932C64.7993 167.77 74.3026 177.115 87.9891 172.797C101.676 168.48 99.3875 151.195 96.6642 144.878C93.941 138.561 99.7103 135.851 101.605 122.116C103.5 108.381 91.344 97.007 91.344 87.1982C91.344 77.3893 101.17 78.9686 101.17 78.9686L99.3875 73.8831Z" fill="#263238" stroke="#263238" stroke-linecap="round" stroke-linejoin="round"/>
<path d="M90.1353 167.321C91.2239 167.743 92.3848 167.93 93.5464 167.871" stroke="white" stroke-width="0.5" stroke-linecap="round" stroke-linejoin="round"/>
<path d="M138.101 276.826C138.101 276.826 134.83 305.977 131.546 315.279C128.261 324.58 120.905 397.676 120.498 401.906C120.091 406.137 131.139 415.845 135.645 418.815C140.151 421.785 138.101 422.611 133.188 423.031C128.275 423.451 122.548 422.611 120.091 417.96C117.635 413.309 111.893 412.048 111.893 412.048L111.079 422.191H109.437L108.215 409.513C107.798 406.635 108.223 403.693 109.437 401.066C111.486 396.415 112.244 386.693 112.244 373.538C112.244 360.382 109.788 339.301 111.009 329.159C112.23 319.017 117.157 311.41 117.157 302.963C117.157 294.516 117.564 281.839 117.564 281.839L138.101 276.826Z" fill="#DCC0A0" stroke="#263238" stroke-linecap="round" stroke-linejoin="round"/>
<path d="M108.215 409.513C107.889 407.333 108.067 405.104 108.735 403.008C111.275 407.441 118.561 413.454 124.176 415.845C127.22 417.205 130.539 417.782 133.847 417.525C134.507 418.032 135.125 418.467 135.644 418.815C140.15 421.712 138.101 422.611 133.188 423.031C128.275 423.451 122.547 422.611 120.091 417.96C117.634 413.309 111.893 412.049 111.893 412.049L111.079 422.191H109.436L108.215 409.513Z" fill="#263238" stroke="#263238" stroke-linecap="round" stroke-linejoin="round"/>
<path d="M114.35 281.477C114.35 281.477 107.331 303.021 100.846 321.61C94.3605 340.199 78.7369 382.883 77.0945 390.489C75.4521 398.096 74.638 412.049 70.0758 419.235C65.5137 426.421 61.0638 429.797 61.878 417.12C62.6921 404.442 70.0758 395.14 71.7042 385.418C73.3325 375.696 74.1607 340.634 79.888 325.001C85.6152 309.367 91.7636 296.69 92.5216 292.039C93.0814 287.411 93.3534 282.75 93.3358 278.086L114.35 281.477Z" fill="#DCC0A0" stroke="#263238" stroke-linecap="round" stroke-linejoin="round"/>
<path d="M62.7201 411.686C62.7806 414.076 63.5014 416.399 64.7976 418.38C67.1559 421.104 70.9601 415.816 72.9393 412.585C72.2918 414.915 71.3477 417.146 70.1319 419.22C65.6258 426.392 61.1198 429.783 61.934 417.105C62.0694 415.282 62.3321 413.471 62.7201 411.686Z" fill="#263238" stroke="#263238" stroke-linecap="round" stroke-linejoin="round"/>
<path d="M111 107.5C111 107.5 108.665 113.524 107.022 127.897C105.38 142.27 115.627 187.054 115.627 187.054C115.627 187.054 98.0244 216.814 93.9255 231.607C89.8266 246.4 87.3701 301.819 87.3701 301.819C87.3701 301.819 95.975 305.209 113.578 306.47C131.181 307.73 140.6 303.094 140.6 303.094C140.6 303.094 141.414 224 141.414 211.815C141.414 199.63 142.242 171.913 143.464 168.538C144.685 165.162 148.377 156.28 148.377 152.904C148.377 149.528 123 115.5 123 115.5L111 107.5Z" fill="#99C33E" stroke="#263238" stroke-linecap="round" stroke-linejoin="round"/>
<path d="M93.8834 231.607C97.112 220.016 110.476 189.184 115.248 183.881C122.506 186.373 135.743 188.836 141.653 187.01C141.47 191.357 141.372 207.584 141.372 211.743C141.372 224 140.558 303.021 140.558 303.021C140.558 303.021 131.139 307.672 113.536 306.397C95.9329 305.122 87.3279 301.746 87.3279 301.746C87.3279 301.746 89.7845 246.399 93.8834 231.607Z" fill="#99C33E" stroke="#263238" stroke-linecap="round" stroke-linejoin="round"/>
<path d="M115.488 61.5966C115.488 61.5966 119.882 51.7153 128.571 51.7153C137.26 51.7153 141.121 59.6841 139.197 66.6532C137.274 73.6222 144.981 71.6373 145.949 76.1288C146.918 80.6203 139.675 83.5904 135.814 83.5904C131.954 83.5904 115.488 61.5966 115.488 61.5966Z" fill="#263238" stroke="#263238" stroke-linecap="round" stroke-linejoin="round"/>
<path d="M137.765 84.5902C137.151 84.1187 136.667 83.4893 136.362 82.7646C135.66 77.4183 134.144 72.1589 131.28 69.2032C126.948 64.994 121.423 62.3282 115.516 61.5966C113.767 61.3305 111.982 61.4994 110.308 62.0892C102.855 64.7841 96.4535 70.1015 97.8291 82.924C99.3452 97.0504 110 100.586 110 100.586L110.758 109.279L121.398 114.379L121.777 104.961C121.777 104.961 128.992 108.091 131.603 107.7C134.214 107.308 135.028 103.773 136.165 98.6732C136.583 96.346 136.789 93.9839 136.783 91.6172L139.969 88.3427C141.78 86.4447 139.997 85.9811 137.765 84.5902Z" fill="#DCC1A0" stroke="#263238" stroke-linecap="round" stroke-linejoin="round"/>
<path d="M97.8012 82.924C96.3975 70.1015 102.827 64.7841 110.28 62.0892C111.954 61.4994 113.739 61.3305 115.488 61.5966C119.516 62.1524 123.393 63.5421 126.887 65.6824C124.753 65.2333 128.389 71.7097 125.048 75.8245C122.122 79.6443 118.392 82.7262 114.141 84.8365C114.141 84.8365 110.351 81.6924 109.2 86.01C108.049 90.3277 108.442 93.4572 111.488 94.2541C114.534 95.051 115.699 94.2541 115.699 94.2541C115.699 94.2541 113.678 99.1947 110.084 101.238V100.528C110.084 100.528 99.3875 97.0649 97.8012 82.924Z" fill="#263238" stroke="#263238" stroke-linecap="round" stroke-linejoin="round"/>
<path d="M121.06 208.092C123.307 208.588 125.588 208.907 127.882 209.048C129.665 208.932 132.093 206.86 133.89 207.744C135.687 208.628 138.199 214.206 138.199 214.206C138.199 214.206 140.586 215.452 139.898 216.77C139.21 218.089 136.262 219.306 136.262 219.306C136.262 219.306 133.455 222.044 131.826 222.319C130.198 222.595 120.274 215.075 120.274 215.075L121.06 208.092Z" fill="#DCC0A0" stroke="#263238" stroke-linecap="round" stroke-linejoin="round"/>
<path d="M122.113 213.51C122.441 213.103 122.677 212.625 122.803 212.111C122.929 211.597 122.943 211.061 122.842 210.541C122.741 210.021 122.528 209.532 122.22 209.108C121.911 208.684 121.515 208.337 121.06 208.091L93.7851 181.722L123.488 134.054C124.814 131.534 125.135 128.58 124.385 125.819C123.635 123.057 121.873 120.706 119.471 119.264C117.07 117.822 114.218 117.403 111.522 118.095C108.826 118.787 106.497 120.536 105.029 122.971L79.2845 175.782C77.9459 177.123 77.172 178.953 77.13 180.878C77.088 182.802 77.7812 184.667 79.0599 186.069L79.1581 186.17C81.741 190.285 110.153 211.801 118.463 214.611C119.108 214.822 119.8 214.83 120.45 214.634C121.1 214.438 121.679 214.047 122.113 213.51Z" fill="#99C33E" stroke="#263238" stroke-linecap="round" stroke-linejoin="round"/>
<path d="M230.032 140.531C230.032 140.531 233.556 151.789 233.556 153.976C233.53 155.557 233.413 157.134 233.205 158.7L236.307 163.669C236.489 163.989 236.545 164.368 236.464 164.729C236.383 165.091 236.171 165.406 235.872 165.611L231.085 168.508C231.085 168.508 230.383 180.099 229.681 181.548C228.98 182.997 217.048 182.649 217.048 182.649L213.173 190.27L193.1 182.287L198.378 167.378L197.283 144.877C197.283 144.877 209.608 133.634 230.032 140.531Z" fill="#B16548" stroke="#263238" stroke-linecap="round" stroke-linejoin="round"/>
<path d="M216.29 167.914C216.29 167.914 212.794 171.305 210.169 171.537C207.544 171.768 199.01 169.726 198.35 168.827C197.69 167.929 191.794 155.28 192.005 149.181C192.216 143.081 192.019 137.427 198.35 134.5C204.681 131.573 210.1 130.291 218.5 128C225.833 126 235.5 123.5 235 129.5C236 141 239.479 139.473 235.984 142.864C232.489 146.254 228.109 147.21 228.544 148.659C228.979 150.108 231.604 151.818 230.074 154.078C228.544 156.338 223.056 158.424 223.056 159.265C223.056 160.105 224.375 163.336 222.845 163.785C221.315 164.234 219.771 160.627 218.241 160.627C216.711 160.627 213.454 164.988 216.29 167.914Z" fill="#263238" stroke="#263238" stroke-linecap="round" stroke-linejoin="round"/>
<path d="M215.939 168.523L218.746 169.247C218.576 170.602 218.676 171.978 219.041 173.291C219.405 174.604 220.027 175.827 220.866 176.883" fill="#B16548"/>
<path d="M215.939 168.523L218.746 169.247C218.576 170.602 218.676 171.978 219.041 173.291C219.405 174.604 220.027 175.827 220.866 176.883" stroke="#263238" stroke-linecap="round" stroke-linejoin="round"/>
<path d="M213.931 405.761C213.931 405.761 232.18 417.656 235.395 417.656C238.609 417.656 240.209 420.641 238.609 420.974C237.009 421.307 227.07 421.626 220.361 421.959C213.651 422.292 209.131 421.626 205.298 421.626C201.466 421.626 196.96 421.959 195.037 420.974C193.114 419.989 196.329 408.731 196.329 406.746C196.329 404.761 211.686 404.428 213.931 405.761Z" fill="#263238" stroke="#263238" stroke-linecap="round" stroke-linejoin="round"/>
<path d="M237.458 418.149C230.369 420.554 218.873 418.974 211.966 418.323C206.506 417.815 197.929 417.7 194.433 417.671C194.293 419.366 194.433 420.655 194.981 420.974C196.904 421.959 201.396 421.626 205.242 421.626C209.088 421.626 213.566 422.292 220.304 421.959C227.042 421.626 236.967 421.293 238.553 420.974C239.802 420.713 239.213 419.003 237.458 418.149Z" fill="white" stroke="#263238" stroke-linecap="round" stroke-linejoin="round"/>
<path d="M228.348 324.044L213.945 398.589L216.949 406.326C214.794 409.548 211.541 411.814 207.839 412.672C203.723 413.507 199.541 413.953 195.346 414.005C195.346 414.005 193.746 405.732 194.714 404.732C195.683 403.732 195.992 399.777 195.992 399.777L204.316 324.696L228.348 324.044Z" fill="#3F87C7" stroke="#263238" stroke-linecap="round" stroke-linejoin="round"/>
<path d="M272.243 403.24C272.243 403.24 283.473 412.831 288.596 414.483C293.72 416.135 299.167 417.786 299.167 419.438C299.167 421.09 286.996 422.741 277.703 421.756C268.411 420.771 254.303 416.468 251.102 416.468C247.902 416.468 248.534 407.862 248.534 406.543C248.534 405.225 264.241 394.633 272.243 403.24Z" fill="#263238" stroke="#263238" stroke-linecap="round" stroke-linejoin="round"/>
<path d="M299.223 419.438C299.223 418.844 298.507 418.25 297.37 417.656C288.197 418.923 278.898 418.854 269.744 417.453C260.521 416.091 252.801 414.266 248.856 413.251C249.193 415.034 249.853 416.468 251.158 416.468C254.359 416.468 268.467 420.815 277.759 421.756C287.052 422.698 299.223 421.09 299.223 419.438Z" fill="white" stroke="#263238" stroke-linecap="round" stroke-linejoin="round"/>
<path d="M216.5 290.634C226.109 289.874 235.767 290.098 245.333 291.3C261.672 293.285 298.184 295.647 298.815 299.906C299.447 304.166 270.488 393.691 270.488 395.995C270.488 398.299 273.043 400.632 273.688 401.95C274.096 402.89 274.315 403.905 274.334 404.935C274.334 404.935 266.487 413.628 260.395 415.99C254.303 418.351 249.165 416.134 247.902 416.134C246.638 416.134 246.624 407.209 247.593 402.906C248.562 398.603 250.148 387.693 250.471 386.708C250.793 385.723 268.34 322.059 268.34 322.059C268.34 322.059 220.613 329.999 192.103 326.681C163.593 323.363 160.701 318.756 159.101 311.801C157.501 304.847 160.701 290.967 160.701 290.967L216.5 290.634Z" fill="#3F87C7" stroke="#263238" stroke-linecap="round" stroke-linejoin="round"/>
<path d="M212.893 312.062C212.245 313.029 211.522 313.94 210.731 314.786" stroke="#263238" stroke-linecap="round" stroke-linejoin="round"/>
<path d="M221.624 294.27C219.782 299.032 217.658 303.672 215.265 308.165" stroke="#263238" stroke-linecap="round" stroke-linejoin="round"/>
<path d="M217.806 297.588C213.939 304.171 208.085 309.262 201.143 312.077" stroke="#263238" stroke-linecap="round" stroke-linejoin="round"/>
<path d="M290.548 315.844C291.642 315.409 292.695 314.96 293.692 314.496L290.548 315.844Z" fill="white"/>
<path d="M290.548 315.844C291.642 315.409 292.695 314.96 293.692 314.496" stroke="#263238" stroke-linecap="round" stroke-linejoin="round"/>
<path d="M268.34 322.06C274.506 320.831 280.599 319.239 286.589 317.293L268.34 322.06Z" fill="white"/>
<path d="M268.34 322.06C274.506 320.831 280.599 319.239 286.589 317.293" stroke="#263238" stroke-linecap="round" stroke-linejoin="round"/>
<path d="M305.385 212.221C306.059 209.453 307.182 209.671 306.283 208.758C305.048 207.483 304.052 208.99 300.472 211.062C296.892 213.134 293.327 215.669 293.327 215.669C293.405 214.9 293.715 214.176 294.211 213.597C295.116 212.07 295.602 210.317 295.615 208.526C295.615 207.077 294.492 207.367 294.043 208.758C293.594 210.149 289.579 212.67 289.354 213.829C289.13 214.988 288.33 219.538 288.33 219.538C287.052 221.523 287.052 230.781 287.052 230.781L261.041 250.949L247.902 266.887C247.902 266.887 253.671 276.478 256.872 275.16C260.072 273.841 261.673 272.508 269.365 265.887C275.878 260.28 292.204 234.417 292.204 234.417C295.048 232.574 297.738 230.49 300.247 228.187C303.142 224.807 304.853 220.521 305.104 216.017C305.044 214.744 305.138 213.469 305.385 212.221Z" fill="#B16548" stroke="#263238" stroke-linecap="round" stroke-linejoin="round"/>
<path d="M185.028 181.621C185.028 181.621 187.499 172.058 197.999 173.971C208.499 175.883 216.528 184.808 218.381 187.996C220.234 191.183 184.411 186.721 184.411 186.721L185.028 181.621Z" fill="#3F87C7" stroke="#263238" stroke-linecap="round" stroke-linejoin="round"/>
<path d="M245.558 265.133C245.558 265.133 243.115 267.857 245.558 272.146C247.228 275.116 250.176 277.391 255.819 276.391C261.097 275.435 269.028 261.902 269.028 252.383C269.028 242.864 262.234 242.241 259.764 244.096C257.293 245.95 245.558 265.133 245.558 265.133Z" fill="#3F87C7" stroke="#263238" stroke-linecap="round" stroke-linejoin="round"/>
<path d="M189.577 180.505C189.577 180.505 164.59 192.748 161.067 194.994C157.543 197.24 155.297 226.072 155.297 231.042C155.297 236.011 158.821 284.65 159.775 292.879C160.73 301.109 191.5 306.774 201.761 303.789C212.022 300.805 222.017 293.285 222.017 290.633C222.017 287.982 221.048 265.51 221.694 261.207C222.34 256.904 228.095 238.721 228.095 238.721L245.586 267.524C245.586 267.524 247.425 271.059 253.924 268.277C263.217 264.308 263.989 248.964 263.989 248.964C263.989 248.964 253.741 230.448 250.85 221.189C247.958 211.931 246.639 204.976 245.403 203.325C244.168 201.673 215.279 187.778 210.155 184.142C207.254 181.887 203.873 180.38 200.293 179.747C196.714 179.115 193.039 179.374 189.577 180.505Z" fill="white" stroke="#263238" stroke-linecap="round" stroke-linejoin="round"/>
<path d="M228.025 238.721L219.701 226.145" stroke="#263238" stroke-linecap="round" stroke-linejoin="round"/>
<path d="M226.677 236.924L212.008 229.462" stroke="#263238" stroke-linecap="round" stroke-linejoin="round"/>
<path d="M183.204 331.781L196.006 425.697C196.035 425.915 196.108 426.124 196.22 426.31C196.333 426.497 196.481 426.658 196.657 426.782C196.833 426.906 197.032 426.991 197.241 427.031C197.45 427.071 197.665 427.066 197.873 427.015C198.232 426.924 198.549 426.703 198.765 426.392C198.981 426.081 199.083 425.701 199.052 425.32L190.026 330.231L183.204 331.781Z" fill="#263238" stroke="#263238" stroke-linecap="round" stroke-linejoin="round"/>
<path d="M146.425 332.52L125.032 424.755C124.984 424.969 124.978 425.191 125.017 425.407C125.056 425.623 125.139 425.829 125.259 426.01C125.379 426.191 125.535 426.345 125.716 426.461C125.897 426.576 126.099 426.652 126.31 426.682C126.676 426.739 127.049 426.655 127.36 426.447C127.67 426.238 127.896 425.92 127.994 425.552L152.841 336.041L146.425 332.52Z" fill="#263238" stroke="#263238" stroke-linecap="round" stroke-linejoin="round"/>
<path d="M185.281 331.376L171.665 425.161C171.633 425.377 171.645 425.598 171.7 425.809C171.754 426.02 171.851 426.217 171.982 426.389C172.114 426.56 172.278 426.701 172.465 426.804C172.652 426.907 172.857 426.969 173.068 426.986C173.437 427.007 173.801 426.89 174.093 426.656C174.385 426.421 174.584 426.086 174.655 425.711L191.935 334.317L185.281 331.376Z" fill="#263238" stroke="#263238" stroke-linecap="round" stroke-linejoin="round"/>
<path d="M233.485 331.781L246.287 425.697C246.317 425.915 246.39 426.124 246.502 426.31C246.614 426.497 246.763 426.658 246.939 426.782C247.115 426.906 247.313 426.991 247.523 427.031C247.732 427.071 247.947 427.066 248.154 427.015C248.514 426.924 248.83 426.703 249.047 426.392C249.263 426.081 249.364 425.701 249.334 425.32L240.265 330.202L233.485 331.781Z" fill="#263238" stroke="#263238" stroke-linecap="round" stroke-linejoin="round"/>
<path d="M126.17 234.316L141.751 338.881H252.562C252.562 338.881 254.205 308.744 249.32 298.095C244.435 287.446 184.116 310.28 181.94 309.686C180.326 309.266 182.712 255.281 185.674 234.186C185.882 232.701 185.777 231.187 185.368 229.748C184.958 228.308 184.254 226.976 183.302 225.842C182.35 224.708 181.173 223.799 179.85 223.177C178.528 222.554 177.091 222.232 175.637 222.233H136.192C134.728 222.231 133.28 222.557 131.949 223.189C130.618 223.82 129.436 224.742 128.483 225.89C127.53 227.039 126.83 228.387 126.431 229.841C126.032 231.296 125.942 232.823 126.17 234.316Z" fill="#3F87C7" stroke="#263238" stroke-linecap="round" stroke-linejoin="round"/>
<path d="M249.32 298.095C244.435 287.446 184.116 310.28 181.94 309.686C180.326 309.266 182.712 255.281 185.674 234.186C185.933 232.72 185.876 231.213 185.506 229.772C185.137 228.331 184.464 226.992 183.536 225.851C182.609 224.709 181.449 223.792 180.139 223.165C178.829 222.539 177.401 222.218 175.957 222.225C174.513 222.233 173.089 222.569 171.785 223.209C170.481 223.849 169.33 224.778 168.414 225.93C167.497 227.082 166.838 228.427 166.483 229.872C166.128 231.316 166.085 232.824 166.359 234.287L181.94 338.852H252.562C252.562 338.852 254.205 308.744 249.32 298.095Z" fill="#263238" stroke="#263238" stroke-linecap="round" stroke-linejoin="round"/>
<path d="M305.385 212.221C305.385 212.221 303.602 214.061 300.921 217.292L305.385 212.221Z" fill="white"/>
<path d="M305.385 212.221C305.385 212.221 303.602 214.061 300.921 217.292" stroke="#263238" stroke-linecap="round" stroke-linejoin="round"/>
<path d="M305.104 215.959C305.104 215.959 302.928 220.523 301.595 222.595L305.104 215.959Z" fill="white"/>
<path d="M305.104 215.959C305.104 215.959 302.928 220.523 301.595 222.595" stroke="#263238" stroke-linecap="round" stroke-linejoin="round"/>
<path d="M4.94252 268.814C7.27274 269.857 12.9579 269.726 12.9719 269.726C12.986 269.726 11.7507 265.887 11.6384 265.655C10.389 262.946 6.43049 258.498 3.21591 258.947C2.68377 259.036 2.17592 259.241 1.72553 259.547C1.27515 259.853 0.892377 260.253 0.602229 260.722C0.312082 261.191 0.121091 261.718 0.0417362 262.269C-0.0376189 262.819 -0.00355276 263.381 0.141711 263.916C0.675134 266.206 2.9492 267.915 4.94252 268.814Z" fill="#263238"/>
<path d="M79.5517 248.805C76.3231 248.443 72.533 253.006 71.3118 255.745C71.2135 255.977 70.0344 259.86 70.0905 259.86C69.4729 260.57 68.8272 261.309 68.1393 262.207C66.876 263.801 65.4722 265.626 64.0544 267.712C62.5274 269.949 61.1215 272.27 59.8432 274.667C58.4024 277.355 57.1907 280.166 56.2216 283.07C56.2277 283.104 56.2277 283.138 56.2216 283.172C56.2216 282.201 56.2216 279.448 56.2216 279.245C55.8426 276.275 53.4141 270.77 50.2416 270.161C49.7131 270.073 49.1726 270.1 48.6549 270.241C48.1372 270.382 47.6538 270.633 47.2359 270.978C46.818 271.324 46.4748 271.756 46.2285 272.246C45.9822 272.737 45.8382 273.275 45.8058 273.827C45.6093 276.188 47.2096 278.55 48.88 280.028C50.7049 281.709 55.7583 283.331 56.1654 283.462C55.2475 286.473 54.5346 289.548 54.0317 292.662C53.7089 294.459 53.4562 296.27 53.2176 298.095C53.2176 297.24 53.2176 296.487 53.2176 296.386C52.8526 293.415 50.4101 287.91 47.2517 287.301C46.719 287.215 46.1748 287.246 45.6543 287.391C45.1338 287.536 44.6487 287.792 44.2305 288.143C43.8122 288.495 43.4701 288.933 43.2264 289.429C42.9827 289.925 42.8428 290.469 42.8159 291.025C42.6334 293.386 44.2196 295.748 45.9041 297.24C47.5886 298.733 51.8138 300.225 52.9228 300.587C52.8386 301.297 52.7403 302.036 52.6561 302.688C52.2771 306.05 51.8981 309.411 51.4348 312.685C51.2664 313.844 51.0699 314.975 50.8733 316.105C50.8733 315.351 50.8733 314.728 50.8733 314.656C50.4943 311.686 48.0658 306.18 44.8934 305.571C44.3607 305.488 43.8168 305.52 43.2971 305.667C42.7774 305.814 42.2934 306.072 41.8765 306.425C41.4596 306.777 41.1191 307.216 40.8771 307.713C40.6351 308.21 40.4969 308.754 40.4716 309.309C40.2891 311.657 41.8754 314.018 43.5598 315.511C45.6558 316.941 47.9519 318.03 50.368 318.742C50.1293 319.901 49.8907 321.045 49.61 322.161C49.3994 322.914 49.259 323.61 49.0064 324.392C48.7537 325.175 48.5431 325.841 48.3185 326.594C47.8272 327.971 47.3359 329.405 46.8306 330.738C46.4796 331.68 46.1287 332.564 45.7918 333.448C45.9602 332.303 46.255 330.043 46.2691 329.854C46.2295 327.222 45.5385 324.643 44.2617 322.364C44.2965 322.075 44.2965 321.783 44.2617 321.494C44.1981 320.937 44.0201 320.399 43.7397 319.918C43.4592 319.437 43.0827 319.023 42.6352 318.704C42.1877 318.384 41.6794 318.167 41.1442 318.066C40.609 317.965 40.0591 317.983 39.5311 318.119C36.3867 318.973 34.4075 324.653 34.2531 327.638C34.2531 327.811 34.3654 329.738 34.4496 330.956C34.2952 330.246 34.1408 329.507 33.9723 328.84C33.6494 327.391 33.2704 325.942 32.8914 324.494C32.6668 323.755 32.4563 323.045 32.2317 322.277C32.0071 321.509 31.7263 320.828 31.4736 320.017C30.856 318.263 30.1541 316.525 29.3961 314.786C30.6033 314.482 34.8988 313.337 36.6254 311.99C38.352 310.642 40.1628 308.397 40.1488 306.035C40.1654 305.473 40.0656 304.913 39.856 304.393C39.6464 303.874 39.3317 303.406 38.9331 303.022C38.5345 302.638 38.0611 302.347 37.5445 302.167C37.028 301.986 36.4801 301.922 35.9375 301.978C32.7089 302.34 29.9015 307.643 29.3259 310.57C29.3259 310.758 29.0873 312.903 29.0031 314.091C28.5539 313.048 28.0906 312.004 27.5993 310.961C26.1956 307.976 24.5953 304.977 23.0653 301.993L21.6615 299.24C22.0967 299.138 27.2765 297.921 29.1575 296.342C31.0385 294.763 32.6949 292.763 32.6809 290.387C32.6953 289.825 32.5939 289.267 32.3835 288.748C32.1731 288.23 31.8584 287.764 31.4603 287.38C31.0622 286.997 30.5898 286.705 30.0742 286.524C29.5586 286.343 29.0117 286.277 28.4696 286.33C25.241 286.693 22.4476 291.995 21.858 294.922C21.858 295.154 21.5352 298.24 21.5071 299.037C20.4964 297.023 19.4998 294.995 18.6014 292.966C17.368 290.224 16.3083 287.403 15.4289 284.519C15.6254 284.519 21.0439 283.215 22.981 281.622C24.6936 280.26 26.5184 278.028 26.4904 275.667C26.5071 275.104 26.4072 274.545 26.1976 274.025C25.988 273.505 25.6734 273.038 25.2747 272.654C24.8761 272.27 24.4027 271.978 23.8862 271.798C23.3696 271.618 22.8217 271.554 22.2792 271.61C19.0506 271.972 16.2571 277.275 15.6675 280.202C15.6675 280.434 15.3306 283.766 15.3166 284.374C15.3166 284.201 15.2043 284.041 15.1482 283.867C14.3504 280.952 13.8008 277.971 13.5058 274.957C13.3373 273.291 13.2531 271.697 13.197 270.132C14.2217 270.002 18.8119 269.364 20.8193 268.162C22.8266 266.959 24.7217 264.989 25.0305 262.641C25.1035 262.09 25.0635 261.529 24.913 260.995C24.7624 260.461 24.5047 259.965 24.1566 259.54C23.8085 259.115 23.3777 258.771 22.8923 258.529C22.4068 258.287 21.8775 258.153 21.3387 258.135C18.082 258.135 14.7411 263.091 13.8427 265.93C13.8427 266.09 13.4777 267.712 13.2531 268.901C13.2531 268.205 13.2531 267.452 13.2531 266.8C13.2531 264.264 13.4075 261.946 13.5619 259.903C13.6602 258.73 13.7725 257.672 13.8848 256.687C14.8253 256.02 18.5733 253.296 19.7244 251.34C20.8754 249.384 21.7738 246.675 20.9316 244.473C20.7507 243.95 20.4652 243.472 20.0936 243.07C19.722 242.669 19.2727 242.352 18.7748 242.142C18.2769 241.931 17.7416 241.831 17.2039 241.849C16.6661 241.866 16.1378 242 15.6535 242.241C12.7618 243.777 12.0038 249.761 12.4811 252.717C12.4811 252.963 13.6181 256.875 13.6602 256.846C13.5339 257.788 13.4075 258.802 13.2952 259.918C13.0987 261.975 12.9022 264.264 12.832 266.843C12.7474 269.578 12.813 272.316 13.0285 275.044C13.2353 278.104 13.705 281.139 14.4323 284.114C14.4383 284.147 14.4383 284.182 14.4323 284.215C13.9269 283.389 12.4249 281.129 12.2845 280.97C10.3895 278.709 5.43429 275.478 2.45836 276.797C1.96769 277.027 1.52945 277.36 1.17224 277.777C0.815023 278.193 0.546866 278.682 0.385263 279.213C0.223659 279.743 0.172239 280.303 0.234363 280.855C0.296487 281.408 0.470757 281.94 0.745799 282.418C1.85475 284.49 4.49378 285.519 6.6415 285.838C9.05594 286.2 14.1375 284.679 14.5446 284.563C15.3795 287.566 16.4065 290.509 17.6187 293.372C18.3206 295.038 19.0225 296.704 19.8507 298.356C19.3875 297.646 18.9663 297.023 18.9102 296.907C17.0151 294.647 12.0599 291.416 9.08401 292.734C8.60163 292.988 8.17679 293.344 7.83749 293.78C7.4982 294.215 7.25214 294.72 7.11554 295.261C6.97893 295.801 6.95488 296.366 7.04496 296.917C7.13504 297.468 7.33721 297.993 7.63816 298.457C8.73307 300.529 11.3861 301.558 13.5198 301.877C15.6535 302.195 20.0472 301.007 21.1983 300.66C21.5071 301.297 21.8019 301.935 22.1107 302.558C23.5145 305.586 25.0726 308.6 26.4342 311.599C26.9115 312.656 27.3467 313.714 27.838 314.772L27.0098 313.555C25.1147 311.294 20.1595 308.078 17.1836 309.382C16.6937 309.614 16.2566 309.951 15.9008 310.369C15.5449 310.787 15.2783 311.278 15.1181 311.809C14.9579 312.341 14.9078 312.901 14.971 313.454C15.0343 314.007 15.2094 314.54 15.4851 315.018C16.594 317.09 19.233 318.119 21.3667 318.437C23.9034 318.448 26.4267 318.057 28.8487 317.278C29.2698 318.379 29.6909 319.48 30.0418 320.553C30.2805 321.306 30.5472 322.002 30.7297 322.769C30.9122 323.537 31.1368 324.218 31.3333 325.001C31.6702 326.45 32.0211 327.898 32.3159 329.347C32.5265 330.318 32.7089 331.26 32.8914 332.245C32.4142 331.187 31.4877 329.13 31.3614 328.971C29.8172 326.435 25.3955 322.48 22.2511 323.305C21.7337 323.46 21.2534 323.724 20.8413 324.082C20.4293 324.44 20.0946 324.883 19.8591 325.383C19.6236 325.883 19.4924 326.429 19.474 326.984C19.4556 327.54 19.5505 328.093 19.7524 328.608C20.5385 330.825 22.9951 332.259 25.0586 332.955C27.3467 333.665 32.3861 332.955 33.0178 332.955C33.3266 334.505 33.5933 336.027 33.846 337.461C34.6882 342.431 35.2497 346.618 35.5445 349.53C35.5445 350.052 35.6568 350.515 35.6989 350.979H25.8727L29.4382 422.799H46.0866L49.6521 350.979H40.5418L40.7524 350.559C42.0017 347.864 43.7283 344.01 45.5953 339.286C46.1989 337.838 46.8025 336.2 47.4061 334.549C48.0237 334.679 53.0211 335.722 55.3372 335.172C57.4569 334.679 60.0117 333.448 60.9522 331.303C61.1922 330.805 61.3276 330.26 61.3495 329.703C61.3714 329.147 61.2793 328.592 61.0792 328.076C60.8791 327.559 60.5756 327.091 60.1884 326.704C59.8013 326.316 59.3393 326.017 58.8325 325.827C55.7583 324.754 51.0699 328.362 49.3433 330.767C49.245 330.912 48.3045 332.578 47.7289 333.665L48.4729 331.636C48.9642 330.26 49.4134 328.855 49.8767 327.362L50.5084 325.146C50.747 324.407 50.9014 323.61 51.0979 322.827C51.505 321.016 51.8419 319.162 52.1507 317.278C53.3158 317.713 57.513 319.22 59.6748 319.06C61.8365 318.901 64.5457 318.09 65.7951 316.163C66.1118 315.705 66.3307 315.184 66.4374 314.632C66.5442 314.081 66.5362 313.513 66.4141 312.965C66.292 312.417 66.0586 311.902 65.7292 311.454C65.3999 311.006 64.9821 310.636 64.5036 310.367C61.6962 308.918 56.4462 311.671 54.3967 313.772C54.2704 313.917 52.993 315.598 52.263 316.539C52.4315 315.409 52.5999 314.279 52.7403 313.12C53.1474 309.802 53.4422 306.426 53.765 303.065C53.8633 302.036 53.9756 301.007 54.0739 299.979C54.495 300.138 59.4361 302.036 61.8646 301.862C64.0123 301.703 66.7215 300.892 67.9709 298.965C68.2876 298.507 68.5065 297.985 68.6132 297.434C68.72 296.883 68.712 296.314 68.5899 295.767C68.4678 295.219 68.2344 294.704 67.905 294.256C67.5757 293.808 67.1579 293.438 66.6794 293.169C63.8719 291.648 58.636 294.473 56.5725 296.574C56.4181 296.733 54.5371 299.167 54.0879 299.805C54.3265 297.545 54.5792 295.299 54.9161 293.082C55.3483 290.097 55.972 287.144 56.7831 284.244C56.9796 284.244 62.1173 286.316 64.6159 286.142C66.7637 285.983 69.4729 285.157 70.7222 283.244C71.0411 282.788 71.262 282.266 71.3699 281.714C71.4779 281.163 71.4705 280.593 71.3483 280.045C71.226 279.496 70.9917 278.981 70.661 278.533C70.3304 278.085 69.9109 277.716 69.4308 277.449C66.6233 275.913 61.3873 278.738 59.3238 280.854C59.1694 281.013 57.148 283.636 56.8111 284.128L56.9375 283.621C57.8287 280.732 58.9655 277.929 60.3345 275.247C61.0785 273.798 61.8646 272.349 62.6507 271.045C63.5772 271.523 67.8165 273.653 70.0624 273.74C72.3084 273.827 75.0036 273.32 76.4635 271.494C76.8104 271.078 77.0696 270.592 77.2245 270.066C77.3795 269.541 77.4267 268.988 77.3633 268.443C77.3 267.898 77.1273 267.372 76.8564 266.9C76.5855 266.427 76.2222 266.018 75.7897 265.699C73.0805 263.844 67.648 266.061 65.388 267.93C65.2617 268.031 64.1106 269.205 63.2964 270.074C63.6614 269.48 64.0264 268.857 64.3913 268.307C65.7951 266.191 67.1146 264.351 68.3499 262.714C69.0518 261.801 69.7536 260.99 70.3292 260.236C71.4662 260.236 76.0564 260.062 78.0638 259.092C80.0711 258.121 82.275 256.368 82.7382 254.064C82.9323 253.502 83.0007 252.902 82.9383 252.309C82.8759 251.716 82.6842 251.145 82.3777 250.639C82.0712 250.133 81.6578 249.705 81.1684 249.388C80.679 249.07 80.1263 248.871 79.5517 248.805ZM43.8266 338.272C41.8754 342.909 40.0786 346.69 38.8012 349.313L38.0853 350.762H37.8747C37.8747 350.254 37.7343 349.689 37.6501 349.066C37.2571 346.169 36.6394 341.909 35.6708 336.91C35.376 335.331 35.0251 333.65 34.6461 331.926C36.1633 331.294 37.6443 330.573 39.0819 329.767C41.0348 331.517 43.2124 332.98 45.5532 334.114C44.9776 335.519 44.3881 336.939 43.8266 338.272Z" fill="#263238"/>
<path d="M62.5519 270.103C62.5519 270.103 63.5906 266.206 63.6187 265.945C64.0258 262.975 63.1134 257.02 60.1795 255.556C59.692 255.331 59.1645 255.213 58.6304 255.21C58.0964 255.207 57.5676 255.319 57.0776 255.538C56.5877 255.758 56.1475 256.08 55.7849 256.485C55.4223 256.89 55.1453 257.368 54.9716 257.889C54.1855 260.106 55.1822 262.83 56.3754 264.713C57.7791 266.974 62.5519 270.103 62.5519 270.103Z" fill="#263238"/>
<path d="M591.102 422.451H20.1309V429.667H591.102V422.451Z" fill="#263238"/>
</svg>
