<svg width="599" height="430" viewBox="0 0 599 430" fill="none" xmlns="http://www.w3.org/2000/svg">
<path d="M563.014 420.988C567.113 405.514 580.462 353.572 589.531 300.964C600.339 238.156 609.801 151.644 566.537 115.35C523.274 79.0555 466.479 122.333 436.734 108.381C406.988 94.4279 405.641 24.636 325.838 3.71435C246.036 -17.2073 201.439 55.3375 166.289 94.4134C131.139 133.489 91.8909 106.975 40.5421 148.847C-10.2733 190.256 32.8215 377.768 70.3996 420.988H563.014Z" fill="#3F87C7"/>
<path opacity="0.7" d="M563.014 420.988C567.113 405.514 580.462 353.572 589.531 300.964C600.339 238.156 609.801 151.644 566.537 115.35C523.274 79.0555 466.479 122.333 436.734 108.381C406.988 94.4279 405.641 24.636 325.838 3.71435C246.036 -17.2073 201.439 55.3375 166.289 94.4134C131.139 133.489 91.8909 106.975 40.5421 148.847C-10.2733 190.256 32.8215 377.768 70.3996 420.988H563.014Z" fill="white"/>
<path d="M577.009 127.071H466.816C466.281 127.075 465.769 127.296 465.391 127.686C465.012 128.077 464.798 128.605 464.794 129.157V421.828C464.794 422.383 465.007 422.915 465.386 423.309C465.764 423.702 466.278 423.925 466.816 423.929H577.009C577.549 423.929 578.067 423.708 578.449 423.314C578.83 422.92 579.045 422.386 579.045 421.828V129.157C579.041 128.603 578.825 128.072 578.444 127.681C578.062 127.29 577.547 127.071 577.009 127.071ZM574.988 419.742H468.851V131.258H574.988V419.742Z" fill="white"/>
<path d="M476.544 191.473H567.296C567.562 191.473 567.826 191.419 568.072 191.313C568.318 191.207 568.542 191.052 568.73 190.857C568.918 190.662 569.066 190.43 569.167 190.175C569.268 189.92 569.319 189.647 569.317 189.372V139.922C569.319 139.648 569.268 139.376 569.167 139.122C569.066 138.868 568.917 138.637 568.729 138.443C568.541 138.249 568.317 138.095 568.071 137.991C567.825 137.887 567.561 137.834 567.296 137.836H476.544C476.277 137.834 476.013 137.887 475.766 137.991C475.519 138.095 475.294 138.248 475.105 138.442C474.916 138.636 474.766 138.866 474.664 139.121C474.561 139.375 474.508 139.647 474.508 139.922V189.372C474.508 189.929 474.723 190.464 475.104 190.858C475.486 191.252 476.004 191.473 476.544 191.473ZM478.565 141.98H565.26V187.242H478.565V141.98Z" fill="white"/>
<path d="M476.544 261.714H567.296C567.561 261.716 567.825 261.663 568.071 261.559C568.317 261.455 568.541 261.301 568.729 261.107C568.917 260.913 569.066 260.682 569.167 260.428C569.268 260.174 569.319 259.902 569.317 259.628V210.178C569.319 209.903 569.268 209.63 569.167 209.375C569.066 209.12 568.918 208.888 568.73 208.693C568.542 208.498 568.318 208.343 568.072 208.237C567.826 208.131 567.562 208.077 567.296 208.077H476.544C476.004 208.077 475.486 208.298 475.104 208.692C474.723 209.086 474.508 209.621 474.508 210.178V259.628C474.508 259.903 474.561 260.175 474.664 260.43C474.766 260.684 474.916 260.914 475.105 261.108C475.294 261.302 475.519 261.455 475.766 261.559C476.013 261.663 476.277 261.716 476.544 261.714ZM478.565 212.264H565.26V257.541H478.565V212.264Z" fill="white"/>
<path d="M476.544 331.97H567.295C567.832 331.97 568.346 331.75 568.725 331.359C569.104 330.967 569.317 330.437 569.317 329.883V280.419C569.317 279.866 569.104 279.335 568.725 278.944C568.346 278.552 567.832 278.333 567.295 278.333H476.544C476.006 278.333 475.491 278.552 475.109 278.943C474.728 279.334 474.512 279.864 474.508 280.419V329.883C474.512 330.438 474.728 330.969 475.109 331.359C475.491 331.75 476.006 331.97 476.544 331.97ZM478.565 282.52H565.26V327.782H478.565V282.52Z" fill="white"/>
<path d="M476.544 402.225H567.296C567.562 402.225 567.826 402.171 568.073 402.065C568.319 401.959 568.542 401.804 568.73 401.609C568.918 401.414 569.067 401.182 569.167 400.927C569.268 400.672 569.319 400.4 569.317 400.124V350.617C569.319 350.342 569.268 350.07 569.167 349.816C569.066 349.562 568.917 349.331 568.729 349.137C568.541 348.943 568.318 348.789 568.072 348.685C567.825 348.581 567.562 348.528 567.296 348.53H476.544C476.277 348.528 476.013 348.581 475.766 348.685C475.519 348.789 475.295 348.942 475.106 349.136C474.916 349.33 474.766 349.561 474.664 349.815C474.561 350.069 474.509 350.341 474.509 350.617V400.066C474.501 400.347 474.548 400.627 474.647 400.888C474.746 401.15 474.895 401.388 475.085 401.59C475.274 401.791 475.501 401.951 475.752 402.06C476.003 402.169 476.272 402.225 476.544 402.225ZM478.565 352.775H565.26V398.038H478.565V352.775Z" fill="white"/>
<path d="M438.98 23.1726H142.173C141.646 23.1724 141.141 23.3842 140.763 23.763C140.386 24.1419 140.166 24.6578 140.152 25.201V177.796C140.152 178.071 140.204 178.343 140.307 178.597C140.409 178.852 140.559 179.082 140.749 179.276C140.938 179.47 141.162 179.623 141.409 179.727C141.656 179.831 141.92 179.884 142.187 179.882H438.98C439.246 179.884 439.509 179.831 439.755 179.727C440.001 179.623 440.225 179.469 440.413 179.275C440.601 179.081 440.75 178.85 440.851 178.596C440.952 178.342 441.003 178.07 441.001 177.796V25.201C440.99 24.6566 440.772 24.1385 440.393 23.7589C440.015 23.3793 439.507 23.1687 438.98 23.1726ZM436.944 27.3598V168.943H144.194V27.3019L436.944 27.3598Z" fill="white"/>
<path d="M505.727 324.943L499.34 424.509C499.305 425.015 499.086 425.489 498.726 425.835C498.367 426.182 497.895 426.376 497.403 426.378C497.144 426.378 496.888 426.325 496.65 426.22C496.412 426.116 496.197 425.963 496.018 425.771C495.838 425.579 495.698 425.352 495.606 425.102C495.513 424.853 495.47 424.587 495.48 424.321L498.105 324.943H505.727Z" fill="#263238" stroke="#263238" stroke-linecap="round" stroke-linejoin="round"/>
<path d="M522.067 324.943L528.454 424.509C528.486 425.014 528.703 425.487 529.059 425.834C529.416 426.181 529.887 426.375 530.378 426.378C530.637 426.378 530.893 426.325 531.132 426.22C531.371 426.116 531.587 425.964 531.768 425.772C531.948 425.58 532.09 425.353 532.184 425.104C532.278 424.854 532.322 424.588 532.315 424.321L529.662 325.001L522.067 324.943Z" fill="#263238" stroke="#263238" stroke-linecap="round" stroke-linejoin="round"/>
<path d="M458.028 324.943L464.415 424.509C464.447 425.014 464.663 425.487 465.02 425.834C465.377 426.181 465.848 426.375 466.338 426.378C466.598 426.378 466.854 426.325 467.093 426.22C467.332 426.116 467.548 425.964 467.728 425.772C467.909 425.58 468.051 425.353 468.145 425.104C468.238 424.854 468.283 424.588 468.276 424.321L465.608 325.001L458.028 324.943Z" fill="#263238" stroke="#263238" stroke-linecap="round" stroke-linejoin="round"/>
<path d="M431.933 324.943L425.546 424.509C425.511 425.015 425.292 425.489 424.933 425.835C424.573 426.182 424.101 426.376 423.609 426.378C423.35 426.376 423.095 426.321 422.857 426.216C422.619 426.112 422.404 425.959 422.223 425.768C422.043 425.576 421.902 425.35 421.807 425.101C421.712 424.853 421.666 424.587 421.672 424.321L424.339 325.001L431.933 324.943Z" fill="#263238" stroke="#263238" stroke-linecap="round" stroke-linejoin="round"/>
<path d="M543.207 224.565C543.207 224.565 479.477 222.102 474.087 222.102C468.697 222.102 467.447 224.565 467.447 224.565L458.351 290.764C458.351 290.764 430.066 282.433 424.521 283.52C418.976 284.606 427.258 326.145 427.258 326.145H459.263L459.839 323.653H532.104L551.293 229.303C550.128 224.985 543.207 224.565 543.207 224.565Z" fill="#263238" stroke="#263238" stroke-linecap="round" stroke-linejoin="round"/>
<path d="M518.95 265.974C518.95 265.974 525.436 309.44 517.996 314.511C516.845 315.293 510.598 319.002 504.758 318.394C500.07 317.901 466.942 318.394 466.942 318.394C466.942 318.394 462.337 309.353 461.411 302.688C460.484 296.023 467.728 267.423 467.728 267.423L518.95 265.974Z" fill="white" stroke="#263238" stroke-linecap="round" stroke-linejoin="round"/>
<path d="M464.696 289.257C464.696 289.257 416.744 294.401 414.484 295.791C412.224 297.182 401.851 306.528 403.633 312.598C405.416 318.669 400.924 319.133 405.037 320.074C409.15 321.016 467.447 321.002 467.447 321.002" fill="#3F87C7"/>
<path d="M464.696 289.257C464.696 289.257 416.744 294.401 414.484 295.791C412.224 297.182 401.851 306.528 403.633 312.598C405.416 318.669 400.924 319.133 405.037 320.074C409.15 321.016 467.447 321.002 467.447 321.002" stroke="#263238" stroke-linecap="round" stroke-linejoin="round"/>
<path d="M421.082 326.073H535.023V317.293H421.082V326.073Z" fill="#263238" stroke="#263238" stroke-linecap="round" stroke-linejoin="round"/>
<path d="M508.114 291.126H439.471C439.471 291.126 435.863 295.328 435.4 304.166C434.937 313.004 435.863 314.902 442.194 317.206C448.525 319.509 504.759 318.336 504.759 318.336" fill="#3F87C7"/>
<path d="M508.114 291.126H439.471C439.471 291.126 435.863 295.328 435.4 304.166C434.937 313.004 435.863 314.902 442.194 317.206C448.525 319.509 504.759 318.336 504.759 318.336" stroke="#263238" stroke-linecap="round" stroke-linejoin="round"/>
<path d="M454.028 403.558L446.841 385.984L435.063 388.287L444.075 403.964L438.881 414.7L427.652 422.278C427.652 422.278 426.346 423.611 431.961 423.161C437.576 422.712 449.227 423.161 449.227 423.161L456.569 414.251C456.569 414.251 459.236 409.716 454.028 403.558Z" fill="#A48A8A" stroke="#263238" stroke-linecap="round" stroke-linejoin="round"/>
<path d="M457.172 411.237L457.467 422.727H455.712L453.368 416.989L457.172 411.237Z" fill="#263238" stroke="#263238" stroke-linecap="round" stroke-linejoin="round"/>
<path d="M449.241 423.219L456.583 414.309C456.583 414.309 458.478 410.991 455.867 406.21C450.645 415.425 443.696 418.192 443.696 418.192L436.453 416.395L427.666 422.336C427.666 422.336 426.36 423.669 431.975 423.219C437.59 422.77 449.241 423.219 449.241 423.219Z" fill="#263238" stroke="#263238" stroke-linecap="round" stroke-linejoin="round"/>
<path d="M425.798 314.004L449.873 389.128L432.789 392.257L399.099 314.018C399.099 314.018 396.39 302.34 403.619 298.617C410.849 294.893 432.115 293.01 432.115 293.01" fill="#3F87C7"/>
<path d="M425.798 314.004L449.873 389.128L432.789 392.257L399.099 314.018C399.099 314.018 396.39 302.34 403.619 298.617C410.849 294.893 432.115 293.01 432.115 293.01" stroke="#263238" stroke-linecap="round" stroke-linejoin="round"/>
<path d="M503.019 326.058C503.019 326.058 494.722 284.461 500.281 283.433C505.84 282.404 534.111 290.677 534.111 290.677L543.208 224.565C543.208 224.565 552.809 223 553.82 231.809C554.83 240.619 535.024 326.058 535.024 326.058H503.019Z" fill="#263238" stroke="#263238" stroke-linecap="round" stroke-linejoin="round"/>
<path d="M405.332 203.586L401.051 196.341C400.638 195.647 400.057 195.076 399.365 194.685C398.673 194.294 397.895 194.096 397.106 194.11L393.077 194.182L386.185 192.053C385.747 191.921 385.281 191.926 384.846 192.068C384.412 192.21 384.027 192.482 383.742 192.849L383.49 193.183L389.835 196.08L383.504 198.486L376.78 194.965C376.515 194.825 376.21 194.785 375.92 194.854C375.63 194.923 375.373 195.096 375.194 195.342C374.99 195.615 374.899 195.96 374.941 196.302C374.983 196.644 375.155 196.955 375.418 197.167L384.823 204.658C385.118 204.894 385.458 205.063 385.822 205.153C386.185 205.243 386.562 205.252 386.929 205.179L397.331 203.021L400.236 206.295L405.332 203.586Z" fill="#A48A8A" stroke="#263238" stroke-linecap="round" stroke-linejoin="round"/>
<path d="M477.849 188.72L439.288 230.346L402.482 199.645L397.4 203.455L437.898 250.819L473.006 231.302L477.849 188.72Z" fill="white" stroke="#263238" stroke-linecap="round" stroke-linejoin="round"/>
<path d="M535.543 199.355L555.757 263.467L538.322 263.989L520.986 233.896C520.986 233.896 530.728 203.542 535.543 199.355Z" fill="white" stroke="#263238" stroke-linecap="round" stroke-linejoin="round"/>
<path d="M513.547 188.344L535.543 199.427L517.126 252.586L519.302 267.408L467.729 267.495L473.877 243.618L469.666 228.318C469.119 226.332 469.09 224.233 469.581 222.233L477.835 188.793L499.509 185.199L513.547 188.344Z" fill="white" stroke="#263238" stroke-linecap="round" stroke-linejoin="round"/>
<path d="M512.494 185.228C512.494 185.228 516.817 188.242 516.958 190.922C517.028 192.502 516.958 195.269 516.817 197.384C516.74 199.037 516.374 200.662 515.736 202.18L507.946 211.888L498.934 204.542L491.452 208.483C491.452 208.483 490.048 196.645 493.319 188.387C496.589 180.128 510.823 183.157 512.494 185.228Z" fill="white" stroke="#263238" stroke-linecap="round" stroke-linejoin="round"/>
<path d="M518.684 162.264C518.684 162.264 516.915 168.827 516.087 173.174C515.259 177.52 513.588 186.214 513.742 189.474C513.897 192.734 500.603 206.614 498.933 204.542C497.262 202.47 495.508 190.43 495.508 190.43L497.164 170.957C497.164 170.957 514.486 151.151 518.684 162.264Z" fill="#A48A8A" stroke="#263238" stroke-linecap="round" stroke-linejoin="round"/>
<path d="M490.904 152.122C490.904 152.122 488.532 156.164 488.532 157.917C488.532 159.67 489.36 163.104 489.219 164.104C489.079 165.104 486.721 168.451 486.412 169.581C486.257 170.041 486.27 170.543 486.448 170.994C486.626 171.445 486.958 171.813 487.38 172.029C487.954 172.332 488.511 172.666 489.051 173.029C489.051 173.029 489.753 181.954 490.876 184.258C491.999 186.561 492.967 187.576 496.308 187.865C499.649 188.155 507.608 184.548 508.717 181.664C509.826 178.781 509.981 175.333 510.121 171.16C510.262 166.987 507.468 161.018 505.377 155.324C503.285 149.63 494.526 146.5 490.904 152.122Z" fill="#A48A8A" stroke="#263238" stroke-linecap="round" stroke-linejoin="round"/>
<path d="M526.91 181.592C532.825 181.592 537.62 176.642 537.62 170.537C537.62 164.432 532.825 159.482 526.91 159.482C520.994 159.482 516.199 164.432 516.199 170.537C516.199 176.642 520.994 181.592 526.91 181.592Z" fill="#263238" stroke="#263238" stroke-linecap="round" stroke-linejoin="round"/>
<path d="M490.849 151.499C490.849 151.499 495.158 147.659 502.907 155.295C510.656 162.93 507.708 173.971 512.887 176.26C518.067 178.549 527.655 167.103 528.764 161.395C529.873 155.686 526.546 143.849 516.2 141.56C505.855 139.27 493.179 140.835 490.849 151.499Z" fill="#263238" stroke="#263238" stroke-linecap="round" stroke-linejoin="round"/>
<path d="M490.848 151.499C490.756 150.601 490.864 149.693 491.163 148.845C491.462 147.996 491.945 147.229 492.574 146.602C493.203 145.975 493.963 145.504 494.795 145.226C495.627 144.947 496.509 144.867 497.376 144.993C504.394 145.385 505.124 156.816 508.816 161.395C512.508 165.973 514.361 165.205 514.361 165.205C514.361 165.205 508.086 167.103 504.015 164.814C499.944 162.525 497.979 149.615 490.848 151.499Z" fill="#263238" stroke="#263238" stroke-linecap="round" stroke-linejoin="round"/>
<path d="M502.316 143.661C506.009 146.015 508.941 149.449 510.739 153.527C513.925 160.496 513.925 166.248 521.491 165.843C521.491 165.843 517.912 166.669 512.339 163.785C506.766 160.902 505.573 152.701 501.993 149.413C500.041 147.505 497.515 146.344 494.834 146.124" stroke="white" stroke-width="0.5" stroke-linecap="round" stroke-linejoin="round"/>
<path d="M528.763 161.395C528.763 161.395 528.44 171.855 520.663 174.058" stroke="white" stroke-width="0.5" stroke-linecap="round" stroke-linejoin="round"/>
<path d="M507.061 172.073C507.061 172.073 514.473 162.061 516.213 169.537C517.954 177.013 512.002 178.839 509.195 177.984C506.387 177.129 506.781 175.579 506.781 175.579" fill="#A48A8A"/>
<path d="M507.061 172.073C507.061 172.073 514.473 162.061 516.213 169.537C517.954 177.013 512.002 178.839 509.195 177.984C506.387 177.129 506.781 175.579 506.781 175.579" stroke="#263238" stroke-linecap="round" stroke-linejoin="round"/>
<path d="M490.567 257.744C490.567 257.744 476.417 259.773 474.059 259.773C471.701 259.773 465.805 267.481 465.805 267.481H491.746L490.567 257.744Z" fill="#A48A8A" stroke="#263238" stroke-linecap="round" stroke-linejoin="round"/>
<path d="M550.675 247.921L555.756 259.744C555.984 260.44 556.049 261.181 555.947 261.908C555.844 262.635 555.577 263.327 555.167 263.927C554.756 264.527 554.214 265.019 553.585 265.362C552.956 265.705 552.257 265.89 551.545 265.901L490.202 266.264L490.595 257.744L538.153 249.978" fill="white"/>
<path d="M550.675 247.921L555.756 259.744C555.984 260.44 556.049 261.181 555.947 261.908C555.844 262.635 555.577 263.327 555.167 263.927C554.756 264.527 554.214 265.019 553.585 265.362C552.956 265.705 552.257 265.89 551.545 265.901L490.202 266.264L490.595 257.744L538.153 249.978" stroke="#263238" stroke-linecap="round" stroke-linejoin="round"/>
<path d="M468.57 411.237L468.865 422.727H467.11L464.766 416.989L468.57 411.237Z" fill="#263238" stroke="#263238" stroke-linecap="round" stroke-linejoin="round"/>
<path d="M465.426 403.558L463.166 386.838L451.403 387.621L455.473 404.08L450.28 414.816L439.05 422.393C439.05 422.393 437.758 423.726 443.373 423.277C448.988 422.828 460.639 423.277 460.639 423.277L467.981 414.367C467.981 414.367 470.634 409.716 465.426 403.558Z" fill="#A48A8A" stroke="#263238" stroke-linecap="round" stroke-linejoin="round"/>
<path d="M460.639 423.219L467.981 414.309C467.981 414.309 469.876 410.991 467.251 406.21C462.029 415.425 455.08 418.192 455.08 418.192L447.851 416.395L439.05 422.336C439.05 422.336 437.758 423.669 443.373 423.219C448.988 422.77 460.639 423.219 460.639 423.219Z" fill="#263238" stroke="#263238" stroke-linecap="round" stroke-linejoin="round"/>
<path d="M460.036 301.065L465.075 389.91L449.115 390.301L433.533 309.585C433.533 309.585 433.828 294.212 438.587 292.445C443.345 290.677 455.979 292.575 455.979 292.575" fill="#3F87C7"/>
<path d="M460.036 301.065L465.075 389.91L449.115 390.301L433.533 309.585C433.533 309.585 433.828 294.212 438.587 292.445C443.345 290.677 455.979 292.575 455.979 292.575" stroke="#263238" stroke-linecap="round" stroke-linejoin="round"/>
<path d="M390.27 109.829L410.077 167.132C410.077 167.132 407.466 180.099 399.605 179.563C391.744 179.027 389.652 167.668 387.561 166.045C385.469 164.423 382.325 151.991 382.325 151.991L390.27 109.829Z" fill="white" stroke="#263238" stroke-linecap="round" stroke-linejoin="round"/>
<path d="M339.033 98.3398L306.832 110.336L319.184 202.499H377.285L390.27 109.829L355.513 98.6006L339.033 98.3398Z" fill="white" stroke="#263238" stroke-linecap="round" stroke-linejoin="round"/>
<path d="M342.136 114.133L346.782 121.362L342.753 182.678L348.677 198.645L354.755 183.113L349.547 122.275L353.731 111.829L347.933 103.961L342.136 114.133Z" fill="#3F87C7" stroke="#263238" stroke-linecap="round" stroke-linejoin="round"/>
<path d="M348.565 111.148L340.269 117.566L334.808 100.832L338.612 92.3561L355.583 91.9359L359.724 95.7754L358.896 117.132L348.565 111.148Z" fill="white" stroke="#263238" stroke-linecap="round" stroke-linejoin="round"/>
<path d="M357.338 88.0095L356.047 98.7746L346.754 111.148L339.806 98.6007V78.418C339.806 78.418 351.976 81.562 357.338 88.0095Z" fill="#EFC0B5" stroke="#263238" stroke-linecap="round" stroke-linejoin="round"/>
<path d="M335.032 65.639C335.032 55.8591 341.939 47.9338 350.474 47.9338C359.008 47.9338 363.739 56.2938 363.739 66.0736C363.739 69.2322 363.107 74.6509 362.855 77.5342C362.419 82.4603 360.974 84.5467 358.152 88.9657C348.901 103.454 341.307 82.1995 337.419 75.0566C335.845 72.1844 335.022 68.9388 335.032 65.639Z" fill="#EFC0B5" stroke="#263238" stroke-linecap="round" stroke-linejoin="round"/>
<path d="M357.184 68.7105L358.489 78.8091L353.899 78.6787" fill="#EFC0B5"/>
<path d="M357.184 68.7105L358.489 78.8091L353.899 78.6787" stroke="#263238" stroke-linecap="round" stroke-linejoin="round"/>
<path d="M367.431 66.9574L345.364 67.0588C345.093 67.9446 345.052 68.8882 345.244 69.7957C345.436 70.7032 345.855 71.5429 346.459 72.2312C347.863 73.6801 353.576 73.173 354.489 72.7963C355.401 72.4196 355.892 68.2759 355.892 68.2759H357.535C357.535 68.2759 357.717 72.6224 360.076 72.9847C362.434 73.3469 365.508 73.231 366.098 72.7963C368.709 70.9852 367.431 66.9574 367.431 66.9574Z" fill="white" stroke="#263238" stroke-linecap="round" stroke-linejoin="round"/>
<path d="M337.756 76.6938C337.756 76.6938 342.725 87.1981 343.905 90.8348C345.084 94.4714 350.923 97.3112 356.833 95.2828C362.743 93.2544 361.143 84.2279 361.143 84.2279C361.143 84.2279 354.868 78.6933 353.703 79.8813C352.538 81.0694 346.249 86.3578 345.856 85.1407C345.463 83.9237 342.725 76.6504 342.725 76.6504L341.448 71.4924L344.073 69.7537C344.452 69.428 344.699 68.9671 344.764 68.4625C344.829 67.9579 344.707 67.4465 344.424 67.0299L343.189 65.1898C343.036 64.9645 342.929 64.7099 342.874 64.4412C342.818 64.1724 342.816 63.8949 342.866 63.625C343.189 62.0458 344.073 58.7713 346.123 57.8296C348.93 56.627 352.341 58.3801 355.486 59.1915C358.63 60.0029 362.041 57.0761 362.041 57.0761L363.445 61.8864C366.557 58.8716 368.769 55.0004 369.818 50.7301C371.39 43.848 355.317 41.0227 350.165 41.0227C345.014 41.0227 336.844 43.9204 334.486 51.5415C332.127 59.1625 336.367 75.3319 337.756 76.6938Z" fill="#263238" stroke="#263238" stroke-linecap="round" stroke-linejoin="round"/>
<path d="M350.474 50.7736C350.474 50.7736 353.394 55.2941 349.561 56.2358C345.729 57.1776 338.261 53.7872 334.977 55.1057" stroke="white" stroke-width="0.5" stroke-linecap="round" stroke-linejoin="round"/>
<path d="M343.904 60.7418C343.904 60.7418 337.896 59.9884 335.481 62.6253" stroke="white" stroke-width="0.5" stroke-linecap="round" stroke-linejoin="round"/>
<path d="M358.363 83.5904C358.363 83.5904 353.941 85.9666 351.751 83.1413" stroke="white" stroke-width="0.5" stroke-linecap="round" stroke-linejoin="round"/>
<path d="M338.5 73.4918C338.5 73.4918 334.162 68.5657 334.162 73.941C334.162 79.3163 335.468 79.3163 338.065 81.1853C340.662 83.0543 341.546 80.7361 341.546 80.7361" fill="#EFC0B5"/>
<path d="M338.5 73.4918C338.5 73.4918 334.162 68.5657 334.162 73.941C334.162 79.3163 335.468 79.3163 338.065 81.1853C340.662 83.0543 341.546 80.7361 341.546 80.7361" stroke="#263238" stroke-linecap="round" stroke-linejoin="round"/>
<path d="M396.418 407.47H396.615L396.236 405.5L377.285 202.513H319.185L300.08 407.456H300.29L312.615 408.542C312.615 408.542 326.287 361.164 326.287 357.629C326.287 354.094 330.19 321.407 330.19 321.407L349.575 251.065L366.715 321.407C366.715 321.407 370.618 354.166 370.618 357.629C370.618 361.092 384.304 408.571 384.304 408.571L395.899 407.543H396.418V407.47Z" fill="#263238" stroke="#263238" stroke-linecap="round" stroke-linejoin="round"/>
<path d="M372.947 214.452L360.019 233.505" stroke="white" stroke-width="0.5" stroke-linecap="round" stroke-linejoin="round"/>
<path d="M366.027 218.741L358.18 232.085" stroke="white" stroke-width="0.5" stroke-linecap="round" stroke-linejoin="round"/>
<path d="M329.109 217.799L340.634 230.65" stroke="white" stroke-width="0.5" stroke-linecap="round" stroke-linejoin="round"/>
<path d="M328.182 222.551L344.788 239.706" stroke="white" stroke-width="0.5" stroke-linecap="round" stroke-linejoin="round"/>
<path d="M322.638 204.455H373.874" stroke="white" stroke-width="0.5" stroke-linecap="round" stroke-linejoin="round"/>
<path d="M300.29 407.456C300.29 407.456 292.892 413.468 288.625 415.12C284.358 416.772 276.384 421.162 276.384 421.162C276.384 421.162 276.384 423.915 283.305 423.915H310.467L310.004 407.456H300.29Z" fill="#263238" stroke="#263238" stroke-linecap="round" stroke-linejoin="round"/>
<path d="M310.369 420.916C299.523 421.427 288.656 421.248 277.83 420.379L276.427 421.162C276.427 421.162 276.427 423.915 283.347 423.915H310.51L310.369 420.916Z" fill="white" stroke="#263238" stroke-linecap="round" stroke-linejoin="round"/>
<path d="M395.295 407.456C395.295 407.456 402.707 413.468 406.96 415.12C411.213 416.772 419.215 421.162 419.215 421.162C419.215 421.162 419.215 423.915 412.28 423.915H385.132L385.623 407.456H395.295Z" fill="#263238" stroke="#263238" stroke-linecap="round" stroke-linejoin="round"/>
<path d="M385.216 420.916C396.063 421.427 406.929 421.248 417.755 420.379L419.158 421.162C419.158 421.162 419.158 423.915 412.224 423.915H385.132L385.216 420.916Z" fill="white" stroke="#263238" stroke-linecap="round" stroke-linejoin="round"/>
<path d="M306.831 110.337L285.438 169.291H305.961L313.626 153.208L306.831 110.337Z" fill="white" stroke="#263238" stroke-linecap="round" stroke-linejoin="round"/>
<path d="M400.419 160.163C391.856 156.512 364.385 154.701 362.953 154.701C361.522 154.701 316.868 150.905 313.205 150.354C309.541 149.804 305.344 158.468 305.344 158.468L324.715 157.917L348.284 162.785C348.284 162.785 396.011 180.621 399.605 179.549C400.095 179.38 400.538 179.092 400.896 178.709" fill="white"/>
<path d="M400.419 160.163C391.856 156.512 364.385 154.701 362.953 154.701C361.522 154.701 316.868 150.905 313.205 150.354C309.541 149.804 305.344 158.468 305.344 158.468L324.715 157.917L348.284 162.785C348.284 162.785 396.011 180.621 399.605 179.549C400.095 179.38 400.538 179.092 400.896 178.709" stroke="#263238" stroke-linecap="round" stroke-linejoin="round"/>
<path d="M300.627 157.396L374.464 149.833L374.997 156.309L311.099 176.318C311.099 176.318 299.589 179.013 290.675 177.39C281.761 175.767 285.972 166.581 288.064 161.177" fill="white"/>
<path d="M300.627 157.396L374.464 149.833L374.997 156.309L311.099 176.318C311.099 176.318 299.589 179.013 290.675 177.39C281.761 175.767 285.972 166.581 288.064 161.177" stroke="#263238" stroke-linecap="round" stroke-linejoin="round"/>
<path d="M374.478 149.833L388.613 149.282L392.796 157.932L374.997 156.324L374.478 149.833Z" fill="#EFC0B5" stroke="#263238" stroke-linecap="round" stroke-linejoin="round"/>
<path d="M468.626 276.956L480.685 425.132C480.716 425.353 480.792 425.564 480.906 425.754C481.019 425.944 481.17 426.108 481.347 426.235C481.525 426.363 481.726 426.451 481.938 426.496C482.15 426.54 482.368 426.54 482.58 426.494C482.941 426.401 483.258 426.178 483.472 425.864C483.686 425.549 483.783 425.166 483.745 424.784L475.533 277L468.626 276.956Z" fill="#263238" stroke="#263238" stroke-linecap="round" stroke-linejoin="round"/>
<path d="M549.664 276.956L561.764 425.625C561.794 425.846 561.868 426.059 561.981 426.25C562.095 426.441 562.245 426.605 562.423 426.733C562.601 426.861 562.803 426.95 563.016 426.993C563.228 427.037 563.448 427.035 563.659 426.986C564.021 426.894 564.337 426.67 564.551 426.356C564.765 426.042 564.862 425.659 564.824 425.277L556.585 276.956H549.664Z" fill="#263238" stroke="#263238" stroke-linecap="round" stroke-linejoin="round"/>
<path d="M215.237 276.956L208.935 423.842C208.9 424.228 208.999 424.613 209.216 424.929C209.432 425.245 209.75 425.471 210.114 425.567C210.322 425.622 210.54 425.63 210.752 425.591C210.964 425.552 211.165 425.466 211.342 425.34C211.519 425.214 211.668 425.049 211.778 424.858C211.888 424.668 211.957 424.454 211.981 424.234L222.186 276.956H215.237Z" fill="#263238" stroke="#263238" stroke-linecap="round" stroke-linejoin="round"/>
<path d="M140.544 276.956L134.199 423.292C134.168 423.679 134.271 424.064 134.489 424.38C134.708 424.696 135.028 424.921 135.392 425.016C135.601 425.069 135.818 425.075 136.029 425.035C136.24 424.995 136.44 424.909 136.617 424.783C136.793 424.657 136.942 424.494 137.052 424.304C137.163 424.115 137.234 423.903 137.259 423.683L147.422 276.898L140.544 276.956Z" fill="#263238" stroke="#263238" stroke-linecap="round" stroke-linejoin="round"/>
<path d="M565.442 268.741H136.052V281.462H565.442V268.741Z" fill="#3F87C7" stroke="#263238" stroke-linecap="round" stroke-linejoin="round"/>
<path d="M565.442 268.741H136.052V273.102H565.442V268.741Z" fill="#263238" stroke="#263238" stroke-linecap="round" stroke-linejoin="round"/>
<path d="M565.428 268.741H457.986V281.462H565.428V268.741Z" fill="#263238" stroke="#263238" stroke-linecap="round" stroke-linejoin="round"/>
<path d="M569.26 264.51H132.22V269.364H569.26V264.51Z" fill="#3F87C7" stroke="#263238" stroke-linecap="round" stroke-linejoin="round"/>
<path d="M569.246 264.51H462.464V269.364H569.246V264.51Z" fill="#263238" stroke="#263238" stroke-linecap="round" stroke-linejoin="round"/>
<path d="M229.57 264.076H288.218C288.441 264.077 288.661 264.011 288.848 263.885C289.035 263.758 289.182 263.578 289.271 263.366L305.512 225.145C305.586 224.966 305.617 224.77 305.6 224.576C305.583 224.381 305.519 224.195 305.415 224.032C305.31 223.87 305.168 223.737 305.001 223.645C304.834 223.553 304.648 223.506 304.459 223.508H245.811C245.591 223.507 245.376 223.573 245.192 223.697C245.007 223.82 244.862 223.996 244.772 224.203L228.587 262.424C228.511 262.598 228.478 262.789 228.49 262.98C228.502 263.17 228.559 263.355 228.656 263.518C228.753 263.68 228.887 263.816 229.046 263.914C229.205 264.011 229.385 264.067 229.57 264.076Z" fill="white" stroke="#263238" stroke-linecap="round" stroke-linejoin="round"/>
<path d="M235.072 261.091H285.115C285.303 261.091 285.486 261.035 285.643 260.929C285.8 260.824 285.924 260.674 286 260.497L299.855 227.883C299.93 227.729 299.965 227.558 299.957 227.386C299.949 227.214 299.898 227.047 299.809 226.901C299.72 226.755 299.596 226.636 299.449 226.554C299.302 226.472 299.137 226.431 298.97 226.434H248.927C248.736 226.433 248.548 226.49 248.388 226.598C248.228 226.706 248.103 226.861 248.028 227.043L234.202 259.686C234.137 259.837 234.109 260.002 234.121 260.167C234.133 260.332 234.184 260.491 234.271 260.63C234.357 260.769 234.475 260.884 234.615 260.965C234.755 261.045 234.912 261.089 235.072 261.091Z" fill="#3F87C7" stroke="#263238" stroke-linecap="round" stroke-linejoin="round"/>
<path d="M289.032 261.54H200.919V264.51H289.032V261.54Z" fill="white" stroke="#263238" stroke-linecap="round" stroke-linejoin="round"/>
<path d="M289.046 261.54H246.33V264.51H289.046V261.54Z" fill="white" stroke="#263238" stroke-linecap="round" stroke-linejoin="round"/>
<path d="M317.345 240.865H301.806V264.568H317.345V240.865Z" fill="white" stroke="#263238" stroke-linecap="round" stroke-linejoin="round"/>
<path d="M316.657 261.337H315.029C314.69 261.337 314.365 261.199 314.125 260.951C313.886 260.704 313.751 260.369 313.751 260.019C313.751 259.669 313.886 259.334 314.125 259.087C314.365 258.839 314.69 258.701 315.029 258.701H316.657C317.3 258.697 317.916 258.431 318.37 257.962C318.825 257.493 319.082 256.858 319.086 256.194V250.398C319.082 249.735 318.825 249.1 318.37 248.63C317.916 248.161 317.3 247.896 316.657 247.892H314.566C314.398 247.892 314.232 247.858 314.077 247.792C313.922 247.725 313.781 247.628 313.662 247.506C313.544 247.383 313.45 247.238 313.385 247.078C313.321 246.918 313.288 246.747 313.288 246.574C313.288 246.4 313.321 246.229 313.385 246.069C313.45 245.909 313.544 245.764 313.662 245.641C313.781 245.519 313.922 245.422 314.077 245.355C314.232 245.289 314.398 245.255 314.566 245.255H316.657C317.312 245.255 317.96 245.388 318.564 245.647C319.169 245.905 319.718 246.284 320.181 246.762C320.644 247.239 321.011 247.806 321.261 248.43C321.512 249.054 321.64 249.723 321.64 250.398V256.194C321.64 256.869 321.512 257.538 321.261 258.162C321.011 258.786 320.644 259.353 320.181 259.831C319.718 260.309 319.169 260.687 318.564 260.946C317.96 261.204 317.312 261.337 316.657 261.337Z" fill="white" stroke="#263238" stroke-linecap="round" stroke-linejoin="round"/>
<path d="M438.755 264.076H380.106C379.885 264.075 379.669 264.007 379.484 263.881C379.3 263.755 379.155 263.576 379.068 263.366L362.826 225.145C362.752 224.967 362.722 224.772 362.738 224.579C362.754 224.386 362.817 224.2 362.92 224.038C363.023 223.876 363.163 223.743 363.328 223.65C363.493 223.557 363.677 223.509 363.865 223.508H422.513C422.735 223.506 422.952 223.572 423.139 223.695C423.326 223.818 423.474 223.995 423.566 224.203L439.807 262.424C439.881 262.604 439.911 262.8 439.894 262.995C439.877 263.19 439.813 263.377 439.709 263.541C439.605 263.704 439.463 263.838 439.297 263.932C439.13 264.025 438.944 264.075 438.755 264.076Z" fill="white" stroke="#263238" stroke-linecap="round" stroke-linejoin="round"/>
<path d="M379.292 264.51H467.405V261.54H379.292V264.51Z" fill="white" stroke="#263238" stroke-linecap="round" stroke-linejoin="round"/>
<path d="M379.292 264.51H440.046V261.54H379.292V264.51Z" fill="white" stroke="#263238" stroke-linecap="round" stroke-linejoin="round"/>
<path d="M402.285 239.373C402.603 239.993 402.737 240.696 402.669 241.395C402.601 242.093 402.335 242.755 401.904 243.298C401.473 243.841 400.897 244.24 400.247 244.446C399.597 244.652 398.902 244.655 398.251 244.456C397.599 244.256 397.019 243.862 396.583 243.324C396.147 242.785 395.875 242.126 395.8 241.428C395.726 240.731 395.853 240.026 396.165 239.403C396.477 238.779 396.961 238.265 397.555 237.924C398.369 237.47 399.324 237.368 400.21 237.639C401.097 237.911 401.843 238.534 402.285 239.373Z" fill="white" stroke="#263238" stroke-linecap="round" stroke-linejoin="round"/>
<path d="M128.037 126.868L132.36 170.957L152.012 229.68L145.289 233.65L122.211 179.897L110.686 133.75C110.686 133.75 109.718 119.87 114.533 117.813C119.347 115.755 126.114 117.943 128.037 126.868Z" fill="white" stroke="#263238" stroke-linecap="round" stroke-linejoin="round"/>
<path d="M152.069 229.738C152.069 229.738 156.392 239.17 156.883 241.647C157.375 244.125 157.866 249.181 155.971 251.442C153.683 254.166 151.591 252.065 151.591 252.065C151.591 252.065 145.822 250.616 145.822 245.617C145.822 240.619 145.345 233.707 145.345 233.707L152.069 229.738Z" fill="white" stroke="#263238" stroke-linecap="round" stroke-linejoin="round"/>
<path d="M147.352 244.531L155.452 246.704" stroke="#263238" stroke-linecap="round" stroke-linejoin="round"/>
<path d="M149.289 238.894L151.591 242.633C151.591 242.633 146.229 252.094 149.107 249.616C151.985 247.139 157.361 244.125 156.884 241.647C156.071 239.047 154.998 236.542 153.683 234.171" fill="white"/>
<path d="M149.289 238.894L151.591 242.633C151.591 242.633 146.229 252.094 149.107 249.616C151.985 247.139 157.361 244.125 156.884 241.647C156.071 239.047 154.998 236.542 153.683 234.171" stroke="#263238" stroke-linecap="round" stroke-linejoin="round"/>
<path d="M105.058 73.883C105.058 73.883 100.116 68.3773 88.7181 71.9126C77.3197 75.4478 74.6807 94.2831 75.0316 103.686C75.3826 113.089 84.1559 123.695 81.5029 128.404C78.8498 133.113 68.9534 144.095 69.7115 155.932C70.4695 167.77 79.9728 177.115 93.6593 172.797C107.346 168.48 105.058 151.195 102.334 144.877C99.6111 138.56 105.381 135.851 107.276 122.116C109.171 108.381 97.0142 97.0069 97.0142 87.1981C97.0142 77.3893 106.84 78.9685 106.84 78.9685L105.058 73.883Z" fill="#263238" stroke="#263238" stroke-linecap="round" stroke-linejoin="round"/>
<path d="M87.932 111.119C89.7287 114.944 91.8203 119.03 93.8979 123.434C100.832 138.039 95.4139 143.313 84.8718 151.397C74.3297 159.482 76.7441 169.421 79.4533 170.957" stroke="white" stroke-width="0.5" stroke-linecap="round" stroke-linejoin="round"/>
<path d="M101.436 77.7515C101.436 77.7515 87.286 78.9975 83.6643 88.3137C81.4745 93.9788 83.159 100.325 86.3876 107.714" stroke="white" stroke-width="0.5" stroke-linecap="round" stroke-linejoin="round"/>
<path d="M91.0903 167.32C92.1789 167.743 93.3399 167.93 94.5014 167.871" stroke="white" stroke-width="0.5" stroke-linecap="round" stroke-linejoin="round"/>
<path d="M105.058 76.7807C105.058 76.7807 91.8063 79.2583 88.8023 89.1975C85.7983 99.1368 103.556 113.828 104.454 124.637C105.352 135.445 92.7047 141.762 88.2128 150.151C85.0543 156.034 85.4053 162.51 88.7321 165.77" stroke="white" stroke-width="0.5" stroke-linecap="round" stroke-linejoin="round"/>
<path d="M139.056 276.826C139.056 276.826 135.785 305.977 132.501 315.279C129.216 324.58 121.86 397.676 121.453 401.906C121.046 406.137 132.094 415.845 136.6 418.815C141.106 421.785 139.056 422.611 134.143 423.031C129.23 423.451 123.503 422.611 121.046 417.96C118.59 413.309 112.848 412.048 112.848 412.048L112.034 422.191H110.392L109.171 409.513C108.753 406.635 109.178 403.693 110.392 401.066C112.441 396.415 113.199 386.693 113.199 373.538C113.199 360.382 110.743 339.301 111.964 329.159C113.185 319.017 118.112 311.41 118.112 302.963C118.112 294.516 118.519 281.839 118.519 281.839L139.056 276.826Z" fill="#DCC0A0" stroke="#263238" stroke-linecap="round" stroke-linejoin="round"/>
<path d="M109.17 409.513C108.844 407.333 109.022 405.104 109.69 403.008C112.23 407.441 119.516 413.454 125.131 415.845C128.175 417.205 131.494 417.782 134.802 417.525C135.462 418.032 136.08 418.467 136.599 418.815C141.105 421.712 139.056 422.611 134.143 423.031C129.23 423.451 123.502 422.611 121.046 417.96C118.589 413.309 112.848 412.049 112.848 412.049L112.034 422.191H110.391L109.17 409.513Z" fill="#263238" stroke="#263238" stroke-linecap="round" stroke-linejoin="round"/>
<path d="M115.305 281.477C115.305 281.477 108.286 303.021 101.801 321.61C95.3156 340.199 79.692 382.883 78.0496 390.489C76.4072 398.096 75.5931 412.049 71.0309 419.235C66.4687 426.421 62.0189 429.797 62.8331 417.12C63.6472 404.442 71.0309 395.14 72.6592 385.418C74.2876 375.696 75.1158 340.634 80.843 325.001C86.5703 309.367 92.7187 296.69 93.4767 292.039C94.0365 287.411 94.3084 282.75 94.2909 278.086L115.305 281.477Z" fill="#DCC0A0" stroke="#263238" stroke-linecap="round" stroke-linejoin="round"/>
<path d="M63.675 411.686C63.7355 414.076 64.4563 416.399 65.7526 418.38C68.1109 421.104 71.915 415.816 73.8943 412.585C73.2467 414.915 72.3027 417.146 71.0868 419.22C66.5808 426.392 62.0748 429.783 62.8889 417.105C63.0244 415.282 63.2871 413.471 63.675 411.686Z" fill="#263238" stroke="#263238" stroke-linecap="round" stroke-linejoin="round"/>
<path d="M112.076 111.409C112.076 111.409 109.62 113.524 107.978 127.897C106.335 142.27 116.582 187.054 116.582 187.054C116.582 187.054 98.9796 216.814 94.8807 231.607C90.7817 246.4 88.3252 301.819 88.3252 301.819C88.3252 301.819 96.9301 305.209 114.533 306.47C132.136 307.73 141.555 303.094 141.555 303.094C141.555 303.094 142.369 224 142.369 211.815C142.369 199.63 143.197 171.913 144.419 168.537C145.64 165.162 149.332 156.28 149.332 152.904C149.332 149.528 124.71 113.524 124.71 113.524L112.076 111.409Z" fill="white" stroke="#263238" stroke-linecap="round" stroke-linejoin="round"/>
<path d="M94.8384 231.607C98.067 220.016 111.431 189.184 116.203 183.881C123.461 186.373 136.698 188.836 142.608 187.011C142.425 191.357 142.327 207.584 142.327 211.743C142.327 224 141.513 303.021 141.513 303.021C141.513 303.021 132.094 307.672 114.491 306.397C96.8879 305.122 88.283 301.746 88.283 301.746C88.283 301.746 90.7395 246.4 94.8384 231.607Z" fill="#263238" stroke="#263238" stroke-linecap="round" stroke-linejoin="round"/>
<path d="M121.158 61.5966C121.158 61.5966 125.552 51.7153 134.241 51.7153C142.93 51.7153 146.791 59.6841 144.868 66.6532C142.944 73.6222 150.651 71.6373 151.62 76.1288C152.588 80.6203 145.345 83.5904 141.485 83.5904C137.624 83.5904 121.158 61.5966 121.158 61.5966Z" fill="#263238" stroke="#263238" stroke-linecap="round" stroke-linejoin="round"/>
<path d="M133.848 60.5824C136.431 59.1336 139.463 58.0904 140.867 60.3506C143.576 64.6972 135.154 68.1165 137.863 72.7819C140.572 77.4472 147.198 76.2012 146.889 77.7515C146.58 79.3018 142.383 80.2291 142.383 80.2291" stroke="white" stroke-width="0.5" stroke-linecap="round" stroke-linejoin="round"/>
<path d="M129.427 63.7409C129.427 63.7409 130.255 63.002 131.49 62.1037" stroke="white" stroke-width="0.5" stroke-linecap="round" stroke-linejoin="round"/>
<path d="M143.436 84.5901C142.821 84.1187 142.337 83.4893 142.032 82.7646C141.33 77.4182 139.814 72.1588 136.95 69.2032C132.618 64.994 127.094 62.3281 121.186 61.5966C119.437 61.3305 117.652 61.4994 115.978 62.0892C108.525 64.7841 102.124 70.1015 103.499 82.9239C105.015 97.0504 115.67 100.586 115.67 100.586L116.428 109.279L127.068 114.379L127.447 104.961C127.447 104.961 134.662 108.091 137.273 107.7C139.884 107.308 140.698 103.773 141.835 98.6731C142.253 96.346 142.46 93.9838 142.453 91.6172L145.639 88.3427C147.45 86.4447 145.668 85.981 143.436 84.5901Z" fill="#DCC1A0" stroke="#263238" stroke-linecap="round" stroke-linejoin="round"/>
<path d="M103.471 82.9239C102.068 70.1014 108.497 64.7841 115.951 62.0892C117.624 61.4994 119.409 61.3305 121.159 61.5966C125.186 62.1523 129.063 63.542 132.557 65.6824C130.423 65.2332 134.059 71.7097 130.718 75.8245C127.793 79.6443 124.062 82.7262 119.811 84.8364C119.811 84.8364 116.021 81.6924 114.87 86.01C113.719 90.3276 114.112 93.4572 117.158 94.2541C120.204 95.0509 121.369 94.2541 121.369 94.2541C121.369 94.2541 119.348 99.1947 115.754 101.238V100.528C115.754 100.528 105.058 97.0649 103.471 82.9239Z" fill="#263238" stroke="#263238" stroke-linecap="round" stroke-linejoin="round"/>
<path d="M132.501 111.829L130.465 123.246L108.763 111.409L110.813 100.846L132.501 111.829Z" fill="white" stroke="#263238" stroke-linecap="round" stroke-linejoin="round"/>
<path d="M122.015 208.092C124.262 208.588 126.543 208.907 128.837 209.048C130.62 208.932 133.048 206.86 134.845 207.744C136.642 208.628 139.154 214.206 139.154 214.206C139.154 214.206 141.541 215.452 140.853 216.77C140.165 218.089 137.217 219.306 137.217 219.306C137.217 219.306 134.41 222.044 132.781 222.319C131.153 222.595 121.229 215.075 121.229 215.075L122.015 208.092Z" fill="#DCC0A0" stroke="#263238" stroke-linecap="round" stroke-linejoin="round"/>
<path d="M123.068 213.51C123.396 213.103 123.632 212.625 123.758 212.111C123.885 211.597 123.898 211.061 123.797 210.541C123.696 210.021 123.483 209.532 123.175 209.108C122.867 208.684 122.47 208.337 122.015 208.092L94.7402 181.722L124.443 134.054C125.769 131.534 126.09 128.58 125.34 125.819C124.59 123.057 122.828 120.706 120.426 119.264C118.025 117.822 115.173 117.403 112.477 118.095C109.781 118.787 107.452 120.536 105.984 122.971L80.2395 175.782C78.901 177.123 78.1271 178.953 78.0851 180.878C78.043 182.803 78.7362 184.667 80.0149 186.069L80.1132 186.17C82.6961 190.285 111.108 211.801 119.418 214.611C120.063 214.823 120.755 214.831 121.405 214.634C122.055 214.438 122.634 214.047 123.068 213.51Z" fill="white" stroke="#263238" stroke-linecap="round" stroke-linejoin="round"/>
<path d="M230.988 140.531C230.988 140.531 234.511 151.789 234.511 153.976C234.485 155.557 234.368 157.134 234.16 158.7L237.262 163.669C237.444 163.989 237.5 164.368 237.419 164.729C237.338 165.091 237.126 165.406 236.827 165.611L232.04 168.508C232.04 168.508 231.338 180.099 230.637 181.548C229.935 182.997 218.003 182.649 218.003 182.649L214.129 190.27L194.055 182.287L199.333 167.378L198.238 144.877C198.238 144.877 210.563 133.634 230.988 140.531Z" fill="#A48A8A" stroke="#263238" stroke-linecap="round" stroke-linejoin="round"/>
<path d="M217.245 167.914C217.245 167.914 213.749 171.305 211.124 171.537C208.499 171.768 199.965 169.726 199.305 168.827C198.645 167.929 192.75 155.28 192.96 149.181C193.171 143.081 193.409 134.054 199.74 131.128C206.071 128.201 216.15 129.085 221.4 125.709C226.65 122.333 234.96 119.609 239.34 125.477C243.719 131.345 240.435 139.473 236.939 142.864C233.444 146.254 229.064 147.21 229.499 148.659C229.935 150.108 232.56 151.818 231.03 154.078C229.499 156.338 224.011 158.424 224.011 159.265C224.011 160.105 225.33 163.336 223.8 163.785C222.27 164.234 220.726 160.627 219.196 160.627C217.666 160.627 214.409 164.988 217.245 167.914Z" fill="#263238" stroke="#263238" stroke-linecap="round" stroke-linejoin="round"/>
<path d="M208.106 157.555C207.476 158.283 206.938 159.091 206.506 159.96" stroke="white" stroke-width="0.5" stroke-linecap="round" stroke-linejoin="round"/>
<path d="M236.855 134.156C236.577 136.643 235.699 139.017 234.301 141.063C232.903 143.108 231.03 144.759 228.854 145.863C223.239 148.862 215.757 151.31 210.788 155.077" stroke="white" stroke-width="0.5" stroke-linecap="round" stroke-linejoin="round"/>
<path d="M229.499 148.731C229.499 148.731 224.516 153.078 219.182 157.555C215.542 160.463 211.495 162.784 207.18 164.437" stroke="white" stroke-width="0.5" stroke-linecap="round" stroke-linejoin="round"/>
<path d="M216.894 168.523L219.701 169.247C219.531 170.602 219.631 171.978 219.996 173.291C220.36 174.605 220.981 175.827 221.821 176.883" fill="#A48A8A"/>
<path d="M216.894 168.523L219.701 169.247C219.531 170.602 219.631 171.978 219.996 173.291C220.36 174.605 220.981 175.827 221.821 176.883" stroke="#263238" stroke-linecap="round" stroke-linejoin="round"/>
<path d="M220.15 160.743L239.971 155.672" stroke="#263238" stroke-linecap="round" stroke-linejoin="round"/>
<path d="M234.875 155.266L239.395 155.469C239.395 155.469 240.954 160.743 236.251 161.351" stroke="#263238" stroke-linecap="round" stroke-linejoin="round"/>
<path d="M214.886 405.76C214.886 405.76 233.135 417.656 236.35 417.656C239.564 417.656 241.164 420.64 239.564 420.974C237.964 421.307 228.025 421.625 221.316 421.959C214.606 422.292 210.086 421.626 206.253 421.626C202.421 421.626 197.915 421.959 195.992 420.974C194.069 419.988 197.284 408.731 197.284 406.746C197.284 404.761 212.64 404.428 214.886 405.76Z" fill="#263238" stroke="#263238" stroke-linecap="round" stroke-linejoin="round"/>
<path d="M238.413 418.148C231.324 420.553 219.827 418.974 212.921 418.322C207.46 417.815 198.884 417.699 195.388 417.67C195.248 419.365 195.388 420.655 195.936 420.974C197.859 421.959 202.351 421.626 206.197 421.626C210.043 421.626 214.521 422.292 221.259 421.959C227.997 421.625 237.921 421.292 239.508 420.974C240.757 420.713 240.167 419.003 238.413 418.148Z" fill="white" stroke="#263238" stroke-linecap="round" stroke-linejoin="round"/>
<path d="M229.303 324.044L214.901 398.589L217.905 406.326C215.749 409.548 212.496 411.813 208.794 412.672C204.678 413.507 200.496 413.953 196.301 414.005C196.301 414.005 194.701 405.731 195.669 404.732C196.638 403.732 196.947 399.777 196.947 399.777L205.271 324.696L229.303 324.044Z" fill="#3F87C7" stroke="#263238" stroke-linecap="round" stroke-linejoin="round"/>
<path d="M273.198 403.239C273.198 403.239 284.428 412.831 289.551 414.483C294.675 416.134 300.122 417.786 300.122 419.438C300.122 421.09 287.951 422.741 278.658 421.756C269.366 420.771 255.258 416.468 252.057 416.468C248.857 416.468 249.489 407.861 249.489 406.543C249.489 405.224 265.196 394.633 273.198 403.239Z" fill="#263238" stroke="#263238" stroke-linecap="round" stroke-linejoin="round"/>
<path d="M300.178 419.438C300.178 418.844 299.462 418.25 298.325 417.656C289.152 418.922 279.853 418.854 270.699 417.453C261.477 416.091 253.756 414.265 249.812 413.251C250.148 415.033 250.808 416.468 252.114 416.468C255.314 416.468 269.422 420.814 278.715 421.756C288.007 422.698 300.178 421.09 300.178 419.438Z" fill="white" stroke="#263238" stroke-linecap="round" stroke-linejoin="round"/>
<path d="M217.455 290.634C227.064 289.874 236.722 290.098 246.288 291.3C262.628 293.285 299.139 295.647 299.771 299.906C300.402 304.166 271.443 393.691 271.443 395.995C271.443 398.299 273.998 400.631 274.644 401.95C275.051 402.89 275.27 403.905 275.289 404.935C275.289 404.935 267.442 413.628 261.35 415.989C255.258 418.351 250.12 416.134 248.857 416.134C247.593 416.134 247.579 407.209 248.548 402.906C249.517 398.603 251.103 387.693 251.426 386.708C251.749 385.723 269.295 322.059 269.295 322.059C269.295 322.059 221.568 329.999 193.058 326.681C164.548 323.363 161.656 318.756 160.056 311.801C158.456 304.847 161.657 290.967 161.657 290.967L217.455 290.634Z" fill="#3F87C7" stroke="#263238" stroke-linecap="round" stroke-linejoin="round"/>
<path d="M213.848 312.062C213.2 313.029 212.477 313.94 211.686 314.786" stroke="#263238" stroke-linecap="round" stroke-linejoin="round"/>
<path d="M222.579 294.27C220.737 299.032 218.613 303.672 216.22 308.165" stroke="#263238" stroke-linecap="round" stroke-linejoin="round"/>
<path d="M218.761 297.588C214.894 304.171 209.04 309.262 202.098 312.077" stroke="#263238" stroke-linecap="round" stroke-linejoin="round"/>
<path d="M291.502 315.844C292.597 315.409 293.65 314.96 294.647 314.496L291.502 315.844Z" fill="white"/>
<path d="M291.502 315.844C292.597 315.409 293.65 314.96 294.647 314.496" stroke="#263238" stroke-linecap="round" stroke-linejoin="round"/>
<path d="M269.295 322.06C275.461 320.83 281.554 319.239 287.544 317.293L269.295 322.06Z" fill="white"/>
<path d="M269.295 322.06C275.461 320.83 281.554 319.239 287.544 317.293" stroke="#263238" stroke-linecap="round" stroke-linejoin="round"/>
<path d="M306.34 212.221C307.014 209.453 308.137 209.671 307.238 208.758C306.003 207.483 305.006 208.99 301.427 211.062C297.847 213.134 294.282 215.669 294.282 215.669C294.36 214.9 294.669 214.176 295.166 213.597C296.071 212.07 296.557 210.317 296.57 208.526C296.57 207.077 295.447 207.367 294.998 208.758C294.549 210.149 290.534 212.67 290.309 213.829C290.085 214.988 289.285 219.538 289.285 219.538C288.007 221.523 288.007 230.781 288.007 230.781L261.996 250.949L248.857 266.887C248.857 266.887 254.626 276.478 257.827 275.16C261.027 273.841 262.628 272.508 270.32 265.887C276.833 260.28 293.159 234.417 293.159 234.417C296.003 232.574 298.693 230.49 301.202 228.187C304.097 224.807 305.808 220.521 306.059 216.017C305.999 214.744 306.093 213.469 306.34 212.221Z" fill="#A48A8A" stroke="#263238" stroke-linecap="round" stroke-linejoin="round"/>
<path d="M185.983 181.621C185.983 181.621 188.454 172.058 198.954 173.971C209.454 175.883 217.483 184.808 219.336 187.996C221.189 191.183 185.365 186.721 185.365 186.721L185.983 181.621Z" fill="white" stroke="#263238" stroke-linecap="round" stroke-linejoin="round"/>
<path d="M246.513 265.133C246.513 265.133 244.07 267.857 246.513 272.146C248.183 275.116 251.131 277.391 256.774 276.391C262.052 275.435 269.983 261.902 269.983 252.383C269.983 242.864 263.189 242.241 260.719 244.096C258.248 245.95 246.513 265.133 246.513 265.133Z" fill="white" stroke="#263238" stroke-linecap="round" stroke-linejoin="round"/>
<path d="M190.531 180.505C190.531 180.505 165.545 192.748 162.022 194.994C158.498 197.24 156.252 226.072 156.252 231.042C156.252 236.011 159.776 284.65 160.73 292.879C161.685 301.109 192.455 306.774 202.716 303.789C212.977 300.804 222.972 293.285 222.972 290.633C222.972 287.982 222.003 265.51 222.649 261.207C223.295 256.904 229.05 238.721 229.05 238.721L246.541 267.524C246.541 267.524 248.38 271.059 254.879 268.277C264.172 264.308 264.944 248.964 264.944 248.964C264.944 248.964 254.696 230.448 251.805 221.189C248.913 211.931 247.593 204.976 246.358 203.325C245.123 201.673 216.234 187.778 211.11 184.142C208.209 181.887 204.828 180.38 201.248 179.747C197.669 179.115 193.994 179.374 190.531 180.505Z" fill="white" stroke="#263238" stroke-linecap="round" stroke-linejoin="round"/>
<path d="M228.98 238.721L220.656 226.144" stroke="#263238" stroke-linecap="round" stroke-linejoin="round"/>
<path d="M227.632 236.924L212.963 229.462" stroke="#263238" stroke-linecap="round" stroke-linejoin="round"/>
<path d="M184.159 331.781L196.961 425.697C196.99 425.915 197.063 426.123 197.176 426.31C197.288 426.497 197.436 426.658 197.612 426.782C197.788 426.906 197.987 426.991 198.196 427.031C198.405 427.071 198.621 427.066 198.828 427.015C199.187 426.924 199.504 426.703 199.72 426.392C199.936 426.081 200.038 425.701 200.007 425.32L190.981 330.231L184.159 331.781Z" fill="#263238" stroke="#263238" stroke-linecap="round" stroke-linejoin="round"/>
<path d="M147.381 332.52L125.987 424.755C125.939 424.969 125.933 425.191 125.972 425.407C126.011 425.623 126.094 425.828 126.214 426.01C126.334 426.191 126.49 426.345 126.671 426.46C126.852 426.576 127.054 426.652 127.265 426.682C127.631 426.738 128.004 426.655 128.315 426.446C128.625 426.238 128.851 425.92 128.949 425.552L153.796 336.041L147.381 332.52Z" fill="#263238" stroke="#263238" stroke-linecap="round" stroke-linejoin="round"/>
<path d="M186.236 331.376L172.62 425.161C172.588 425.377 172.6 425.598 172.655 425.809C172.709 426.02 172.805 426.217 172.937 426.389C173.069 426.56 173.233 426.701 173.42 426.804C173.607 426.907 173.812 426.969 174.023 426.986C174.392 427.007 174.756 426.89 175.048 426.656C175.339 426.421 175.539 426.086 175.61 425.711L192.89 334.317L186.236 331.376Z" fill="#263238" stroke="#263238" stroke-linecap="round" stroke-linejoin="round"/>
<path d="M234.44 331.781L247.242 425.697C247.272 425.915 247.345 426.123 247.457 426.31C247.569 426.497 247.718 426.658 247.894 426.782C248.07 426.906 248.268 426.991 248.478 427.031C248.687 427.071 248.902 427.066 249.109 427.015C249.469 426.924 249.785 426.703 250.002 426.392C250.218 426.081 250.319 425.701 250.289 425.32L241.22 330.202L234.44 331.781Z" fill="#263238" stroke="#263238" stroke-linecap="round" stroke-linejoin="round"/>
<path d="M127.125 234.316L142.706 338.881H253.517C253.517 338.881 255.16 308.744 250.275 298.095C245.39 287.446 185.071 310.28 182.895 309.686C181.281 309.266 183.667 255.281 186.629 234.186C186.837 232.701 186.732 231.187 186.323 229.748C185.913 228.308 185.209 226.976 184.257 225.842C183.305 224.708 182.128 223.799 180.805 223.177C179.483 222.554 178.046 222.232 176.592 222.233H137.147C135.683 222.231 134.235 222.557 132.904 223.189C131.573 223.82 130.391 224.742 129.438 225.89C128.485 227.039 127.785 228.387 127.386 229.841C126.987 231.296 126.897 232.823 127.125 234.316Z" fill="#3F87C7" stroke="#263238" stroke-linecap="round" stroke-linejoin="round"/>
<path d="M250.275 298.095C245.39 287.446 185.071 310.28 182.895 309.686C181.281 309.266 183.667 255.281 186.629 234.186C186.888 232.72 186.831 231.213 186.461 229.772C186.092 228.331 185.419 226.992 184.492 225.851C183.564 224.709 182.404 223.792 181.094 223.165C179.784 222.539 178.356 222.218 176.912 222.225C175.468 222.233 174.044 222.569 172.74 223.209C171.436 223.849 170.285 224.778 169.369 225.93C168.453 227.082 167.793 228.427 167.438 229.872C167.083 231.316 167.04 232.824 167.314 234.287L182.895 338.852H253.517C253.517 338.852 255.16 308.744 250.275 298.095Z" fill="#263238" stroke="#263238" stroke-linecap="round" stroke-linejoin="round"/>
<path d="M306.34 212.221C306.34 212.221 304.557 214.061 301.876 217.292L306.34 212.221Z" fill="white"/>
<path d="M306.34 212.221C306.34 212.221 304.557 214.061 301.876 217.292" stroke="#263238" stroke-linecap="round" stroke-linejoin="round"/>
<path d="M306.059 215.959C306.059 215.959 303.883 220.523 302.55 222.595L306.059 215.959Z" fill="white"/>
<path d="M306.059 215.959C306.059 215.959 303.883 220.523 302.55 222.595" stroke="#263238" stroke-linecap="round" stroke-linejoin="round"/>
<path d="M5.8976 268.814C8.22781 269.857 13.913 269.726 13.927 269.726C13.9411 269.726 12.7058 265.887 12.5935 265.655C11.3441 262.946 7.38557 258.498 4.17099 258.947C3.63885 259.036 3.131 259.241 2.68061 259.547C2.23023 259.852 1.84745 260.253 1.55731 260.722C1.26716 261.191 1.07617 261.718 0.996814 262.269C0.917459 262.819 0.951525 263.38 1.09679 263.916C1.63021 266.206 3.90428 267.915 5.8976 268.814Z" fill="#263238"/>
<path d="M80.5067 248.805C77.2781 248.443 73.488 253.006 72.2668 255.745C72.1685 255.977 70.9894 259.86 71.0455 259.86C70.4279 260.569 69.7822 261.308 69.0943 262.207C67.831 263.8 66.4272 265.626 65.0095 267.712C63.4824 269.949 62.0765 272.27 60.7982 274.667C59.3574 277.355 58.1457 280.166 57.1766 283.07C57.1827 283.104 57.1827 283.138 57.1766 283.172C57.1766 282.201 57.1766 279.448 57.1766 279.245C56.7976 276.275 54.3691 270.77 51.1967 270.161C50.6681 270.073 50.1276 270.1 49.6099 270.241C49.0922 270.382 48.6088 270.633 48.1909 270.978C47.773 271.324 47.4298 271.755 47.1835 272.246C46.9372 272.737 46.7932 273.275 46.7608 273.827C46.5643 276.188 48.1646 278.55 49.835 280.028C51.6599 281.708 56.7134 283.331 57.1204 283.462C56.2026 286.473 55.4896 289.548 54.9868 292.662C54.6639 294.459 54.4112 296.27 54.1726 298.095C54.1726 297.24 54.1726 296.487 54.1726 296.386C53.8076 293.415 51.3651 287.91 48.2067 287.301C47.674 287.215 47.1298 287.246 46.6093 287.391C46.0889 287.536 45.6037 287.792 45.1855 288.143C44.7672 288.495 44.4251 288.932 44.1814 289.429C43.9377 289.925 43.7978 290.469 43.7709 291.025C43.5884 293.386 45.1746 295.748 46.8591 297.24C48.5436 298.733 52.7689 300.225 53.8778 300.587C53.7936 301.297 53.6953 302.036 53.6111 302.688C53.2321 306.049 52.8531 309.411 52.3898 312.685C52.2214 313.844 52.0249 314.974 51.8284 316.105C51.8284 315.351 51.8284 314.728 51.8284 314.656C51.4493 311.686 49.0209 306.18 45.8484 305.571C45.3157 305.487 44.7718 305.52 44.2521 305.667C43.7324 305.814 43.2484 306.072 42.8315 306.425C42.4146 306.777 42.0741 307.216 41.8321 307.713C41.5901 308.21 41.4519 308.754 41.4266 309.309C41.2441 311.657 42.8304 314.018 44.5149 315.511C46.6108 316.941 48.9069 318.03 51.323 318.742C51.0844 319.901 50.8457 321.045 50.565 322.161C50.3544 322.914 50.214 323.61 49.9614 324.392C49.7087 325.174 49.4981 325.841 49.2735 326.594C48.7822 327.971 48.2909 329.405 47.7856 330.738C47.4346 331.68 47.0837 332.564 46.7468 333.447C46.9153 332.303 47.21 330.043 47.2241 329.854C47.1845 327.222 46.4935 324.643 45.2167 322.364C45.2515 322.075 45.2515 321.783 45.2167 321.494C45.1531 320.937 44.9751 320.399 44.6947 319.918C44.4142 319.437 44.0377 319.023 43.5902 318.704C43.1427 318.384 42.6344 318.167 42.0992 318.066C41.564 317.965 41.0141 317.983 40.4861 318.119C37.3418 318.973 35.3625 324.653 35.2081 327.638C35.2081 327.811 35.3204 329.738 35.4046 330.955C35.2502 330.245 35.0958 329.507 34.9273 328.84C34.6045 327.391 34.2255 325.942 33.8464 324.494C33.6218 323.755 33.4113 323.045 33.1867 322.277C32.9621 321.509 32.6813 320.828 32.4287 320.017C31.811 318.263 31.1092 316.525 30.3511 314.786C31.5583 314.482 35.8538 313.337 37.5804 311.99C39.307 310.642 41.1178 308.397 41.1038 306.035C41.1205 305.472 41.0206 304.913 40.811 304.393C40.6014 303.874 40.2868 303.406 39.8881 303.022C39.4895 302.638 39.0161 302.347 38.4996 302.166C37.983 301.986 37.4351 301.922 36.8926 301.978C33.664 302.34 30.8565 307.643 30.2809 310.57C30.2809 310.758 30.0423 312.903 29.9581 314.091C29.5089 313.047 29.0457 312.004 28.5543 310.961C27.1506 307.976 25.5503 304.977 24.0203 301.993L22.6165 299.24C23.0517 299.138 28.2315 297.921 30.1125 296.342C31.9935 294.763 33.6499 292.763 33.6359 290.387C33.6503 289.825 33.5489 289.267 33.3385 288.748C33.1281 288.23 32.8134 287.764 32.4153 287.38C32.0172 286.997 31.5448 286.705 31.0292 286.524C30.5137 286.343 29.9667 286.277 29.4247 286.33C26.1961 286.693 23.4026 291.995 22.8131 294.922C22.8131 295.154 22.4902 298.24 22.4621 299.037C21.4514 297.023 20.4548 294.995 19.5564 292.966C18.323 290.224 17.2633 287.403 16.3839 284.519C16.5805 284.519 21.9989 283.215 23.936 281.622C25.6486 280.26 27.4735 278.028 27.4454 275.667C27.4621 275.104 27.3623 274.544 27.1526 274.025C26.943 273.505 26.6284 273.038 26.2298 272.654C25.8312 272.27 25.3578 271.978 24.8412 271.798C24.3246 271.618 23.7767 271.554 23.2342 271.61C20.0056 271.972 17.2121 277.275 16.6226 280.202C16.6226 280.433 16.2857 283.766 16.2716 284.374C16.2716 284.201 16.1593 284.041 16.1032 283.867C15.3054 280.952 14.7558 277.971 14.4608 274.957C14.2924 273.291 14.2081 271.697 14.152 270.132C15.1767 270.002 19.7669 269.364 21.7743 268.162C23.7816 266.959 25.6767 264.989 25.9855 262.641C26.0586 262.09 26.0185 261.529 25.868 260.995C25.7174 260.46 25.4597 259.965 25.1116 259.54C24.7635 259.115 24.3328 258.77 23.8473 258.529C23.3618 258.287 22.8325 258.153 22.2937 258.135C19.037 258.135 15.6961 263.091 14.7977 265.93C14.7977 266.09 14.4327 267.712 14.2081 268.901C14.2081 268.205 14.2081 267.452 14.2081 266.8C14.2081 264.264 14.3625 261.946 14.517 259.903C14.6152 258.729 14.7275 257.672 14.8398 256.687C15.7803 256.02 19.5283 253.296 20.6794 251.34C21.8304 249.384 22.7288 246.675 21.8866 244.473C21.7058 243.95 21.4202 243.472 21.0486 243.07C20.677 242.669 20.2277 242.352 19.7298 242.142C19.2319 241.931 18.6967 241.831 18.1589 241.849C17.6211 241.866 17.0929 242 16.6085 242.241C13.7168 243.777 12.9588 249.761 13.4361 252.717C13.4361 252.963 14.5731 256.875 14.6152 256.846C14.4889 257.788 14.3625 258.802 14.2502 259.918C14.0537 261.975 13.8572 264.264 13.787 266.843C13.7024 269.578 13.768 272.316 13.9835 275.044C14.1903 278.104 14.6601 281.139 15.3873 284.114C15.3934 284.147 15.3934 284.182 15.3873 284.215C14.8819 283.389 13.3799 281.129 13.2396 280.97C11.3445 278.709 6.38931 275.478 3.41338 276.797C2.92271 277.026 2.48447 277.36 2.12725 277.777C1.77004 278.193 1.50188 278.682 1.34028 279.213C1.17868 279.743 1.12726 280.303 1.18938 280.855C1.2515 281.408 1.42577 281.94 1.70082 282.418C2.80977 284.49 5.4488 285.519 7.59652 285.838C10.011 286.2 15.0925 284.679 15.4996 284.563C16.3345 287.566 17.3615 290.509 18.5738 293.372C19.2756 295.038 19.9775 296.704 20.8057 298.356C20.3425 297.646 19.9214 297.023 19.8652 296.907C17.9702 294.647 13.015 291.416 10.039 292.734C9.55664 292.988 9.1318 293.344 8.79251 293.78C8.45321 294.215 8.20716 294.72 8.07055 295.261C7.93395 295.801 7.90989 296.366 7.99998 296.917C8.09006 297.468 8.29223 297.993 8.59317 298.457C9.68809 300.529 12.3412 301.558 14.4748 301.877C16.6085 302.195 21.0022 301.007 22.1533 300.66C22.4621 301.297 22.7569 301.935 23.0657 302.558C24.4695 305.586 26.0276 308.599 27.3892 311.599C27.8665 312.656 28.3017 313.714 28.793 314.772L27.9648 313.555C26.0697 311.294 21.1145 308.078 18.1386 309.382C17.6487 309.614 17.2116 309.951 16.8558 310.369C16.4999 310.787 16.2333 311.278 16.0731 311.809C15.9129 312.341 15.8628 312.901 15.9261 313.454C15.9893 314.007 16.1644 314.54 16.4401 315.018C17.549 317.09 20.1881 318.119 22.3217 318.437C24.8585 318.448 27.3817 318.057 29.8037 317.278C30.2248 318.379 30.6459 319.48 30.9969 320.553C31.2355 321.306 31.5022 322.001 31.6847 322.769C31.8672 323.537 32.0918 324.218 32.2883 325.001C32.6252 326.449 32.9761 327.898 33.2709 329.347C33.4815 330.318 33.664 331.26 33.8464 332.245C33.3692 331.187 32.4427 329.13 32.3164 328.971C30.7723 326.435 26.3505 322.48 23.2061 323.305C22.6887 323.46 22.2084 323.724 21.7963 324.082C21.3843 324.44 21.0497 324.883 20.8141 325.383C20.5786 325.883 20.4474 326.429 20.429 326.984C20.4106 327.54 20.5055 328.093 20.7074 328.608C21.4935 330.825 23.9501 332.259 26.0136 332.955C28.3017 333.665 33.3411 332.955 33.9728 332.955C34.2816 334.505 34.5483 336.027 34.801 337.461C35.6432 342.43 36.2047 346.618 36.4995 349.53C36.4995 350.052 36.6118 350.515 36.6539 350.979H26.8277L30.3932 422.799H47.0416L50.6071 350.979H41.4968L41.7074 350.559C42.9567 347.864 44.6833 344.01 46.5503 339.286C47.1539 337.838 47.7575 336.2 48.3611 334.549C48.9788 334.679 53.9761 335.722 56.2922 335.172C58.4119 334.679 60.9667 333.448 61.9072 331.303C62.1472 330.805 62.2826 330.26 62.3045 329.703C62.3264 329.147 62.2343 328.592 62.0342 328.075C61.8341 327.559 61.5306 327.091 61.1435 326.703C60.7563 326.316 60.2943 326.017 59.7875 325.826C56.7134 324.754 52.0249 328.362 50.2983 330.767C50.2 330.912 49.2595 332.578 48.684 333.665L49.428 331.636C49.9193 330.26 50.3685 328.855 50.8317 327.362L51.4634 325.146C51.702 324.407 51.8564 323.61 52.0529 322.827C52.46 321.016 52.7969 319.162 53.1057 317.278C54.2709 317.713 58.468 319.22 60.6298 319.06C62.7915 318.901 65.5008 318.09 66.7501 316.163C67.0668 315.705 67.2857 315.183 67.3924 314.632C67.4992 314.081 67.4912 313.512 67.3691 312.965C67.247 312.417 67.0136 311.902 66.6842 311.454C66.3549 311.006 65.9371 310.636 65.4587 310.367C62.6512 308.918 57.4012 311.671 55.3517 313.772C55.2254 313.917 53.948 315.597 53.218 316.539C53.3865 315.409 53.555 314.279 53.6953 313.12C54.1024 309.802 54.3972 306.426 54.72 303.065C54.8183 302.036 54.9306 301.007 55.0289 299.979C55.45 300.138 60.3912 302.036 62.8196 301.862C64.9674 301.703 67.6766 300.891 68.9259 298.964C69.2426 298.507 69.4615 297.985 69.5683 297.434C69.675 296.883 69.667 296.314 69.5449 295.766C69.4228 295.219 69.1894 294.704 68.86 294.256C68.5307 293.808 68.1129 293.438 67.6344 293.169C64.827 291.648 59.591 294.473 57.5275 296.574C57.3731 296.733 55.4921 299.167 55.0429 299.805C55.2815 297.545 55.5342 295.299 55.8711 293.082C56.3033 290.097 56.927 287.144 57.7381 284.244C57.9346 284.244 63.0723 286.316 65.571 286.142C67.7187 285.983 70.4279 285.157 71.6772 283.244C71.9962 282.788 72.217 282.266 72.3249 281.714C72.4329 281.162 72.4255 280.593 72.3033 280.045C72.181 279.496 71.9467 278.981 71.6161 278.533C71.2854 278.085 70.866 277.716 70.3858 277.449C67.5783 275.913 62.3424 278.738 60.2789 280.854C60.1244 281.013 58.1031 283.635 57.7662 284.128L57.8925 283.621C58.7838 280.732 59.9205 277.929 61.2895 275.247C62.0335 273.798 62.8196 272.349 63.6057 271.045C64.5322 271.523 68.7715 273.653 71.0175 273.74C73.2634 273.827 75.9586 273.32 77.4185 271.494C77.7654 271.078 78.0246 270.592 78.1796 270.066C78.3345 269.541 78.3818 268.988 78.3184 268.443C78.255 267.898 78.0823 267.372 77.8114 266.9C77.5405 266.427 77.1772 266.018 76.7447 265.699C74.0355 263.844 68.603 266.061 66.343 267.93C66.2167 268.031 65.0656 269.205 64.2514 270.074C64.6164 269.48 64.9814 268.857 65.3464 268.306C66.7501 266.191 68.0696 264.351 69.3049 262.714C70.0068 261.801 70.7086 260.99 71.2842 260.236C72.4212 260.236 77.0114 260.062 79.0188 259.092C81.0261 258.121 83.23 256.368 83.6932 254.064C83.8873 253.502 83.9558 252.902 83.8933 252.309C83.8309 251.716 83.6392 251.145 83.3327 250.639C83.0262 250.133 82.6128 249.705 82.1234 249.387C81.634 249.07 81.0813 248.871 80.5067 248.805ZM44.7816 338.272C42.8304 342.909 41.0336 346.69 39.7562 349.313L39.0403 350.761H38.8297C38.8297 350.254 38.6893 349.689 38.6051 349.066C38.2121 346.169 37.5944 341.909 36.6258 336.91C36.3311 335.331 35.9801 333.65 35.6011 331.926C37.1183 331.294 38.5993 330.573 40.0369 329.767C41.9898 331.517 44.1674 332.98 46.5082 334.114C45.9326 335.519 45.3431 336.939 44.7816 338.272Z" fill="#263238"/>
<path d="M63.5071 270.103C63.5071 270.103 64.5458 266.206 64.5739 265.945C64.981 262.975 64.0686 257.02 61.1347 255.556C60.6472 255.331 60.1197 255.213 59.5856 255.21C59.0516 255.207 58.5228 255.319 58.0328 255.538C57.5429 255.758 57.1027 256.08 56.7401 256.485C56.3775 256.89 56.1005 257.368 55.9268 257.889C55.1407 260.106 56.1374 262.83 57.3306 264.713C58.7343 266.973 63.5071 270.103 63.5071 270.103Z" fill="#263238"/>
<path d="M592.057 422.451H21.0859V429.667H592.057V422.451Z" fill="#263238"/>
</svg>
