<svg width="610" height="430" viewBox="0 0 610 430" fill="none" xmlns="http://www.w3.org/2000/svg">
<path d="M573.718 420.988C577.817 405.514 591.167 353.572 600.235 300.964C611.044 238.156 620.505 151.644 577.241 115.35C533.978 79.0555 477.183 122.333 447.438 108.381C417.692 94.4279 416.345 24.636 336.542 3.71435C256.74 -17.2073 212.143 55.3375 176.993 94.4134C141.844 133.489 102.595 106.975 51.2462 148.847C0.43088 190.256 43.5257 377.768 81.1038 420.988H573.718Z" fill="#EAE9FD"/>
<path d="M587.714 127.071H477.52C476.985 127.075 476.473 127.296 476.095 127.686C475.716 128.077 475.502 128.605 475.499 129.157V421.828C475.499 422.383 475.711 422.915 476.09 423.309C476.468 423.702 476.983 423.926 477.52 423.929H587.714C588.253 423.929 588.771 423.708 589.153 423.314C589.534 422.92 589.749 422.386 589.749 421.828V129.157C589.745 128.603 589.529 128.072 589.148 127.681C588.767 127.29 588.251 127.071 587.714 127.071ZM585.692 419.742H479.555V131.258H585.692V419.742Z" fill="white"/>
<path d="M487.248 191.473H578C578.266 191.473 578.53 191.419 578.776 191.313C579.023 191.207 579.246 191.052 579.434 190.857C579.622 190.662 579.77 190.43 579.871 190.175C579.972 189.92 580.023 189.647 580.021 189.372V139.922C580.023 139.648 579.972 139.376 579.871 139.122C579.77 138.868 579.621 138.637 579.433 138.443C579.245 138.249 579.021 138.095 578.775 137.991C578.529 137.887 578.266 137.834 578 137.836H487.248C486.981 137.834 486.717 137.887 486.47 137.991C486.223 138.095 485.999 138.248 485.809 138.442C485.62 138.636 485.47 138.866 485.368 139.121C485.265 139.375 485.212 139.647 485.212 139.922V189.372C485.212 189.929 485.427 190.464 485.809 190.858C486.19 191.252 486.708 191.473 487.248 191.473ZM489.269 141.98H575.964V187.242H489.269V141.98Z" fill="white"/>
<path d="M487.248 261.714H578C578.266 261.716 578.529 261.663 578.775 261.559C579.021 261.455 579.245 261.301 579.433 261.107C579.621 260.913 579.77 260.682 579.871 260.428C579.972 260.174 580.023 259.902 580.021 259.628V210.178C580.023 209.903 579.972 209.63 579.871 209.375C579.77 209.12 579.622 208.888 579.434 208.693C579.246 208.498 579.023 208.343 578.776 208.237C578.53 208.131 578.266 208.077 578 208.077H487.248C486.708 208.077 486.19 208.298 485.809 208.692C485.427 209.086 485.212 209.621 485.212 210.178V259.628C485.212 259.903 485.265 260.175 485.368 260.43C485.47 260.684 485.62 260.914 485.809 261.108C485.999 261.302 486.223 261.455 486.47 261.559C486.717 261.663 486.981 261.716 487.248 261.714ZM489.269 212.264H575.964V257.541H489.269V212.264Z" fill="white"/>
<path d="M487.248 331.97H578C578.536 331.97 579.05 331.75 579.429 331.359C579.808 330.967 580.021 330.437 580.021 329.883V280.419C580.021 279.866 579.808 279.335 579.429 278.944C579.05 278.552 578.536 278.333 578 278.333H487.248C486.71 278.333 486.195 278.552 485.814 278.943C485.432 279.334 485.216 279.864 485.212 280.419V329.883C485.216 330.438 485.432 330.969 485.814 331.359C486.195 331.75 486.71 331.97 487.248 331.97ZM489.269 282.52H575.964V327.782H489.269V282.52Z" fill="white"/>
<path d="M487.248 402.225H578C578.267 402.225 578.531 402.171 578.777 402.065C579.023 401.959 579.246 401.804 579.434 401.609C579.622 401.414 579.771 401.182 579.871 400.927C579.972 400.672 580.023 400.4 580.021 400.124V350.617C580.023 350.342 579.972 350.07 579.871 349.816C579.77 349.562 579.621 349.331 579.433 349.137C579.245 348.943 579.022 348.789 578.776 348.685C578.53 348.581 578.266 348.528 578 348.53H487.248C486.981 348.528 486.717 348.581 486.47 348.685C486.223 348.789 485.999 348.942 485.81 349.136C485.62 349.33 485.47 349.561 485.368 349.815C485.265 350.069 485.213 350.341 485.213 350.617V400.066C485.205 400.347 485.252 400.627 485.351 400.888C485.45 401.15 485.599 401.388 485.789 401.59C485.978 401.791 486.205 401.951 486.456 402.06C486.707 402.169 486.976 402.225 487.248 402.225ZM489.269 352.775H575.964V398.038H489.269V352.775Z" fill="white"/>
<path d="M449.684 23.1727H152.877C152.351 23.1725 151.845 23.3843 151.467 23.7631C151.09 24.1419 150.87 24.6578 150.856 25.2011V177.796C150.856 178.071 150.908 178.343 151.011 178.598C151.113 178.852 151.264 179.082 151.453 179.276C151.642 179.47 151.866 179.623 152.113 179.727C152.36 179.831 152.624 179.884 152.891 179.882H449.684C449.95 179.884 450.213 179.831 450.46 179.727C450.706 179.623 450.929 179.469 451.117 179.275C451.305 179.081 451.454 178.85 451.555 178.596C451.656 178.342 451.707 178.07 451.705 177.796V25.2011C451.694 24.6566 451.476 24.1386 451.098 23.759C450.719 23.3794 450.211 23.1687 449.684 23.1727ZM447.648 27.3599V168.943H154.898V27.3019L447.648 27.3599Z" fill="white"/>
<path d="M516.772 324.943L510.385 424.509C510.35 425.015 510.131 425.489 509.771 425.835C509.412 426.182 508.94 426.376 508.448 426.378C508.189 426.378 507.933 426.325 507.695 426.22C507.457 426.116 507.242 425.963 507.063 425.771C506.883 425.579 506.743 425.352 506.651 425.102C506.558 424.853 506.515 424.587 506.525 424.321L509.15 324.943H516.772Z" fill="#263238" stroke="#263238" stroke-linecap="round" stroke-linejoin="round"/>
<path d="M533.112 324.943L539.499 424.509C539.531 425.014 539.748 425.487 540.104 425.834C540.461 426.181 540.932 426.375 541.422 426.378C541.682 426.378 541.938 426.325 542.177 426.22C542.416 426.116 542.632 425.964 542.813 425.772C542.993 425.58 543.135 425.353 543.229 425.104C543.323 424.854 543.367 424.588 543.36 424.321L540.707 325.001L533.112 324.943Z" fill="#263238" stroke="#263238" stroke-linecap="round" stroke-linejoin="round"/>
<path d="M469.073 324.943L475.46 424.509C475.492 425.014 475.708 425.487 476.065 425.834C476.422 426.181 476.893 426.375 477.383 426.378C477.642 426.378 477.899 426.325 478.138 426.22C478.376 426.116 478.593 425.964 478.773 425.772C478.954 425.58 479.095 425.353 479.189 425.104C479.283 424.854 479.328 424.588 479.32 424.321L476.653 325.001L469.073 324.943Z" fill="#263238" stroke="#263238" stroke-linecap="round" stroke-linejoin="round"/>
<path d="M442.978 324.943L436.591 424.509C436.556 425.015 436.336 425.489 435.977 425.835C435.618 426.182 435.145 426.376 434.654 426.378C434.395 426.376 434.139 426.321 433.902 426.216C433.664 426.112 433.448 425.959 433.268 425.768C433.088 425.576 432.946 425.35 432.852 425.101C432.757 424.853 432.711 424.588 432.717 424.321L435.384 325.001L442.978 324.943Z" fill="#263238" stroke="#263238" stroke-linecap="round" stroke-linejoin="round"/>
<path d="M554.252 224.565C554.252 224.565 490.522 222.102 485.132 222.102C479.742 222.102 478.492 224.565 478.492 224.565L469.396 290.764C469.396 290.764 441.111 282.433 435.566 283.52C430.021 284.606 438.303 326.145 438.303 326.145H470.308L470.884 323.653H543.149L562.338 229.303C561.173 224.985 554.252 224.565 554.252 224.565Z" fill="#263238" stroke="#263238" stroke-linecap="round" stroke-linejoin="round"/>
<path d="M529.995 265.974C529.995 265.974 536.481 309.44 529.041 314.511C527.89 315.293 521.643 319.002 515.804 318.394C511.115 317.901 477.987 318.394 477.987 318.394C477.987 318.394 473.383 309.353 472.456 302.688C471.53 296.023 478.773 267.423 478.773 267.423L529.995 265.974Z" fill="#FFE092" stroke="#263238" stroke-linecap="round" stroke-linejoin="round"/>
<path d="M475.741 289.257C475.741 289.257 427.789 294.401 425.529 295.791C423.269 297.182 412.896 306.528 414.678 312.598C416.461 318.669 411.969 319.133 416.082 320.074C420.195 321.016 478.492 321.002 478.492 321.002" fill="#3506B7"/>
<path d="M475.741 289.257C475.741 289.257 427.789 294.401 425.529 295.791C423.269 297.182 412.896 306.528 414.678 312.598C416.461 318.669 411.969 319.133 416.082 320.074C420.195 321.016 478.492 321.002 478.492 321.002" stroke="#263238" stroke-linecap="round" stroke-linejoin="round"/>
<path d="M432.127 326.073H546.068V317.293H432.127V326.073Z" fill="#263238" stroke="#263238" stroke-linecap="round" stroke-linejoin="round"/>
<path d="M519.159 291.126H450.516C450.516 291.126 446.908 295.328 446.445 304.166C445.982 313.004 446.908 314.902 453.239 317.206C459.57 319.51 515.804 318.336 515.804 318.336" fill="#3506B7"/>
<path d="M519.159 291.126H450.516C450.516 291.126 446.908 295.328 446.445 304.166C445.982 313.004 446.908 314.902 453.239 317.206C459.57 319.51 515.804 318.336 515.804 318.336" stroke="#263238" stroke-linecap="round" stroke-linejoin="round"/>
<path d="M465.073 403.558L457.885 385.984L446.108 388.287L455.12 403.964L449.926 414.7L438.696 422.278C438.696 422.278 437.391 423.611 443.006 423.161C448.621 422.712 460.272 423.161 460.272 423.161L467.613 414.251C467.613 414.251 470.28 409.716 465.073 403.558Z" fill="#B16548" stroke="#263238" stroke-linecap="round" stroke-linejoin="round"/>
<path d="M468.217 411.237L468.512 422.727H466.757L464.413 416.989L468.217 411.237Z" fill="#263238" stroke="#263238" stroke-linecap="round" stroke-linejoin="round"/>
<path d="M460.286 423.219L467.628 414.309C467.628 414.309 469.523 410.991 466.912 406.209C461.69 415.424 454.741 418.192 454.741 418.192L447.498 416.395L438.711 422.335C438.711 422.335 437.405 423.668 443.02 423.219C448.635 422.77 460.286 423.219 460.286 423.219Z" fill="#263238" stroke="#263238" stroke-linecap="round" stroke-linejoin="round"/>
<path d="M436.843 314.004L460.918 389.128L443.834 392.257L410.144 314.018C410.144 314.018 407.435 302.34 414.664 298.617C421.894 294.893 443.16 293.01 443.16 293.01" fill="#3506B7"/>
<path d="M436.843 314.004L460.918 389.128L443.834 392.257L410.144 314.018C410.144 314.018 407.435 302.34 414.664 298.617C421.894 294.893 443.16 293.01 443.16 293.01" stroke="#263238" stroke-linecap="round" stroke-linejoin="round"/>
<path d="M514.063 326.058C514.063 326.058 505.767 284.461 511.326 283.433C516.885 282.404 545.156 290.677 545.156 290.677L554.252 224.565C554.252 224.565 563.854 223 564.865 231.809C565.875 240.619 546.068 326.058 546.068 326.058H514.063Z" fill="#263238" stroke="#263238" stroke-linecap="round" stroke-linejoin="round"/>
<path d="M416.377 203.586L412.095 196.341C411.683 195.647 411.102 195.076 410.41 194.685C409.718 194.294 408.94 194.096 408.151 194.11L404.122 194.182L397.23 192.053C396.792 191.921 396.326 191.926 395.891 192.068C395.456 192.21 395.072 192.482 394.787 192.849L394.535 193.183L400.88 196.08L394.549 198.486L387.825 194.965C387.56 194.825 387.255 194.785 386.965 194.854C386.675 194.923 386.418 195.096 386.239 195.342C386.034 195.615 385.944 195.96 385.986 196.302C386.028 196.644 386.199 196.955 386.463 197.167L395.868 204.658C396.163 204.894 396.503 205.063 396.866 205.153C397.23 205.243 397.607 205.252 397.974 205.179L408.376 203.021L411.281 206.295L416.377 203.586Z" fill="#B16548" stroke="#263238" stroke-linecap="round" stroke-linejoin="round"/>
<path d="M488.894 188.72L450.333 230.346L413.527 199.645L408.446 203.455L448.943 250.819L484.051 231.302L488.894 188.72Z" fill="#FFE092" stroke="#263238" stroke-linecap="round" stroke-linejoin="round"/>
<path d="M546.588 199.355L566.802 263.467L549.367 263.989L532.031 233.896C532.031 233.896 541.773 203.542 546.588 199.355Z" fill="#FFE092" stroke="#263238" stroke-linecap="round" stroke-linejoin="round"/>
<path d="M524.591 188.344L546.588 199.427L528.171 252.586L530.347 267.408L478.773 267.495L484.922 243.618L480.71 228.318C480.164 226.332 480.135 224.233 480.626 222.233L488.88 188.793L510.554 185.199L524.591 188.344Z" fill="#FFE092" stroke="#263238" stroke-linecap="round" stroke-linejoin="round"/>
<path d="M529.729 162.264C529.729 162.264 527.96 168.827 527.132 173.174C526.304 177.52 524.633 186.214 524.788 189.474C524.942 192.734 511.648 206.614 509.978 204.542C508.308 202.47 506.553 190.43 506.553 190.43L508.209 170.957C508.209 170.957 525.532 151.151 529.729 162.264Z" fill="#B16548" stroke="#263238" stroke-linecap="round" stroke-linejoin="round"/>
<path d="M501.949 152.122C501.949 152.122 499.576 156.164 499.576 157.917C499.576 159.67 500.405 163.104 500.264 164.104C500.124 165.104 497.766 168.451 497.457 169.581C497.302 170.041 497.314 170.543 497.493 170.994C497.671 171.445 498.003 171.813 498.425 172.029C498.999 172.332 499.556 172.666 500.096 173.029C500.096 173.029 500.798 181.954 501.921 184.258C503.044 186.561 504.012 187.576 507.353 187.865C510.694 188.155 518.653 184.548 519.762 181.664C520.871 178.781 521.026 175.333 521.166 171.16C521.306 166.987 518.513 161.018 516.421 155.324C514.33 149.63 505.57 146.5 501.949 152.122Z" fill="#B16548" stroke="#263238" stroke-linecap="round" stroke-linejoin="round"/>
<path d="M502.045 149C502.045 149 508.587 143.756 517.282 153.721C525.976 163.686 520.84 176.097 527.021 179.488C533.202 182.879 546.7 170.935 548.836 164.46C550.972 157.984 550.19 139.121 537.545 135C524.9 130.879 506.359 136.94 502.045 149Z" fill="#263238" stroke="#263238" stroke-linecap="round" stroke-linejoin="round"/>
<path d="M501.087 153.748C500.966 152.551 501.108 151.342 501.501 150.211C501.895 149.08 502.531 148.058 503.359 147.222C504.188 146.386 505.188 145.758 506.283 145.387C507.379 145.015 508.541 144.91 509.681 145.078C518.922 145.599 519.883 160.835 524.744 166.937C529.605 173.039 532.045 172.016 532.045 172.016C532.045 172.016 523.783 174.545 518.423 171.494C513.063 168.443 510.476 151.238 501.087 153.748Z" fill="#263238" stroke="#263238" stroke-linecap="round" stroke-linejoin="round"/>
<path d="M518.106 172.073C518.106 172.073 525.518 162.061 527.258 169.537C528.999 177.013 523.047 178.839 520.24 177.984C517.432 177.129 517.825 175.579 517.825 175.579" fill="#B16548"/>
<path d="M518.106 172.073C518.106 172.073 525.518 162.061 527.258 169.537C528.999 177.013 523.047 178.839 520.24 177.984C517.432 177.129 517.825 175.579 517.825 175.579" stroke="#263238" stroke-linecap="round" stroke-linejoin="round"/>
<path d="M501.612 257.744C501.612 257.744 487.462 259.773 485.104 259.773C482.746 259.773 476.85 267.481 476.85 267.481H502.791L501.612 257.744Z" fill="#B16548" stroke="#263238" stroke-linecap="round" stroke-linejoin="round"/>
<path d="M561.72 247.921L566.801 259.744C567.029 260.44 567.094 261.181 566.992 261.908C566.89 262.635 566.622 263.327 566.212 263.927C565.801 264.527 565.259 265.019 564.63 265.362C564.001 265.705 563.302 265.89 562.59 265.901L501.247 266.264L501.64 257.744L549.199 249.978" fill="#FFE092"/>
<path d="M561.72 247.921L566.801 259.744C567.029 260.44 567.094 261.181 566.992 261.908C566.89 262.635 566.622 263.327 566.212 263.927C565.801 264.527 565.259 265.019 564.63 265.362C564.001 265.705 563.302 265.89 562.59 265.901L501.247 266.264L501.64 257.744L549.199 249.978" stroke="#263238" stroke-linecap="round" stroke-linejoin="round"/>
<path d="M479.615 411.237L479.91 422.727H478.155L475.811 416.989L479.615 411.237Z" fill="#263238" stroke="#263238" stroke-linecap="round" stroke-linejoin="round"/>
<path d="M476.471 403.558L474.211 386.838L462.447 387.621L466.518 404.08L461.324 414.816L450.095 422.393C450.095 422.393 448.803 423.726 454.418 423.277C460.033 422.828 471.684 423.277 471.684 423.277L479.026 414.367C479.026 414.367 481.679 409.716 476.471 403.558Z" fill="#B16548" stroke="#263238" stroke-linecap="round" stroke-linejoin="round"/>
<path d="M471.684 423.219L479.026 414.309C479.026 414.309 480.921 410.991 478.296 406.209C473.074 415.424 466.125 418.192 466.125 418.192L458.896 416.395L450.095 422.335C450.095 422.335 448.803 423.668 454.418 423.219C460.033 422.77 471.684 423.219 471.684 423.219Z" fill="#263238" stroke="#263238" stroke-linecap="round" stroke-linejoin="round"/>
<path d="M471.081 301.065L476.12 389.91L460.16 390.301L444.578 309.585C444.578 309.585 444.873 294.212 449.632 292.445C454.39 290.677 467.024 292.575 467.024 292.575" fill="#3506B7"/>
<path d="M471.081 301.065L476.12 389.91L460.16 390.301L444.578 309.585C444.578 309.585 444.873 294.212 449.632 292.445C454.39 290.677 467.024 292.575 467.024 292.575" stroke="#263238" stroke-linecap="round" stroke-linejoin="round"/>
<path d="M401.315 109.829L421.122 167.132C421.122 167.132 418.511 180.099 410.65 179.563C402.789 179.027 400.697 167.668 398.606 166.045C396.514 164.423 393.37 151.991 393.37 151.991L401.315 109.829Z" fill="#3506B7" stroke="#263238" stroke-linecap="round" stroke-linejoin="round"/>
<path d="M350.079 98.3398L317.877 110.336L330.23 202.499H388.33L401.315 109.829L366.558 98.6006L350.079 98.3398Z" fill="#3506B7" stroke="#263238" stroke-linecap="round" stroke-linejoin="round"/>
<path d="M368.384 88.0095L367.092 98.7746L359 120.5L350.851 98.6007V78.418C350.851 78.418 363.021 81.562 368.384 88.0095Z" fill="#EFC0B5" stroke="#263238" stroke-linecap="round" stroke-linejoin="round"/>
<path d="M346.078 65.639C346.078 55.8591 352.984 47.9338 361.519 47.9338C370.054 47.9338 374.784 56.2938 374.784 66.0736C374.784 69.2322 374.152 74.6509 373.9 77.5342C373.465 82.4603 372.019 84.5467 369.197 88.9657C359.947 103.454 352.352 82.1995 348.464 75.0566C346.89 72.1844 346.068 68.9388 346.078 65.639Z" fill="#EFC0B5" stroke="#263238" stroke-linecap="round" stroke-linejoin="round"/>
<path d="M368.229 68.7104L369.534 78.809L364.944 78.6786" fill="#EFC0B5"/>
<path d="M368.229 68.7104L369.534 78.809L364.944 78.6786" stroke="#263238" stroke-linecap="round" stroke-linejoin="round"/>
<path d="M378.476 66.9573L356.409 67.0587C356.138 67.9444 356.097 68.8881 356.289 69.7956C356.481 70.7031 356.9 71.5428 357.504 72.2311C358.908 73.68 364.621 73.1729 365.534 72.7962C366.446 72.4195 366.937 68.2757 366.937 68.2757H368.58C368.58 68.2757 368.762 72.6223 371.121 72.9845C373.479 73.3468 376.553 73.2308 377.143 72.7962C379.754 70.9851 378.476 66.9573 378.476 66.9573Z" fill="white" stroke="#263238" stroke-linecap="round" stroke-linejoin="round"/>
<path d="M348.801 76.6938C348.801 76.6938 348.866 74.8633 350.045 78.5C351.224 82.1367 347.7 78.0284 353.609 76C351.045 70 352.485 76 352.485 76C352.485 76 354.545 76 353.545 77.5C352.38 78.6881 350.545 77.5 352.493 76.4576C352.1 75.2406 353.77 76.6504 353.77 76.6504L352.493 71.4924L355.118 69.7537C355.497 69.428 355.743 68.9671 355.808 68.4625C355.874 67.9579 355.752 67.4465 355.469 67.0299L354.234 65.1898C354.081 64.9645 353.974 64.7099 353.919 64.4412C353.863 64.1724 353.861 63.8949 353.911 63.625C354.234 62.0458 355.118 58.7713 357.168 57.8296C359.975 56.627 363.386 58.3801 366.531 59.1915C369.675 60.0029 373.086 57.0761 373.086 57.0761L374.49 61.8864C377.602 58.8716 379.814 55.0004 380.863 50.7301C382.435 43.848 366.362 41.0227 361.21 41.0227C356.059 41.0227 347.889 43.9204 345.53 51.5415C343.172 59.1625 347.411 75.3319 348.801 76.6938Z" fill="#263238" stroke="#263238" stroke-linecap="round" stroke-linejoin="round"/>
<path d="M349.545 73.4918C349.545 73.4918 345.207 68.5657 345.207 73.941C345.207 79.3163 346.513 79.3163 349.11 81.1853C351.707 83.0544 352.591 80.7362 352.591 80.7362" fill="#EFC0B5"/>
<path d="M349.545 73.4918C349.545 73.4918 345.207 68.5657 345.207 73.941C345.207 79.3163 346.513 79.3163 349.11 81.1853C351.707 83.0544 352.591 80.7362 352.591 80.7362" stroke="#263238" stroke-linecap="round" stroke-linejoin="round"/>
<path d="M407.463 407.47H407.66L407.281 405.5L388.33 202.513H330.23L311.125 407.456H311.335L323.66 408.542C323.66 408.542 337.333 361.164 337.333 357.629C337.333 354.094 341.235 321.407 341.235 321.407L360.621 251.065L377.76 321.407C377.76 321.407 381.663 354.166 381.663 357.629C381.663 361.092 395.349 408.571 395.349 408.571L406.944 407.543H407.463V407.47Z" fill="#263238" stroke="#263238" stroke-linecap="round" stroke-linejoin="round"/>
<path d="M383.993 214.452L371.064 233.505" stroke="white" stroke-width="0.5" stroke-linecap="round" stroke-linejoin="round"/>
<path d="M377.072 218.741L369.225 232.085" stroke="white" stroke-width="0.5" stroke-linecap="round" stroke-linejoin="round"/>
<path d="M340.154 217.799L351.679 230.65" stroke="white" stroke-width="0.5" stroke-linecap="round" stroke-linejoin="round"/>
<path d="M339.228 222.551L355.834 239.706" stroke="white" stroke-width="0.5" stroke-linecap="round" stroke-linejoin="round"/>
<path d="M311.335 407.456C311.335 407.456 303.938 413.469 299.67 415.12C295.403 416.772 287.43 421.162 287.43 421.162C287.43 421.162 287.43 423.915 294.35 423.915H321.512L321.049 407.456H311.335Z" fill="#263238" stroke="#263238" stroke-linecap="round" stroke-linejoin="round"/>
<path d="M321.414 420.915C310.568 421.427 299.701 421.248 288.876 420.379L287.472 421.162C287.472 421.162 287.472 423.915 294.392 423.915H321.555L321.414 420.915Z" fill="white" stroke="#263238" stroke-linecap="round" stroke-linejoin="round"/>
<path d="M406.34 407.456C406.34 407.456 413.752 413.469 418.005 415.12C422.259 416.772 430.26 421.162 430.26 421.162C430.26 421.162 430.26 423.915 423.325 423.915H396.177L396.669 407.456H406.34Z" fill="#263238" stroke="#263238" stroke-linecap="round" stroke-linejoin="round"/>
<path d="M396.261 420.915C407.108 421.427 417.975 421.248 428.8 420.379L430.204 421.162C430.204 421.162 430.204 423.915 423.269 423.915H396.177L396.261 420.915Z" fill="white" stroke="#263238" stroke-linecap="round" stroke-linejoin="round"/>
<path d="M317.877 110.336L296.484 169.291H317.006L324.671 153.208L317.877 110.336Z" fill="#3506B7" stroke="#263238" stroke-linecap="round" stroke-linejoin="round"/>
<path d="M411.464 160.163C402.901 156.512 375.43 154.701 373.998 154.701C372.567 154.701 327.914 150.905 324.25 150.354C320.586 149.804 316.389 158.468 316.389 158.468L335.761 157.917L359.329 162.786C359.329 162.786 407.057 180.621 410.65 179.549C411.14 179.38 411.583 179.092 411.942 178.709" fill="#3506B7"/>
<path d="M411.464 160.163C402.901 156.512 375.43 154.701 373.998 154.701C372.567 154.701 327.914 150.905 324.25 150.354C320.586 149.804 316.389 158.468 316.389 158.468L335.761 157.917L359.329 162.786C359.329 162.786 407.057 180.621 410.65 179.549C411.14 179.38 411.583 179.092 411.942 178.709" stroke="#263238" stroke-linecap="round" stroke-linejoin="round"/>
<path d="M311.672 157.396L385.509 149.833L386.042 156.309L322.144 176.318C322.144 176.318 310.634 179.013 301.72 177.39C292.806 175.767 297.017 166.581 299.109 161.177" fill="#3506B7"/>
<path d="M311.672 157.396L385.509 149.833L386.042 156.309L322.144 176.318C322.144 176.318 310.634 179.013 301.72 177.39C292.806 175.767 297.017 166.581 299.109 161.177" stroke="#263238" stroke-linecap="round" stroke-linejoin="round"/>
<path d="M385.523 149.833L399.658 149.282L403.842 157.932L386.042 156.324L385.523 149.833Z" fill="#EFC0B5" stroke="#263238" stroke-linecap="round" stroke-linejoin="round"/>
<path d="M479.672 276.956L491.73 425.132C491.761 425.353 491.837 425.564 491.951 425.754C492.065 425.944 492.215 426.108 492.392 426.235C492.57 426.363 492.771 426.451 492.983 426.496C493.195 426.54 493.413 426.54 493.625 426.494C493.986 426.402 494.303 426.178 494.517 425.864C494.731 425.549 494.828 425.166 494.79 424.784L486.578 277L479.672 276.956Z" fill="#263238" stroke="#263238" stroke-linecap="round" stroke-linejoin="round"/>
<path d="M560.709 276.956L572.81 425.625C572.839 425.846 572.913 426.059 573.027 426.25C573.14 426.441 573.29 426.605 573.468 426.733C573.646 426.861 573.848 426.95 574.061 426.993C574.274 427.037 574.493 427.035 574.705 426.987C575.066 426.894 575.382 426.67 575.597 426.356C575.811 426.042 575.908 425.659 575.87 425.277L567.63 276.956H560.709Z" fill="#263238" stroke="#263238" stroke-linecap="round" stroke-linejoin="round"/>
<path d="M226.282 276.956L219.979 423.842C219.945 424.228 220.044 424.613 220.26 424.929C220.477 425.245 220.795 425.472 221.159 425.567C221.367 425.622 221.585 425.63 221.797 425.591C222.009 425.552 222.21 425.466 222.387 425.34C222.564 425.214 222.713 425.049 222.823 424.859C222.933 424.668 223.002 424.454 223.026 424.234L233.231 276.956H226.282Z" fill="#263238" stroke="#263238" stroke-linecap="round" stroke-linejoin="round"/>
<path d="M151.589 276.956L145.244 423.292C145.213 423.679 145.316 424.064 145.534 424.38C145.753 424.696 146.073 424.921 146.437 425.016C146.646 425.069 146.863 425.075 147.074 425.035C147.285 424.995 147.485 424.909 147.662 424.783C147.838 424.657 147.987 424.494 148.097 424.304C148.208 424.115 148.279 423.903 148.304 423.683L158.467 276.898L151.589 276.956Z" fill="#263238" stroke="#263238" stroke-linecap="round" stroke-linejoin="round"/>
<path d="M576.487 268.741H147.097V281.462H576.487V268.741Z" fill="#263238" stroke="#263238" stroke-linecap="round" stroke-linejoin="round"/>
<path d="M576.487 268.741H147.097V273.102H576.487V268.741Z" fill="#263238" stroke="#263238" stroke-linecap="round" stroke-linejoin="round"/>
<path d="M576.473 268.741H469.031V281.462H576.473V268.741Z" fill="#263238" stroke="#263238" stroke-linecap="round" stroke-linejoin="round"/>
<path d="M580.305 264.51H143.265V269.364H580.305V264.51Z" fill="#263238" stroke="#263238" stroke-linecap="round" stroke-linejoin="round"/>
<path d="M580.292 264.51H473.509V269.364H580.292V264.51Z" fill="#263238" stroke="#263238" stroke-linecap="round" stroke-linejoin="round"/>
<path d="M240.615 264.076H299.263C299.486 264.078 299.706 264.011 299.893 263.885C300.08 263.759 300.227 263.578 300.316 263.366L316.557 225.145C316.632 224.966 316.662 224.77 316.645 224.576C316.628 224.382 316.564 224.195 316.46 224.032C316.355 223.87 316.213 223.737 316.046 223.645C315.879 223.553 315.693 223.506 315.504 223.508H256.856C256.636 223.508 256.421 223.573 256.237 223.697C256.052 223.82 255.907 223.996 255.817 224.203L239.632 262.424C239.556 262.598 239.523 262.789 239.535 262.98C239.547 263.17 239.604 263.355 239.701 263.518C239.798 263.681 239.932 263.816 240.091 263.914C240.25 264.011 240.43 264.067 240.615 264.076Z" fill="white" stroke="#263238" stroke-linecap="round" stroke-linejoin="round"/>
<path d="M246.117 261.091H296.16C296.348 261.091 296.531 261.035 296.688 260.929C296.845 260.824 296.969 260.674 297.045 260.497L310.9 227.883C310.975 227.729 311.01 227.558 311.002 227.386C310.994 227.214 310.943 227.047 310.854 226.901C310.765 226.755 310.641 226.636 310.494 226.554C310.347 226.472 310.182 226.431 310.015 226.434H259.972C259.781 226.433 259.593 226.49 259.433 226.598C259.273 226.706 259.148 226.861 259.073 227.043L245.247 259.686C245.182 259.837 245.154 260.002 245.166 260.167C245.178 260.332 245.229 260.491 245.316 260.63C245.402 260.769 245.52 260.884 245.66 260.965C245.8 261.045 245.957 261.089 246.117 261.091Z" fill="#6D6E71" stroke="#263238" stroke-linecap="round" stroke-linejoin="round"/>
<path d="M300.077 261.54H211.964V264.51H300.077V261.54Z" fill="white" stroke="#263238" stroke-linecap="round" stroke-linejoin="round"/>
<path d="M300.091 261.54H257.375V264.51H300.091V261.54Z" fill="white" stroke="#263238" stroke-linecap="round" stroke-linejoin="round"/>
<path d="M328.39 240.865H312.85V264.569H328.39V240.865Z" fill="white" stroke="#263238" stroke-linecap="round" stroke-linejoin="round"/>
<path d="M327.702 261.338H326.074C325.735 261.338 325.41 261.199 325.171 260.951C324.931 260.704 324.796 260.369 324.796 260.019C324.796 259.669 324.931 259.334 325.171 259.087C325.41 258.84 325.735 258.701 326.074 258.701H327.702C328.345 258.697 328.961 258.431 329.415 257.962C329.87 257.493 330.127 256.858 330.131 256.194V250.399C330.127 249.735 329.87 249.1 329.415 248.63C328.961 248.161 328.345 247.896 327.702 247.892H325.611C325.443 247.892 325.277 247.858 325.122 247.792C324.967 247.725 324.826 247.628 324.707 247.506C324.589 247.383 324.495 247.238 324.43 247.078C324.366 246.918 324.333 246.747 324.333 246.574C324.333 246.4 324.366 246.229 324.43 246.069C324.495 245.909 324.589 245.764 324.707 245.641C324.826 245.519 324.967 245.422 325.122 245.355C325.277 245.289 325.443 245.255 325.611 245.255H327.702C328.357 245.255 329.005 245.388 329.609 245.647C330.214 245.905 330.763 246.284 331.226 246.762C331.689 247.239 332.056 247.806 332.306 248.43C332.557 249.054 332.685 249.723 332.685 250.399V256.194C332.685 256.869 332.557 257.538 332.306 258.162C332.056 258.786 331.689 259.353 331.226 259.831C330.763 260.309 330.214 260.688 329.609 260.946C329.005 261.205 328.357 261.338 327.702 261.338Z" fill="white" stroke="#263238" stroke-linecap="round" stroke-linejoin="round"/>
<path d="M449.8 264.076H391.152C390.93 264.075 390.714 264.007 390.53 263.881C390.345 263.755 390.2 263.576 390.113 263.366L373.872 225.145C373.797 224.967 373.767 224.772 373.783 224.579C373.8 224.386 373.862 224.2 373.965 224.038C374.068 223.876 374.208 223.743 374.373 223.65C374.538 223.558 374.723 223.509 374.91 223.508H433.559C433.78 223.507 433.998 223.572 434.184 223.695C434.371 223.818 434.519 223.995 434.611 224.203L450.853 262.424C450.927 262.604 450.956 262.8 450.939 262.995C450.922 263.19 450.859 263.377 450.755 263.541C450.65 263.704 450.509 263.839 450.342 263.932C450.176 264.025 449.989 264.075 449.8 264.076Z" fill="white" stroke="#263238" stroke-linecap="round" stroke-linejoin="round"/>
<path d="M390.337 264.51H478.45V261.54H390.337V264.51Z" fill="white" stroke="#263238" stroke-linecap="round" stroke-linejoin="round"/>
<path d="M390.338 264.51H451.091V261.54H390.338V264.51Z" fill="white" stroke="#263238" stroke-linecap="round" stroke-linejoin="round"/>
<path d="M413.331 239.373C413.648 239.993 413.782 240.696 413.714 241.395C413.646 242.093 413.38 242.755 412.949 243.298C412.518 243.841 411.942 244.24 411.292 244.446C410.642 244.652 409.948 244.656 409.296 244.456C408.644 244.256 408.064 243.862 407.628 243.324C407.192 242.785 406.92 242.126 406.846 241.428C406.771 240.731 406.898 240.026 407.21 239.403C407.522 238.779 408.006 238.265 408.6 237.924C409.414 237.47 410.369 237.368 411.255 237.64C412.142 237.911 412.888 238.534 413.331 239.373Z" fill="white" stroke="#263238" stroke-linecap="round" stroke-linejoin="round"/>
<path d="M139.082 126.868L143.405 170.957L163.057 229.68L156.334 233.65L133.256 179.897L121.731 133.75C121.731 133.75 120.763 119.87 125.578 117.813C130.392 115.755 137.158 117.943 139.082 126.868Z" fill="#FFE092" stroke="#263238" stroke-linecap="round" stroke-linejoin="round"/>
<path d="M163.114 229.738C163.114 229.738 167.437 239.17 167.929 241.647C168.42 244.125 168.911 249.181 167.016 251.442C164.728 254.166 162.637 252.065 162.637 252.065C162.637 252.065 156.867 250.616 156.867 245.617C156.867 240.619 156.39 233.708 156.39 233.708L163.114 229.738Z" fill="white" stroke="#263238" stroke-linecap="round" stroke-linejoin="round"/>
<path d="M158.397 244.531L166.497 246.704" stroke="#263238" stroke-linecap="round" stroke-linejoin="round"/>
<path d="M160.334 238.894L162.637 242.633C162.637 242.633 157.274 252.094 160.152 249.616C163.03 247.139 168.406 244.125 167.929 241.647C167.116 239.047 166.043 236.542 164.728 234.171" fill="white"/>
<path d="M160.334 238.894L162.637 242.633C162.637 242.633 157.274 252.094 160.152 249.616C163.03 247.139 168.406 244.125 167.929 241.647C167.116 239.047 166.043 236.542 164.728 234.171" stroke="#263238" stroke-linecap="round" stroke-linejoin="round"/>
<path d="M111.388 73.8831C111.388 73.8831 106.446 68.3774 95.048 71.9126C83.6496 75.4478 81.0106 94.2831 81.3615 103.686C81.7125 113.089 90.4858 123.695 87.8328 128.404C85.1797 133.113 75.2833 144.095 76.0414 155.932C76.7994 167.77 86.3027 177.115 99.9892 172.797C113.676 168.48 111.388 151.195 108.664 144.878C105.941 138.561 111.71 135.851 113.605 122.116C115.5 108.381 103.344 97.007 103.344 87.1982C103.344 77.3893 113.17 78.9686 113.17 78.9686L111.388 73.8831Z" fill="#263238" stroke="#263238" stroke-linecap="round" stroke-linejoin="round"/>
<path d="M102.135 167.321C103.224 167.743 104.385 167.93 105.546 167.871" stroke="white" stroke-width="0.5" stroke-linecap="round" stroke-linejoin="round"/>
<path d="M150.101 276.826C150.101 276.826 146.83 305.977 143.546 315.279C140.261 324.58 132.905 397.676 132.498 401.906C132.091 406.137 143.139 415.845 147.645 418.815C152.151 421.785 150.101 422.611 145.188 423.031C140.275 423.451 134.548 422.611 132.091 417.96C129.635 413.309 123.893 412.048 123.893 412.048L123.079 422.191H121.437L120.216 409.513C119.798 406.635 120.223 403.693 121.437 401.066C123.486 396.415 124.244 386.693 124.244 373.538C124.244 360.382 121.788 339.301 123.009 329.159C124.23 319.017 129.157 311.41 129.157 302.963C129.157 294.516 129.564 281.839 129.564 281.839L150.101 276.826Z" fill="#DCC0A0" stroke="#263238" stroke-linecap="round" stroke-linejoin="round"/>
<path d="M120.215 409.513C119.889 407.333 120.067 405.104 120.735 403.008C123.275 407.441 130.561 413.454 136.176 415.845C139.22 417.205 142.539 417.782 145.848 417.525C146.507 418.032 147.125 418.467 147.644 418.815C152.15 421.712 150.101 422.611 145.188 423.031C140.275 423.451 134.547 422.611 132.091 417.96C129.634 413.309 123.893 412.049 123.893 412.049L123.079 422.191H121.437L120.215 409.513Z" fill="#263238" stroke="#263238" stroke-linecap="round" stroke-linejoin="round"/>
<path d="M126.35 281.477C126.35 281.477 119.331 303.021 112.846 321.61C106.361 340.199 90.737 382.883 89.0946 390.489C87.4522 398.096 86.638 412.049 82.0759 419.235C77.5137 426.421 73.0639 429.797 73.878 417.12C74.6922 404.442 82.0759 395.14 83.7042 385.418C85.3326 375.696 86.1608 340.634 91.888 325.001C97.6153 309.367 103.764 296.69 104.522 292.039C105.081 287.411 105.353 282.75 105.336 278.086L126.35 281.477Z" fill="#DCC0A0" stroke="#263238" stroke-linecap="round" stroke-linejoin="round"/>
<path d="M74.7201 411.686C74.7806 414.076 75.5015 416.399 76.7977 418.38C79.156 421.104 82.9601 415.816 84.9394 412.585C84.2918 414.915 83.3478 417.146 82.1319 419.22C77.6259 426.392 73.1199 429.783 73.9341 417.105C74.0695 415.282 74.3322 413.471 74.7201 411.686Z" fill="#263238" stroke="#263238" stroke-linecap="round" stroke-linejoin="round"/>
<path d="M123 107.5C123 107.5 120.665 113.524 119.022 127.897C117.38 142.27 127.627 187.054 127.627 187.054C127.627 187.054 110.025 216.814 105.926 231.607C101.827 246.4 99.3701 301.819 99.3701 301.819C99.3701 301.819 107.975 305.209 125.578 306.47C143.181 307.73 152.6 303.094 152.6 303.094C152.6 303.094 153.414 224 153.414 211.815C153.414 199.63 154.242 171.913 155.464 168.538C156.685 165.162 160.377 156.28 160.377 152.904C160.377 149.528 135 115.5 135 115.5L123 107.5Z" fill="#FFE092" stroke="#263238" stroke-linecap="round" stroke-linejoin="round"/>
<path d="M105.883 231.607C109.112 220.016 122.476 189.184 127.248 183.881C134.506 186.373 147.743 188.836 153.653 187.01C153.47 191.357 153.372 207.584 153.372 211.743C153.372 224 152.558 303.021 152.558 303.021C152.558 303.021 143.139 307.672 125.536 306.397C107.933 305.122 99.328 301.746 99.328 301.746C99.328 301.746 101.785 246.399 105.883 231.607Z" fill="#FFE092" stroke="#263238" stroke-linecap="round" stroke-linejoin="round"/>
<path d="M127.488 61.5966C127.488 61.5966 131.882 51.7153 140.571 51.7153C149.26 51.7153 153.121 59.6841 151.197 66.6532C149.274 73.6222 156.981 71.6373 157.949 76.1288C158.918 80.6203 151.675 83.5904 147.814 83.5904C143.954 83.5904 127.488 61.5966 127.488 61.5966Z" fill="#263238" stroke="#263238" stroke-linecap="round" stroke-linejoin="round"/>
<path d="M149.766 84.5902C149.151 84.1187 148.667 83.4893 148.362 82.7646C147.66 77.4183 146.144 72.1589 143.28 69.2032C138.948 64.994 133.424 62.3282 127.516 61.5966C125.767 61.3305 123.982 61.4994 122.308 62.0892C114.855 64.7841 108.454 70.1015 109.829 82.924C111.345 97.0504 122 100.586 122 100.586L122.758 109.279L133.398 114.379L133.777 104.961C133.777 104.961 140.992 108.091 143.603 107.7C146.214 107.308 147.028 103.773 148.165 98.6732C148.583 96.346 148.789 93.9839 148.783 91.6172L151.969 88.3427C153.78 86.4447 151.998 85.9811 149.766 84.5902Z" fill="#DCC1A0" stroke="#263238" stroke-linecap="round" stroke-linejoin="round"/>
<path d="M109.801 82.924C108.398 70.1015 114.827 64.7841 122.281 62.0892C123.954 61.4994 125.739 61.3305 127.488 61.5966C131.516 62.1524 135.393 63.5421 138.887 65.6824C136.753 65.2333 140.389 71.7097 137.048 75.8245C134.122 79.6443 130.392 82.7262 126.141 84.8365C126.141 84.8365 122.351 81.6924 121.2 86.01C120.049 90.3277 120.442 93.4572 123.488 94.2541C126.534 95.051 127.699 94.2541 127.699 94.2541C127.699 94.2541 125.678 99.1947 122.084 101.238V100.528C122.084 100.528 111.388 97.0649 109.801 82.924Z" fill="#263238" stroke="#263238" stroke-linecap="round" stroke-linejoin="round"/>
<path d="M133.06 208.092C135.307 208.588 137.588 208.907 139.882 209.048C141.665 208.932 144.093 206.86 145.89 207.744C147.687 208.628 150.199 214.206 150.199 214.206C150.199 214.206 152.586 215.452 151.898 216.77C151.21 218.089 148.262 219.306 148.262 219.306C148.262 219.306 145.455 222.044 143.826 222.319C142.198 222.595 132.274 215.075 132.274 215.075L133.06 208.092Z" fill="#DCC0A0" stroke="#263238" stroke-linecap="round" stroke-linejoin="round"/>
<path d="M134.113 213.51C134.441 213.103 134.677 212.625 134.803 212.111C134.93 211.597 134.943 211.061 134.842 210.541C134.741 210.021 134.528 209.532 134.22 209.108C133.912 208.684 133.515 208.337 133.06 208.091L105.785 181.722L135.488 134.054C136.814 131.534 137.135 128.58 136.385 125.819C135.635 123.057 133.873 120.706 131.471 119.264C129.07 117.822 126.218 117.403 123.522 118.095C120.826 118.787 118.497 120.536 117.029 122.971L91.2845 175.782C89.9459 177.123 89.1721 178.953 89.13 180.878C89.088 182.802 89.7812 184.667 91.0599 186.069L91.1582 186.17C93.7411 190.285 122.153 211.801 130.463 214.611C131.108 214.822 131.8 214.83 132.45 214.634C133.1 214.438 133.679 214.047 134.113 213.51Z" fill="#FFE092" stroke="#263238" stroke-linecap="round" stroke-linejoin="round"/>
<path d="M242.032 140.531C242.032 140.531 245.556 151.789 245.556 153.976C245.53 155.557 245.413 157.134 245.205 158.7L248.307 163.669C248.489 163.989 248.545 164.368 248.464 164.729C248.383 165.091 248.171 165.406 247.872 165.611L243.085 168.508C243.085 168.508 242.383 180.099 241.681 181.548C240.98 182.997 229.048 182.649 229.048 182.649L225.173 190.27L205.1 182.287L210.378 167.378L209.283 144.877C209.283 144.877 221.608 133.634 242.032 140.531Z" fill="#B16548" stroke="#263238" stroke-linecap="round" stroke-linejoin="round"/>
<path d="M228.29 167.914C228.29 167.914 224.794 171.305 222.169 171.537C219.544 171.768 211.01 169.726 210.35 168.827C209.69 167.929 203.794 155.28 204.005 149.181C204.216 143.081 204.019 137.427 210.35 134.5C216.681 131.573 222.1 130.291 230.5 128C237.833 126 247.5 123.5 247 129.5C248 141 251.479 139.473 247.984 142.864C244.489 146.254 240.109 147.21 240.544 148.659C240.98 150.108 243.605 151.818 242.074 154.078C240.544 156.338 235.056 158.424 235.056 159.265C235.056 160.105 236.375 163.336 234.845 163.785C233.315 164.234 231.771 160.627 230.241 160.627C228.711 160.627 225.454 164.988 228.29 167.914Z" fill="#263238" stroke="#263238" stroke-linecap="round" stroke-linejoin="round"/>
<path d="M227.939 168.523L230.746 169.247C230.576 170.602 230.676 171.978 231.041 173.291C231.406 174.604 232.027 175.827 232.866 176.883" fill="#B16548"/>
<path d="M227.939 168.523L230.746 169.247C230.576 170.602 230.676 171.978 231.041 173.291C231.406 174.604 232.027 175.827 232.866 176.883" stroke="#263238" stroke-linecap="round" stroke-linejoin="round"/>
<path d="M225.932 405.761C225.932 405.761 244.18 417.656 247.395 417.656C250.609 417.656 252.21 420.641 250.609 420.974C249.009 421.307 239.071 421.626 232.361 421.959C225.651 422.292 221.131 421.626 217.299 421.626C213.466 421.626 208.96 421.959 207.037 420.974C205.114 419.989 208.329 408.731 208.329 406.746C208.329 404.761 223.686 404.428 225.932 405.761Z" fill="#263238" stroke="#263238" stroke-linecap="round" stroke-linejoin="round"/>
<path d="M249.458 418.149C242.369 420.554 230.873 418.974 223.966 418.323C218.506 417.815 209.929 417.7 206.434 417.671C206.293 419.366 206.434 420.655 206.981 420.974C208.904 421.959 213.396 421.626 217.242 421.626C221.089 421.626 225.566 422.292 232.304 421.959C239.042 421.626 248.967 421.293 250.553 420.974C251.802 420.713 251.213 419.003 249.458 418.149Z" fill="white" stroke="#263238" stroke-linecap="round" stroke-linejoin="round"/>
<path d="M240.348 324.044L225.945 398.589L228.949 406.326C226.794 409.548 223.541 411.814 219.839 412.672C215.723 413.507 211.541 413.953 207.346 414.005C207.346 414.005 205.746 405.732 206.714 404.732C207.683 403.732 207.992 399.777 207.992 399.777L216.316 324.696L240.348 324.044Z" fill="#3506B7" stroke="#263238" stroke-linecap="round" stroke-linejoin="round"/>
<path d="M284.243 403.24C284.243 403.24 295.473 412.831 300.596 414.483C305.72 416.135 311.167 417.786 311.167 419.438C311.167 421.09 298.996 422.741 289.703 421.756C280.411 420.771 266.303 416.468 263.103 416.468C259.902 416.468 260.534 407.862 260.534 406.543C260.534 405.225 276.242 394.633 284.243 403.24Z" fill="#263238" stroke="#263238" stroke-linecap="round" stroke-linejoin="round"/>
<path d="M311.223 419.438C311.223 418.844 310.507 418.25 309.37 417.656C300.197 418.923 290.898 418.854 281.744 417.453C272.521 416.091 264.801 414.266 260.856 413.251C261.193 415.034 261.853 416.468 263.158 416.468C266.359 416.468 280.467 420.815 289.759 421.756C299.052 422.698 311.223 421.09 311.223 419.438Z" fill="white" stroke="#263238" stroke-linecap="round" stroke-linejoin="round"/>
<path d="M228.5 290.634C238.109 289.874 247.767 290.098 257.333 291.3C273.673 293.285 310.184 295.647 310.815 299.906C311.447 304.166 282.488 393.691 282.488 395.995C282.488 398.299 285.043 400.632 285.689 401.95C286.096 402.89 286.315 403.905 286.334 404.935C286.334 404.935 278.487 413.628 272.395 415.99C266.303 418.351 261.165 416.134 259.902 416.134C258.638 416.134 258.624 407.209 259.593 402.906C260.562 398.603 262.148 387.693 262.471 386.708C262.794 385.723 280.34 322.059 280.34 322.059C280.34 322.059 232.613 329.999 204.103 326.681C175.593 323.363 172.701 318.756 171.101 311.801C169.501 304.847 172.701 290.967 172.701 290.967L228.5 290.634Z" fill="#3506B7" stroke="#263238" stroke-linecap="round" stroke-linejoin="round"/>
<path d="M224.893 312.062C224.245 313.029 223.522 313.94 222.731 314.786" stroke="#263238" stroke-linecap="round" stroke-linejoin="round"/>
<path d="M233.624 294.27C231.782 299.032 229.658 303.672 227.265 308.165" stroke="#263238" stroke-linecap="round" stroke-linejoin="round"/>
<path d="M229.806 297.588C225.939 304.171 220.085 309.262 213.143 312.077" stroke="#263238" stroke-linecap="round" stroke-linejoin="round"/>
<path d="M302.548 315.844C303.643 315.409 304.695 314.96 305.692 314.496L302.548 315.844Z" fill="white"/>
<path d="M302.548 315.844C303.643 315.409 304.695 314.96 305.692 314.496" stroke="#263238" stroke-linecap="round" stroke-linejoin="round"/>
<path d="M280.34 322.06C286.506 320.831 292.599 319.239 298.589 317.293L280.34 322.06Z" fill="white"/>
<path d="M280.34 322.06C286.506 320.831 292.599 319.239 298.589 317.293" stroke="#263238" stroke-linecap="round" stroke-linejoin="round"/>
<path d="M317.385 212.221C318.059 209.453 319.182 209.671 318.284 208.758C317.048 207.483 316.052 208.99 312.472 211.062C308.893 213.134 305.327 215.669 305.327 215.669C305.405 214.9 305.715 214.176 306.211 213.597C307.116 212.07 307.602 210.317 307.615 208.526C307.615 207.077 306.492 207.367 306.043 208.758C305.594 210.149 301.579 212.67 301.355 213.829C301.13 214.988 300.33 219.538 300.33 219.538C299.052 221.523 299.052 230.781 299.052 230.781L273.041 250.949L259.902 266.887C259.902 266.887 265.671 276.478 268.872 275.16C272.073 273.841 273.673 272.508 281.365 265.887C287.879 260.28 304.204 234.417 304.204 234.417C307.048 232.574 309.738 230.49 312.248 228.187C315.142 224.807 316.853 220.521 317.104 216.017C317.044 214.744 317.139 213.469 317.385 212.221Z" fill="#B16548" stroke="#263238" stroke-linecap="round" stroke-linejoin="round"/>
<path d="M197.028 181.621C197.028 181.621 199.499 172.058 209.999 173.971C220.499 175.883 228.528 184.808 230.381 187.996C232.234 191.183 196.411 186.721 196.411 186.721L197.028 181.621Z" fill="white" stroke="#263238" stroke-linecap="round" stroke-linejoin="round"/>
<path d="M257.558 265.133C257.558 265.133 255.115 267.857 257.558 272.146C259.228 275.116 262.176 277.391 267.819 276.391C273.097 275.435 281.028 261.902 281.028 252.383C281.028 242.864 274.234 242.241 271.764 244.096C269.293 245.95 257.558 265.133 257.558 265.133Z" fill="white" stroke="#263238" stroke-linecap="round" stroke-linejoin="round"/>
<path d="M201.577 180.505C201.577 180.505 176.59 192.748 173.067 194.994C169.543 197.24 167.297 226.072 167.297 231.042C167.297 236.011 170.821 284.65 171.775 292.879C172.73 301.109 203.5 306.774 213.761 303.789C224.022 300.805 234.017 293.285 234.017 290.633C234.017 287.982 233.048 265.51 233.694 261.207C234.34 256.904 240.095 238.721 240.095 238.721L257.586 267.524C257.586 267.524 259.425 271.059 265.924 268.277C275.217 264.308 275.989 248.964 275.989 248.964C275.989 248.964 265.741 230.448 262.85 221.189C259.958 211.931 258.639 204.976 257.403 203.325C256.168 201.673 227.279 187.778 222.155 184.142C219.254 181.887 215.873 180.38 212.293 179.747C208.714 179.115 205.039 179.374 201.577 180.505Z" fill="white" stroke="#263238" stroke-linecap="round" stroke-linejoin="round"/>
<path d="M240.025 238.721L231.701 226.145" stroke="#263238" stroke-linecap="round" stroke-linejoin="round"/>
<path d="M238.677 236.924L224.008 229.462" stroke="#263238" stroke-linecap="round" stroke-linejoin="round"/>
<path d="M195.204 331.781L208.006 425.697C208.035 425.915 208.108 426.124 208.221 426.31C208.333 426.497 208.481 426.658 208.657 426.782C208.833 426.906 209.032 426.991 209.241 427.031C209.45 427.071 209.666 427.066 209.873 427.015C210.232 426.924 210.549 426.703 210.765 426.392C210.981 426.081 211.083 425.701 211.052 425.32L202.026 330.231L195.204 331.781Z" fill="#263238" stroke="#263238" stroke-linecap="round" stroke-linejoin="round"/>
<path d="M158.426 332.52L137.033 424.755C136.984 424.969 136.978 425.191 137.017 425.407C137.056 425.623 137.139 425.829 137.259 426.01C137.379 426.191 137.535 426.345 137.716 426.461C137.897 426.576 138.099 426.652 138.31 426.682C138.676 426.739 139.049 426.655 139.36 426.447C139.67 426.238 139.896 425.92 139.994 425.552L164.841 336.041L158.426 332.52Z" fill="#263238" stroke="#263238" stroke-linecap="round" stroke-linejoin="round"/>
<path d="M197.281 331.376L183.665 425.161C183.633 425.377 183.645 425.598 183.7 425.809C183.754 426.02 183.851 426.217 183.982 426.389C184.114 426.56 184.278 426.701 184.465 426.804C184.652 426.907 184.857 426.969 185.069 426.986C185.438 427.007 185.801 426.89 186.093 426.656C186.385 426.421 186.584 426.086 186.655 425.711L203.935 334.317L197.281 331.376Z" fill="#263238" stroke="#263238" stroke-linecap="round" stroke-linejoin="round"/>
<path d="M245.485 331.781L258.288 425.697C258.317 425.915 258.39 426.124 258.502 426.31C258.614 426.497 258.763 426.658 258.939 426.782C259.115 426.906 259.313 426.991 259.523 427.031C259.732 427.071 259.947 427.066 260.154 427.015C260.514 426.924 260.83 426.703 261.047 426.392C261.263 426.081 261.364 425.701 261.334 425.32L252.266 330.202L245.485 331.781Z" fill="#263238" stroke="#263238" stroke-linecap="round" stroke-linejoin="round"/>
<path d="M138.17 234.316L153.751 338.881H264.562C264.562 338.881 266.205 308.744 261.32 298.095C256.435 287.446 196.116 310.28 193.94 309.686C192.326 309.266 194.712 255.281 197.674 234.186C197.882 232.701 197.777 231.187 197.368 229.748C196.958 228.308 196.254 226.976 195.302 225.842C194.35 224.708 193.173 223.799 191.85 223.177C190.528 222.554 189.091 222.232 187.637 222.233H148.192C146.728 222.231 145.28 222.557 143.949 223.189C142.618 223.82 141.436 224.742 140.483 225.89C139.53 227.039 138.83 228.387 138.431 229.841C138.032 231.296 137.942 232.823 138.17 234.316Z" fill="#263238" stroke="#263238" stroke-linecap="round" stroke-linejoin="round"/>
<path d="M261.32 298.095C256.435 287.446 196.116 310.28 193.94 309.686C192.326 309.266 194.712 255.281 197.674 234.186C197.933 232.72 197.876 231.213 197.506 229.772C197.137 228.331 196.464 226.992 195.537 225.851C194.609 224.709 193.449 223.792 192.139 223.165C190.829 222.539 189.401 222.218 187.957 222.225C186.513 222.233 185.089 222.569 183.785 223.209C182.481 223.849 181.33 224.778 180.414 225.93C179.498 227.082 178.838 228.427 178.483 229.872C178.128 231.316 178.085 232.824 178.359 234.287L193.94 338.852H264.562C264.562 338.852 266.205 308.744 261.32 298.095Z" fill="#263238" stroke="#263238" stroke-linecap="round" stroke-linejoin="round"/>
<path d="M317.385 212.221C317.385 212.221 315.602 214.061 312.921 217.292L317.385 212.221Z" fill="white"/>
<path d="M317.385 212.221C317.385 212.221 315.602 214.061 312.921 217.292" stroke="#263238" stroke-linecap="round" stroke-linejoin="round"/>
<path d="M317.104 215.959C317.104 215.959 314.929 220.523 313.595 222.595L317.104 215.959Z" fill="white"/>
<path d="M317.104 215.959C317.104 215.959 314.929 220.523 313.595 222.595" stroke="#263238" stroke-linecap="round" stroke-linejoin="round"/>
<path d="M603.102 422.451H32.131V429.667H603.102V422.451Z" fill="#263238"/>
<path d="M31.9175 363.826C31.8602 363.826 31.6055 359.849 31.6183 359.596C31.7647 356.66 33.7895 351.066 36.9923 350.217C37.5269 350.089 38.0825 350.076 38.6227 350.177C39.163 350.278 39.6758 350.491 40.1276 350.803C40.5795 351.115 40.9602 351.518 41.245 351.986C41.5298 352.454 41.7123 352.977 41.7805 353.521C42.1498 355.816 40.6471 358.264 39.1253 359.862C37.3297 361.714 31.9175 363.826 31.9175 363.826Z" fill="#5F8A28"/>
<path d="M27.7406 348.504C27.6833 348.504 28.0335 344.534 28.0844 344.281C28.6829 341.402 31.5355 336.176 34.821 335.821C35.369 335.776 35.9203 335.847 36.439 336.029C36.9577 336.21 37.4322 336.498 37.8316 336.875C38.231 337.251 38.5464 337.707 38.7573 338.213C38.9681 338.718 39.0697 339.263 39.0553 339.81C39.0553 342.137 37.2151 344.332 35.4705 345.67C33.4139 347.242 27.7406 348.504 27.7406 348.504Z" fill="#5F8A28"/>
<path d="M26.6835 330.424C26.6262 330.424 26.9827 326.454 27.0337 326.201C27.6258 323.322 30.4784 318.096 33.7703 317.741C34.318 317.696 34.869 317.767 35.3874 317.948C35.9057 318.13 36.3799 318.418 36.7788 318.795C37.1778 319.171 37.4925 319.627 37.7026 320.133C37.9128 320.639 38.0135 321.183 37.9982 321.73C37.9982 324.057 36.1644 326.245 34.4134 327.59C32.3567 329.162 26.6898 330.424 26.6835 330.424Z" fill="#5F8A28"/>
<path d="M24.8561 313.409C24.7988 313.409 25.1554 309.433 25.2063 309.186C25.7985 306.3 28.6511 301.081 31.943 300.72C32.491 300.676 33.0421 300.747 33.5605 300.93C34.0789 301.112 34.5529 301.401 34.9517 301.778C35.3506 302.155 35.6652 302.611 35.8753 303.117C36.0853 303.623 36.186 304.168 36.1709 304.715C36.1709 307.036 34.3371 309.23 32.5861 310.568C30.5294 312.141 24.8625 313.409 24.8561 313.409Z" fill="#5F8A28"/>
<path d="M19.4057 299.756C19.3547 299.756 18.6416 295.843 18.6225 295.589C18.4315 292.653 19.8004 286.863 22.8759 285.658C23.3923 285.47 23.9426 285.393 24.491 285.431C25.0393 285.47 25.5734 285.623 26.0583 285.881C26.5432 286.139 26.968 286.496 27.3051 286.928C27.6421 287.361 27.8838 287.859 28.0143 288.391C28.651 290.63 27.4412 293.23 26.1041 294.98C24.5505 297.041 19.4057 299.756 19.4057 299.756Z" fill="#5F8A28"/>
<path d="M30.23 363.87C30.2937 363.87 28.5554 360.249 28.4153 360.033C26.8426 357.547 22.3282 353.654 19.1254 354.472C18.5974 354.622 18.1071 354.881 17.6864 355.233C17.2657 355.584 16.9241 356.02 16.6838 356.512C16.4435 357.004 16.31 357.541 16.2918 358.087C16.2737 358.634 16.3713 359.178 16.5785 359.685C17.3808 361.873 19.8895 363.274 22.0035 363.915C24.4994 364.669 30.23 363.87 30.23 363.87Z" fill="#5F8A28"/>
<path d="M26.8874 346.456C26.951 346.456 24.6779 343.133 24.5123 342.943C22.6021 340.717 17.5083 337.552 14.4838 338.84C13.9833 339.067 13.5366 339.397 13.173 339.808C12.8093 340.219 12.5368 340.702 12.3734 341.225C12.2099 341.748 12.1591 342.3 12.2244 342.844C12.2896 343.388 12.4694 343.912 12.7519 344.382C13.8726 346.418 16.5723 347.426 18.7563 347.743C21.316 348.111 26.8874 346.456 26.8874 346.456Z" fill="#5F8A28"/>
<path d="M25.9259 329.397C25.9832 329.397 23.7164 326.074 23.5509 325.883C21.6407 323.657 16.5468 320.493 13.516 321.787C13.0101 322.012 12.5581 322.343 12.19 322.755C11.8218 323.168 11.5458 323.654 11.3803 324.181C11.2148 324.708 11.1635 325.264 11.2298 325.812C11.2961 326.36 11.4785 326.888 11.765 327.361C12.892 329.397 15.5854 330.405 17.7757 330.716C20.3545 331.058 25.9259 329.403 25.9259 329.397Z" fill="#5F8A28"/>
<path d="M24.2766 313.746C24.3403 313.746 22.0672 310.422 21.9016 310.232C19.9914 308.006 14.8976 304.842 11.8731 306.129C11.3726 306.356 10.9259 306.686 10.5623 307.098C10.1986 307.509 9.92612 307.992 9.76266 308.515C9.59919 309.038 9.54841 309.589 9.61364 310.133C9.67887 310.677 9.85863 311.202 10.1412 311.672C11.2618 313.714 13.9616 314.716 16.1456 315.033C18.7052 315.401 24.2766 313.746 24.2766 313.746Z" fill="#5F8A28"/>
<path d="M19.444 300.269C19.5013 300.269 16.897 297.213 16.6933 297.035C14.5284 295.038 9.15437 292.444 6.26997 294.061C5.79641 294.342 5.38782 294.719 5.07102 295.168C4.75421 295.618 4.53635 296.128 4.43173 296.667C4.32711 297.206 4.3381 297.761 4.46396 298.296C4.58983 298.83 4.82772 299.332 5.16205 299.768C6.50556 301.671 9.29444 302.381 11.5294 302.451C14.089 302.527 19.444 300.276 19.444 300.269Z" fill="#5F8A28"/>
<path d="M12.4972 289.134C12.5545 289.134 11.6376 285.24 11.5548 284.999C10.5552 282.227 6.98947 277.465 3.67846 277.573C3.12968 277.606 2.59407 277.754 2.10649 278.007C1.61891 278.26 1.19029 278.612 0.848521 279.041C0.506756 279.47 0.259506 279.966 0.122866 280.496C-0.0137749 281.027 -0.036744 281.58 0.0554527 282.12C0.373819 284.428 2.51961 286.331 4.44254 287.409C6.70293 288.677 12.4908 289.134 12.4972 289.134Z" fill="#5F8A28"/>
<path d="M37.4825 384.373C37.4825 384.373 36.8012 382.819 35.7314 380.099C34.6617 377.378 33.1845 373.453 31.6182 368.684C30.835 366.299 30.0391 363.699 29.2623 360.928C28.8675 359.533 28.5109 358.131 28.1225 356.628C27.957 355.892 27.7978 355.15 27.6322 354.402C27.4667 353.654 27.3521 352.861 27.212 352.081C26.7094 348.882 26.3841 345.658 26.2378 342.423C26.0786 339.131 26.0149 335.802 25.9321 332.473C25.8494 329.143 25.7666 325.826 25.4992 322.58C25.2659 319.4 24.8085 316.24 24.1302 313.124C23.447 310.222 22.5051 307.387 21.3158 304.652C20.2537 302.191 19.0483 299.794 17.7056 297.473C16.4767 295.298 15.2159 293.389 14.0889 291.702C12.9619 290.015 11.9049 288.594 11.0199 287.434C9.24976 285.113 8.14185 283.87 8.14185 283.87C8.14185 283.87 9.27523 285.094 11.1027 287.37C12.0068 288.518 13.0893 289.907 14.2863 291.581C15.4834 293.256 16.7568 295.133 18.0367 297.289C19.4479 299.596 20.7235 301.982 21.8571 304.436C23.1271 307.178 24.152 310.026 24.9197 312.947C25.6755 316.076 26.2095 319.255 26.5179 322.459C26.8554 325.738 27.0273 329.073 27.1547 332.403C27.282 335.732 27.4412 339.049 27.6704 342.302C27.885 345.475 28.2718 348.633 28.8293 351.764C28.9885 352.519 29.084 353.254 29.2814 354.003C29.4787 354.751 29.6443 355.487 29.8226 356.216C30.2174 357.605 30.6185 359.051 31.0387 360.401C31.8601 363.122 32.707 365.678 33.5347 368.011C35.1775 372.704 36.7184 376.547 37.8454 379.223C38.9724 381.9 39.6665 383.384 39.6665 383.384C39.7714 383.658 39.7682 383.962 39.6573 384.233C39.5465 384.505 39.3364 384.725 39.0692 384.849C38.802 384.973 38.4977 384.991 38.2174 384.901C37.9372 384.81 37.7019 384.617 37.5589 384.36L37.4825 384.373Z" fill="#5F8A28"/>
<path d="M52.4775 359.793C52.4202 359.793 53.318 355.892 53.4008 355.651C54.3814 352.88 57.9216 348.092 61.2262 348.181C61.775 348.21 62.3115 348.354 62.8006 348.604C63.2896 348.854 63.7204 349.203 64.0647 349.63C64.4089 350.057 64.659 350.551 64.7986 351.08C64.9382 351.61 64.9641 352.162 64.8747 352.703C64.5755 355.011 62.4424 356.932 60.5258 358.023C58.2463 359.304 52.5157 359.793 52.4775 359.793Z" fill="#5F8A28"/>
<path d="M52.847 343.926C52.7897 343.926 54.2669 340.197 54.3879 339.975C55.7823 337.375 60.0038 333.176 63.2575 333.766C63.7957 333.878 64.3042 334.102 64.7498 334.423C65.1954 334.744 65.5682 335.154 65.8439 335.628C66.1196 336.102 66.292 336.628 66.35 337.173C66.4079 337.717 66.35 338.268 66.1801 338.789C65.5434 341.027 63.1302 342.594 61.0863 343.387C58.6476 344.312 52.8533 343.926 52.847 343.926Z" fill="#5F8A28"/>
<path d="M56.973 326.289C56.9093 326.289 58.3866 322.56 58.5075 322.338C59.902 319.745 64.1299 315.546 67.3836 316.13C67.9219 316.243 68.4304 316.467 68.8758 316.789C69.3213 317.11 69.6937 317.522 69.9689 317.996C70.244 318.47 70.4157 318.997 70.4727 319.542C70.5297 320.087 70.4708 320.638 70.2998 321.159C69.6631 323.391 67.2499 324.964 65.206 325.757C62.7991 326.682 56.973 326.289 56.973 326.289Z" fill="#5F8A28"/>
<path d="M60.0994 309.465C60.0357 309.465 61.513 305.742 61.6339 305.514C63.0284 302.92 67.2563 298.722 70.51 299.312C71.0481 299.424 71.5565 299.647 72.0019 299.968C72.4473 300.289 72.8198 300.7 73.095 301.174C73.3702 301.648 73.5419 302.174 73.599 302.719C73.6561 303.264 73.5972 303.814 73.4262 304.334C72.7895 306.573 70.3763 308.139 68.3324 308.932C65.8873 309.858 60.0994 309.465 60.0994 309.465Z" fill="#5F8A28"/>
<path d="M58.7812 294.822C58.7175 294.822 59.1569 290.858 59.2142 290.611C59.8509 287.738 62.8308 282.576 66.1291 282.291C66.6776 282.258 67.2269 282.341 67.7413 282.533C68.2556 282.726 68.7235 283.025 69.1145 283.409C69.5055 283.794 69.8108 284.256 70.0106 284.766C70.2104 285.276 70.3002 285.822 70.2742 286.368C70.2742 288.696 68.364 290.846 66.5684 292.146C64.48 293.674 58.7812 294.822 58.7812 294.822Z" fill="#5F8A28"/>
<path d="M50.873 359.361C50.9303 359.361 50.2936 355.417 50.2363 355.176C49.4404 352.341 46.2249 347.331 42.9202 347.204C42.3701 347.198 41.8248 347.307 41.3199 347.525C40.815 347.743 40.3618 348.064 39.99 348.468C39.6181 348.872 39.3358 349.349 39.1616 349.869C38.9874 350.389 38.9251 350.94 38.9788 351.485C39.1253 353.806 41.131 355.861 42.9712 357.072C45.1233 358.499 50.8666 359.361 50.873 359.361Z" fill="#5F8A28"/>
<path d="M52.6177 341.719C52.6814 341.719 51.4461 337.913 51.3443 337.673C50.1217 334.99 46.1804 330.525 42.8948 330.9C42.3504 330.977 41.8284 331.168 41.3629 331.459C40.8974 331.751 40.4988 332.137 40.1931 332.592C39.8873 333.048 39.6813 333.562 39.5884 334.102C39.4955 334.642 39.5178 335.195 39.6539 335.726C40.1505 337.996 42.4491 339.727 44.4485 340.647C46.7853 341.731 52.6114 341.719 52.6177 341.719Z" fill="#5F8A28"/>
<path d="M56.5654 325.091C56.6227 325.091 55.3938 321.286 55.292 321.045C54.0758 318.368 50.1344 313.904 46.8489 314.278C46.3025 314.354 45.7785 314.545 45.3112 314.837C44.8438 315.129 44.4438 315.516 44.1372 315.973C43.8306 316.43 43.6244 316.946 43.5321 317.488C43.4398 318.03 43.4634 318.585 43.6016 319.117C44.1046 321.393 46.3968 323.118 48.4025 324.038C50.7521 325.103 56.5591 325.091 56.5654 325.091Z" fill="#5F8A28"/>
<path d="M59.4498 309.604C59.5135 309.604 58.2782 305.799 58.1763 305.558C56.9538 302.882 53.0188 298.411 49.7269 298.792C49.1827 298.869 48.6609 299.058 48.1954 299.349C47.7299 299.64 47.3312 300.026 47.0254 300.481C46.7196 300.935 46.5135 301.449 46.4205 301.989C46.3276 302.528 46.3499 303.081 46.4859 303.612C46.9826 305.888 49.2812 307.613 51.2869 308.533C53.6365 309.604 59.4498 309.604 59.4498 309.604Z" fill="#5F8A28"/>
<path d="M58.6603 295.329C58.724 295.329 57.0812 291.67 56.9475 291.448C55.4384 288.911 51.0323 284.91 47.804 285.645C47.2713 285.781 46.7734 286.028 46.3427 286.368C45.912 286.709 45.5584 287.136 45.3048 287.622C45.0512 288.108 44.9034 288.642 44.871 289.189C44.8387 289.735 44.9225 290.283 45.117 290.795C45.862 292.996 48.3325 294.461 50.4274 295.158C52.8852 295.976 58.6603 295.329 58.6603 295.329Z" fill="#5F8A28"/>
<path d="M55.1837 282.684C55.2347 282.684 55.4703 278.708 55.4511 278.454C55.2856 275.512 53.229 269.931 50.0262 269.1C49.4906 268.977 48.9349 268.967 48.3954 269.072C47.8558 269.177 47.3445 269.394 46.8946 269.708C46.4447 270.023 46.0664 270.429 45.7843 270.898C45.5022 271.368 45.3225 271.892 45.2571 272.436C44.9005 274.738 46.4159 277.173 47.9504 278.777C49.7524 280.604 55.1774 282.678 55.1837 282.684Z" fill="#5F8A28"/>
<path d="M51.9555 381.069C51.9555 381.069 51.739 379.388 51.4906 376.471C51.2423 373.554 50.9431 369.381 50.8093 364.365C50.7393 361.828 50.7138 359.139 50.7648 356.26C50.7648 354.814 50.8412 353.368 50.8985 351.821C50.9494 351.073 51.0067 350.312 51.0577 349.551C51.1086 348.79 51.2359 347.991 51.3187 347.204C51.7552 344.003 52.3652 340.827 53.1461 337.692C53.9293 334.489 54.8208 331.274 55.6931 328.065C56.5654 324.856 57.425 321.647 58.0999 318.451C58.7834 315.338 59.2451 312.18 59.4816 309.002C59.6455 306.025 59.5432 303.039 59.176 300.079C58.8615 297.418 58.3895 294.777 57.7625 292.171C57.2021 289.736 56.5463 287.548 55.9478 285.614C55.3492 283.68 54.7316 282.012 54.2222 280.655C53.1843 277.928 52.4776 276.418 52.4776 276.418C52.4776 276.418 53.2162 277.915 54.3114 280.617C54.859 281.967 55.4893 283.622 56.1515 285.544C56.8137 287.466 57.5014 289.653 58.1126 292.082C58.8001 294.691 59.3338 297.338 59.7109 300.009C60.149 302.999 60.3195 306.021 60.2202 309.04C60.0501 312.264 59.6522 315.473 59.0295 318.641C58.3928 321.876 57.6287 325.123 56.8201 328.357C56.0114 331.591 55.1964 334.813 54.4897 337.996C53.7877 341.098 53.2563 344.235 52.8978 347.395C52.8341 348.162 52.7195 348.891 52.6941 349.665C52.6686 350.439 52.6177 351.193 52.5795 351.942C52.5795 353.387 52.5349 354.884 52.5795 356.298C52.5795 359.146 52.675 361.835 52.8023 364.314C53.0379 369.28 53.439 373.408 53.7383 376.281C54.0376 379.154 54.2923 380.79 54.2923 380.79C54.3144 380.94 54.3066 381.093 54.2693 381.241C54.2321 381.388 54.166 381.527 54.075 381.648C53.9839 381.77 53.8696 381.873 53.7387 381.951C53.6077 382.029 53.4626 382.081 53.3117 382.103C53.1608 382.125 53.0069 382.117 52.859 382.08C52.7111 382.043 52.572 381.977 52.4496 381.886C52.3272 381.795 52.2239 381.682 52.1457 381.551C52.0675 381.421 52.0158 381.276 51.9937 381.126V381.094L51.9555 381.069Z" fill="#5F8A28"/>
<path d="M59.3416 423H32.3823L24.7988 379.027H66.925L59.3416 423Z" fill="#2E353A"/>
</svg>
