<svg width="1440" height="735" viewBox="0 0 1440 735" fill="none" xmlns="http://www.w3.org/2000/svg">
<path d="M1440 0H0V720H1440V0Z" fill="white"/>
<path d="M467.542 548.289C270.214 489.913 151.627 599.764 117 661.987V719.685H1440V526.229C1437.1 533.582 1382.89 571.029 1189.22 661.987C947.135 775.685 714.203 621.26 467.542 548.289Z" fill="#EAE9FD"/>
<path d="M381.543 592.772C166.763 546.8 37.6894 633.308 0 682.309V727.745H1440V575.399C1436.85 581.19 1377.84 610.679 1167.04 682.309C903.549 771.846 650.017 650.236 381.543 592.772Z" fill="#7708B2"/>
<path d="M381.543 660.015C166.763 634.475 37.6894 682.535 0 709.757V735H1440V650.363C1436.85 653.58 1377.84 669.963 1167.04 709.757C903.549 759.5 650.017 691.939 381.543 660.015Z" fill="#3506B7"/>
</svg>
