<svg width="1440" height="744" viewBox="0 0 1440 744" fill="none" xmlns="http://www.w3.org/2000/svg">
<rect width="1440" height="671.454" fill="white"/>
<path d="M467.542 557.289C270.214 498.913 151.627 608.764 117 670.987V728.685H1440V535.229C1437.1 542.582 1382.89 580.029 1189.22 670.987C947.136 784.685 714.203 630.26 467.542 557.289Z" fill="#00A79D"/>
<path d="M381.543 601.772C166.763 555.8 37.6894 642.308 0 691.309V736.745H1440V584.399C1436.85 590.19 1377.84 619.679 1167.04 691.309C903.549 780.846 650.017 659.236 381.543 601.772Z" fill="#214185"/>
<path d="M381.543 669.015C166.763 643.475 37.6894 691.535 0 718.757V744H1440V659.363C1436.85 662.58 1377.84 678.963 1167.04 718.757C903.549 768.5 650.017 700.939 381.543 669.015Z" fill="#3F87C7"/>
</svg>
