<svg width="1440" height="735" viewBox="0 0 1440 735" fill="none" xmlns="http://www.w3.org/2000/svg">
<rect width="1440" height="720" fill="white"/>
<path d="M972.458 548.289C1169.79 489.913 1288.37 599.764 1323 661.987V719.685H0V526.229C2.89832 533.582 57.1119 571.029 250.78 661.987C492.864 775.685 725.797 621.26 972.458 548.289Z" fill="#00A79D"/>
<path d="M1058.46 592.772C1273.24 546.8 1402.31 633.308 1440 682.309V727.745H0V575.399C3.15466 581.19 62.1626 610.679 272.958 682.309C536.451 771.846 789.983 650.236 1058.46 592.772Z" fill="#214185"/>
<path d="M1058.46 660.015C1273.24 634.475 1402.31 682.535 1440 709.757V735H0V650.363C3.15466 653.58 62.1626 669.963 272.958 709.757C536.451 759.5 789.983 691.939 1058.46 660.015Z" fill="#3F87C7"/>
</svg>
