<svg width="537" height="462" viewBox="0 0 537 462" fill="none" xmlns="http://www.w3.org/2000/svg">
<g clip-path="url(#clip0)">
<path d="M268.5 445.679C413.058 445.679 530.245 374.917 530.245 287.629C530.245 200.34 413.058 129.579 268.5 129.579C123.942 129.579 6.75543 200.34 6.75543 287.629C6.75543 374.917 123.942 445.679 268.5 445.679Z" fill="white"/>
<path opacity="0.15" d="M107.924 340.416L136.009 356.698C136.483 356.941 137.008 357.068 137.54 357.068C138.072 357.068 138.597 356.941 139.07 356.698L219.685 310.226C219.87 310.164 220.032 310.045 220.146 309.886C220.261 309.727 220.323 309.536 220.323 309.34C220.323 309.144 220.261 308.953 220.146 308.794C220.032 308.635 219.87 308.516 219.685 308.454L191.6 292.172C191.125 291.931 190.601 291.806 190.069 291.806C189.537 291.806 189.013 291.931 188.539 292.172L107.924 338.676C107.749 338.745 107.599 338.864 107.493 339.02C107.387 339.175 107.331 339.358 107.331 339.546C107.331 339.734 107.387 339.917 107.493 340.073C107.599 340.228 107.749 340.347 107.924 340.416Z" fill="black"/>
<path d="M216.398 306.059C216.379 305.872 216.312 305.693 216.203 305.541C216.094 305.388 215.946 305.267 215.775 305.189L190.654 290.69C190.191 290.452 189.677 290.327 189.156 290.327C188.635 290.327 188.121 290.452 187.658 290.69L110.985 335.025C110.814 335.103 110.667 335.224 110.558 335.376C110.448 335.529 110.381 335.708 110.362 335.895V338.526C110.381 338.713 110.448 338.891 110.558 339.044C110.667 339.197 110.814 339.318 110.985 339.396L136.106 353.895C136.571 354.128 137.084 354.25 137.604 354.25C138.124 354.25 138.637 354.128 139.102 353.895L215.775 309.678C215.945 309.601 216.091 309.482 216.2 309.331C216.31 309.18 216.378 309.004 216.398 308.819V306.059Z" fill="#263238"/>
<path d="M136.107 351.188L110.986 336.754C110.805 336.692 110.648 336.576 110.537 336.421C110.426 336.266 110.366 336.08 110.366 335.889C110.366 335.698 110.426 335.512 110.537 335.357C110.648 335.202 110.805 335.086 110.986 335.025L187.659 290.69C188.122 290.452 188.636 290.327 189.157 290.327C189.678 290.327 190.192 290.452 190.655 290.69L215.776 305.189C215.957 305.25 216.114 305.366 216.225 305.522C216.336 305.677 216.396 305.863 216.396 306.053C216.396 306.244 216.336 306.43 216.225 306.585C216.114 306.74 215.957 306.857 215.776 306.918L139.103 351.188C138.64 351.427 138.126 351.551 137.605 351.551C137.084 351.551 136.57 351.427 136.107 351.188Z" fill="#37474F"/>
<path d="M137.502 351.564V354.26C137.012 354.261 136.53 354.143 136.095 353.916L110.996 339.417C110.825 339.339 110.678 339.218 110.568 339.065C110.459 338.913 110.392 338.734 110.373 338.547V335.884C110.392 336.071 110.459 336.249 110.568 336.402C110.678 336.554 110.825 336.676 110.996 336.754L136.095 351.199C136.53 351.426 137.012 351.551 137.502 351.564Z" fill="#263238"/>
<path d="M188.968 292.978L191.46 294.406L188.088 296.361L185.51 294.911L188.882 292.967L188.968 292.978ZM192.867 295.222L195.348 296.661L192.706 298.186L190.193 296.79L192.845 295.254L192.867 295.222ZM184.275 295.695H184.329L186.82 297.134L184.168 298.659L181.601 297.231L184.243 295.695H184.275ZM196.776 297.467L199.268 298.906L194.972 301.376L192.405 299.937L196.701 297.467H196.776ZM188.893 297.521L191.385 298.96L189.237 300.173L186.67 298.734L188.818 297.521H188.893ZM180.301 298.004H180.355L182.847 299.432L180.194 300.968L177.627 299.518L180.269 297.993L180.301 298.004ZM185.456 299.518H185.521L188.002 300.947L185.897 302.16L183.33 300.721L185.478 299.507L185.456 299.518ZM200.686 299.722L203.167 301.151L199.859 303.116L197.292 301.666L200.664 299.722H200.686ZM176.317 300.302L178.798 301.741L159.659 312.793L157.081 311.343L176.231 300.302H176.317ZM191.17 300.71H191.224L193.715 302.149L191.567 303.363L188.99 301.924L191.138 300.71H191.17ZM182.02 301.505L184.511 302.934L182.363 304.147L179.786 302.708L181.934 301.494L182.02 301.505ZM204.574 301.967L207.065 303.406L204.917 304.62L202.34 303.17L204.488 301.956L204.574 301.967ZM195.982 302.439H196.035L198.516 303.879L196.368 305.092L193.801 303.642L195.949 302.429L195.982 302.439ZM187.733 302.708H187.787L190.279 304.136L188.131 305.35L185.553 303.911L187.701 302.697L187.733 302.708ZM178.583 303.492L181.074 304.931L178.926 306.145L176.349 304.695L178.497 303.481L178.583 303.492ZM201.137 303.954H201.201L203.682 305.393L201.534 306.607L198.967 305.157L201.115 303.943L201.137 303.954ZM192.545 304.426H192.598L195.09 305.866L192.942 307.079L190.365 305.629L192.513 304.416L192.545 304.426ZM184.296 304.695H184.361L186.842 306.123L184.694 307.337L182.127 305.898L184.275 304.684L184.296 304.695ZM209.321 304.695H209.374L211.866 306.123L209.213 307.659L206.646 306.209L209.288 304.684L209.321 304.695ZM175.146 305.479H175.157L177.638 306.918L175.49 308.132L173.009 306.693L175.103 305.479H175.146ZM197.7 305.941H197.711L200.192 307.38L198.044 308.593L195.563 307.154L197.711 305.941H197.7ZM189.108 306.413L191.6 307.852L189.452 309.066L186.971 307.638L189.119 306.424L189.108 306.413ZM180.87 306.682H180.924L183.405 308.121L181.257 309.335L178.69 307.885L180.838 306.671L180.87 306.682ZM171.72 307.466L174.201 308.905L172.053 310.119L169.486 308.669L171.634 307.455L171.72 307.466ZM203.843 307.863L206.335 309.292L204.187 310.516L201.609 309.066L203.757 307.852L203.843 307.863ZM194.274 307.928L196.766 309.367L194.618 310.58L192.04 309.141L194.188 307.928H194.274ZM185.682 308.4H185.746L188.227 309.839L186.079 311.053L183.469 309.678L185.617 308.465L185.682 308.4ZM177.444 308.669L179.936 310.108L177.788 311.321L175.21 309.872L177.358 308.658L177.444 308.669ZM168.294 309.453H168.348L170.839 310.892L168.691 312.105L166.114 310.666L168.262 309.453H168.294ZM200.417 309.85H200.482L202.963 311.289L200.815 312.503L198.248 311.053L200.342 309.839L200.417 309.85ZM190.848 309.915H190.902L193.393 311.354L191.245 312.567L188.668 311.128L190.816 309.915H190.848ZM182.256 310.398L184.747 311.826L182.599 313.04L180.022 311.601L182.17 310.387L182.256 310.398ZM174.007 310.656L176.499 312.095L174.351 313.308L171.784 311.826L173.879 310.613L174.007 310.656ZM164.857 311.45H164.911L167.402 312.879L165.254 314.092L162.688 312.653L164.782 311.44L164.857 311.45ZM196.991 311.837L199.472 313.276L197.324 314.49L194.757 313.04L196.905 311.826L196.991 311.837ZM187.411 311.912H187.475L189.956 313.341L187.808 314.554L185.242 313.115L187.39 311.901L187.411 311.912ZM155.889 312.127H155.825L158.316 313.566L155.664 315.091L153.097 313.652L155.739 312.116L155.889 312.127ZM178.808 312.385H178.862L181.354 313.813L179.206 315.037L176.628 313.588L178.776 312.374L178.808 312.385ZM170.571 312.642H170.624L173.105 314.082L170.957 315.295L168.39 313.856L170.538 312.642H170.571ZM161.42 313.437L163.901 314.866L161.753 316.079L159.186 314.64L161.334 313.426L161.42 313.437ZM193.544 313.824H193.597L196.089 315.263L193.941 316.477L191.267 315.048L193.415 313.835L193.544 313.824ZM183.974 313.899L186.466 315.327L184.318 316.552L181.751 315.102L183.899 313.888L183.974 313.899ZM175.382 314.372H175.447L177.928 315.811L175.78 317.024L173.213 315.574L175.361 314.361L175.382 314.372ZM151.926 314.436H151.98L154.471 315.864L151.819 317.4L149.252 315.95L151.894 314.425L151.926 314.436ZM167.145 314.629L169.572 316.122L167.424 317.336L164.846 315.897L166.994 314.683L167.145 314.629ZM157.994 315.424H157.973L160.464 316.863L158.316 318.077L155.739 316.627L157.887 315.413L157.994 315.424ZM180.548 315.886H180.527L183.018 317.325L180.87 318.539L178.293 317.089L180.441 315.875L180.548 315.886ZM171.956 316.359L174.448 317.798L172.3 319.011L169.733 317.561L171.881 316.348L171.956 316.359ZM163.708 316.627H163.762L166.253 318.055L164.105 319.269L161.528 317.83L163.676 316.616L163.708 316.627ZM188.635 316.627L191.116 318.066L188.968 319.28L186.401 317.83L188.549 316.616L188.635 316.627ZM147.952 316.681L150.433 318.12L147.791 319.645L145.214 318.195L147.866 316.67L147.952 316.681ZM154.557 317.357H154.611L157.103 318.796L154.955 320.01L152.388 318.56L154.482 317.347L154.557 317.357ZM177.111 317.819H177.176L179.657 319.258L177.509 320.472L174.942 319.022L177.036 317.808L177.111 317.819ZM168.519 318.292H168.573L171.065 319.731L168.917 320.944L166.339 319.495L168.487 318.281L168.519 318.292ZM160.271 318.56H160.335L162.816 319.999L160.668 321.213L157.973 319.828L160.121 318.614L160.271 318.56ZM185.199 318.614H185.252L187.744 320.053L185.596 321.267L183.018 319.817L185.166 318.603L185.199 318.614ZM143.968 318.979L146.459 320.418L143.087 322.362L140.509 320.923L143.882 318.979H143.968ZM151.121 319.344H151.185L153.666 320.783L146.889 324.714L144.322 323.264L150.959 319.43L151.121 319.344ZM173.675 319.806H173.728L176.209 321.245L174.061 322.459L171.494 321.009L173.642 319.806H173.675ZM165.083 320.279H165.147L167.628 321.718L165.48 322.931L162.913 321.492L165.007 320.279H165.083ZM156.845 320.547H156.899L159.39 321.986L157.242 323.2L154.665 321.75L156.813 320.536L156.845 320.547ZM181.762 320.601H181.815L184.307 322.04L182.159 323.254L179.453 321.879L181.547 320.665L181.762 320.601ZM170.248 321.793H170.302L172.794 323.232L170.646 324.446L168.068 323.007L170.216 321.793H170.248ZM138.544 322.126L141.036 323.554L138.888 324.768L136.31 323.329L138.458 322.115L138.544 322.126ZM161.646 322.276H161.699L164.18 323.705L162.032 324.918L159.466 323.479L161.614 322.266L161.646 322.276ZM153.397 322.534H153.451L155.943 323.973L154.02 325.047C153.956 325.082 153.902 325.133 153.865 325.195C153.827 325.257 153.806 325.329 153.806 325.402C153.806 325.477 153.827 325.552 153.866 325.616C153.906 325.681 153.963 325.733 154.031 325.767L157.253 327.646L154.783 329.075L148.339 325.38L153.344 322.491L153.397 322.534ZM178.325 322.588H178.379L180.86 324.027L178.712 325.24L176.145 323.801L178.293 322.588H178.325ZM166.801 323.791L169.293 325.219L167.145 326.433L164.578 324.993L166.726 323.78L166.801 323.791ZM135.096 324.113H135.15L137.642 325.541L135.419 326.862L132.852 325.412L134.946 324.199L135.096 324.113ZM158.198 324.263H158.252L160.744 325.692L158.596 326.905L156.018 325.466L158.166 324.252L158.198 324.263ZM173.374 325.445H173.438L175.919 326.884L173.771 328.097L171.204 326.647L173.299 325.434L173.374 325.445ZM163.364 325.777H163.418L165.899 327.206L163.751 328.43L161.184 326.98L163.332 325.767L163.364 325.777ZM131.649 326.1H131.713L134.194 327.539L132.046 328.752L129.479 327.303L131.627 326.089L131.649 326.1ZM138.995 326.357H139.049L141.53 327.797L139.382 329.01L136.815 327.56L138.963 326.347L138.995 326.357ZM169.937 327.431H169.991L172.472 328.871L170.324 330.084L167.639 328.71L169.787 327.496L169.937 327.431ZM159.917 327.764H159.97L162.462 329.193L158.724 331.341L156.147 329.902L159.884 327.754L159.917 327.764ZM127.482 328.505H127.535L130.027 329.945L124.475 333.167L121.908 331.717L127.45 328.495L127.482 328.505ZM150.218 328.86H150.283L152.764 330.299L150.616 331.513L148.049 330.073L150.197 328.86H150.218ZM166.489 329.429H166.543L169.035 330.868L166.887 332.082L164.309 330.643L166.457 329.429H166.489ZM131.38 330.75H131.434L133.915 332.189L131.767 333.403L129.2 331.964L131.348 330.75H131.38ZM146.782 330.858H146.835L149.316 332.286L147.168 333.5L144.601 332.06L146.749 330.847L146.782 330.858ZM154.117 331.115L156.609 332.544L154.461 333.768L151.883 332.318L154.031 331.105L154.117 331.115ZM163.042 331.416L165.534 332.844L163.386 334.058L160.819 332.619L162.967 331.405L163.042 331.416ZM120.597 332.49H120.651L123.143 333.929L120.995 335.143L118.417 333.704L120.565 332.49H120.597ZM127.933 332.758H127.987L130.478 334.187L128.33 335.401L125.753 333.961L127.901 332.748L127.933 332.758ZM143.334 332.855H143.388L145.729 334.38L143.581 335.605L141.003 334.155L143.151 332.941L143.334 332.855ZM135.268 333.016H135.322L137.814 334.445L135.666 335.658L133.099 334.219L135.193 333.006L135.268 333.016ZM150.669 333.113H150.723L153.215 334.552L151.067 335.766L148.489 334.316L150.637 333.102L150.669 333.113ZM158.843 333.854H158.896L161.377 335.282L159.229 336.507L156.662 335.057L158.81 333.843L158.843 333.854ZM117.15 334.488H117.204L123.583 338.161L121.435 339.385L114.991 335.691L117.139 334.477L117.15 334.488ZM124.485 334.745H124.55L127.031 336.174L124.883 337.398L122.316 335.948L124.464 334.735L124.485 334.745ZM131.821 335.003H131.885L134.366 336.432L132.218 337.656L129.651 336.206L131.799 334.992L131.821 335.003ZM147.222 335.1H147.286L149.767 336.539L147.619 337.753L145.052 336.303L147.147 335.089L147.222 335.1ZM139.167 335.261H139.221L141.702 336.7L139.554 337.914L136.879 336.528L139.027 335.315L139.167 335.261ZM155.395 335.841L157.887 337.28L155.739 338.494L153.161 337.044L155.309 335.83L155.395 335.841ZM128.384 336.99H128.438L130.929 338.429L128.781 339.643L126.204 338.193L128.352 336.979L128.384 336.99ZM135.719 337.248H135.773L138.265 338.687L136.117 339.901L133.539 338.451L135.687 337.237L135.719 337.248ZM142.937 337.602L145.428 339.041L143.28 340.255L140.703 338.805L142.851 337.591L142.937 337.602ZM151.829 337.924H151.883L154.375 339.364L152.227 340.577L149.66 339.127L151.754 337.914L151.829 337.924ZM124.818 339.074H124.872L131.252 342.757L129.104 343.971L122.66 340.276L124.808 339.063L124.818 339.074ZM132.154 339.331L134.645 340.771L132.497 341.984L130.049 340.491L132.197 339.288L132.154 339.331ZM139.489 339.589H139.543L142.034 341.028L139.886 342.242L137.32 340.803L139.468 339.589H139.489ZM148.629 340.824L149.703 341.436L147.555 342.65L146.395 342.027L148.543 340.813L148.629 340.824ZM136.02 341.49H136.074L138.555 342.929L136.407 344.143L133.84 342.704L135.988 341.49H136.02ZM145.181 342.811H145.246L146.32 343.423L144.172 344.637L143.023 344.014L145.106 342.8L145.181 342.811ZM132.573 343.488H132.626L135.118 344.916L132.97 346.13L130.392 344.691L132.54 343.477L132.573 343.488ZM141.745 344.798H141.798L142.872 345.41L140.724 346.624L139.575 346.001L141.723 344.798H141.745ZM138.297 346.785L139.371 347.397L137.223 348.611L136.063 347.988L138.211 346.785H138.297Z" fill="#214185"/>
<path opacity="0.1" d="M45.2027 309.979C46.3626 312.911 48.865 314.436 52.5703 316.09C63.4177 320.977 89.4192 326.83 104.015 329.429C112.51 330.943 121.199 333.725 129.877 334.101C137.642 334.412 145.697 333.027 152.141 328.645C153.064 328.137 153.795 327.341 154.224 326.379C154.402 325.601 154.32 324.788 153.993 324.061C153.665 323.334 153.109 322.734 152.409 322.351C150.988 321.616 149.422 321.202 147.823 321.138C130.527 319.057 113.605 314.571 97.5494 307.809C104.756 307.047 112.081 306.263 118.782 303.513C125.484 300.764 131.67 295.748 133.99 288.896C134.463 287.522 134.849 285.996 135.988 285.084C136.627 284.656 137.362 284.395 138.127 284.324C138.892 284.253 139.663 284.373 140.37 284.675C145.085 286.362 146.953 291.882 148.35 296.693C149.746 301.505 152.066 306.993 156.942 308.099C155.17 307.025 155.868 303.954 157.736 303.213C159.605 302.472 161.893 303.632 163.031 305.361C164.17 307.09 164.46 309.055 165.405 310.806C166.35 312.556 168.38 314.028 170.216 313.308C171.183 312.822 171.945 312.007 172.364 311.01C174.963 305.93 174.512 299.668 172.214 294.438C169.916 289.208 166.06 284.826 161.936 280.884C156.19 275.396 149.724 270.466 142.282 267.674C126.709 261.821 109.192 266.084 93.7582 272.314C82.1158 277.008 70.937 282.779 60.3675 289.551C56.3575 291.945 52.6628 294.832 49.3698 298.143C47.0177 300.657 44.5475 304.222 44.7945 307.809C44.8202 308.549 44.9578 309.28 45.2027 309.979Z" fill="black"/>
<path d="M177.197 293.257C174.92 289.735 170.839 282.517 169.561 281.035C166.071 277.061 158.875 270.778 158.875 270.778C152.087 265.247 131.241 246.839 131.241 246.839C131.241 246.839 128.019 206.027 124.41 199.497C120.243 191.893 112.317 191.582 104.112 191.088C104.112 191.088 101.964 199.948 101.126 207.198C101.126 207.198 108.504 252.972 109.385 257.225C110.266 261.478 112.424 263.346 116.817 266.171C123.529 270.467 147.813 283.516 147.813 283.516L149.005 284.343C149.823 284.919 150.439 285.738 150.766 286.684C151.081 287.625 151.293 288.598 151.4 289.584C151.786 292.967 151.4 293.88 151.69 297.575C151.98 301.269 152.764 301.151 154.214 304.319C155.513 307.252 155.9 309.088 156.974 309.195C158.048 309.303 159.423 306.919 159.423 304.502C159.423 302.086 157.951 299.422 157.897 298.402C157.844 297.381 158.381 296.114 160.679 297.467C162.978 298.821 165.126 302.934 166.833 305.78C168.541 308.626 169.454 312.385 171.183 314.437C172.912 316.488 173.556 314.211 174.351 312.289C175.146 310.366 179.023 307.23 180.043 304.158C181.064 301.087 179.453 296.791 177.197 293.257Z" fill="#EFC0B5"/>
<path d="M104.112 190.829C109.761 190.829 114.347 190.206 119.319 193.235C124.292 196.264 125.634 200.409 126.762 206.853C127.782 212.717 129.855 232.909 129.855 232.909C129.855 232.909 115.507 240.824 103.005 235.776L104.112 190.829Z" fill="#00A79D"/>
<path d="M115.99 163.141C118.376 163.922 120.662 164.982 122.799 166.299C124.141 167.115 125.109 168.425 125.497 169.946C125.884 171.468 125.66 173.081 124.872 174.44L122.284 173.924C122.284 173.924 123.615 170.885 122.058 169.263C120.501 167.641 115.947 166.234 115.947 166.234L115.99 163.141Z" fill="#263238"/>
<path d="M123.798 172.754C121.65 171.733 120.683 173.044 119.201 176.609C117.719 180.175 118.739 181.152 120.544 181.861C122.348 182.57 123.766 181.378 124.84 178.424C126.086 175.106 126.053 173.86 123.798 172.754Z" fill="white"/>
<path opacity="0.1" d="M123.97 172.786C121.822 171.766 120.855 173.076 119.373 176.642C117.891 180.207 118.911 181.185 120.716 181.894C122.52 182.602 123.938 181.41 125.012 178.457C126.268 175.138 126.236 173.892 123.97 172.786Z" fill="black"/>
<path d="M80.8057 193.428C68.9917 196.081 56.2971 199.872 46.7814 204.007C46.7814 204.007 46.0189 244.722 52.6133 264.151C59.2076 283.58 57.3066 305.715 57.3066 305.715C89.5266 310.924 128.609 295.952 127.643 279.713C126.088 276.32 124.271 273.052 122.208 269.94C122.208 269.94 121.403 256.891 121.757 251.081C145.385 228.967 112.575 200.603 104.112 190.872C98.9563 191.538 91.3846 191.055 80.8057 193.428Z" fill="#00A79D"/>
<path d="M78.8618 133.596C77.3367 136.334 77.9704 139.567 78.5933 142.467C79.0766 144.679 80.3976 147.418 79.8392 149.663C78.9511 152.756 77.0626 155.468 74.4692 157.374C73.8315 157.907 73.1528 158.388 72.4393 158.813C71.8271 159.146 71.1183 159.297 70.4954 159.64C69.1742 160.417 68.0813 161.528 67.3271 162.862C66.2904 164.783 65.5173 166.835 65.0287 168.963C64.5382 171.09 63.7232 173.13 62.6122 175.009C61.3698 176.766 59.6947 178.173 57.7492 179.093C55.8037 180.013 53.6536 180.416 51.507 180.261C49.1384 180.084 46.8454 179.348 44.816 178.113C43.7901 177.496 42.8293 176.776 41.9484 175.965C41.1426 175.275 40.4974 174.417 40.0582 173.452C39.743 176.316 40.4589 179.198 42.0773 181.582C39.8662 181.974 37.5937 181.838 35.4454 181.184C33.297 180.53 31.3338 179.378 29.7158 177.82C28.0978 176.263 26.8711 174.345 26.1356 172.224C25.4002 170.102 25.1769 167.836 25.484 165.612C25.8707 162.862 27.0413 160.242 27.632 157.567C29.2645 150.264 22.7131 146.269 21.6391 139.61C21.3395 137.529 21.683 135.405 22.6235 133.524C23.564 131.643 25.0567 130.094 26.9017 129.085C29.1464 127.904 32.0999 127.313 33.0342 124.961C33.7538 123.156 32.8731 121.148 32.9054 119.204C32.9054 115.359 36.5355 112.427 40.1871 111.267C43.8387 110.107 47.8017 110.118 51.4856 109.023C55.4164 107.863 59.0036 105.468 62.9988 104.727C65.3815 104.351 67.8199 104.561 70.103 105.339C72.3861 106.118 74.4451 107.441 76.1016 109.194C77.616 110.805 78.443 112.685 79.7855 114.35C81.128 116.014 83.1793 116.874 84.1674 118.828C84.8766 120.09 85.2722 121.504 85.3208 122.951C85.3694 124.397 85.0696 125.834 84.4466 127.141C83.1041 129.708 80.258 131.115 78.8618 133.596Z" fill="#37474F"/>
<path d="M115.195 142.274C114.744 129.493 107.323 111.257 79.8606 113.587C53.0966 115.864 45.2241 139.739 47.6406 152.702C51.0452 170.595 64.0621 171.744 67.4452 183.44L115.195 142.274Z" fill="#37474F"/>
<path d="M55.3412 152.047C56.1211 151.059 57.1735 150.32 58.3683 149.923C59.5631 149.526 60.8481 149.488 62.0645 149.813C63.3593 150.177 64.5129 150.926 65.3724 151.961C66.6075 153.325 66.586 155.183 67.4559 156.74C67.7097 157.243 68.0799 157.678 68.5357 158.009C68.9916 158.339 69.5198 158.556 70.0765 158.641C73.7603 158.974 72.3856 152.992 72.5897 150.866C79.5492 148.395 79.3559 145.818 80.301 139.675C85.1769 134.412 93.6401 133.639 100.965 138.676C105.433 130.084 110.276 131.158 112.371 133.81C113.917 136.964 114.971 140.336 115.496 143.809C116.512 149.003 116.905 154.3 116.667 159.586C115.764 180.111 108.998 185.04 105.626 186.437C102.254 187.833 98.1079 186.823 91.9109 185.652V197.982C98.3549 210.279 103.499 228.892 103.252 241.049C93.3394 222.276 77.8201 212.234 70.4846 205.414C68.8053 203.895 67.3159 202.179 66.049 200.302V167.91C66.049 167.91 63.3425 170.799 59.0465 167.384C53.3006 162.787 51.5393 156.343 55.3412 152.047Z" fill="#EFC0B5"/>
<path d="M91.9109 189.616C96.0566 190.819 108.171 207.208 112.102 213.115L107.656 224.456C110.317 227.209 112.669 230.245 114.669 233.51L105.615 259.877C105.615 259.877 106.431 224.746 91.9109 198.014V189.616Z" fill="#00A79D"/>
<path d="M104.412 239.771C107.634 248.138 108.085 267.534 108.085 267.534C108.085 267.534 104.863 249.437 89.6448 243.101C89.6448 242.231 89.8059 229.837 89.8059 229.837C89.8059 229.837 69.3999 224.66 65.1039 222.716L60.7112 199.088C60.7112 199.088 63.6432 191.764 66.0812 191.57V196.672C72.801 201.97 79.2293 207.627 85.338 213.62C96.4647 224.349 101.212 231.405 104.412 239.771Z" fill="#00A79D"/>
<path d="M157.167 323.178C153.881 320.418 149.123 316.595 145.353 315.66C144.475 315.406 143.582 315.209 142.679 315.07C143.951 314.797 145.204 314.438 146.427 313.996C147.656 313.507 148.716 312.671 149.477 311.59C149.757 311.149 149.928 310.516 149.477 310.172C149.316 310.064 149.124 310.012 148.93 310.022C146.148 310.161 143.925 309.914 141.412 309.936C140.269 309.871 139.124 309.987 138.018 310.279C137.008 310.655 135.999 311.042 135.011 311.472C130.532 313.448 126.419 315.231 119.803 314.253L117.032 313.523L70.4417 289.519L61.6027 241.404C61.6027 241.404 59.4547 211.568 47.3722 204.329C40.9282 206.778 33.872 212.835 31.9603 219.365C29.7049 227.13 30.5855 238.16 34.4305 255.269C37.6525 269.586 41.0141 284.267 44.6549 295.168C48.2958 306.069 49.692 309.925 56.8448 312.062C68.8414 315.649 112.124 327.517 112.124 327.517C113.01 327.859 113.914 328.157 114.83 328.409C116.323 328.827 117.719 329.859 121.274 330.632C125.495 331.555 130.629 329.633 134.162 329.139C137.696 328.645 143.903 329.805 147.329 330.879C150.755 331.953 154.31 326.518 156.018 327.002C157.726 327.485 160.464 325.949 157.167 323.178Z" fill="#EFC0B5"/>
<path d="M140.939 313.244C139.207 313.308 137.507 313.729 135.945 314.479C138.191 314.408 140.438 314.609 142.636 315.08C143.908 314.808 145.161 314.449 146.384 314.006C147.462 313.565 148.417 312.869 149.166 311.977C147.233 313.502 143.366 313.287 140.939 313.244Z" fill="#F28F8F"/>
<path d="M46.7814 204.007C38.4365 207.573 32.9054 211.933 30.6714 221.116C28.4375 230.299 30.0163 238.364 31.8958 248.084C33.7753 257.804 38.1787 273.602 38.1787 273.602C38.1787 273.602 56.0393 274.676 66.339 267.534L60.7005 230.889C60.7005 230.889 57.7255 209.13 47.3507 204.34" fill="#00A79D"/>
<path d="M61.1408 117.851C54.8687 123.661 48.8543 131.899 53.3114 150.962C51.9088 152.325 50.9212 154.057 50.4631 155.958C50.005 157.859 50.0951 159.85 50.723 161.702C52.4414 167.588 58.0907 171.465 63.3425 170.294C68.5944 169.124 71.4405 163.517 69.7221 157.621C68.4226 153.218 63.6969 148.954 59.8091 149.233C59.8091 149.233 56.0823 141.081 59.5728 129.525C64.3413 113.78 82.696 112.47 90.7725 113.748C88.066 109.914 69.4321 110.172 61.1408 117.851Z" fill="white"/>
<path opacity="0.4" d="M61.1408 117.851C54.8687 123.661 48.8543 131.899 53.3114 150.962C51.9088 152.325 50.9212 154.057 50.4631 155.958C50.005 157.859 50.0951 159.85 50.723 161.702C52.4414 167.588 58.0907 171.465 63.3425 170.294C68.5944 169.124 71.4405 163.517 69.7221 157.621C68.4226 153.218 63.6969 148.954 59.8091 149.233C59.8091 149.233 56.0823 141.081 59.5728 129.525C64.3413 113.78 82.696 112.47 90.7725 113.748C88.066 109.914 69.4321 110.172 61.1408 117.851Z" fill="black"/>
<path d="M70.839 157.417C68.9273 150.887 62.6659 146.602 56.877 147.826C55.9926 148.011 55.1415 148.33 54.3531 148.771C53.698 149.136 51.7218 150.49 51.3352 150.747C47.6192 153.207 45.9652 158.265 47.4366 163.464C49.3483 169.994 55.6097 174.279 61.3986 173.054C62.4663 172.83 63.4849 172.415 64.4058 171.83C64.8783 171.529 66.7256 170.294 67.1767 169.972C70.7316 167.47 72.3319 162.54 70.839 157.417Z" fill="white"/>
<path opacity="0.3" d="M70.839 157.417C68.9273 150.887 62.6659 146.602 56.877 147.826C55.9926 148.011 55.1415 148.33 54.3531 148.771C53.698 149.136 51.7218 150.49 51.3352 150.747C47.6192 153.207 45.9652 158.265 47.4366 163.464C49.3483 169.994 55.6097 174.279 61.3986 173.054C62.4663 172.83 63.4849 172.415 64.4058 171.83C64.8783 171.529 66.7256 170.294 67.1767 169.972C70.7316 167.47 72.3319 162.54 70.839 157.417Z" fill="black"/>
<path d="M68.4655 159.007C66.5538 152.487 60.2924 148.191 54.5035 149.427C48.7146 150.662 45.5249 156.945 47.4366 163.464C49.3483 169.983 55.6097 174.279 61.3986 173.055C67.1875 171.83 70.3772 165.537 68.4655 159.007Z" fill="white"/>
<path opacity="0.1" d="M68.4655 159.007C66.5538 152.487 60.2924 148.191 54.5035 149.427C48.7146 150.662 45.5249 156.945 47.4366 163.464C49.3483 169.983 55.6097 174.279 61.3986 173.055C67.1875 171.83 70.3772 165.537 68.4655 159.007Z" fill="black"/>
<path d="M62.9129 160.188C62.0108 157.106 59.0465 155.086 56.3078 155.666C53.5691 156.246 52.0118 159.211 52.9677 162.293C53.9235 165.375 56.8341 167.395 59.5728 166.815C62.3115 166.235 63.8151 163.26 62.9129 160.188Z" fill="#37474F"/>
<path opacity="0.1" d="M190.998 391.13L169.282 378.414C168.997 378.414 168.724 378.301 168.522 378.1C168.321 377.898 168.208 377.625 168.208 377.34C168.208 377.055 168.321 376.782 168.522 376.581C168.724 376.379 168.997 376.266 169.282 376.266L254.439 327.098C254.998 326.813 255.616 326.664 256.244 326.664C256.871 326.664 257.489 326.813 258.048 327.098L279.743 339.718C279.975 339.776 280.181 339.91 280.328 340.099C280.476 340.288 280.556 340.52 280.556 340.76C280.556 340.999 280.476 341.232 280.328 341.42C280.181 341.609 279.975 341.743 279.743 341.801L194.596 391.141C194.039 391.425 193.421 391.572 192.796 391.57C192.17 391.568 191.554 391.418 190.998 391.13Z" fill="black"/>
<path d="M270.249 319.494L275.952 251.832C275.999 250.841 275.791 249.854 275.347 248.966C274.903 248.079 274.239 247.32 273.417 246.763C272.509 246.326 271.512 246.109 270.504 246.127C269.497 246.146 268.508 246.401 267.617 246.87L182.557 295.985C181.672 296.563 180.92 297.325 180.354 298.218C179.787 299.11 179.417 300.114 179.27 301.161L173.578 368.823C173.525 369.814 173.73 370.802 174.172 371.69C174.614 372.579 175.279 373.338 176.102 373.893C177.011 374.331 178.011 374.55 179.02 374.531C180.029 374.512 181.02 374.257 181.912 373.785L266.973 324.714C267.863 324.132 268.616 323.364 269.182 322.463C269.747 321.562 270.111 320.549 270.249 319.494Z" fill="#263238"/>
<path d="M275.941 251.822L270.249 319.484L274.384 252.316C274.534 250.415 273.847 249.695 272.236 250.64L188.216 299.196C187.341 299.756 186.606 300.509 186.068 301.398L180.451 298.176C180.99 297.302 181.726 296.566 182.599 296.028L267.65 246.914C268.545 246.444 269.537 246.19 270.547 246.172C271.558 246.153 272.559 246.37 273.471 246.806C274.273 247.365 274.921 248.118 275.353 248.995C275.785 249.873 275.987 250.845 275.941 251.822Z" fill="#37474F"/>
<path d="M179.195 372.067L184.898 304.405C185.041 303.358 185.408 302.354 185.973 301.46C186.538 300.567 187.289 299.806 188.174 299.228L272.193 250.608C273.846 249.652 274.534 250.383 274.341 252.284L270.206 319.452C270.064 320.501 269.698 321.507 269.133 322.402C268.567 323.297 267.816 324.06 266.93 324.639L181.869 373.742C180.258 374.741 179.045 373.979 179.195 372.067Z" fill="#455A64"/>
<path d="M220.984 331.169L220.329 351.553L243.957 337.967L238.2 321.277L220.984 331.169Z" fill="#263238"/>
<path d="M224.432 333.413L240.928 323.833L238.115 322.212L221.629 331.802L224.432 333.413Z" fill="#455A64"/>
<path d="M249.95 352.456L240.928 323.833L224.432 333.424L221.639 331.792L223.487 353.83L223.948 360.167L224.217 361.52L223.014 360.833L217.644 357.761C217.528 357.682 217.394 357.63 217.254 357.612C217.114 357.593 216.972 357.607 216.839 357.654C216.709 357.737 216.606 357.854 216.539 357.992C216.473 358.131 216.446 358.285 216.463 358.438V358.921C216.481 359.329 216.595 359.726 216.797 360.081C216.999 360.436 217.282 360.738 217.623 360.962L226.451 366.063C226.784 366.233 227.151 366.329 227.525 366.343C227.969 366.363 228.411 366.262 228.803 366.053L248.897 354.453C249.247 354.258 249.533 353.965 249.72 353.61C249.906 353.256 249.986 352.855 249.95 352.456ZM237.266 350.007C236.795 350.333 236.251 350.537 235.681 350.601C235.112 350.665 234.536 350.588 234.004 350.375C233.473 350.162 233.002 349.821 232.634 349.382C232.266 348.943 232.012 348.42 231.896 347.859C231.609 346.527 231.738 345.138 232.267 343.882C232.795 342.625 233.697 341.562 234.85 340.835C235.319 340.504 235.864 340.295 236.435 340.228C237.006 340.161 237.584 340.237 238.118 340.451C238.651 340.664 239.123 341.008 239.49 341.45C239.857 341.892 240.108 342.419 240.22 342.983C240.508 344.315 240.38 345.704 239.851 346.961C239.323 348.218 238.42 349.281 237.266 350.007Z" fill="#37474F"/>
<path d="M216.86 357.664L223.712 353.712L225.098 362.927L216.86 357.664Z" fill="black"/>
<path d="M224.432 333.424L221.629 331.802L223.948 360.156C224.099 360.908 223.669 361.23 223.025 360.822L217.655 357.75C217 357.364 216.473 357.686 216.473 358.438V358.91C216.489 359.318 216.6 359.715 216.798 360.072C216.996 360.428 217.275 360.733 217.612 360.962L226.462 366.063C226.794 366.237 227.161 366.332 227.536 366.342L224.432 333.424Z" fill="#263238"/>
<path d="M237.266 350.007C236.585 350.48 235.756 350.691 234.931 350.602C234.107 350.514 233.342 350.131 232.777 349.523C233.652 349.617 234.534 349.412 235.279 348.944C236.434 348.221 237.337 347.159 237.865 345.904C238.394 344.649 238.522 343.261 238.233 341.93C238.075 341.298 237.77 340.713 237.341 340.223C238.043 340.337 238.693 340.663 239.205 341.156C239.718 341.649 240.068 342.286 240.209 342.983C240.499 344.314 240.372 345.702 239.845 346.959C239.319 348.215 238.418 349.28 237.266 350.007Z" fill="#263238"/>
<path d="M223.132 306.939L222.058 319.989C221.983 320.848 222.456 321.245 223.132 320.869C223.498 320.615 223.804 320.284 224.03 319.901C224.256 319.517 224.397 319.089 224.443 318.646L225.516 305.608C225.592 304.738 225.119 304.351 224.443 304.716C224.079 304.973 223.775 305.304 223.549 305.687C223.323 306.071 223.181 306.497 223.132 306.939Z" fill="#214185"/>
<path d="M227.364 304.501L226.29 317.54C226.215 318.399 226.687 318.796 227.364 318.431C227.729 318.174 228.034 317.841 228.26 317.456C228.486 317.07 228.627 316.641 228.674 316.197L229.748 303.159C229.823 302.3 229.351 301.902 228.674 302.278C228.31 302.534 228.005 302.865 227.779 303.248C227.553 303.632 227.411 304.059 227.364 304.501Z" fill="#214185"/>
<path d="M231.595 302.053L230.521 315.102C230.446 315.961 230.919 316.358 231.595 315.982C231.961 315.728 232.267 315.398 232.493 315.014C232.72 314.63 232.86 314.202 232.906 313.759L233.98 300.721C234.055 299.851 233.582 299.464 232.906 299.83C232.542 300.086 232.238 300.417 232.012 300.801C231.786 301.184 231.644 301.611 231.595 302.053Z" fill="#214185"/>
<path d="M235.827 299.615L234.753 312.653C234.688 313.512 235.15 313.91 235.827 313.545C236.192 313.287 236.497 312.954 236.723 312.569C236.949 312.184 237.09 311.755 237.137 311.311L238.211 298.272C238.286 297.413 237.814 297.016 237.137 297.392C236.773 297.648 236.468 297.978 236.242 298.362C236.016 298.745 235.874 299.172 235.827 299.615Z" fill="#214185"/>
<path d="M123.833 94.813L119.537 86.887L122.931 77.092V71.089L112.545 77.092V83.085L117.002 90.818C117.073 90.94 117.183 91.034 117.314 91.086L123.833 94.813Z" fill="#214185"/>
<path opacity="0.2" d="M123.833 94.813L119.537 86.887L122.931 77.092V71.089L112.545 77.092V83.085L117.002 90.818C117.073 90.94 117.183 91.034 117.314 91.086L123.833 94.813Z" fill="black"/>
<path d="M150.683 34.7684C150.619 33.6923 150.304 32.6462 149.763 31.7137C149.222 30.7812 148.47 29.9883 147.568 29.3984L145.033 27.9377C144.069 27.4456 143.002 27.189 141.919 27.189C140.836 27.189 139.769 27.4456 138.804 27.9377L89.2499 56.517C88.3459 57.105 87.5929 57.897 87.0519 58.83C86.5108 59.763 86.1968 60.81 86.1353 61.887V92.26C86.1968 93.336 86.5108 94.383 87.0519 95.316C87.5929 96.249 88.3459 97.042 89.2499 97.63L91.7846 99.101C92.7505 99.588 93.8173 99.842 94.8992 99.842C95.981 99.842 97.0478 99.588 98.0138 99.101L119.107 86.825L123.564 94.536C123.628 94.646 123.721 94.736 123.834 94.794C123.947 94.853 124.074 94.878 124.2 94.866C124.326 94.855 124.447 94.808 124.547 94.731C124.648 94.653 124.724 94.548 124.767 94.429L129.471 80.832L147.547 70.5C148.449 69.91 149.201 69.118 149.741 68.185C150.282 67.253 150.597 66.206 150.661 65.13L150.683 34.7684Z" fill="#214185"/>
<path opacity="0.2" d="M86.1353 92.279C86.1968 93.355 86.5108 94.402 87.0519 95.335C87.5929 96.268 88.3459 97.061 89.2499 97.649L91.7846 99.12C92.6629 99.558 93.6236 99.807 94.6044 99.85C95.5851 99.892 96.5638 99.728 97.4768 99.367C96.0161 99.925 94.8992 99.099 94.8992 97.316V66.964C94.9337 65.882 95.2483 64.828 95.8121 63.904L87.0482 58.834C86.4858 59.763 86.1715 60.821 86.1353 61.906V92.279Z" fill="black"/>
<path opacity="0.4" d="M150.565 33.8853C150.199 32.5642 148.997 32.1454 147.557 32.9723L98.0568 61.573C97.1521 62.152 96.4122 62.955 95.9088 63.904L87.1557 58.845C87.6586 57.899 88.3988 57.099 89.3037 56.525L138.837 27.9138C139.802 27.4266 140.869 27.1729 141.951 27.1729C143.033 27.1729 144.1 27.4266 145.066 27.9138L147.611 29.3852C148.38 29.8989 149.038 30.562 149.545 31.3351C150.053 32.1082 150.399 32.9754 150.565 33.8853Z" fill="white"/>
<path d="M107.551 70.058C106.34 70.845 105.332 71.907 104.61 73.157C103.888 74.408 103.471 75.811 103.395 77.253C103.395 79.906 105.253 80.98 107.551 79.649C108.762 78.862 109.77 77.8 110.492 76.549C111.214 75.298 111.631 73.895 111.707 72.453C111.707 69.8 109.871 68.726 107.551 70.058Z" fill="#FAFAFA"/>
<path d="M122.866 61.197C121.657 61.986 120.651 63.048 119.929 64.299C119.206 65.549 118.789 66.951 118.71 68.393C118.71 71.035 120.579 72.109 122.866 70.788C124.083 70.005 125.097 68.944 125.825 67.693C126.553 66.443 126.975 65.037 127.055 63.592C127.055 60.939 125.165 59.865 122.866 61.197Z" fill="#FAFAFA"/>
<path d="M138.192 52.326C136.983 53.115 135.977 54.177 135.255 55.427C134.532 56.678 134.115 58.08 134.036 59.522C134.036 62.174 135.894 63.248 138.192 61.927C139.401 61.139 140.408 60.076 141.13 58.826C141.852 57.576 142.269 56.173 142.349 54.732C142.349 52.079 140.49 51.005 138.192 52.326Z" fill="#FAFAFA"/>
<path d="M449.357 118.274L452.002 113.393L449.912 107.361V103.664L456.308 107.361V111.051L453.563 115.813C453.519 115.888 453.452 115.947 453.371 115.979L449.357 118.274Z" fill="#214185"/>
<path opacity="0.2" d="M449.357 118.274L452.002 113.393L449.912 107.361V103.664L456.308 107.361V111.051L453.563 115.813C453.519 115.888 453.452 115.947 453.371 115.979L449.357 118.274Z" fill="black"/>
<path d="M432.822 81.297C432.861 80.634 433.055 79.99 433.388 79.416C433.722 78.842 434.184 78.353 434.74 77.99L436.301 77.09C436.895 76.787 437.552 76.629 438.219 76.629C438.886 76.629 439.543 76.787 440.137 77.09L470.653 94.69C471.21 95.052 471.674 95.54 472.007 96.115C472.34 96.689 472.533 97.334 472.571 97.997V116.701C472.533 117.364 472.34 118.009 472.007 118.583C471.674 119.158 471.21 119.646 470.653 120.008L469.092 120.914C468.497 121.214 467.841 121.37 467.174 121.37C466.508 121.37 465.851 121.214 465.256 120.914L452.267 113.354L449.522 118.103C449.483 118.171 449.425 118.226 449.356 118.262C449.286 118.298 449.208 118.313 449.13 118.306C449.053 118.299 448.978 118.27 448.917 118.222C448.855 118.175 448.808 118.11 448.781 118.037L445.884 109.664L434.753 103.301C434.198 102.938 433.735 102.45 433.402 101.875C433.069 101.301 432.875 100.657 432.835 99.994L432.822 81.297Z" fill="#214185"/>
<path opacity="0.2" d="M472.571 116.713C472.533 117.376 472.34 118.021 472.007 118.595C471.674 119.17 471.21 119.658 470.653 120.02L469.092 120.926C468.551 121.196 467.96 121.349 467.356 121.375C466.752 121.401 466.149 121.3 465.587 121.078C466.486 121.422 467.174 120.913 467.174 119.815V101.124C467.153 100.458 466.959 99.808 466.612 99.239L472.009 96.117C472.355 96.689 472.549 97.341 472.571 98.009V116.713Z" fill="black"/>
<path opacity="0.4" d="M432.895 80.753C433.12 79.94 433.86 79.682 434.747 80.191L465.23 97.804C465.787 98.161 466.242 98.655 466.553 99.239L471.943 96.124C471.633 95.541 471.177 95.049 470.62 94.695L440.117 77.076C439.522 76.776 438.865 76.62 438.199 76.62C437.533 76.62 436.876 76.776 436.281 77.076L434.714 77.982C434.24 78.299 433.835 78.707 433.523 79.183C433.21 79.659 432.997 80.193 432.895 80.753Z" fill="white"/>
<path d="M459.383 103.029C460.129 103.514 460.749 104.168 461.194 104.938C461.639 105.708 461.896 106.572 461.943 107.46C461.943 109.094 460.799 109.755 459.383 108.935C458.637 108.45 458.017 107.796 457.572 107.026C457.127 106.256 456.871 105.392 456.824 104.504C456.824 102.87 457.955 102.209 459.383 103.029Z" fill="#FAFAFA"/>
<path d="M449.952 97.572C450.697 98.058 451.316 98.712 451.761 99.482C452.206 100.252 452.463 101.116 452.511 102.004C452.511 103.631 451.361 104.292 449.952 103.479C449.202 102.996 448.578 102.343 448.13 101.573C447.681 100.803 447.422 99.937 447.372 99.047C447.372 97.414 448.537 96.752 449.952 97.572Z" fill="#FAFAFA"/>
<path d="M440.514 92.109C441.259 92.595 441.878 93.249 442.323 94.019C442.768 94.789 443.025 95.653 443.073 96.541C443.073 98.174 441.929 98.836 440.514 98.022C439.769 97.536 439.15 96.882 438.705 96.112C438.26 95.342 438.003 94.479 437.954 93.591C437.954 91.957 439.099 91.296 440.514 92.109Z" fill="#FAFAFA"/>
<path d="M460.594 169.366C462.972 169.533 466.051 167.595 467.537 165.074L468.726 163.112C472.162 157.5 479.7 153.482 484.896 153.862L486.192 153.957L489.854 154.219L491.15 154.314C496.346 154.694 497.523 159.343 494.443 165.015C494.004 165.799 493.79 166.204 493.373 166.988C492.054 169.521 493.04 171.744 495.454 171.923C499.615 172.22 501.399 176.072 499.758 180.614C494.479 199.34 493.029 215.094 495.002 232.239C491.225 235.749 486.259 237.699 481.103 237.696H438.895C437.266 216.295 440.345 198.46 448.858 176.928C451.011 172.386 456.42 169.057 460.594 169.366Z" fill="#455A64"/>
<path opacity="0.1" d="M460.594 169.366C462.972 169.533 466.051 167.595 467.537 165.074L468.726 163.112C472.162 157.5 479.7 153.482 484.896 153.862L486.192 153.957L489.854 154.219L491.15 154.314C496.346 154.694 497.523 159.343 494.443 165.015C494.004 165.799 493.79 166.204 493.373 166.988C492.054 169.521 493.04 171.744 495.454 171.923C499.615 172.22 501.399 176.072 499.758 180.614C494.479 199.34 493.029 215.094 495.002 232.239C491.225 235.749 486.259 237.699 481.103 237.696H438.895C437.266 216.295 440.345 198.46 448.858 176.928C451.011 172.386 456.42 169.057 460.594 169.366Z" fill="black"/>
<path opacity="0.2" d="M460.594 169.366C462.972 169.533 466.051 167.595 467.537 165.074L468.726 163.112C472.162 157.5 479.7 153.482 484.896 153.862L486.192 153.957C491.4 154.326 492.517 158.975 489.355 164.658C488.915 165.443 488.701 165.847 488.273 166.632C486.917 169.152 487.88 171.387 490.294 171.566C494.455 171.863 496.167 175.703 494.503 180.245C488.558 200.363 487.143 217.103 489.747 235.83C487.066 237.063 484.15 237.704 481.198 237.708H438.99C437.361 216.307 440.441 198.472 448.954 176.94C451.011 172.386 456.42 169.057 460.594 169.366Z" fill="black"/>
<path d="M432.035 190.577C432.035 190.577 433.877 214.939 427.766 214.689C421.655 214.44 409.623 214.523 409.623 214.523L399.683 210.088C399.425 209.97 399.138 209.934 398.859 209.985C398.58 210.036 398.324 210.172 398.125 210.373L393.619 214.832C393.427 215.031 393.298 215.282 393.248 215.554C393.198 215.826 393.23 216.107 393.339 216.361C393.448 216.615 393.63 216.832 393.862 216.983C394.094 217.134 394.365 217.213 394.641 217.21L397.4 217.139C401.11 219.123 405.335 219.931 409.515 219.457C408.089 219.029 434.662 223.963 437.385 220.194C441.106 215.058 442.747 193.538 442.747 193.538L432.035 190.577Z" fill="#B16548"/>
<path opacity="0.1" d="M432.035 190.577C432.035 190.577 433.877 214.939 427.766 214.689C421.655 214.44 409.623 214.523 409.623 214.523L399.683 210.088C399.425 209.97 399.138 209.934 398.859 209.985C398.58 210.036 398.324 210.172 398.125 210.373L393.619 214.832C393.427 215.031 393.298 215.282 393.248 215.554C393.198 215.826 393.23 216.107 393.339 216.361C393.448 216.615 393.63 216.832 393.862 216.983C394.094 217.134 394.365 217.213 394.641 217.21L397.4 217.139C401.11 219.123 405.335 219.931 409.515 219.457C408.089 219.029 434.662 223.963 437.385 220.194C441.106 215.058 442.747 193.538 442.747 193.538L432.035 190.577Z" fill="black"/>
<path d="M437.789 175.406C433.652 175.287 428.979 180.661 431.036 194.941L442.426 197.105C442.426 197.105 446.124 175.703 437.789 175.406Z" fill="#263238"/>
<path d="M437.789 175.406C433.652 175.287 428.979 180.661 431.036 194.941L442.426 197.105C442.426 197.105 446.124 175.703 437.789 175.406Z" fill="#3F87C7"/>
<path d="M479.843 175.703C486.073 183.729 485.051 225.949 484.599 237.399C483.421 237.606 482.228 237.713 481.032 237.72H444.84C441.748 197.14 428.61 185.132 433.426 177.475C438.11 170.127 472.614 166.334 479.843 175.703Z" fill="#3F87C7"/>
<path d="M449.786 180.662C449.786 180.662 440.762 175.05 444.424 172.006C449.15 170.895 453.98 170.277 458.834 170.163C460.308 171.138 459.238 173.849 449.786 180.662Z" fill="#B16548"/>
<path d="M444.673 166.655L452.639 158C453.4 164.634 456.932 170.08 457.645 170.294L456.777 173.337C447.123 184.193 444.887 173.765 444.887 173.765C447.301 171.804 444.673 166.655 444.673 166.655Z" fill="#B16548"/>
<path opacity="0.2" d="M449.512 161.436L453.222 161.055C453.222 161.055 453.067 172.184 445.446 173.147C446.861 170.9 444.733 166.62 444.733 166.62L449.512 161.436Z" fill="#263238"/>
<path d="M451.617 148.488C453.341 156.347 454.756 160.853 452.033 166.049C451.166 167.751 449.851 169.183 448.229 170.191C446.606 171.198 444.739 171.742 442.83 171.764C440.92 171.786 439.041 171.285 437.396 170.316C435.751 169.346 434.402 167.945 433.497 166.263C429.93 159.867 427.671 148.084 434.258 142.603C435.658 141.377 437.357 140.542 439.182 140.182C441.008 139.822 442.897 139.95 444.657 140.553C446.418 141.156 447.988 142.212 449.21 143.616C450.432 145.02 451.262 146.721 451.617 148.548V148.488Z" fill="#B16548"/>
<path d="M451.462 152.876C451.462 152.876 443.829 152.947 446.017 148.56C446.017 148.56 435.423 150.593 437.23 146.598C437.23 146.598 430.097 152.234 431.916 146.907C431.916 146.907 427.029 151.068 426.874 148.393C426.72 145.718 429.395 144.018 429.395 144.018C429.395 144.018 423.45 139.179 432.082 139.191C432.082 139.191 430.037 131.914 439.905 137.728C439.905 137.728 438.586 130.19 445.945 137.728C445.945 137.728 455.909 137.8 453.555 141.093C453.555 141.093 459.833 143.138 455.933 145.338C455.933 145.338 460.689 149.654 457.229 151.425C457.229 151.425 461.747 157.632 455.148 156.859C455.148 156.859 457.526 162.601 454.601 161.424C451.676 160.247 451.462 152.876 451.462 152.876Z" fill="#263238"/>
<path d="M456.373 154.064C456.323 155.843 455.611 157.54 454.375 158.82C452.735 160.509 450.808 159.236 450.416 157.025C450.036 155.016 450.416 151.734 452.52 150.902C454.625 150.069 456.396 151.841 456.373 154.064Z" fill="#B16548"/>
<path opacity="0.3" d="M443.484 224.88C443.128 222.502 442.735 220.124 442.295 217.996L446.088 217.235L467.264 204.834L474.802 187.404L477.941 180.662L480.889 182.232C480.889 182.232 480.889 217.116 466.158 223.453C459.904 226.128 452.033 225.284 443.484 224.88Z" fill="black"/>
<path d="M467.668 189.293C467.668 189.293 463.352 210.825 449.833 213.251C436.315 215.676 434.377 215.629 434.377 215.629L423.474 212.062C423.155 211.959 422.811 211.956 422.49 212.053C422.169 212.151 421.886 212.345 421.679 212.609L418.92 216.176C418.738 216.41 418.623 216.69 418.587 216.985C418.552 217.279 418.598 217.578 418.721 217.849C418.843 218.119 419.037 218.351 419.282 218.52C419.527 218.688 419.813 218.786 420.109 218.803L424.77 219.113C426.047 220.13 427.52 220.874 429.097 221.298C430.674 221.721 432.322 221.815 433.937 221.574C433.937 221.574 455.754 223.952 463.352 219.588C470.95 215.225 476.978 197.331 476.978 197.331L467.668 189.293Z" fill="#B16548"/>
<path d="M477.31 203.264C477.31 203.264 484.944 178.819 477.75 174.931C470.557 171.043 465.861 188.188 464.018 194.68L477.31 203.264Z" fill="#3F87C7"/>
<path d="M405.58 219.161L431.904 220.421V224.154H405.58H388.625V219.161H405.58Z" fill="#455A64"/>
<path opacity="0.3" d="M405.58 224.154H431.904V220.421L405.58 219.161V224.154Z" fill="white"/>
<path opacity="0.6" d="M388.625 219.161H405.58V224.154H388.625V219.161Z" fill="white"/>
<path d="M347.701 211.277H403.321L397.709 165.55H342.089L347.701 211.277Z" fill="#455A64"/>
<path opacity="0.3" d="M347.701 211.277H403.321L397.709 165.55H342.089L347.701 211.277Z" fill="white"/>
<path d="M394.499 165.55L400.123 211.277H347.701L342.089 165.55H394.499Z" fill="#455A64"/>
<path d="M394.499 165.55L400.123 211.277H347.701L342.089 165.55H394.499Z" fill="#455A64"/>
<path d="M365.809 224.023H377.639L378.828 205.154H369.245L365.809 224.023Z" fill="#455A64"/>
<path opacity="0.3" d="M365.809 224.023H377.639L378.828 205.154H369.245L365.809 224.023Z" fill="white"/>
<path d="M363.693 224.023H375.523L376.712 205.154H367.141L363.693 224.023Z" fill="#455A64"/>
<path d="M363.693 224.023H375.523L376.712 205.154H367.141L363.693 224.023Z" fill="#455A64"/>
<path d="M371.897 220.73H373.811H390.159V224.155H373.811H371.897H355.548V220.73H371.897Z" fill="#455A64"/>
<path opacity="0.3" d="M371.897 220.73H373.811H390.159V224.155H373.811H371.897H355.548V220.73H371.897Z" fill="white"/>
<path d="M355.548 220.73H373.811V224.155H355.548V220.73Z" fill="#455A64"/>
<path opacity="0.6" d="M355.548 220.73H373.811V224.155H355.548V220.73Z" fill="white"/>
<path d="M442.652 229.493V237.661H356.19C353.019 237.659 349.891 236.919 347.054 235.502C344.217 234.085 341.748 232.027 339.842 229.493H442.652Z" fill="#263238"/>
<path opacity="0.3" d="M442.652 229.493V237.661H356.19C353.019 237.659 349.891 236.919 347.054 235.502C344.217 234.085 341.748 232.027 339.842 229.493H442.652Z" fill="white"/>
<path d="M336.941 224.154H447.8V229.493H339.842C338.611 227.87 337.633 226.07 336.941 224.154Z" fill="#263238"/>
<path opacity="0.5" d="M336.941 224.154H447.8V229.493H339.842C338.611 227.87 337.633 226.07 336.941 224.154Z" fill="white"/>
<path d="M417.835 122.562L382.375 103.461C381.419 102.946 380.228 103.304 379.713 104.259L368.397 125.267C367.882 126.222 368.239 127.414 369.195 127.928L404.655 147.03C405.611 147.545 406.802 147.187 407.317 146.232L418.633 125.224C419.148 124.269 418.79 123.077 417.835 122.562Z" fill="#214185"/>
<path opacity="0.7" d="M417.835 122.562L382.375 103.461C381.419 102.946 380.228 103.304 379.713 104.259L368.397 125.267C367.882 126.222 368.239 127.414 369.195 127.928L404.655 147.03C405.611 147.545 406.802 147.187 407.317 146.232L418.633 125.224C419.148 124.269 418.79 123.077 417.835 122.562Z" fill="white"/>
<path opacity="0.2" d="M378.791 105.993L389.825 126.709C390.249 127.498 390.897 128.144 391.687 128.564C392.478 128.985 393.376 129.162 394.267 129.072L417.346 126.794L393.854 130.254C392.827 130.406 391.779 130.222 390.866 129.729C389.952 129.236 389.223 128.462 388.786 127.52L378.791 105.993Z" fill="black"/>
<path d="M351.868 102.163C352.252 94.247 358.118 78.287 365.251 73.403C372.384 68.52 367.685 75.283 367.685 75.283C367.685 75.283 374.448 68.705 378.008 68.904C381.567 69.103 378.008 73.175 378.008 73.175C378.008 73.175 385.34 68.662 388.714 68.904C392.089 69.146 388.714 73.047 388.714 73.047C388.714 73.047 394.722 68.776 397.157 70.784C399.592 72.791 365.991 94.987 362.247 104.014C358.502 113.041 351.483 110.15 351.868 102.163Z" fill="#214185"/>
<path opacity="0.4" d="M351.868 102.163C352.252 94.247 358.118 78.287 365.251 73.403C372.384 68.52 367.685 75.283 367.685 75.283C367.685 75.283 374.448 68.705 378.008 68.904C381.567 69.103 378.008 73.175 378.008 73.175C378.008 73.175 385.34 68.662 388.714 68.904C392.089 69.146 388.714 73.047 388.714 73.047C388.714 73.047 394.722 68.776 397.157 70.784C399.592 72.791 365.991 94.987 362.247 104.014C358.502 113.041 351.483 110.15 351.868 102.163Z" fill="white"/>
<path d="M380.741 100.967L385.226 103.815C385.297 103.859 385.351 103.925 385.379 104.003C385.408 104.082 385.409 104.167 385.382 104.247C385.356 104.326 385.304 104.393 385.234 104.439C385.164 104.485 385.081 104.506 384.998 104.498L380.286 104.128L380.684 107.744C380.696 107.83 380.68 107.916 380.638 107.992C380.596 108.067 380.531 108.126 380.453 108.162C380.374 108.197 380.286 108.206 380.202 108.187C380.118 108.168 380.043 108.123 379.987 108.058L377.267 105.011L380.741 100.967Z" fill="#214185"/>
<path opacity="0.3" d="M380.741 100.967L385.226 103.815C385.297 103.859 385.351 103.925 385.379 104.003C385.408 104.082 385.409 104.167 385.382 104.247C385.356 104.326 385.304 104.393 385.234 104.439C385.164 104.485 385.081 104.506 384.998 104.498L380.286 104.128L380.684 107.744C380.696 107.83 380.68 107.916 380.638 107.992C380.596 108.067 380.531 108.126 380.453 108.162C380.374 108.197 380.286 108.206 380.202 108.187C380.118 108.168 380.043 108.123 379.987 108.058L377.267 105.011L380.741 100.967Z" fill="white"/>
<path d="M317.74 83.142C317.74 83.142 323.948 78.871 333.33 81.633C333.33 81.633 336.021 94.034 343.411 98.163C347.468 100.426 357.392 100.227 365.251 97.693C374.577 94.675 379.132 94.675 380.827 98.163C382.521 101.651 380.642 105.281 373.509 106.976C366.376 108.67 360.695 121.057 347.782 121.213C334.868 121.37 328.006 108.399 331.266 97.009C328.179 91.187 323.484 86.373 317.74 83.142Z" fill="#214185"/>
<path opacity="0.5" d="M317.74 83.142C317.74 83.142 323.948 78.871 333.33 81.633C333.33 81.633 336.021 94.034 343.411 98.163C347.468 100.426 357.392 100.227 365.251 97.693C374.577 94.675 379.132 94.675 380.827 98.163C382.521 101.651 380.642 105.281 373.509 106.976C366.376 108.67 360.695 121.057 347.782 121.213C334.868 121.37 328.006 108.399 331.266 97.009C328.179 91.187 323.484 86.373 317.74 83.142Z" fill="white"/>
<path d="M377.267 100.511C377.267 100.638 377.23 100.762 377.159 100.867C377.089 100.973 376.989 101.055 376.872 101.103C376.755 101.152 376.626 101.164 376.502 101.14C376.377 101.115 376.263 101.054 376.174 100.964C376.084 100.875 376.023 100.761 375.998 100.636C375.974 100.512 375.986 100.383 376.035 100.266C376.083 100.149 376.165 100.049 376.271 99.979C376.376 99.908 376.5 99.871 376.627 99.871C376.797 99.871 376.959 99.938 377.08 100.058C377.2 100.178 377.267 100.341 377.267 100.511Z" fill="#263238"/>
<path d="M344.777 110.933C337.132 113.012 320.132 112.357 313.298 107.089C306.464 101.821 314.323 104.242 314.323 104.242C314.323 104.242 305.994 99.842 305.069 96.397C304.144 92.951 309.169 95.058 309.169 95.058C309.169 95.058 302.62 89.491 301.766 86.217C300.912 82.942 305.696 84.935 305.696 84.935C305.696 84.935 299.73 80.55 300.94 77.603C302.15 74.656 333.601 99.771 343.325 100.554C353.049 101.337 352.523 108.826 344.777 110.933Z" fill="#214185"/>
<path opacity="0.4" d="M344.777 110.933C337.132 113.012 320.132 112.357 313.298 107.089C306.464 101.821 314.323 104.242 314.323 104.242C314.323 104.242 305.994 99.842 305.069 96.397C304.144 92.951 309.169 95.058 309.169 95.058C309.169 95.058 302.62 89.491 301.766 86.217C300.912 82.942 305.696 84.935 305.696 84.935C305.696 84.935 299.73 80.55 300.94 77.603C302.15 74.656 333.601 99.771 343.325 100.554C353.049 101.337 352.523 108.826 344.777 110.933Z" fill="white"/>
<path d="M294.661 76.293C294.605 76.307 294.547 76.307 294.49 76.293C293.166 75.824 291.814 75.382 290.447 74.969C290.312 74.927 290.199 74.833 290.132 74.708C290.066 74.582 290.051 74.436 290.091 74.3C290.134 74.165 290.228 74.052 290.353 73.985C290.478 73.919 290.624 73.904 290.76 73.944C292.184 74.357 293.508 74.813 294.846 75.368C294.966 75.409 295.066 75.491 295.13 75.6C295.194 75.708 295.217 75.836 295.195 75.96C295.172 76.084 295.106 76.196 295.008 76.275C294.91 76.355 294.787 76.397 294.661 76.393V76.293Z" fill="#214185"/>
<path d="M208.61 191.859C208.469 191.859 208.333 191.804 208.232 191.705C208.131 191.607 208.072 191.473 208.069 191.332C208.069 191.191 208.124 191.055 208.222 190.954C208.321 190.853 208.455 190.795 208.596 190.791C211.428 190.751 214.252 190.475 217.038 189.965C217.178 189.94 217.322 189.971 217.439 190.051C217.556 190.131 217.637 190.253 217.665 190.392C217.679 190.462 217.68 190.533 217.666 190.603C217.652 190.672 217.624 190.738 217.584 190.796C217.544 190.855 217.493 190.905 217.434 190.943C217.374 190.981 217.307 191.007 217.238 191.019C214.39 191.54 211.504 191.821 208.61 191.859ZM200.067 191.403C197.194 191.097 194.342 190.621 191.525 189.979C191.385 189.949 191.264 189.864 191.186 189.744C191.109 189.624 191.082 189.478 191.112 189.339C191.146 189.202 191.232 189.084 191.351 189.009C191.471 188.935 191.615 188.91 191.753 188.94C194.525 189.565 197.329 190.04 200.153 190.364C200.279 190.385 200.394 190.45 200.478 190.548C200.561 190.645 200.606 190.769 200.606 190.898C200.606 191.026 200.561 191.15 200.478 191.248C200.394 191.346 200.279 191.411 200.153 191.432L200.067 191.403ZM225.367 188.556C225.265 188.556 225.165 188.527 225.079 188.471C224.993 188.416 224.925 188.336 224.883 188.243C224.853 188.178 224.835 188.108 224.832 188.037C224.83 187.966 224.841 187.895 224.866 187.829C224.892 187.762 224.93 187.702 224.98 187.65C225.029 187.599 225.088 187.558 225.154 187.531C227.74 186.416 230.14 184.913 232.273 183.074C232.382 182.991 232.518 182.952 232.654 182.966C232.791 182.98 232.917 183.045 233.007 183.148C233.098 183.251 233.146 183.384 233.141 183.521C233.137 183.658 233.081 183.789 232.984 183.886C230.766 185.789 228.276 187.349 225.595 188.513C225.517 188.557 225.429 188.581 225.339 188.584L225.367 188.556ZM183.381 187.588C183.325 187.601 183.266 187.601 183.21 187.588C180.505 186.691 177.786 185.637 175.152 184.484C175.035 184.417 174.947 184.309 174.906 184.182C174.864 184.054 174.871 183.915 174.927 183.792C174.982 183.67 175.08 183.572 175.204 183.518C175.327 183.464 175.466 183.458 175.593 183.501C178.184 184.64 180.861 185.68 183.552 186.577C183.685 186.625 183.794 186.724 183.855 186.852C183.916 186.979 183.925 187.126 183.879 187.26C183.839 187.359 183.77 187.443 183.681 187.501C183.592 187.56 183.487 187.59 183.381 187.588ZM167.72 180.668C167.636 180.693 167.547 180.693 167.463 180.668C164.915 179.244 162.438 177.707 160.131 176.098C160.074 176.058 160.026 176.007 159.988 175.948C159.951 175.889 159.926 175.823 159.914 175.754C159.902 175.686 159.904 175.615 159.919 175.547C159.934 175.479 159.963 175.415 160.003 175.358C160.043 175.301 160.094 175.252 160.153 175.215C160.212 175.177 160.278 175.152 160.347 175.14C160.415 175.128 160.486 175.13 160.554 175.145C160.622 175.161 160.686 175.189 160.743 175.229C163.021 176.81 165.456 178.333 167.99 179.743C168.052 179.777 168.105 179.823 168.149 179.878C168.192 179.933 168.224 179.996 168.243 180.064C168.261 180.131 168.266 180.202 168.257 180.272C168.248 180.341 168.225 180.408 168.19 180.469C168.129 180.561 168.043 180.633 167.942 180.677C167.84 180.72 167.728 180.732 167.62 180.711L167.72 180.668ZM238.11 177.408C238.026 177.433 237.937 177.433 237.854 177.408C237.792 177.374 237.738 177.328 237.695 177.273C237.652 177.217 237.62 177.154 237.601 177.087C237.583 177.019 237.578 176.948 237.587 176.879C237.596 176.809 237.619 176.742 237.654 176.682C238.096 175.913 238.509 175.116 238.879 174.29C239.671 172.546 240.291 170.729 240.73 168.865C240.767 168.727 240.855 168.609 240.977 168.535C241.099 168.461 241.245 168.436 241.385 168.467C241.522 168.503 241.639 168.593 241.711 168.715C241.783 168.838 241.804 168.984 241.769 169.122C241.304 171.047 240.661 172.925 239.847 174.731C239.462 175.585 239.035 176.425 238.58 177.223C238.519 177.314 238.432 177.384 238.33 177.425C238.229 177.466 238.117 177.475 238.01 177.45L238.11 177.408ZM153.681 170.83C153.556 170.828 153.435 170.783 153.34 170.702C151.172 168.787 149.14 166.722 147.26 164.523C147.162 164.422 147.107 164.286 147.107 164.146C147.107 164.005 147.162 163.869 147.26 163.768C147.359 163.671 147.492 163.616 147.631 163.616C147.769 163.616 147.902 163.671 148.001 163.768C149.846 165.921 151.84 167.943 153.966 169.819C154.065 169.92 154.119 170.056 154.119 170.196C154.119 170.337 154.065 170.473 153.966 170.574C153.931 170.651 153.878 170.718 153.811 170.77C153.744 170.822 153.665 170.858 153.582 170.873L153.681 170.83ZM242.21 160.949C242.14 160.949 242.07 160.935 242.005 160.908C241.94 160.88 241.882 160.84 241.833 160.79C241.784 160.739 241.745 160.68 241.719 160.614C241.694 160.549 241.682 160.479 241.684 160.408C241.663 157.577 241.401 154.752 240.9 151.965C240.875 151.826 240.906 151.682 240.986 151.565C241.066 151.448 241.188 151.366 241.328 151.339C241.469 151.318 241.613 151.352 241.729 151.434C241.846 151.516 241.926 151.64 241.954 151.78C242.466 154.628 242.733 157.515 242.751 160.408C242.751 160.552 242.694 160.689 242.593 160.791C242.491 160.892 242.354 160.949 242.21 160.949ZM239.363 144.064C239.248 144.062 239.136 144.024 239.043 143.955C238.951 143.886 238.884 143.789 238.85 143.679C238.124 141.188 237.227 138.539 236.131 135.578C236.104 135.512 236.09 135.441 236.091 135.369C236.092 135.298 236.108 135.227 236.137 135.162C236.167 135.097 236.209 135.038 236.262 134.989C236.315 134.941 236.377 134.904 236.444 134.88C236.576 134.834 236.722 134.84 236.849 134.899C236.977 134.957 237.076 135.063 237.128 135.194C238.238 138.183 239.135 140.889 239.875 143.366C239.916 143.502 239.901 143.648 239.834 143.773C239.768 143.898 239.655 143.992 239.519 144.035L239.363 144.064ZM233.468 127.904C233.37 127.905 233.273 127.877 233.189 127.824C233.106 127.771 233.04 127.695 232.999 127.605C232.087 125.327 230.849 122.707 229.553 119.931V119.789C229.516 119.664 229.525 119.531 229.578 119.413C229.63 119.295 229.724 119.199 229.841 119.144C229.958 119.089 230.091 119.078 230.216 119.112C230.341 119.147 230.449 119.225 230.521 119.333V119.475C231.831 122.323 233.056 124.9 233.967 127.135C234.024 127.269 234.027 127.421 233.973 127.557C233.92 127.692 233.815 127.802 233.682 127.861L233.468 127.904ZM226.35 112.243C226.245 112.246 226.142 112.218 226.053 112.162C225.964 112.106 225.894 112.025 225.851 111.929C224.57 108.954 223.545 106.32 222.733 103.885C222.688 103.751 222.696 103.604 222.757 103.477C222.819 103.349 222.928 103.25 223.061 103.202C223.197 103.157 223.345 103.167 223.473 103.231C223.601 103.296 223.699 103.408 223.744 103.544C224.542 105.95 225.552 108.555 226.834 111.502C226.862 111.567 226.877 111.636 226.877 111.706C226.878 111.776 226.865 111.846 226.838 111.911C226.812 111.976 226.772 112.035 226.723 112.085C226.673 112.134 226.614 112.174 226.549 112.2C226.502 112.25 226.443 112.289 226.378 112.314L226.35 112.243ZM221.139 95.927C221.011 95.925 220.889 95.878 220.792 95.795C220.696 95.711 220.632 95.597 220.612 95.471C220.368 93.945 220.244 92.403 220.242 90.858C220.23 89.478 220.354 88.099 220.612 86.743C220.653 86.617 220.739 86.51 220.854 86.443C220.969 86.376 221.104 86.354 221.234 86.38C221.364 86.407 221.48 86.48 221.56 86.586C221.639 86.693 221.677 86.825 221.666 86.957C221.419 88.242 221.3 89.549 221.31 90.858C221.315 92.35 221.434 93.84 221.666 95.314C221.683 95.453 221.647 95.593 221.565 95.707C221.483 95.82 221.361 95.899 221.224 95.927H221.139ZM224.855 79.753C224.731 79.756 224.61 79.716 224.513 79.639C224.415 79.538 224.36 79.402 224.36 79.262C224.36 79.121 224.415 78.985 224.513 78.884C226.424 76.651 228.75 74.809 231.361 73.46C231.486 73.393 231.632 73.378 231.768 73.418C231.904 73.458 232.018 73.55 232.087 73.673C232.149 73.801 232.16 73.947 232.117 74.082C232.075 74.216 231.983 74.33 231.86 74.399C229.373 75.685 227.159 77.44 225.339 79.568C225.292 79.646 225.225 79.711 225.145 79.756C225.065 79.801 224.975 79.825 224.883 79.824L224.855 79.753ZM282.26 72.776H282.146C279.413 72.207 276.58 71.723 273.718 71.353C273.648 71.344 273.581 71.321 273.521 71.286C273.46 71.252 273.407 71.205 273.365 71.149C273.322 71.094 273.291 71.03 273.274 70.962C273.256 70.894 273.252 70.824 273.262 70.755C273.271 70.685 273.294 70.618 273.328 70.558C273.363 70.497 273.41 70.444 273.466 70.401C273.521 70.359 273.585 70.328 273.653 70.31C273.72 70.293 273.791 70.289 273.86 70.299C276.708 70.669 279.555 71.153 282.403 71.723C282.53 71.752 282.643 71.827 282.72 71.933C282.797 72.039 282.832 72.17 282.82 72.3C282.808 72.431 282.749 72.552 282.654 72.643C282.559 72.733 282.434 72.785 282.303 72.791L282.26 72.776ZM239.548 71.566C239.479 71.574 239.409 71.567 239.342 71.548C239.275 71.528 239.213 71.496 239.159 71.452C239.104 71.408 239.059 71.355 239.026 71.294C238.993 71.233 238.972 71.165 238.964 71.096C238.957 71.027 238.963 70.957 238.982 70.89C239.002 70.824 239.035 70.761 239.078 70.707C239.122 70.653 239.176 70.608 239.237 70.574C239.298 70.541 239.365 70.52 239.434 70.513C242.246 69.882 245.101 69.468 247.976 69.274C248.118 69.266 248.256 69.314 248.363 69.407C248.469 69.5 248.535 69.631 248.546 69.772C248.552 69.843 248.543 69.913 248.521 69.98C248.499 70.047 248.464 70.109 248.417 70.163C248.371 70.216 248.314 70.259 248.251 70.29C248.187 70.32 248.118 70.338 248.048 70.342C245.22 70.525 242.412 70.929 239.648 71.552L239.548 71.566ZM265.175 70.57C262.698 70.399 259.751 70.214 256.633 70.157C256.492 70.153 256.358 70.094 256.259 69.993C256.161 69.892 256.106 69.757 256.106 69.616C256.106 69.545 256.12 69.476 256.148 69.411C256.175 69.346 256.215 69.287 256.265 69.238C256.316 69.189 256.376 69.15 256.441 69.125C256.507 69.099 256.577 69.087 256.647 69.089C259.794 69.16 262.769 69.331 265.19 69.502C265.26 69.505 265.329 69.523 265.393 69.554C265.456 69.585 265.513 69.628 265.559 69.681C265.606 69.734 265.641 69.796 265.663 69.863C265.685 69.93 265.694 70.001 265.688 70.071C265.698 70.2 265.662 70.328 265.587 70.432C265.511 70.537 265.4 70.611 265.275 70.641L265.175 70.57Z" fill="#214185"/>
<path d="M142.605 157.689C142.509 157.691 142.415 157.666 142.332 157.619C142.25 157.571 142.181 157.502 142.135 157.418C141.415 156.169 140.773 154.875 140.213 153.546C140.185 153.481 140.17 153.412 140.169 153.342C140.169 153.272 140.182 153.202 140.208 153.137C140.235 153.072 140.274 153.013 140.324 152.963C140.373 152.914 140.433 152.875 140.498 152.848C140.628 152.796 140.774 152.796 140.904 152.849C141.034 152.902 141.139 153.004 141.195 153.133C141.745 154.42 142.368 155.675 143.06 156.892C143.114 156.971 143.144 157.063 143.147 157.159C143.15 157.254 143.127 157.349 143.08 157.432C143.032 157.514 142.963 157.582 142.879 157.628C142.795 157.673 142.7 157.695 142.605 157.689Z" fill="#214185"/>
</g>
<defs>
<clipPath id="clip0">
<rect width="537" height="537" fill="white" transform="translate(0 -63)"/>
</clipPath>
</defs>
</svg>
