<svg width="537" height="537" viewBox="0 0 537 537" fill="none" xmlns="http://www.w3.org/2000/svg">
<path d="M268.5 508.679C413.057 508.679 530.245 437.917 530.245 350.629C530.245 263.34 413.057 192.579 268.5 192.579C123.942 192.579 6.75537 263.34 6.75537 350.629C6.75537 437.917 123.942 508.679 268.5 508.679Z" fill="white"/>
<path opacity="0.15" d="M107.924 403.416L136.01 419.698C136.483 419.941 137.008 420.068 137.54 420.068C138.072 420.068 138.597 419.941 139.07 419.698L219.685 373.226C219.871 373.164 220.032 373.045 220.147 372.886C220.261 372.727 220.323 372.536 220.323 372.34C220.323 372.144 220.261 371.953 220.147 371.794C220.032 371.635 219.871 371.516 219.685 371.454L191.6 355.172C191.126 354.931 190.601 354.806 190.069 354.806C189.538 354.806 189.013 354.931 188.539 355.172L107.924 401.676C107.75 401.745 107.599 401.864 107.494 402.02C107.388 402.175 107.331 402.358 107.331 402.546C107.331 402.734 107.388 402.917 107.494 403.073C107.599 403.228 107.75 403.347 107.924 403.416Z" fill="black"/>
<path d="M216.398 369.059C216.38 368.872 216.312 368.693 216.203 368.541C216.094 368.388 215.946 368.267 215.775 368.189L190.655 353.69C190.191 353.452 189.677 353.327 189.156 353.327C188.635 353.327 188.122 353.452 187.658 353.69L110.985 398.025C110.814 398.103 110.667 398.224 110.558 398.376C110.448 398.529 110.381 398.708 110.362 398.895V401.526C110.381 401.713 110.448 401.891 110.558 402.044C110.667 402.197 110.814 402.318 110.985 402.396L136.106 416.895C136.571 417.128 137.084 417.25 137.604 417.25C138.125 417.25 138.638 417.128 139.103 416.895L215.775 372.678C215.945 372.601 216.091 372.482 216.2 372.331C216.31 372.18 216.378 372.004 216.398 371.819V369.059Z" fill="#263238"/>
<path d="M136.107 414.188L110.986 399.754C110.805 399.692 110.648 399.576 110.537 399.421C110.426 399.266 110.366 399.08 110.366 398.889C110.366 398.698 110.426 398.512 110.537 398.357C110.648 398.202 110.805 398.086 110.986 398.025L187.659 353.69C188.122 353.452 188.636 353.327 189.157 353.327C189.678 353.327 190.192 353.452 190.655 353.69L215.776 368.189C215.957 368.25 216.114 368.366 216.225 368.522C216.336 368.677 216.396 368.863 216.396 369.053C216.396 369.244 216.336 369.43 216.225 369.585C216.114 369.74 215.957 369.857 215.776 369.918L139.103 414.188C138.64 414.427 138.126 414.551 137.605 414.551C137.084 414.551 136.57 414.427 136.107 414.188Z" fill="#1C3643"/>
<path d="M137.502 414.564V417.26C137.012 417.261 136.53 417.143 136.095 416.916L110.996 402.417C110.825 402.339 110.678 402.218 110.568 402.065C110.459 401.913 110.392 401.734 110.373 401.547V398.884C110.392 399.071 110.459 399.249 110.568 399.402C110.678 399.554 110.825 399.676 110.996 399.754L136.095 414.199C136.53 414.426 137.012 414.551 137.502 414.564Z" fill="#263238"/>
<path d="M188.968 355.978L191.46 357.406L188.088 359.361L185.51 357.911L188.882 355.967L188.968 355.978ZM192.867 358.222L195.348 359.661L192.706 361.186L190.193 359.79L192.846 358.254L192.867 358.222ZM184.275 358.695H184.329L186.82 360.134L184.168 361.659L181.601 360.231L184.243 358.695H184.275ZM196.776 360.467L199.268 361.906L194.972 364.376L192.405 362.937L196.701 360.467H196.776ZM188.893 360.521L191.385 361.96L189.237 363.173L186.67 361.734L188.818 360.521H188.893ZM180.301 361.004H180.355L182.847 362.432L180.194 363.968L177.627 362.518L180.269 360.993L180.301 361.004ZM185.456 362.518H185.521L188.002 363.947L185.897 365.16L183.33 363.721L185.478 362.507L185.456 362.518ZM200.686 362.722L203.167 364.151L199.859 366.116L197.292 364.666L200.664 362.722H200.686ZM176.317 363.302L178.798 364.741L159.659 375.793L157.081 374.343L176.231 363.302H176.317ZM191.17 363.71H191.224L193.715 365.149L191.567 366.363L188.99 364.924L191.138 363.71H191.17ZM182.02 364.505L184.511 365.934L182.363 367.147L179.786 365.708L181.934 364.494L182.02 364.505ZM204.574 364.967L207.065 366.406L204.917 367.62L202.34 366.17L204.488 364.956L204.574 364.967ZM195.982 365.439H196.035L198.516 366.879L196.368 368.092L193.801 366.642L195.949 365.429L195.982 365.439ZM187.733 365.708H187.787L190.279 367.136L188.131 368.35L185.553 366.911L187.701 365.697L187.733 365.708ZM178.583 366.492L181.074 367.931L178.926 369.145L176.349 367.695L178.497 366.481L178.583 366.492ZM201.137 366.954H201.201L203.682 368.393L201.534 369.607L198.967 368.157L201.115 366.943L201.137 366.954ZM192.545 367.426H192.599L195.09 368.866L192.942 370.079L190.365 368.629L192.513 367.416L192.545 367.426ZM184.296 367.695H184.361L186.842 369.123L184.694 370.337L182.127 368.898L184.275 367.684L184.296 367.695ZM209.321 367.695H209.374L211.866 369.123L209.213 370.659L206.646 369.209L209.288 367.684L209.321 367.695ZM175.146 368.479H175.157L177.638 369.918L175.49 371.132L173.009 369.693L175.103 368.479H175.146ZM197.7 368.941H197.711L200.192 370.38L198.044 371.593L195.563 370.154L197.711 368.941H197.7ZM189.108 369.413L191.6 370.852L189.452 372.066L186.971 370.638L189.119 369.424L189.108 369.413ZM180.87 369.682H180.924L183.405 371.121L181.257 372.335L178.69 370.885L180.838 369.671L180.87 369.682ZM171.72 370.466L174.201 371.905L172.053 373.119L169.486 371.669L171.634 370.455L171.72 370.466ZM203.843 370.863L206.335 372.292L204.187 373.516L201.609 372.066L203.757 370.852L203.843 370.863ZM194.274 370.928L196.766 372.367L194.618 373.58L192.04 372.141L194.188 370.928H194.274ZM185.682 371.4H185.746L188.227 372.839L186.079 374.053L183.469 372.678L185.618 371.465L185.682 371.4ZM177.444 371.669L179.936 373.108L177.788 374.321L175.21 372.872L177.358 371.658L177.444 371.669ZM168.294 372.453H168.348L170.839 373.892L168.691 375.105L166.114 373.666L168.262 372.453H168.294ZM200.417 372.85H200.482L202.963 374.289L200.815 375.503L198.248 374.053L200.342 372.839L200.417 372.85ZM190.848 372.915H190.902L193.393 374.354L191.245 375.567L188.668 374.128L190.816 372.915H190.848ZM182.256 373.398L184.748 374.826L182.6 376.04L180.022 374.601L182.17 373.387L182.256 373.398ZM174.008 373.656L176.499 375.095L174.351 376.308L171.784 374.826L173.879 373.613L174.008 373.656ZM164.857 374.45H164.911L167.402 375.879L165.254 377.092L162.688 375.653L164.782 374.44L164.857 374.45ZM196.991 374.837L199.472 376.276L197.324 377.49L194.757 376.04L196.905 374.826L196.991 374.837ZM187.411 374.912H187.476L189.956 376.341L187.808 377.554L185.242 376.115L187.39 374.901L187.411 374.912ZM155.889 375.127H155.825L158.316 376.566L155.664 378.091L153.097 376.652L155.739 375.116L155.889 375.127ZM178.808 375.385H178.862L181.354 376.813L179.206 378.037L176.628 376.588L178.776 375.374L178.808 375.385ZM170.571 375.642H170.624L173.105 377.082L170.957 378.295L168.391 376.856L170.539 375.642H170.571ZM161.42 376.437L163.901 377.866L161.753 379.079L159.186 377.64L161.334 376.426L161.42 376.437ZM193.544 376.824H193.597L196.089 378.263L193.941 379.477L191.267 378.048L193.415 376.835L193.544 376.824ZM183.974 376.899L186.466 378.327L184.318 379.552L181.751 378.102L183.899 376.888L183.974 376.899ZM175.382 377.372H175.447L177.928 378.811L175.78 380.024L173.213 378.574L175.361 377.361L175.382 377.372ZM151.926 377.436H151.98L154.471 378.864L151.819 380.4L149.252 378.95L151.894 377.425L151.926 377.436ZM167.145 377.629L169.572 379.122L167.424 380.336L164.846 378.897L166.994 377.683L167.145 377.629ZM157.994 378.424H157.973L160.464 379.863L158.316 381.077L155.739 379.627L157.887 378.413L157.994 378.424ZM180.548 378.886H180.527L183.018 380.325L180.87 381.539L178.293 380.089L180.441 378.875L180.548 378.886ZM171.956 379.359L174.448 380.798L172.3 382.011L169.733 380.561L171.881 379.348L171.956 379.359ZM163.708 379.627H163.762L166.253 381.055L164.105 382.269L161.528 380.83L163.676 379.616L163.708 379.627ZM188.635 379.627L191.116 381.066L188.968 382.28L186.402 380.83L188.55 379.616L188.635 379.627ZM147.952 379.681L150.433 381.12L147.791 382.645L145.214 381.195L147.866 379.67L147.952 379.681ZM154.557 380.357H154.611L157.103 381.796L154.955 383.01L152.388 381.56L154.482 380.347L154.557 380.357ZM177.111 380.819H177.176L179.657 382.258L177.509 383.472L174.942 382.022L177.036 380.808L177.111 380.819ZM168.519 381.292H168.573L171.065 382.731L168.917 383.944L166.339 382.495L168.487 381.281L168.519 381.292ZM160.271 381.56H160.336L162.816 382.999L160.668 384.213L157.973 382.828L160.121 381.614L160.271 381.56ZM185.199 381.614H185.252L187.744 383.053L185.596 384.267L183.018 382.817L185.166 381.603L185.199 381.614ZM143.968 381.979L146.459 383.418L143.087 385.362L140.509 383.923L143.882 381.979H143.968ZM151.121 382.344H151.185L153.666 383.783L146.889 387.714L144.322 386.264L150.959 382.43L151.121 382.344ZM173.675 382.806H173.728L176.209 384.245L174.061 385.459L171.494 384.009L173.642 382.806H173.675ZM165.083 383.279H165.147L167.628 384.718L165.48 385.931L162.913 384.492L165.007 383.279H165.083ZM156.845 383.547H156.899L159.39 384.986L157.242 386.2L154.665 384.75L156.813 383.536L156.845 383.547ZM181.762 383.601H181.816L184.307 385.04L182.159 386.254L179.453 384.879L181.547 383.665L181.762 383.601ZM170.249 384.793H170.302L172.794 386.232L170.646 387.446L168.068 386.007L170.216 384.793H170.249ZM138.544 385.126L141.036 386.554L138.888 387.768L136.31 386.329L138.458 385.115L138.544 385.126ZM161.646 385.276H161.7L164.18 386.705L162.032 387.918L159.466 386.479L161.614 385.266L161.646 385.276ZM153.397 385.534H153.451L155.943 386.973L154.02 388.047C153.956 388.082 153.902 388.133 153.865 388.195C153.827 388.257 153.806 388.329 153.806 388.402C153.806 388.477 153.827 388.552 153.866 388.616C153.906 388.681 153.963 388.733 154.031 388.767L157.253 390.646L154.783 392.075L148.339 388.38L153.344 385.491L153.397 385.534ZM178.325 385.588H178.379L180.86 387.027L178.712 388.24L176.145 386.801L178.293 385.588H178.325ZM166.801 386.791L169.293 388.219L167.145 389.433L164.578 387.993L166.726 386.78L166.801 386.791ZM135.097 387.113H135.15L137.642 388.541L135.419 389.862L132.852 388.412L134.946 387.199L135.097 387.113ZM158.198 387.263H158.252L160.744 388.692L158.596 389.905L156.018 388.466L158.166 387.252L158.198 387.263ZM173.374 388.445H173.438L175.919 389.884L173.771 391.097L171.204 389.647L173.299 388.434L173.374 388.445ZM163.364 388.777H163.418L165.899 390.206L163.751 391.43L161.184 389.98L163.332 388.767L163.364 388.777ZM131.649 389.1H131.713L134.194 390.539L132.046 391.752L129.479 390.303L131.627 389.089L131.649 389.1ZM138.995 389.357H139.049L141.53 390.797L139.382 392.01L136.815 390.56L138.963 389.347L138.995 389.357ZM169.937 390.431H169.991L172.472 391.871L170.324 393.084L167.639 391.71L169.787 390.496L169.937 390.431ZM159.917 390.764H159.97L162.462 392.193L158.725 394.341L156.147 392.902L159.884 390.754L159.917 390.764ZM127.482 391.505H127.536L130.027 392.945L124.475 396.167L121.908 394.717L127.45 391.495L127.482 391.505ZM150.218 391.86H150.283L152.764 393.299L150.616 394.513L148.049 393.073L150.197 391.86H150.218ZM166.49 392.429H166.543L169.035 393.868L166.887 395.082L164.309 393.643L166.457 392.429H166.49ZM131.38 393.75H131.434L133.915 395.189L131.767 396.403L129.2 394.964L131.348 393.75H131.38ZM146.782 393.858H146.835L149.316 395.286L147.168 396.5L144.601 395.06L146.749 393.847L146.782 393.858ZM154.117 394.115L156.609 395.544L154.461 396.768L151.883 395.318L154.031 394.105L154.117 394.115ZM163.042 394.416L165.534 395.844L163.386 397.058L160.819 395.619L162.967 394.405L163.042 394.416ZM120.597 395.49H120.651L123.143 396.929L120.995 398.143L118.417 396.704L120.565 395.49H120.597ZM127.933 395.758H127.987L130.478 397.187L128.33 398.401L125.753 396.961L127.901 395.748L127.933 395.758ZM143.334 395.855H143.388L145.729 397.38L143.581 398.605L141.004 397.155L143.152 395.941L143.334 395.855ZM135.268 396.016H135.322L137.814 397.445L135.666 398.658L133.099 397.219L135.193 396.006L135.268 396.016ZM150.67 396.113H150.723L153.215 397.552L151.067 398.766L148.489 397.316L150.637 396.102L150.67 396.113ZM158.843 396.854H158.896L161.377 398.282L159.229 399.507L156.662 398.057L158.81 396.843L158.843 396.854ZM117.15 397.488H117.204L123.583 401.161L121.435 402.385L114.991 398.691L117.139 397.477L117.15 397.488ZM124.485 397.745H124.55L127.031 399.174L124.883 400.398L122.316 398.948L124.464 397.735L124.485 397.745ZM131.821 398.003H131.885L134.366 399.432L132.218 400.656L129.651 399.206L131.799 397.992L131.821 398.003ZM147.222 398.1H147.286L149.767 399.539L147.619 400.753L145.052 399.303L147.147 398.089L147.222 398.1ZM139.167 398.261H139.221L141.702 399.7L139.554 400.914L136.879 399.528L139.027 398.315L139.167 398.261ZM155.395 398.841L157.887 400.28L155.739 401.494L153.161 400.044L155.309 398.83L155.395 398.841ZM128.384 399.99H128.438L130.929 401.429L128.781 402.643L126.204 401.193L128.352 399.979L128.384 399.99ZM135.719 400.248H135.773L138.265 401.687L136.117 402.901L133.539 401.451L135.687 400.237L135.719 400.248ZM142.937 400.602L145.428 402.041L143.28 403.255L140.703 401.805L142.851 400.591L142.937 400.602ZM151.829 400.924H151.883L154.375 402.364L152.227 403.577L149.66 402.127L151.754 400.914L151.829 400.924ZM124.818 402.074H124.872L131.252 405.757L129.104 406.971L122.66 403.276L124.808 402.063L124.818 402.074ZM132.154 402.331L134.645 403.771L132.497 404.984L130.049 403.491L132.197 402.288L132.154 402.331ZM139.489 402.589H139.543L142.035 404.028L139.887 405.242L137.32 403.803L139.468 402.589H139.489ZM148.629 403.824L149.703 404.436L147.555 405.65L146.395 405.027L148.543 403.813L148.629 403.824ZM136.02 404.49H136.074L138.555 405.929L136.407 407.143L133.84 405.704L135.988 404.49H136.02ZM145.181 405.811H145.246L146.32 406.423L144.172 407.637L143.023 407.014L145.106 405.8L145.181 405.811ZM132.573 406.488H132.626L135.118 407.916L132.97 409.13L130.392 407.691L132.54 406.477L132.573 406.488ZM141.745 407.798H141.798L142.872 408.41L140.724 409.624L139.575 409.001L141.723 407.798H141.745ZM138.297 409.785L139.371 410.397L137.223 411.611L136.063 410.988L138.211 409.785H138.297Z" fill="#214185"/>
<path opacity="0.1" d="M45.2028 372.979C46.3627 375.911 48.8652 377.436 52.5705 379.09C63.4179 383.977 89.4194 389.83 104.015 392.429C112.51 393.943 121.199 396.725 129.877 397.101C137.642 397.412 145.697 396.027 152.141 391.645C153.064 391.137 153.796 390.341 154.225 389.379C154.402 388.601 154.32 387.788 153.993 387.061C153.665 386.334 153.109 385.734 152.41 385.351C150.988 384.616 149.423 384.202 147.824 384.138C130.527 382.057 113.605 377.571 97.5496 370.809C104.756 370.047 112.081 369.263 118.783 366.513C125.484 363.764 131.671 358.748 133.99 351.896C134.463 350.522 134.85 348.996 135.988 348.084C136.627 347.656 137.362 347.395 138.127 347.324C138.892 347.253 139.663 347.373 140.37 347.675C145.085 349.362 146.954 354.882 148.35 359.693C149.746 364.505 152.066 369.993 156.942 371.099C155.17 370.025 155.868 366.954 157.737 366.213C159.605 365.472 161.893 366.632 163.031 368.361C164.17 370.09 164.46 372.055 165.405 373.806C166.35 375.556 168.38 377.028 170.216 376.308C171.183 375.822 171.945 375.007 172.364 374.01C174.964 368.93 174.512 362.668 172.214 357.438C169.916 352.208 166.06 347.826 161.936 343.884C156.19 338.396 149.725 333.466 142.282 330.674C126.709 324.821 109.192 329.084 93.7584 335.314C82.1159 340.008 70.9372 345.779 60.3677 352.551C56.3577 354.945 52.663 357.832 49.3699 361.143C47.0179 363.657 44.5477 367.222 44.7947 370.809C44.8204 371.549 44.958 372.28 45.2028 372.979Z" fill="black"/>
<path d="M177.197 356.257C174.921 352.735 170.839 345.517 169.561 344.035C166.071 340.061 158.875 333.778 158.875 333.778C152.087 328.247 131.241 309.839 131.241 309.839C131.241 309.839 128.019 269.027 124.41 262.497C120.243 254.893 112.317 254.582 104.112 254.088C104.112 254.088 101.964 262.948 101.126 270.198C101.126 270.198 108.504 315.972 109.385 320.225C110.266 324.478 112.424 326.346 116.817 329.171C123.53 333.467 147.813 346.516 147.813 346.516L149.005 347.343C149.823 347.919 150.439 348.738 150.766 349.684C151.081 350.625 151.293 351.598 151.4 352.584C151.787 355.967 151.4 356.88 151.69 360.575C151.98 364.269 152.764 364.151 154.214 367.319C155.513 370.252 155.9 372.088 156.974 372.195C158.048 372.303 159.423 369.919 159.423 367.502C159.423 365.086 157.951 362.422 157.898 361.402C157.844 360.381 158.381 359.114 160.679 360.467C162.978 361.821 165.126 365.934 166.833 368.78C168.541 371.626 169.454 375.385 171.183 377.437C172.912 379.488 173.557 377.211 174.351 375.289C175.146 373.366 179.023 370.23 180.044 367.158C181.064 364.087 179.453 359.791 177.197 356.257Z" fill="#EFC0B5"/>
<path d="M104.112 253.829C109.761 253.829 114.347 253.206 119.319 256.235C124.292 259.264 125.635 263.409 126.762 269.853C127.783 275.717 129.855 295.909 129.855 295.909C129.855 295.909 115.507 303.824 103.005 298.776L104.112 253.829Z" fill="#FFE092"/>
<path d="M115.99 226.141C118.376 226.922 120.662 227.982 122.799 229.299C124.141 230.115 125.109 231.425 125.497 232.946C125.884 234.468 125.66 236.081 124.872 237.44L122.284 236.924C122.284 236.924 123.616 233.885 122.058 232.263C120.501 230.641 115.947 229.234 115.947 229.234L115.99 226.141Z" fill="#263238"/>
<path d="M123.798 235.754C121.65 234.733 120.684 236.044 119.201 239.609C117.719 243.175 118.74 244.152 120.544 244.861C122.348 245.57 123.766 244.378 124.84 241.424C126.086 238.106 126.054 236.86 123.798 235.754Z" fill="white"/>
<path opacity="0.1" d="M123.97 235.786C121.822 234.766 120.855 236.076 119.373 239.642C117.891 243.207 118.911 244.185 120.716 244.894C122.52 245.602 123.938 244.41 125.012 241.457C126.268 238.138 126.236 236.892 123.97 235.786Z" fill="black"/>
<path d="M80.8058 256.428C68.9918 259.081 56.2972 262.872 46.7815 267.007C46.7815 267.007 46.019 307.722 52.6134 327.151C59.2077 346.58 57.3067 368.715 57.3067 368.715C89.5267 373.924 128.61 358.952 127.643 342.713C126.088 339.32 124.271 336.052 122.209 332.94C122.209 332.94 121.403 319.891 121.757 314.081C145.385 291.967 112.575 263.603 104.112 253.872C98.9564 254.538 91.3847 254.055 80.8058 256.428Z" fill="#FFE092"/>
<path d="M78.8619 196.596C77.3368 199.334 77.9705 202.567 78.5934 205.467C79.0767 207.679 80.3978 210.418 79.8393 212.663C78.9512 215.756 77.0627 218.468 74.4693 220.374C73.8316 220.907 73.1529 221.388 72.4394 221.813C71.8272 222.146 71.1184 222.297 70.4955 222.64C69.1743 223.417 68.0814 224.528 67.3272 225.862C66.2905 227.783 65.5174 229.835 65.0288 231.963C64.5383 234.09 63.7233 236.13 62.6123 238.009C61.3699 239.766 59.6948 241.173 57.7493 242.093C55.8038 243.013 53.6537 243.416 51.5072 243.261C49.1385 243.084 46.8455 242.348 44.8161 241.113C43.7902 240.496 42.8294 239.776 41.9486 238.965C41.1427 238.275 40.4975 237.417 40.0583 236.452C39.7431 239.316 40.459 242.198 42.0774 244.582C39.8663 244.974 37.5938 244.838 35.4455 244.184C33.2971 243.53 31.3339 242.378 29.7159 240.82C28.0979 239.263 26.8712 237.345 26.1357 235.224C25.4003 233.102 25.177 230.836 25.4841 228.612C25.8708 225.862 27.0414 223.242 27.6321 220.567C29.2646 213.264 22.7132 209.269 21.6392 202.61C21.3396 200.529 21.6831 198.405 22.6236 196.524C23.5641 194.643 25.0568 193.094 26.9018 192.085C29.1465 190.904 32.1 190.313 33.0344 187.961C33.7539 186.156 32.8733 184.148 32.9055 182.204C32.9055 178.359 36.5356 175.427 40.1872 174.267C43.8388 173.107 47.8019 173.118 51.4857 172.023C55.4165 170.863 59.0037 168.468 62.999 167.727C65.3816 167.351 67.82 167.561 70.1031 168.339C72.3862 169.118 74.4452 170.441 76.1017 172.194C77.6161 173.805 78.4431 175.685 79.7856 177.35C81.1281 179.014 83.1794 179.874 84.1675 181.828C84.8767 183.09 85.2723 184.504 85.3209 185.951C85.3695 187.397 85.0697 188.834 84.4467 190.141C83.1042 192.708 80.2581 194.115 78.8619 196.596Z" fill="#1C3643"/>
<path d="M115.195 205.274C114.744 192.493 107.323 174.257 79.8607 176.587C53.0966 178.864 45.2242 202.739 47.6407 215.702C51.0453 233.595 64.0622 234.744 67.4453 246.44L115.195 205.274Z" fill="#1C3643"/>
<path d="M55.3412 215.047C56.1211 214.059 57.1735 213.32 58.3683 212.923C59.5631 212.526 60.8481 212.488 62.0645 212.813C63.3593 213.177 64.5129 213.926 65.3724 214.961C66.6075 216.325 66.586 218.183 67.4559 219.74C67.7097 220.243 68.0799 220.678 68.5357 221.009C68.9916 221.339 69.5198 221.556 70.0765 221.641C73.7603 221.974 72.3856 215.992 72.5897 213.866C79.5492 211.395 79.3559 208.818 80.301 202.675C85.1769 197.412 93.6401 196.639 100.965 201.676C105.433 193.084 110.276 194.158 112.371 196.81C113.917 199.964 114.971 203.336 115.496 206.809C116.512 212.003 116.905 217.3 116.667 222.586C115.764 243.111 108.998 248.04 105.626 249.437C102.254 250.833 98.1079 249.823 91.9109 248.652V260.982C98.3549 273.279 103.499 291.892 103.252 304.049C93.3394 285.276 77.8201 275.234 70.4846 268.414C68.8053 266.895 67.3159 265.179 66.049 263.302V230.91C66.049 230.91 63.3425 233.799 59.0465 230.384C53.3006 225.787 51.5393 219.343 55.3412 215.047Z" fill="#EFC0B5"/>
<path d="M91.9111 252.616C96.0568 253.819 108.171 270.208 112.102 276.115L107.656 287.456C110.318 290.209 112.669 293.245 114.669 296.51L105.615 322.877C105.615 322.877 106.432 287.746 91.9111 261.014V252.616Z" fill="#FFE092"/>
<path d="M104.412 302.771C107.634 311.138 108.086 330.534 108.086 330.534C108.086 330.534 104.864 312.437 89.645 306.101C89.645 305.231 89.8061 292.837 89.8061 292.837C89.8061 292.837 69.4001 287.66 65.1041 285.716L60.7114 262.088C60.7114 262.088 63.6434 254.764 66.0814 254.57V259.672C72.8012 264.97 79.2295 270.627 85.3382 276.62C96.4649 287.349 101.212 294.405 104.412 302.771Z" fill="#FFE092"/>
<path d="M157.167 386.178C153.881 383.418 149.123 379.595 145.353 378.66C144.476 378.406 143.582 378.209 142.679 378.07C143.952 377.797 145.204 377.438 146.427 376.996C147.656 376.507 148.716 375.671 149.478 374.59C149.757 374.149 149.929 373.516 149.478 373.172C149.316 373.064 149.124 373.012 148.93 373.022C146.148 373.161 143.925 372.914 141.412 372.936C140.27 372.871 139.124 372.987 138.018 373.279C137.008 373.655 135.999 374.042 135.011 374.472C130.532 376.448 126.419 378.231 119.803 377.253L117.032 376.523L70.4419 352.519L61.6029 304.404C61.6029 304.404 59.4549 274.568 47.3724 267.329C40.9284 269.778 33.8722 275.835 31.9605 282.365C29.7051 290.13 30.5858 301.16 34.4307 318.269C37.6527 332.586 41.0143 347.267 44.6552 358.168C48.296 369.069 49.6922 372.925 56.8451 375.062C68.8416 378.649 112.124 390.517 112.124 390.517C113.011 390.859 113.914 391.157 114.83 391.409C116.323 391.827 117.719 392.859 121.274 393.632C125.495 394.555 130.629 392.633 134.162 392.139C137.696 391.645 143.904 392.805 147.33 393.879C150.756 394.953 154.311 389.518 156.018 390.002C157.726 390.485 160.465 388.949 157.167 386.178Z" fill="#EFC0B5"/>
<path d="M140.939 376.244C139.207 376.308 137.507 376.729 135.945 377.479C138.192 377.408 140.438 377.609 142.636 378.08C143.908 377.808 145.161 377.449 146.384 377.006C147.462 376.565 148.417 375.869 149.166 374.977C147.233 376.502 143.366 376.287 140.939 376.244Z" fill="#F28F8F"/>
<path d="M46.7814 267.007C38.4365 270.573 32.9054 274.933 30.6714 284.116C28.4375 293.299 30.0163 301.364 31.8958 311.084C33.7753 320.804 38.1787 336.602 38.1787 336.602C38.1787 336.602 56.0393 337.676 66.339 330.534L60.7005 293.889C60.7005 293.889 57.7255 272.13 47.3507 267.34" fill="#FFE092"/>
<path d="M61.1409 180.851C54.8687 186.661 48.8543 194.899 53.3114 213.962C51.9089 215.325 50.9213 217.057 50.4632 218.958C50.005 220.859 50.0952 222.85 50.7231 224.702C52.4415 230.588 58.0907 234.465 63.3426 233.294C68.5945 232.124 71.4406 226.517 69.7222 220.621C68.4226 216.218 63.697 211.954 59.8091 212.233C59.8091 212.233 56.0824 204.081 59.5729 192.525C64.3414 176.78 82.6961 175.47 90.7726 176.748C88.0661 172.914 69.4322 173.172 61.1409 180.851Z" fill="white"/>
<path opacity="0.4" d="M61.1409 180.851C54.8687 186.661 48.8543 194.899 53.3114 213.962C51.9089 215.325 50.9213 217.057 50.4632 218.958C50.005 220.859 50.0952 222.85 50.7231 224.702C52.4415 230.588 58.0907 234.465 63.3426 233.294C68.5945 232.124 71.4406 226.517 69.7222 220.621C68.4226 216.218 63.697 211.954 59.8091 212.233C59.8091 212.233 56.0824 204.081 59.5729 192.525C64.3414 176.78 82.6961 175.47 90.7726 176.748C88.0661 172.914 69.4322 173.172 61.1409 180.851Z" fill="black"/>
<path d="M70.8391 220.417C68.9274 213.887 62.666 209.602 56.8771 210.826C55.9926 211.011 55.1415 211.33 54.3532 211.771C53.6981 212.136 51.7219 213.49 51.3353 213.747C47.6192 216.207 45.9653 221.265 47.4367 226.464C49.3484 232.994 55.6098 237.279 61.3986 236.054C62.4664 235.83 63.485 235.415 64.4058 234.83C64.8784 234.529 66.7257 233.294 67.1768 232.972C70.7317 230.47 72.332 225.54 70.8391 220.417Z" fill="white"/>
<path opacity="0.3" d="M70.8391 220.417C68.9274 213.887 62.666 209.602 56.8771 210.826C55.9926 211.011 55.1415 211.33 54.3532 211.771C53.6981 212.136 51.7219 213.49 51.3353 213.747C47.6192 216.207 45.9653 221.265 47.4367 226.464C49.3484 232.994 55.6098 237.279 61.3986 236.054C62.4664 235.83 63.485 235.415 64.4058 234.83C64.8784 234.529 66.7257 233.294 67.1768 232.972C70.7317 230.47 72.332 225.54 70.8391 220.417Z" fill="black"/>
<path d="M68.4655 222.007C66.5538 215.487 60.2924 211.191 54.5035 212.427C48.7147 213.662 45.5249 219.945 47.4366 226.464C49.3483 232.983 55.6097 237.279 61.3986 236.055C67.1875 234.83 70.3773 228.537 68.4655 222.007Z" fill="white"/>
<path opacity="0.1" d="M68.4655 222.007C66.5538 215.487 60.2924 211.191 54.5035 212.427C48.7147 213.662 45.5249 219.945 47.4366 226.464C49.3483 232.983 55.6097 237.279 61.3986 236.055C67.1875 234.83 70.3773 228.537 68.4655 222.007Z" fill="black"/>
<path d="M62.9131 223.188C62.011 220.106 59.0467 218.086 56.308 218.666C53.5693 219.246 52.012 222.211 52.9679 225.293C53.9238 228.375 56.8343 230.395 59.573 229.815C62.3117 229.235 63.8153 226.26 62.9131 223.188Z" fill="#1C3643"/>
<path opacity="0.1" d="M190.998 454.13L169.282 441.414C168.997 441.414 168.724 441.301 168.523 441.1C168.321 440.898 168.208 440.625 168.208 440.34C168.208 440.055 168.321 439.782 168.523 439.581C168.724 439.379 168.997 439.266 169.282 439.266L254.439 390.098C254.998 389.813 255.616 389.664 256.244 389.664C256.871 389.664 257.49 389.813 258.048 390.098L279.743 402.718C279.975 402.776 280.181 402.91 280.329 403.099C280.476 403.288 280.556 403.52 280.556 403.76C280.556 403.999 280.476 404.232 280.329 404.42C280.181 404.609 279.975 404.743 279.743 404.801L194.596 454.141C194.039 454.425 193.422 454.572 192.796 454.57C192.17 454.568 191.554 454.418 190.998 454.13Z" fill="black"/>
<path d="M270.249 382.494L275.952 314.832C275.999 313.841 275.791 312.854 275.347 311.966C274.903 311.079 274.239 310.32 273.417 309.763C272.509 309.326 271.512 309.109 270.504 309.127C269.497 309.146 268.508 309.401 267.617 309.87L182.557 358.985C181.672 359.563 180.921 360.325 180.354 361.218C179.787 362.11 179.418 363.114 179.27 364.161L173.578 431.823C173.525 432.814 173.73 433.802 174.172 434.69C174.614 435.579 175.279 436.338 176.102 436.893C177.011 437.331 178.011 437.55 179.02 437.531C180.029 437.512 181.02 437.257 181.912 436.785L266.973 387.714C267.863 387.132 268.617 386.364 269.182 385.463C269.747 384.562 270.111 383.549 270.249 382.494Z" fill="#263238"/>
<path d="M275.941 314.822L270.249 382.484L274.384 315.316C274.534 313.415 273.847 312.695 272.236 313.64L188.217 362.196C187.341 362.756 186.606 363.509 186.069 364.398L180.452 361.176C180.99 360.302 181.726 359.566 182.6 359.028L267.65 309.914C268.545 309.444 269.537 309.19 270.548 309.172C271.558 309.153 272.559 309.37 273.471 309.806C274.273 310.365 274.921 311.118 275.353 311.995C275.785 312.873 275.987 313.845 275.941 314.822Z" fill="#1C3643"/>
<path d="M179.195 435.067L184.898 367.405C185.041 366.358 185.408 365.354 185.973 364.46C186.538 363.567 187.289 362.806 188.174 362.228L272.193 313.608C273.847 312.652 274.534 313.383 274.341 315.284L270.206 382.452C270.064 383.501 269.698 384.507 269.133 385.402C268.567 386.297 267.816 387.06 266.93 387.639L181.869 436.742C180.258 437.741 179.045 436.979 179.195 435.067Z" fill="#455A64"/>
<path d="M220.984 394.169L220.329 414.553L243.957 400.967L238.2 384.277L220.984 394.169Z" fill="#263238"/>
<path d="M224.432 396.413L240.928 386.833L238.115 385.212L221.629 394.802L224.432 396.413Z" fill="#455A64"/>
<path d="M249.95 415.456L240.928 386.833L224.432 396.424L221.639 394.792L223.487 416.83L223.948 423.167L224.217 424.52L223.014 423.833L217.644 420.761C217.528 420.682 217.394 420.63 217.254 420.612C217.114 420.593 216.972 420.607 216.839 420.654C216.709 420.737 216.606 420.854 216.539 420.992C216.473 421.131 216.446 421.285 216.463 421.438V421.921C216.481 422.329 216.595 422.726 216.797 423.081C216.999 423.436 217.282 423.738 217.623 423.962L226.451 429.063C226.784 429.233 227.151 429.329 227.525 429.343C227.969 429.363 228.411 429.262 228.803 429.053L248.897 417.453C249.247 417.258 249.533 416.965 249.72 416.61C249.906 416.256 249.986 415.855 249.95 415.456ZM237.266 413.007C236.795 413.333 236.251 413.537 235.681 413.601C235.112 413.665 234.536 413.588 234.004 413.375C233.473 413.162 233.002 412.821 232.634 412.382C232.266 411.943 232.012 411.42 231.896 410.859C231.609 409.527 231.738 408.138 232.267 406.882C232.795 405.625 233.697 404.562 234.85 403.835C235.319 403.504 235.864 403.295 236.435 403.228C237.006 403.161 237.584 403.237 238.118 403.451C238.652 403.664 239.123 404.008 239.49 404.45C239.857 404.892 240.108 405.419 240.22 405.983C240.508 407.315 240.38 408.704 239.851 409.961C239.323 411.218 238.42 412.281 237.266 413.007Z" fill="#1C3643"/>
<path d="M216.86 420.664L223.712 416.712L225.098 425.927L216.86 420.664Z" fill="black"/>
<path d="M224.432 396.424L221.629 394.802L223.949 423.156C224.099 423.908 223.669 424.23 223.025 423.822L217.655 420.75C217 420.364 216.474 420.686 216.474 421.438V421.91C216.489 422.318 216.6 422.715 216.798 423.072C216.996 423.428 217.275 423.733 217.612 423.962L226.462 429.063C226.794 429.237 227.161 429.332 227.536 429.342L224.432 396.424Z" fill="#263238"/>
<path d="M237.266 413.007C236.585 413.48 235.756 413.691 234.931 413.602C234.107 413.514 233.342 413.131 232.777 412.523C233.652 412.617 234.534 412.412 235.279 411.944C236.434 411.221 237.337 410.159 237.865 408.904C238.394 407.649 238.522 406.261 238.233 404.93C238.075 404.298 237.77 403.713 237.341 403.223C238.043 403.337 238.693 403.663 239.206 404.156C239.718 404.649 240.068 405.286 240.209 405.983C240.499 407.314 240.372 408.702 239.845 409.959C239.319 411.215 238.418 412.28 237.266 413.007Z" fill="#263238"/>
<path d="M223.132 369.939L222.058 382.989C221.983 383.848 222.456 384.245 223.132 383.869C223.498 383.615 223.804 383.284 224.03 382.901C224.257 382.517 224.397 382.089 224.443 381.646L225.517 368.608C225.592 367.738 225.119 367.351 224.443 367.716C224.08 367.973 223.775 368.304 223.549 368.687C223.323 369.071 223.181 369.497 223.132 369.939Z" fill="#214185"/>
<path d="M227.364 367.501L226.29 380.54C226.215 381.399 226.687 381.796 227.364 381.431C227.729 381.174 228.034 380.841 228.26 380.456C228.486 380.07 228.627 379.641 228.674 379.197L229.748 366.159C229.823 365.3 229.351 364.902 228.674 365.278C228.31 365.534 228.005 365.865 227.779 366.248C227.553 366.632 227.411 367.059 227.364 367.501Z" fill="#214185"/>
<path d="M231.596 365.053L230.522 378.102C230.446 378.961 230.919 379.358 231.596 378.982C231.961 378.728 232.267 378.398 232.494 378.014C232.72 377.63 232.86 377.202 232.906 376.759L233.98 363.721C234.055 362.851 233.582 362.464 232.906 362.83C232.543 363.086 232.238 363.417 232.012 363.801C231.786 364.184 231.644 364.611 231.596 365.053Z" fill="#214185"/>
<path d="M235.827 362.615L234.753 375.653C234.689 376.512 235.15 376.91 235.827 376.545C236.192 376.287 236.498 375.954 236.724 375.569C236.95 375.184 237.091 374.755 237.137 374.311L238.211 361.272C238.286 360.413 237.814 360.016 237.137 360.392C236.773 360.648 236.468 360.978 236.242 361.362C236.016 361.745 235.875 362.172 235.827 362.615Z" fill="#214185"/>
<path d="M123.833 157.813L119.537 149.887L122.931 140.092V134.089L112.545 140.092V146.085L117.002 153.818C117.073 153.94 117.183 154.034 117.313 154.086L123.833 157.813Z" fill="#3506B7"/>
<path opacity="0.2" d="M123.833 157.813L119.537 149.887L122.931 140.092V134.089L112.545 140.092V146.085L117.002 153.818C117.073 153.94 117.183 154.034 117.313 154.086L123.833 157.813Z" fill="black"/>
<path d="M150.683 97.7684C150.619 96.6923 150.304 95.6462 149.763 94.7137C149.222 93.7812 148.47 92.9883 147.568 92.3984L145.033 90.9377C144.069 90.4456 143.002 90.189 141.919 90.189C140.836 90.189 139.769 90.4456 138.804 90.9377L89.2499 119.517C88.3458 120.105 87.5929 120.897 87.0518 121.83C86.5107 122.763 86.1968 123.81 86.1353 124.887V155.26C86.1968 156.336 86.5107 157.383 87.0518 158.316C87.5929 159.249 88.3458 160.042 89.2499 160.63L91.7845 162.101C92.7505 162.588 93.8172 162.842 94.8991 162.842C95.9809 162.842 97.0477 162.588 98.0137 162.101L119.107 149.825L123.564 157.536C123.628 157.646 123.721 157.736 123.834 157.794C123.946 157.853 124.073 157.878 124.2 157.866C124.326 157.855 124.447 157.808 124.547 157.731C124.648 157.653 124.724 157.548 124.767 157.429L129.471 143.832L147.547 133.5C148.449 132.91 149.2 132.118 149.741 131.185C150.282 130.253 150.597 129.206 150.661 128.13L150.683 97.7684Z" fill="#3506B7"/>
<path opacity="0.2" d="M86.1353 155.279C86.1968 156.355 86.5107 157.402 87.0518 158.335C87.5929 159.268 88.3458 160.061 89.2499 160.649L91.7845 162.12C92.6628 162.558 93.6236 162.807 94.6043 162.85C95.585 162.892 96.5637 162.728 97.4767 162.367C96.016 162.925 94.8991 162.099 94.8991 160.316V129.964C94.9336 128.882 95.2482 127.828 95.812 126.904L87.0482 121.834C86.4857 122.763 86.1714 123.821 86.1353 124.906V155.279Z" fill="black"/>
<path opacity="0.4" d="M150.564 96.8853C150.199 95.5642 148.996 95.1454 147.557 95.9723L98.0566 124.573C97.152 125.152 96.4121 125.955 95.9086 126.904L87.1555 121.845C87.6585 120.899 88.3987 120.099 89.3035 119.525L138.836 90.9138C139.802 90.4266 140.869 90.1729 141.951 90.1729C143.033 90.1729 144.1 90.4266 145.066 90.9138L147.611 92.3852C148.38 92.8989 149.038 93.562 149.545 94.3351C150.052 95.1082 150.399 95.9754 150.564 96.8853Z" fill="white"/>
<path d="M107.551 133.058C106.34 133.845 105.332 134.907 104.61 136.157C103.888 137.408 103.471 138.811 103.395 140.253C103.395 142.906 105.253 143.98 107.551 142.649C108.762 141.862 109.77 140.8 110.492 139.549C111.214 138.298 111.631 136.895 111.707 135.453C111.707 132.8 109.871 131.726 107.551 133.058Z" fill="#FAFAFA"/>
<path d="M122.866 124.197C121.657 124.986 120.651 126.048 119.928 127.299C119.206 128.549 118.789 129.951 118.71 131.393C118.71 134.035 120.578 135.109 122.866 133.788C124.083 133.005 125.097 131.944 125.825 130.693C126.553 129.443 126.975 128.037 127.055 126.592C127.055 123.939 125.164 122.865 122.866 124.197Z" fill="#FAFAFA"/>
<path d="M138.192 115.326C136.983 116.115 135.977 117.177 135.254 118.427C134.532 119.678 134.115 121.08 134.036 122.522C134.036 125.174 135.894 126.248 138.192 124.927C139.401 124.139 140.408 123.076 141.13 121.826C141.852 120.576 142.269 119.173 142.348 117.732C142.348 115.079 140.49 114.005 138.192 115.326Z" fill="#FAFAFA"/>
<path d="M449.357 181.274L452.002 176.393L449.912 170.361V166.664L456.308 170.361V174.051L453.563 178.813C453.519 178.888 453.452 178.947 453.371 178.979L449.357 181.274Z" fill="#3506B7"/>
<path opacity="0.2" d="M449.357 181.274L452.002 176.393L449.912 170.361V166.664L456.308 170.361V174.051L453.563 178.813C453.519 178.888 453.452 178.947 453.371 178.979L449.357 181.274Z" fill="black"/>
<path d="M432.822 144.297C432.862 143.634 433.056 142.99 433.389 142.416C433.722 141.842 434.185 141.353 434.74 140.99L436.301 140.09C436.895 139.787 437.552 139.629 438.219 139.629C438.886 139.629 439.543 139.787 440.137 140.09L470.653 157.69C471.21 158.052 471.674 158.54 472.007 159.115C472.34 159.689 472.533 160.334 472.571 160.997V179.701C472.533 180.364 472.34 181.009 472.007 181.583C471.674 182.158 471.21 182.646 470.653 183.008L469.092 183.914C468.498 184.214 467.841 184.37 467.174 184.37C466.508 184.37 465.851 184.214 465.256 183.914L452.267 176.354L449.522 181.103C449.483 181.171 449.425 181.226 449.356 181.262C449.287 181.298 449.208 181.313 449.131 181.306C449.053 181.299 448.979 181.27 448.917 181.222C448.855 181.175 448.808 181.11 448.781 181.037L445.884 172.664L434.753 166.301C434.198 165.938 433.735 165.45 433.402 164.875C433.069 164.301 432.875 163.657 432.835 162.994L432.822 144.297Z" fill="#3506B7"/>
<path opacity="0.2" d="M472.571 179.713C472.533 180.376 472.34 181.021 472.007 181.595C471.674 182.17 471.21 182.658 470.653 183.02L469.092 183.926C468.552 184.196 467.96 184.349 467.356 184.375C466.752 184.401 466.149 184.3 465.587 184.078C466.487 184.422 467.174 183.913 467.174 182.815V164.124C467.153 163.458 466.959 162.808 466.612 162.239L472.009 159.117C472.355 159.689 472.549 160.341 472.571 161.009V179.713Z" fill="black"/>
<path opacity="0.4" d="M432.895 143.753C433.12 142.94 433.86 142.682 434.747 143.191L465.23 160.804C465.787 161.161 466.243 161.655 466.553 162.239L471.943 159.124C471.633 158.541 471.177 158.049 470.62 157.695L440.117 140.076C439.522 139.776 438.865 139.62 438.199 139.62C437.533 139.62 436.876 139.776 436.281 140.076L434.714 140.982C434.24 141.299 433.835 141.707 433.523 142.183C433.21 142.659 432.997 143.193 432.895 143.753Z" fill="white"/>
<path d="M459.383 166.029C460.129 166.514 460.75 167.168 461.194 167.938C461.639 168.708 461.896 169.572 461.943 170.46C461.943 172.094 460.799 172.755 459.383 171.935C458.638 171.45 458.017 170.796 457.572 170.026C457.127 169.256 456.871 168.392 456.824 167.504C456.824 165.87 457.955 165.209 459.383 166.029Z" fill="#FAFAFA"/>
<path d="M449.952 160.572C450.697 161.058 451.316 161.712 451.761 162.482C452.206 163.252 452.463 164.116 452.512 165.004C452.512 166.631 451.361 167.292 449.952 166.479C449.203 165.996 448.578 165.343 448.13 164.573C447.682 163.803 447.422 162.937 447.373 162.047C447.373 160.414 448.537 159.752 449.952 160.572Z" fill="#FAFAFA"/>
<path d="M440.514 155.109C441.259 155.595 441.879 156.249 442.323 157.019C442.768 157.789 443.025 158.653 443.074 159.541C443.074 161.174 441.93 161.836 440.514 161.022C439.77 160.536 439.15 159.882 438.705 159.112C438.261 158.342 438.003 157.479 437.955 156.591C437.955 154.957 439.099 154.296 440.514 155.109Z" fill="#FAFAFA"/>
<path d="M460.594 232.366C462.972 232.533 466.051 230.595 467.537 228.074L468.726 226.112C472.162 220.5 479.701 216.482 484.896 216.862L486.192 216.957L489.854 217.219L491.15 217.314C496.346 217.694 497.523 222.343 494.444 228.015C494.004 228.799 493.79 229.204 493.374 229.988C492.054 232.521 493.041 234.744 495.454 234.923C499.616 235.22 501.399 239.072 499.758 243.614C494.479 262.34 493.029 278.094 495.003 295.239C491.226 298.749 486.26 300.699 481.103 300.696H438.895C437.266 279.295 440.346 261.46 448.859 239.928C451.011 235.386 456.421 232.057 460.594 232.366Z" fill="#455A64"/>
<path opacity="0.1" d="M460.594 232.366C462.972 232.533 466.051 230.595 467.537 228.074L468.726 226.112C472.162 220.5 479.701 216.482 484.896 216.862L486.192 216.957L489.854 217.219L491.15 217.314C496.346 217.694 497.523 222.343 494.444 228.015C494.004 228.799 493.79 229.204 493.374 229.988C492.054 232.521 493.041 234.744 495.454 234.923C499.616 235.22 501.399 239.072 499.758 243.614C494.479 262.34 493.029 278.094 495.003 295.239C491.226 298.749 486.26 300.699 481.103 300.696H438.895C437.266 279.295 440.346 261.46 448.859 239.928C451.011 235.386 456.421 232.057 460.594 232.366Z" fill="black"/>
<path opacity="0.2" d="M460.594 232.366C462.972 232.533 466.051 230.595 467.538 228.074L468.726 226.112C472.163 220.5 479.701 216.482 484.896 216.862L486.192 216.957C491.4 217.326 492.518 221.975 489.355 227.658C488.915 228.443 488.701 228.847 488.273 229.632C486.918 232.152 487.881 234.387 490.294 234.566C494.456 234.863 496.168 238.703 494.503 243.245C488.558 263.363 487.144 280.103 489.747 298.83C487.066 300.063 484.15 300.704 481.199 300.708H438.99C437.362 279.307 440.441 261.472 448.954 239.94C451.011 235.386 456.421 232.057 460.594 232.366Z" fill="black"/>
<path d="M432.035 253.577C432.035 253.577 433.878 277.939 427.767 277.689C421.655 277.44 409.623 277.523 409.623 277.523L399.683 273.088C399.426 272.97 399.138 272.934 398.859 272.985C398.581 273.036 398.324 273.172 398.126 273.373L393.619 277.832C393.427 278.031 393.298 278.282 393.248 278.554C393.198 278.826 393.23 279.107 393.339 279.361C393.449 279.615 393.63 279.832 393.862 279.983C394.094 280.134 394.365 280.213 394.642 280.21L397.4 280.139C401.11 282.123 405.336 282.931 409.516 282.457C408.089 282.029 434.663 286.963 437.385 283.194C441.107 278.058 442.748 256.538 442.748 256.538L432.035 253.577Z" fill="#B16548"/>
<path opacity="0.1" d="M432.035 253.577C432.035 253.577 433.878 277.939 427.767 277.689C421.655 277.44 409.623 277.523 409.623 277.523L399.683 273.088C399.426 272.97 399.138 272.934 398.859 272.985C398.581 273.036 398.324 273.172 398.126 273.373L393.619 277.832C393.427 278.031 393.298 278.282 393.248 278.554C393.198 278.826 393.23 279.107 393.339 279.361C393.449 279.615 393.63 279.832 393.862 279.983C394.094 280.134 394.365 280.213 394.642 280.21L397.4 280.139C401.11 282.123 405.336 282.931 409.516 282.457C408.089 282.029 434.663 286.963 437.385 283.194C441.107 278.058 442.748 256.538 442.748 256.538L432.035 253.577Z" fill="black"/>
<path d="M437.789 238.406C433.652 238.287 428.979 243.661 431.036 257.941L442.426 260.105C442.426 260.105 446.124 238.703 437.789 238.406Z" fill="#263238"/>
<path d="M437.789 238.406C433.652 238.287 428.979 243.661 431.036 257.941L442.426 260.105C442.426 260.105 446.124 238.703 437.789 238.406Z" fill="#EAE9FD"/>
<path d="M479.843 238.703C486.074 246.729 485.051 288.949 484.599 300.399C483.422 300.606 482.228 300.713 481.032 300.72H444.84C441.749 260.14 428.611 248.132 433.426 240.475C438.111 233.127 472.615 229.334 479.843 238.703Z" fill="#EAE9FD"/>
<path d="M449.786 243.662C449.786 243.662 440.762 238.05 444.424 235.006C449.15 233.895 453.98 233.277 458.834 233.163C460.308 234.138 459.238 236.849 449.786 243.662Z" fill="#B16548"/>
<path d="M444.673 229.655L452.639 221C453.4 227.634 456.932 233.08 457.645 233.294L456.777 236.337C447.123 247.193 444.887 236.765 444.887 236.765C447.301 234.804 444.673 229.655 444.673 229.655Z" fill="#B16548"/>
<path opacity="0.2" d="M449.513 224.436L453.222 224.055C453.222 224.055 453.068 235.184 445.446 236.147C446.861 233.9 444.733 229.62 444.733 229.62L449.513 224.436Z" fill="#263238"/>
<path d="M451.617 211.488C453.341 219.347 454.756 223.853 452.033 229.049C451.167 230.751 449.851 232.183 448.229 233.191C446.607 234.198 444.739 234.742 442.83 234.764C440.92 234.786 439.041 234.285 437.396 233.316C435.751 232.346 434.403 230.945 433.497 229.263C429.93 222.867 427.671 211.084 434.258 205.603C435.658 204.377 437.357 203.542 439.183 203.182C441.009 202.822 442.897 202.95 444.658 203.553C446.418 204.156 447.989 205.212 449.21 206.616C450.432 208.02 451.262 209.721 451.617 211.548V211.488Z" fill="#B16548"/>
<path d="M451.463 215.876C451.463 215.876 443.829 215.947 446.017 211.56C446.017 211.56 435.423 213.593 437.231 209.598C437.231 209.598 430.097 215.234 431.916 209.907C431.916 209.907 427.029 214.068 426.875 211.393C426.72 208.718 429.395 207.018 429.395 207.018C429.395 207.018 423.451 202.179 432.082 202.191C432.082 202.191 430.037 194.914 439.906 200.728C439.906 200.728 438.586 193.19 445.946 200.728C445.946 200.728 455.909 200.8 453.555 204.093C453.555 204.093 459.833 206.138 455.933 208.338C455.933 208.338 460.689 212.654 457.229 214.425C457.229 214.425 461.747 220.632 455.148 219.859C455.148 219.859 457.526 225.601 454.602 224.424C451.677 223.247 451.463 215.876 451.463 215.876Z" fill="#263238"/>
<path d="M456.373 217.064C456.324 218.843 455.611 220.54 454.375 221.82C452.735 223.509 450.809 222.236 450.416 220.025C450.036 218.016 450.416 214.734 452.521 213.902C454.625 213.069 456.397 214.841 456.373 217.064Z" fill="#B16548"/>
<path opacity="0.3" d="M443.485 287.88C443.128 285.502 442.736 283.124 442.296 280.996L446.089 280.235L467.264 267.834L474.802 250.404L477.941 243.662L480.89 245.232C480.89 245.232 480.89 280.116 466.158 286.453C459.904 289.128 452.033 288.284 443.485 287.88Z" fill="black"/>
<path d="M467.668 252.293C467.668 252.293 463.352 273.825 449.834 276.251C436.315 278.676 434.377 278.629 434.377 278.629L423.474 275.062C423.155 274.959 422.812 274.956 422.491 275.053C422.17 275.151 421.886 275.345 421.679 275.609L418.921 279.176C418.738 279.41 418.623 279.69 418.588 279.985C418.553 280.279 418.599 280.578 418.721 280.849C418.844 281.119 419.038 281.351 419.282 281.52C419.527 281.688 419.813 281.786 420.11 281.803L424.77 282.113C426.047 283.13 427.52 283.874 429.098 284.298C430.675 284.721 432.322 284.815 433.937 284.574C433.937 284.574 455.755 286.952 463.352 282.588C470.95 278.225 476.978 260.331 476.978 260.331L467.668 252.293Z" fill="#B16548"/>
<path d="M477.311 266.264C477.311 266.264 484.944 241.819 477.751 237.931C470.557 234.043 465.861 251.188 464.018 257.68L477.311 266.264Z" fill="#EAE9FD"/>
<path d="M405.58 282.161L431.904 283.421V287.154H405.58H388.625V282.161H405.58Z" fill="#455A64"/>
<path opacity="0.3" d="M405.58 287.154H431.904V283.421L405.58 282.161V287.154Z" fill="white"/>
<path opacity="0.6" d="M388.625 282.161H405.58V287.154H388.625V282.161Z" fill="white"/>
<path d="M347.701 274.277H403.321L397.709 228.55H342.089L347.701 274.277Z" fill="#455A64"/>
<path opacity="0.3" d="M347.701 274.277H403.321L397.709 228.55H342.089L347.701 274.277Z" fill="white"/>
<path d="M394.499 228.55L400.123 274.277H347.701L342.089 228.55H394.499Z" fill="#455A64"/>
<path d="M394.499 228.55L400.123 274.277H347.701L342.089 228.55H394.499Z" fill="#455A64"/>
<path d="M365.809 287.023H377.64L378.829 268.154H369.245L365.809 287.023Z" fill="#455A64"/>
<path opacity="0.3" d="M365.809 287.023H377.64L378.829 268.154H369.245L365.809 287.023Z" fill="white"/>
<path d="M363.693 287.023H375.523L376.712 268.154H367.141L363.693 287.023Z" fill="#455A64"/>
<path d="M363.693 287.023H375.523L376.712 268.154H367.141L363.693 287.023Z" fill="#455A64"/>
<path d="M371.897 283.73H373.811H390.159V287.155H373.811H371.897H355.548V283.73H371.897Z" fill="#455A64"/>
<path opacity="0.3" d="M371.897 283.73H373.811H390.159V287.155H373.811H371.897H355.548V283.73H371.897Z" fill="white"/>
<path d="M355.548 283.73H373.811V287.155H355.548V283.73Z" fill="#455A64"/>
<path opacity="0.6" d="M355.548 283.73H373.811V287.155H355.548V283.73Z" fill="white"/>
<path d="M442.652 292.493V300.661H356.191C353.019 300.659 349.892 299.919 347.055 298.502C344.217 297.085 341.748 295.027 339.842 292.493H442.652Z" fill="#263238"/>
<path opacity="0.3" d="M442.652 292.493V300.661H356.191C353.019 300.659 349.892 299.919 347.055 298.502C344.217 297.085 341.748 295.027 339.842 292.493H442.652Z" fill="white"/>
<path d="M336.941 287.154H447.801V292.493H339.842C338.612 290.87 337.634 289.07 336.941 287.154Z" fill="#263238"/>
<path opacity="0.5" d="M336.941 287.154H447.801V292.493H339.842C338.612 290.87 337.634 289.07 336.941 287.154Z" fill="white"/>
<path d="M417.835 185.562L382.375 166.461C381.419 165.946 380.228 166.304 379.713 167.259L368.397 188.267C367.882 189.222 368.24 190.414 369.195 190.928L404.655 210.03C405.611 210.545 406.802 210.187 407.317 209.232L418.633 188.224C419.148 187.269 418.791 186.077 417.835 185.562Z" fill="#3506B7"/>
<path opacity="0.7" d="M417.835 185.562L382.375 166.461C381.419 165.946 380.228 166.304 379.713 167.259L368.397 188.267C367.882 189.222 368.24 190.414 369.195 190.928L404.655 210.03C405.611 210.545 406.802 210.187 407.317 209.232L418.633 188.224C419.148 187.269 418.791 186.077 417.835 185.562Z" fill="white"/>
<path opacity="0.2" d="M378.791 168.993L389.825 189.709C390.249 190.498 390.897 191.144 391.688 191.564C392.478 191.985 393.376 192.162 394.267 192.072L417.346 189.794L393.854 193.254C392.828 193.406 391.779 193.222 390.866 192.729C389.953 192.236 389.223 191.462 388.786 190.52L378.791 168.993Z" fill="black"/>
<path d="M351.868 165.163C352.252 157.247 358.118 141.287 365.251 136.403C372.384 131.52 367.686 138.283 367.686 138.283C367.686 138.283 374.448 131.705 378.008 131.904C381.567 132.103 378.008 136.175 378.008 136.175C378.008 136.175 385.34 131.662 388.714 131.904C392.089 132.146 388.714 136.047 388.714 136.047C388.714 136.047 394.723 131.776 397.157 133.784C399.592 135.791 365.991 157.987 362.247 167.014C358.502 176.041 351.483 173.15 351.868 165.163Z" fill="#3506B7"/>
<path opacity="0.4" d="M351.868 165.163C352.252 157.247 358.118 141.287 365.251 136.403C372.384 131.52 367.686 138.283 367.686 138.283C367.686 138.283 374.448 131.705 378.008 131.904C381.567 132.103 378.008 136.175 378.008 136.175C378.008 136.175 385.34 131.662 388.714 131.904C392.089 132.146 388.714 136.047 388.714 136.047C388.714 136.047 394.723 131.776 397.157 133.784C399.592 135.791 365.991 157.987 362.247 167.014C358.502 176.041 351.483 173.15 351.868 165.163Z" fill="white"/>
<path d="M380.741 163.967L385.226 166.815C385.297 166.859 385.351 166.925 385.379 167.003C385.408 167.082 385.409 167.167 385.382 167.247C385.356 167.326 385.304 167.393 385.234 167.439C385.165 167.485 385.081 167.506 384.998 167.498L380.286 167.128L380.685 170.744C380.696 170.83 380.68 170.916 380.638 170.992C380.596 171.067 380.531 171.126 380.453 171.162C380.374 171.197 380.287 171.206 380.203 171.187C380.119 171.168 380.043 171.123 379.987 171.058L377.268 168.011L380.741 163.967Z" fill="#3506B7"/>
<path opacity="0.3" d="M380.741 163.967L385.226 166.815C385.297 166.859 385.351 166.925 385.379 167.003C385.408 167.082 385.409 167.167 385.382 167.247C385.356 167.326 385.304 167.393 385.234 167.439C385.165 167.485 385.081 167.506 384.998 167.498L380.286 167.128L380.685 170.744C380.696 170.83 380.68 170.916 380.638 170.992C380.596 171.067 380.531 171.126 380.453 171.162C380.374 171.197 380.287 171.206 380.203 171.187C380.119 171.168 380.043 171.123 379.987 171.058L377.268 168.011L380.741 163.967Z" fill="white"/>
<path d="M317.74 146.142C317.74 146.142 323.948 141.871 333.33 144.633C333.33 144.633 336.021 157.034 343.41 161.163C347.468 163.426 357.392 163.227 365.251 160.693C374.576 157.675 379.132 157.675 380.827 161.163C382.521 164.651 380.642 168.281 373.509 169.976C366.376 171.67 360.695 184.057 347.781 184.213C334.868 184.37 328.005 171.399 331.266 160.009C328.179 154.187 323.484 149.373 317.74 146.142Z" fill="#3506B7"/>
<path opacity="0.5" d="M317.74 146.142C317.74 146.142 323.948 141.871 333.33 144.633C333.33 144.633 336.021 157.034 343.41 161.163C347.468 163.426 357.392 163.227 365.251 160.693C374.576 157.675 379.132 157.675 380.827 161.163C382.521 164.651 380.642 168.281 373.509 169.976C366.376 171.67 360.695 184.057 347.781 184.213C334.868 184.37 328.005 171.399 331.266 160.009C328.179 154.187 323.484 149.373 317.74 146.142Z" fill="white"/>
<path d="M377.268 163.511C377.268 163.638 377.23 163.762 377.16 163.867C377.089 163.973 376.989 164.055 376.872 164.103C376.755 164.152 376.626 164.164 376.502 164.14C376.378 164.115 376.264 164.054 376.174 163.964C376.084 163.875 376.023 163.761 375.999 163.636C375.974 163.512 375.987 163.383 376.035 163.266C376.084 163.149 376.166 163.049 376.271 162.979C376.376 162.908 376.5 162.871 376.627 162.871C376.797 162.871 376.96 162.938 377.08 163.058C377.2 163.178 377.268 163.341 377.268 163.511Z" fill="#263238"/>
<path d="M344.778 173.933C337.132 176.012 320.133 175.357 313.299 170.089C306.465 164.821 314.324 167.242 314.324 167.242C314.324 167.242 305.995 162.842 305.069 159.397C304.144 155.951 309.17 158.058 309.17 158.058C309.17 158.058 302.62 152.491 301.766 149.217C300.912 145.942 305.696 147.935 305.696 147.935C305.696 147.935 299.73 143.55 300.94 140.603C302.151 137.656 333.601 162.771 343.325 163.554C353.05 164.337 352.523 171.826 344.778 173.933Z" fill="#3506B7"/>
<path opacity="0.4" d="M344.778 173.933C337.132 176.012 320.133 175.357 313.299 170.089C306.465 164.821 314.324 167.242 314.324 167.242C314.324 167.242 305.995 162.842 305.069 159.397C304.144 155.951 309.17 158.058 309.17 158.058C309.17 158.058 302.62 152.491 301.766 149.217C300.912 145.942 305.696 147.935 305.696 147.935C305.696 147.935 299.73 143.55 300.94 140.603C302.151 137.656 333.601 162.771 343.325 163.554C353.05 164.337 352.523 171.826 344.778 173.933Z" fill="white"/>
<path d="M294.661 139.293C294.605 139.307 294.547 139.307 294.491 139.293C293.166 138.824 291.814 138.382 290.447 137.969C290.312 137.927 290.199 137.833 290.132 137.708C290.066 137.582 290.051 137.436 290.091 137.3C290.134 137.165 290.228 137.052 290.353 136.985C290.478 136.919 290.624 136.904 290.76 136.944C292.184 137.357 293.508 137.813 294.846 138.368C294.966 138.409 295.066 138.491 295.13 138.6C295.194 138.708 295.217 138.836 295.195 138.96C295.172 139.084 295.106 139.196 295.008 139.275C294.91 139.355 294.787 139.397 294.661 139.393V139.293Z" fill="#3506B7"/>
<path d="M208.61 254.859C208.469 254.859 208.333 254.804 208.232 254.705C208.131 254.607 208.073 254.473 208.069 254.332C208.069 254.191 208.124 254.055 208.222 253.954C208.321 253.853 208.455 253.795 208.596 253.791C211.428 253.751 214.252 253.475 217.038 252.965C217.178 252.94 217.322 252.971 217.439 253.051C217.556 253.131 217.637 253.253 217.665 253.392C217.679 253.462 217.68 253.533 217.666 253.603C217.652 253.672 217.624 253.738 217.584 253.796C217.545 253.855 217.493 253.905 217.434 253.943C217.374 253.981 217.308 254.007 217.238 254.019C214.39 254.54 211.504 254.821 208.61 254.859ZM200.067 254.403C197.194 254.097 194.342 253.621 191.525 252.979C191.385 252.949 191.264 252.864 191.186 252.744C191.109 252.624 191.082 252.478 191.112 252.339C191.146 252.202 191.232 252.084 191.351 252.009C191.471 251.935 191.615 251.91 191.753 251.94C194.525 252.565 197.329 253.04 200.153 253.364C200.279 253.385 200.395 253.45 200.478 253.548C200.561 253.645 200.606 253.769 200.606 253.898C200.606 254.026 200.561 254.15 200.478 254.248C200.395 254.346 200.279 254.411 200.153 254.432L200.067 254.403ZM225.367 251.556C225.265 251.556 225.165 251.527 225.079 251.471C224.993 251.416 224.925 251.336 224.883 251.243C224.853 251.178 224.835 251.108 224.833 251.037C224.83 250.966 224.841 250.895 224.866 250.829C224.892 250.762 224.93 250.702 224.98 250.65C225.029 250.599 225.088 250.558 225.154 250.531C227.74 249.416 230.14 247.913 232.273 246.074C232.382 245.991 232.518 245.952 232.654 245.966C232.791 245.98 232.917 246.045 233.007 246.148C233.098 246.251 233.146 246.384 233.141 246.521C233.137 246.658 233.081 246.789 232.984 246.886C230.766 248.789 228.276 250.349 225.595 251.513C225.517 251.557 225.429 251.581 225.339 251.584L225.367 251.556ZM183.381 250.588C183.325 250.601 183.266 250.601 183.21 250.588C180.505 249.691 177.786 248.637 175.152 247.484C175.035 247.417 174.947 247.309 174.906 247.182C174.864 247.054 174.872 246.915 174.927 246.792C174.982 246.67 175.08 246.572 175.204 246.518C175.327 246.464 175.466 246.458 175.593 246.501C178.184 247.64 180.861 248.68 183.552 249.577C183.685 249.625 183.794 249.724 183.855 249.852C183.916 249.979 183.925 250.126 183.879 250.26C183.839 250.359 183.77 250.443 183.681 250.501C183.592 250.56 183.487 250.59 183.381 250.588ZM167.72 243.668C167.636 243.693 167.547 243.693 167.463 243.668C164.915 242.244 162.438 240.707 160.131 239.098C160.074 239.058 160.026 239.007 159.988 238.948C159.951 238.889 159.926 238.823 159.914 238.754C159.902 238.686 159.904 238.615 159.919 238.547C159.934 238.479 159.963 238.415 160.003 238.358C160.043 238.301 160.094 238.252 160.153 238.215C160.212 238.177 160.278 238.152 160.347 238.14C160.415 238.128 160.486 238.13 160.554 238.145C160.622 238.161 160.686 238.189 160.743 238.229C163.021 239.81 165.456 241.333 167.99 242.743C168.052 242.777 168.105 242.823 168.149 242.878C168.192 242.933 168.224 242.996 168.243 243.064C168.261 243.131 168.266 243.202 168.257 243.272C168.248 243.341 168.225 243.408 168.19 243.469C168.129 243.561 168.043 243.633 167.942 243.677C167.84 243.72 167.728 243.732 167.62 243.711L167.72 243.668ZM238.11 240.408C238.026 240.433 237.937 240.433 237.854 240.408C237.792 240.374 237.738 240.328 237.695 240.273C237.652 240.217 237.62 240.154 237.601 240.087C237.583 240.019 237.578 239.948 237.587 239.879C237.596 239.809 237.619 239.742 237.654 239.682C238.096 238.913 238.509 238.116 238.879 237.29C239.671 235.546 240.291 233.729 240.73 231.865C240.767 231.727 240.855 231.609 240.977 231.535C241.099 231.461 241.245 231.436 241.385 231.467C241.522 231.503 241.639 231.593 241.711 231.715C241.783 231.838 241.804 231.984 241.769 232.122C241.304 234.047 240.661 235.925 239.847 237.731C239.463 238.585 239.035 239.425 238.58 240.223C238.519 240.314 238.432 240.384 238.33 240.425C238.229 240.466 238.117 240.475 238.01 240.45L238.11 240.408ZM153.682 233.83C153.556 233.828 153.435 233.783 153.34 233.702C151.172 231.787 149.14 229.722 147.26 227.523C147.162 227.422 147.107 227.286 147.107 227.146C147.107 227.005 147.162 226.869 147.26 226.768C147.359 226.671 147.492 226.616 147.631 226.616C147.769 226.616 147.902 226.671 148.001 226.768C149.847 228.921 151.84 230.943 153.966 232.819C154.065 232.92 154.12 233.056 154.12 233.196C154.12 233.337 154.065 233.473 153.966 233.574C153.931 233.651 153.878 233.718 153.811 233.77C153.744 233.822 153.665 233.858 153.582 233.873L153.682 233.83ZM242.21 223.949C242.14 223.949 242.07 223.935 242.005 223.908C241.941 223.88 241.882 223.84 241.833 223.79C241.784 223.739 241.745 223.68 241.72 223.614C241.694 223.549 241.682 223.479 241.684 223.408C241.663 220.577 241.401 217.752 240.901 214.965C240.875 214.826 240.906 214.682 240.986 214.565C241.066 214.448 241.189 214.366 241.328 214.339C241.469 214.318 241.613 214.352 241.729 214.434C241.846 214.516 241.926 214.64 241.954 214.78C242.466 217.628 242.733 220.515 242.751 223.408C242.751 223.552 242.694 223.689 242.593 223.791C242.491 223.892 242.354 223.949 242.21 223.949ZM239.363 207.064C239.248 207.062 239.136 207.024 239.044 206.955C238.951 206.886 238.884 206.789 238.85 206.679C238.124 204.188 237.227 201.539 236.131 198.578C236.104 198.512 236.09 198.441 236.091 198.369C236.093 198.298 236.108 198.227 236.138 198.162C236.167 198.097 236.209 198.038 236.262 197.989C236.315 197.941 236.377 197.904 236.444 197.88C236.576 197.834 236.722 197.84 236.849 197.899C236.977 197.957 237.076 198.063 237.128 198.194C238.238 201.183 239.135 203.889 239.875 206.366C239.916 206.502 239.901 206.648 239.834 206.773C239.768 206.898 239.655 206.992 239.519 207.035L239.363 207.064ZM233.469 190.904C233.37 190.905 233.273 190.877 233.189 190.824C233.106 190.771 233.04 190.695 232.999 190.605C232.088 188.327 230.849 185.707 229.553 182.931V182.789C229.516 182.664 229.525 182.531 229.578 182.413C229.631 182.295 229.724 182.199 229.841 182.144C229.958 182.089 230.092 182.078 230.216 182.112C230.341 182.147 230.449 182.225 230.521 182.333V182.475C231.831 185.323 233.056 187.9 233.967 190.135C234.024 190.269 234.027 190.421 233.973 190.557C233.92 190.692 233.815 190.802 233.682 190.861L233.469 190.904ZM226.35 175.243C226.245 175.246 226.142 175.218 226.053 175.162C225.964 175.106 225.894 175.025 225.851 174.929C224.57 171.954 223.545 169.32 222.733 166.885C222.688 166.751 222.696 166.604 222.758 166.477C222.819 166.349 222.928 166.25 223.061 166.202C223.197 166.157 223.345 166.167 223.473 166.231C223.601 166.296 223.699 166.408 223.744 166.544C224.542 168.95 225.552 171.555 226.834 174.502C226.862 174.567 226.877 174.636 226.877 174.706C226.878 174.776 226.865 174.846 226.838 174.911C226.812 174.976 226.773 175.035 226.723 175.085C226.673 175.134 226.614 175.174 226.549 175.2C226.502 175.25 226.443 175.289 226.378 175.314L226.35 175.243ZM221.139 158.927C221.011 158.925 220.889 158.878 220.792 158.795C220.696 158.711 220.632 158.597 220.612 158.471C220.368 156.945 220.244 155.403 220.242 153.858C220.23 152.478 220.354 151.099 220.612 149.743C220.653 149.617 220.739 149.51 220.854 149.443C220.969 149.376 221.104 149.354 221.234 149.38C221.364 149.407 221.48 149.48 221.56 149.586C221.639 149.693 221.677 149.825 221.666 149.957C221.419 151.242 221.3 152.549 221.31 153.858C221.315 155.35 221.434 156.84 221.666 158.314C221.683 158.453 221.647 158.593 221.565 158.707C221.483 158.82 221.361 158.899 221.224 158.927H221.139ZM224.855 142.753C224.731 142.756 224.61 142.716 224.513 142.639C224.415 142.538 224.36 142.402 224.36 142.262C224.36 142.121 224.415 141.985 224.513 141.884C226.425 139.651 228.75 137.809 231.361 136.46C231.486 136.393 231.632 136.378 231.768 136.418C231.904 136.458 232.018 136.55 232.088 136.673C232.149 136.801 232.16 136.947 232.118 137.082C232.075 137.216 231.983 137.33 231.86 137.399C229.373 138.685 227.159 140.44 225.339 142.568C225.292 142.646 225.225 142.711 225.145 142.756C225.065 142.801 224.975 142.825 224.883 142.824L224.855 142.753ZM282.26 135.776H282.147C279.413 135.207 276.58 134.723 273.718 134.353C273.649 134.344 273.582 134.321 273.521 134.286C273.46 134.252 273.407 134.205 273.365 134.149C273.322 134.094 273.291 134.03 273.274 133.962C273.256 133.894 273.252 133.824 273.262 133.755C273.271 133.685 273.294 133.618 273.329 133.558C273.363 133.497 273.41 133.444 273.466 133.401C273.521 133.359 273.585 133.328 273.653 133.31C273.721 133.293 273.791 133.289 273.86 133.299C276.708 133.669 279.555 134.153 282.403 134.723C282.531 134.752 282.643 134.827 282.72 134.933C282.797 135.039 282.832 135.17 282.82 135.3C282.808 135.431 282.749 135.552 282.654 135.643C282.559 135.733 282.434 135.785 282.303 135.791L282.26 135.776ZM239.548 134.566C239.479 134.574 239.409 134.567 239.342 134.548C239.275 134.528 239.213 134.496 239.159 134.452C239.105 134.408 239.06 134.355 239.026 134.294C238.993 134.233 238.972 134.165 238.964 134.096C238.957 134.027 238.963 133.957 238.983 133.89C239.002 133.824 239.035 133.761 239.078 133.707C239.122 133.653 239.176 133.608 239.237 133.574C239.298 133.541 239.365 133.52 239.434 133.513C242.246 132.882 245.102 132.468 247.977 132.274C248.118 132.266 248.256 132.314 248.363 132.407C248.469 132.5 248.535 132.631 248.546 132.772C248.552 132.843 248.543 132.913 248.521 132.98C248.499 133.047 248.464 133.109 248.418 133.163C248.371 133.216 248.314 133.259 248.251 133.29C248.187 133.32 248.118 133.338 248.048 133.342C245.22 133.525 242.412 133.929 239.648 134.552L239.548 134.566ZM265.175 133.57C262.698 133.399 259.751 133.214 256.633 133.157C256.492 133.153 256.358 133.094 256.26 132.993C256.161 132.892 256.106 132.757 256.106 132.616C256.106 132.545 256.12 132.476 256.148 132.411C256.175 132.346 256.215 132.287 256.265 132.238C256.316 132.189 256.376 132.15 256.441 132.125C256.507 132.099 256.577 132.087 256.647 132.089C259.794 132.16 262.769 132.331 265.19 132.502C265.26 132.505 265.329 132.523 265.393 132.554C265.456 132.585 265.513 132.628 265.559 132.681C265.606 132.734 265.641 132.796 265.663 132.863C265.685 132.93 265.694 133.001 265.688 133.071C265.698 133.2 265.662 133.328 265.587 133.432C265.511 133.537 265.401 133.611 265.275 133.641L265.175 133.57Z" fill="#3506B7"/>
<path d="M142.605 220.689C142.509 220.691 142.415 220.666 142.332 220.619C142.25 220.571 142.181 220.502 142.135 220.418C141.415 219.169 140.773 217.875 140.213 216.546C140.185 216.481 140.17 216.412 140.169 216.342C140.169 216.272 140.182 216.202 140.208 216.137C140.235 216.072 140.274 216.013 140.324 215.963C140.374 215.914 140.433 215.875 140.498 215.848C140.628 215.796 140.774 215.796 140.904 215.849C141.034 215.902 141.139 216.004 141.195 216.133C141.745 217.42 142.368 218.675 143.06 219.892C143.114 219.971 143.144 220.063 143.147 220.159C143.151 220.254 143.127 220.349 143.08 220.432C143.033 220.514 142.963 220.582 142.879 220.628C142.795 220.673 142.7 220.695 142.605 220.689Z" fill="#3506B7"/>
</svg>
