<svg width="242" height="51" viewBox="0 0 242 51" fill="none" xmlns="http://www.w3.org/2000/svg">
<path d="M92.3499 26.8251L87.1124 19.5141H83.613V26.8251H81.4949V8.02734H87.0336C90.5144 8.02734 93.351 10.7121 93.351 14.0239C93.3374 15.2025 92.9469 16.3456 92.237 17.2854C91.527 18.2251 90.535 18.9119 89.4067 19.2447L94.9686 26.8251H92.3499ZM87.0892 17.7073C89.3233 17.7073 91.1633 16.0026 91.1633 13.9914C91.1483 13.4704 91.031 12.9575 90.8181 12.4819C90.6052 12.0064 90.3009 11.5776 89.9225 11.22C89.5442 10.8624 89.0992 10.583 88.613 10.3978C88.1269 10.2126 87.6091 10.1253 87.0892 10.1408H83.5991V17.6933L87.0892 17.7073Z" fill="white"/>
<path d="M109.369 23.7362H99.1309L97.7399 26.825H95.4458L104.113 7.73926H104.345L113.026 26.825H110.709L109.369 23.7362ZM108.553 21.8782L104.262 12.2123L99.9559 21.8782H108.553Z" fill="white"/>
<path d="M126.175 26.8251L120.943 19.5141H117.439V26.8251H115.32V8.02734H120.859C124.335 8.02734 127.177 10.7121 127.177 14.0239C127.163 15.2025 126.773 16.3456 126.063 17.2854C125.353 18.2251 124.361 18.9119 123.232 19.2447L128.794 26.8251H126.175ZM120.919 17.7073C123.153 17.7073 124.989 16.0026 124.989 13.9914C124.959 12.94 124.513 11.9437 123.75 11.2216C122.987 10.4996 121.969 10.1108 120.919 10.1408H117.429V17.6933L120.919 17.7073Z" fill="white"/>
<path d="M133.086 10.1175V16.063H140.799V18.1857H133.086V24.6885H141.985V26.8019H130.949V8.02734H141.967V10.1175H133.086Z" fill="white"/>
<path d="M152.326 8.02734H154.444V26.8251H152.326V8.02734ZM154.722 17.3682L162.054 8.02734H164.543L157.248 17.2753L165.206 26.8251H162.601L154.722 17.3682Z" fill="white"/>
<path d="M179.616 23.7362H169.368L167.978 26.825H165.711L174.379 7.73926H174.61L183.287 26.825H180.97L179.616 23.7362ZM178.8 21.8782L174.518 12.2262L170.212 21.8922L178.8 21.8782Z" fill="white"/>
<path d="M196.418 26.8251L191.204 19.5141H187.681V26.8251H185.563V8.02734H191.102C194.582 8.02734 197.419 10.7121 197.419 14.0239C197.405 15.2025 197.015 16.3456 196.305 17.2854C195.595 18.2251 194.603 18.9119 193.475 19.2447L199.037 26.8251H196.418ZM191.157 17.7073C193.391 17.7073 195.231 16.0026 195.231 13.9914C195.216 13.4704 195.099 12.9575 194.886 12.4819C194.673 12.0064 194.369 11.5776 193.991 11.22C193.612 10.8624 193.167 10.583 192.681 10.3978C192.195 10.2126 191.677 10.1253 191.157 10.1408H187.667V17.6933L191.157 17.7073Z" fill="white"/>
<path d="M219.579 7.67896V26.8251H217.46V14.0703L210.411 26.5093H210.388L203.329 14.0471V26.8251H201.21V7.67896H201.451L210.401 22.6262L219.347 7.67896H219.579Z" fill="white"/>
<path d="M235.759 23.7362H225.502L224.112 26.825H221.822L230.489 7.73926H230.721L239.398 26.825H237.08L235.759 23.7362ZM234.943 21.8782L230.651 12.2123L226.35 21.8782H234.943Z" fill="white"/>
<path d="M86.3523 31.7766C87.8103 31.7359 89.2377 32.2002 90.3939 33.0911C90.4242 33.1149 90.4492 33.1447 90.4674 33.1787C90.4856 33.2126 90.4965 33.25 90.4996 33.2884C90.5026 33.3268 90.4977 33.3654 90.4851 33.4018C90.4725 33.4382 90.4525 33.4716 90.4264 33.4999L90.3429 33.6021C90.3206 33.6343 90.2915 33.6612 90.2575 33.6808C90.2236 33.7004 90.1857 33.7122 90.1467 33.7153C90.1077 33.7184 90.0684 33.7128 90.0318 33.6988C89.9952 33.6848 89.9622 33.6629 89.9351 33.6346C88.8985 32.8784 87.6483 32.4732 86.3662 32.478C83.3442 32.478 81.2214 34.8005 81.2214 37.8568C81.2214 40.9131 83.3257 43.4306 86.4172 43.4306C87.8152 43.4288 89.1683 42.9357 90.241 42.0372C90.2658 42.007 90.2969 41.9827 90.3322 41.966C90.3674 41.9494 90.4059 41.9407 90.4449 41.9407C90.4839 41.9407 90.5224 41.9494 90.5577 41.966C90.5929 41.9827 90.6241 42.007 90.6489 42.0372L90.7137 42.1254C90.7438 42.1498 90.768 42.1806 90.7846 42.2156C90.8012 42.2505 90.8098 42.2887 90.8098 42.3275C90.8098 42.3662 90.8012 42.4044 90.7846 42.4394C90.768 42.4743 90.7438 42.5051 90.7137 42.5295C89.5305 43.5719 88.0064 44.1422 86.4311 44.132C82.8668 44.132 80.4705 41.3451 80.4705 37.8846C80.4705 34.4242 82.8992 31.7766 86.3523 31.7766Z" fill="white"/>
<path d="M93.4066 32.2735C93.4014 32.2342 93.4052 32.1943 93.4178 32.1568C93.4303 32.1192 93.4512 32.085 93.4789 32.0568C93.5066 32.0286 93.5404 32.007 93.5777 31.9939C93.615 31.9807 93.6547 31.9763 93.694 31.9809H96.8875C97.6201 31.9245 98.3541 32.0473 99.0291 32.3385C99.5481 32.6068 99.9801 33.0191 100.273 33.5264C100.565 34.0337 100.706 34.6145 100.679 35.1998C100.679 36.9044 99.6911 38.1818 98.3011 38.4883V38.5209C98.4041 38.6524 98.4951 38.794 98.5701 38.9435L101.05 43.5605C101.151 43.7649 101.05 43.8996 100.846 43.8996H100.609C100.539 43.9054 100.468 43.8887 100.407 43.8521C100.346 43.8154 100.299 43.7605 100.271 43.6952L97.5501 38.623H94.1389V43.6116C94.1435 43.651 94.1391 43.6908 94.126 43.7282C94.1128 43.7655 94.0914 43.7994 94.0632 43.8272C94.035 43.8549 94.0009 43.8759 93.9634 43.8885C93.926 43.901 93.8861 43.9048 93.8469 43.8996H93.694C93.6552 43.9041 93.6159 43.8997 93.579 43.8868C93.5421 43.8739 93.5086 43.8528 93.481 43.8251C93.4533 43.7974 93.4322 43.7639 93.4193 43.7269C93.4065 43.6899 93.4022 43.6505 93.4066 43.6116V32.2735ZM97.3651 37.9402C98.9271 37.9402 99.9141 36.8162 99.9141 35.1998C99.9391 34.7179 99.8201 34.2396 99.5721 33.8258C99.3251 33.4121 98.9601 33.0819 98.5231 32.8773C97.9941 32.6731 97.4251 32.5921 96.8596 32.6404H94.1436V37.917L97.3651 37.9402Z" fill="white"/>
<path d="M104.09 32.2551C104.089 32.2177 104.096 32.1806 104.111 32.1461C104.125 32.1116 104.146 32.0804 104.173 32.0547C104.201 32.0289 104.233 32.009 104.268 31.9964C104.303 31.9837 104.34 31.9785 104.377 31.9811H104.581C104.654 31.9751 104.727 31.9938 104.789 32.0342C104.85 32.0746 104.896 32.1344 104.92 32.204L108.285 39.4872C108.558 40.0678 108.864 40.8342 108.864 40.8342H108.896C108.896 40.8342 109.202 40.0678 109.476 39.4872L112.836 32.218C112.861 32.1484 112.908 32.0889 112.97 32.0487C113.032 32.0084 113.106 31.9896 113.179 31.995H113.383C113.42 31.9931 113.457 31.9988 113.492 32.0117C113.527 32.0246 113.559 32.0445 113.585 32.0702C113.612 32.0958 113.634 32.1267 113.648 32.1609C113.663 32.195 113.67 32.2319 113.67 32.269L114.597 43.6072C114.597 43.8116 114.514 43.9137 114.31 43.9137H114.157C114.12 43.9163 114.082 43.9111 114.047 43.8985C114.011 43.8858 113.979 43.8661 113.952 43.8404C113.924 43.8146 113.902 43.7836 113.888 43.749C113.873 43.7145 113.865 43.6773 113.865 43.6397L113.151 34.8144C113.1 34.2338 113.1 33.2305 113.1 33.2305H113.068C113.068 33.2305 112.73 34.2338 112.456 34.8144L109.365 41.3869C109.34 41.4553 109.293 41.5135 109.232 41.5529C109.171 41.5923 109.099 41.6107 109.026 41.6052H108.753C108.68 41.6123 108.607 41.5946 108.546 41.555C108.484 41.5154 108.438 41.4562 108.414 41.3869L105.337 34.8144C105.082 34.2524 104.711 33.198 104.711 33.198H104.674C104.674 33.198 104.674 34.2338 104.623 34.8144L103.909 43.6397C103.91 43.6771 103.903 43.7142 103.889 43.7487C103.874 43.7832 103.853 43.8144 103.826 43.8401C103.799 43.8659 103.767 43.8858 103.732 43.8985C103.696 43.9111 103.659 43.9163 103.622 43.9137H103.469C103.265 43.9137 103.182 43.8116 103.182 43.6072L104.09 32.2551Z" fill="white"/>
<path d="M127.024 31.7766C128.483 31.7363 129.912 32.2005 131.07 33.0911C131.1 33.1149 131.125 33.1447 131.143 33.1786C131.162 33.2126 131.173 33.2499 131.176 33.2883C131.179 33.3267 131.174 33.3654 131.161 33.4018C131.149 33.4382 131.129 33.4716 131.102 33.4998L131.019 33.602C130.997 33.6343 130.968 33.6612 130.934 33.6808C130.9 33.7003 130.862 33.7121 130.823 33.7152C130.784 33.7183 130.744 33.7127 130.708 33.6987C130.671 33.6848 130.638 33.6629 130.611 33.6345C129.574 32.8803 128.324 32.4754 127.042 32.478C124.02 32.478 121.893 34.8004 121.893 37.8567C121.893 40.9131 124.002 43.4306 127.093 43.4306C128.491 43.4287 129.844 42.9356 130.917 42.0371C130.942 42.0069 130.973 41.9827 131.008 41.966C131.043 41.9493 131.082 41.9407 131.121 41.9407C131.16 41.9407 131.198 41.9493 131.234 41.966C131.269 41.9827 131.3 42.0069 131.325 42.0371L131.39 42.1254C131.42 42.1498 131.444 42.1805 131.461 42.2155C131.477 42.2505 131.486 42.2887 131.486 42.3274C131.486 42.3661 131.477 42.4044 131.461 42.4393C131.444 42.4743 131.42 42.5051 131.39 42.5295C130.207 43.5718 128.682 44.1421 127.107 44.1319C123.538 44.1319 121.142 41.345 121.142 37.8846C121.142 34.4242 123.575 31.7766 127.024 31.7766Z" fill="white"/>
<path d="M137.489 35.1813C138.069 35.1769 138.643 35.2881 139.179 35.5084C139.716 35.7286 140.203 36.0534 140.612 36.4641C141.022 36.8747 141.346 37.3628 141.566 37.9002C141.786 38.4375 141.897 39.0132 141.893 39.5939C141.893 40.1734 141.779 40.7472 141.557 41.2825C141.336 41.8179 141.012 42.3044 140.603 42.7141C140.194 43.1239 139.709 43.4489 139.174 43.6706C138.64 43.8924 138.068 44.0065 137.489 44.0065C136.911 44.0065 136.339 43.8924 135.804 43.6706C135.27 43.4489 134.785 43.1239 134.376 42.7141C133.967 42.3044 133.643 41.8179 133.421 41.2825C133.2 40.7472 133.086 40.1734 133.086 39.5939C133.082 39.0132 133.193 38.4375 133.413 37.9002C133.632 37.3628 133.956 36.8747 134.366 36.4641C134.776 36.0534 135.263 35.7286 135.799 35.5084C136.335 35.2881 136.91 35.1769 137.489 35.1813ZM137.489 43.4073C137.98 43.4001 138.464 43.2955 138.914 43.0994C139.364 42.9033 139.77 42.6196 140.11 42.2649C140.45 41.9103 140.716 41.4915 140.893 41.033C141.07 40.5745 141.155 40.0854 141.142 39.5939C141.142 38.6232 140.757 37.6922 140.072 37.0058C139.387 36.3194 138.458 35.9337 137.489 35.9337C136.521 35.9337 135.592 36.3194 134.907 37.0058C134.222 37.6922 133.837 38.6232 133.837 39.5939C133.824 40.0854 133.909 40.5745 134.086 41.033C134.263 41.4915 134.529 41.9103 134.869 42.2649C135.208 42.6196 135.615 42.9033 136.065 43.0994C136.515 43.2955 136.999 43.4001 137.489 43.4073Z" fill="white"/>
<path d="M144.117 35.6782C144.113 35.6386 144.117 35.5986 144.13 35.5611C144.144 35.5236 144.165 35.4895 144.193 35.4614C144.221 35.4333 144.255 35.4119 144.292 35.3988C144.33 35.3856 144.37 35.3811 144.409 35.3855H144.544C144.583 35.3818 144.622 35.3869 144.659 35.4004C144.696 35.4139 144.729 35.4354 144.757 35.4634C144.784 35.4914 144.805 35.5252 144.818 35.5624C144.831 35.5995 144.835 35.6391 144.831 35.6782V36.8858C144.831 37.1198 144.808 37.3532 144.762 37.5826H144.799C145.097 36.8721 145.598 36.2655 146.238 35.8384C146.879 35.4113 147.631 35.1827 148.4 35.1812C150.606 35.1812 151.204 36.4956 151.204 38.5022V43.6116C151.209 43.6509 151.204 43.6908 151.191 43.7281C151.178 43.7655 151.156 43.7993 151.128 43.8271C151.1 43.8549 151.066 43.8759 151.029 43.8884C150.991 43.901 150.951 43.9048 150.912 43.8996H150.778C150.739 43.904 150.7 43.8996 150.663 43.8867C150.626 43.8738 150.592 43.8528 150.565 43.8251C150.537 43.7974 150.516 43.7638 150.503 43.7269C150.49 43.6899 150.486 43.6505 150.49 43.6116V38.7577C150.49 37.276 150.3 35.8825 148.4 35.8825C147.917 35.8908 147.44 35.9957 146.998 36.1909C146.555 36.3861 146.156 36.6678 145.824 37.0195C145.492 37.3711 145.233 37.7857 145.062 38.2389C144.892 38.6921 144.813 39.1748 144.831 39.6588V43.6116C144.835 43.6505 144.831 43.6899 144.818 43.7269C144.805 43.7638 144.784 43.7974 144.757 43.8251C144.729 43.8528 144.696 43.8738 144.659 43.8867C144.622 43.8996 144.582 43.904 144.544 43.8996H144.391C144.352 43.9048 144.312 43.901 144.274 43.8884C144.237 43.8759 144.203 43.8549 144.174 43.8271C144.146 43.7993 144.125 43.7655 144.112 43.7281C144.099 43.6908 144.094 43.6509 144.099 43.6116L144.117 35.6782Z" fill="white"/>
<path d="M153.327 42.6735L153.429 42.5573C153.453 42.5264 153.484 42.5014 153.519 42.4842C153.555 42.4671 153.594 42.4581 153.633 42.4581C153.672 42.4581 153.711 42.4671 153.746 42.4842C153.781 42.5014 153.812 42.5264 153.837 42.5573C154.514 43.1203 155.367 43.4277 156.247 43.4259C157.285 43.4259 158.203 42.8825 158.203 41.8234C158.203 39.6636 153.531 40.2767 153.531 37.4991C153.531 35.9848 154.805 35.1766 156.247 35.1766C157.081 35.1451 157.9 35.4045 158.564 35.9105C158.597 35.9299 158.624 35.9561 158.645 35.9871C158.666 36.0182 158.68 36.0535 158.687 36.0906C158.693 36.1277 158.691 36.1657 158.681 36.202C158.671 36.2382 158.653 36.2719 158.629 36.3007L158.532 36.44C158.511 36.4738 158.482 36.5021 158.448 36.5228C158.414 36.5435 158.376 36.5559 158.336 36.559C158.297 36.5622 158.257 36.556 158.22 36.541C158.183 36.526 158.15 36.5025 158.124 36.4726C157.565 36.069 156.889 35.8602 156.201 35.878C155.232 35.878 154.282 36.3425 154.282 37.4248C154.282 39.6404 158.954 38.9761 158.954 41.8002C158.954 43.1612 157.8 44.1227 156.238 44.1227C155.183 44.1525 154.156 43.7808 153.364 43.0822C153.331 43.0608 153.303 43.0321 153.282 42.9983C153.262 42.9644 153.249 42.9263 153.246 42.8869C153.242 42.8475 153.248 42.8078 153.262 42.7708C153.276 42.7338 153.298 42.7005 153.327 42.6735Z" fill="white"/>
<path d="M161.026 35.6782C161.021 35.6391 161.026 35.5995 161.039 35.5624C161.051 35.5253 161.072 35.4914 161.1 35.4634C161.127 35.4354 161.161 35.4139 161.198 35.4004C161.234 35.3869 161.274 35.3819 161.313 35.3855H161.447C161.487 35.381 161.526 35.3854 161.564 35.3986C161.601 35.4117 161.635 35.4332 161.662 35.4615C161.69 35.4897 161.711 35.5239 161.724 35.5614C161.736 35.599 161.74 35.6389 161.735 35.6782V40.5274C161.735 42.0091 161.925 43.4072 163.825 43.4072C165.948 43.4072 167.31 41.5493 167.31 39.5427V35.6782C167.306 35.6391 167.311 35.5995 167.323 35.5624C167.336 35.5253 167.357 35.4914 167.385 35.4634C167.412 35.4354 167.446 35.4139 167.483 35.4004C167.519 35.3869 167.559 35.3819 167.598 35.3855H167.732C167.772 35.3811 167.812 35.3856 167.849 35.3988C167.886 35.4119 167.92 35.4333 167.949 35.4614C167.977 35.4895 167.998 35.5236 168.011 35.5611C168.024 35.5987 168.029 35.6387 168.024 35.6782V43.6116C168.029 43.6509 168.024 43.6908 168.011 43.7282C167.998 43.7655 167.977 43.7994 167.949 43.8271C167.92 43.8549 167.886 43.8759 167.849 43.8884C167.811 43.901 167.771 43.9048 167.732 43.8996H167.598C167.559 43.904 167.52 43.8997 167.483 43.8868C167.446 43.8739 167.412 43.8528 167.385 43.8251C167.357 43.7974 167.336 43.7638 167.323 43.7269C167.31 43.6899 167.306 43.6505 167.31 43.6116V42.3993C167.31 42.1655 167.332 41.9322 167.375 41.7026H167.343C167.056 42.4043 166.569 43.006 165.944 43.433C165.319 43.8599 164.582 44.0933 163.825 44.104C161.735 44.104 161.044 42.9474 161.044 40.7829L161.026 35.6782Z" fill="white"/>
<path d="M170.893 32.2736C170.889 32.2341 170.893 32.1941 170.906 32.1566C170.92 32.1191 170.941 32.085 170.969 32.0569C170.997 32.0288 171.031 32.0074 171.069 31.9942C171.106 31.9811 171.146 31.9766 171.185 31.981H171.32C171.359 31.9764 171.399 31.9809 171.436 31.994C171.473 32.0072 171.507 32.0287 171.535 32.0569C171.562 32.0851 171.583 32.1193 171.596 32.1569C171.608 32.1944 171.612 32.2344 171.607 32.2736V41.9443C171.607 43.1333 172.186 43.2355 172.594 43.2866C172.747 43.2866 172.868 43.3563 172.868 43.5607V43.6675C172.868 43.8533 172.798 43.9741 172.562 43.9741C172.066 43.9741 170.893 43.7836 170.893 42.1858V32.2736Z" fill="white"/>
<path d="M175.042 36.0869H174.207C174.168 36.0915 174.128 36.0871 174.091 36.0739C174.054 36.0608 174.02 36.0392 173.992 36.011C173.964 35.9828 173.944 35.9486 173.931 35.911C173.918 35.8735 173.915 35.8336 173.92 35.7943V35.7293C173.915 35.69 173.918 35.6501 173.931 35.6125C173.944 35.575 173.964 35.5408 173.992 35.5126C174.02 35.4843 174.054 35.4628 174.091 35.4497C174.128 35.4365 174.168 35.4321 174.207 35.4366H175.042V33.3093C175.037 33.2704 175.041 33.231 175.054 33.194C175.067 33.1571 175.088 33.1235 175.116 33.0958C175.144 33.0681 175.177 33.047 175.214 33.0341C175.251 33.0212 175.29 33.0169 175.329 33.0213H175.445C175.484 33.0161 175.524 33.0199 175.561 33.0325C175.599 33.045 175.633 33.066 175.661 33.0938C175.689 33.1215 175.711 33.1554 175.724 33.1927C175.737 33.2301 175.741 33.27 175.737 33.3093V35.4366H177.67C177.709 35.4322 177.749 35.4367 177.786 35.4499C177.824 35.463 177.858 35.4844 177.886 35.5125C177.914 35.5406 177.935 35.5747 177.948 35.6122C177.961 35.6498 177.966 35.6898 177.962 35.7293V35.7943C177.966 35.8338 177.961 35.8738 177.948 35.9113C177.935 35.9488 177.914 35.9829 177.886 36.011C177.858 36.0391 177.824 36.0606 177.786 36.0737C177.749 36.0868 177.709 36.0914 177.67 36.0869H175.737V40.769C175.737 43.0496 177.127 43.2679 177.809 43.3051C178.064 43.3051 178.147 43.4072 178.147 43.593V43.6674C178.153 43.7068 178.15 43.7471 178.138 43.7851C178.126 43.8231 178.105 43.8578 178.077 43.8862C178.049 43.9147 178.015 43.9361 177.977 43.949C177.939 43.9618 177.899 43.9655 177.86 43.96C175.853 43.96 175.023 42.6826 175.023 40.8108L175.042 36.0869Z" fill="white"/>
<path d="M184.386 38.7068H184.946V38.4188C184.946 36.5283 183.978 35.8827 182.629 35.8827C181.852 35.887 181.092 36.1107 180.437 36.5283C180.407 36.5541 180.371 36.5729 180.333 36.5835C180.295 36.5941 180.255 36.5961 180.216 36.5895C180.177 36.5828 180.14 36.5676 180.108 36.545C180.076 36.5224 180.049 36.4929 180.029 36.4586L179.959 36.3565C179.93 36.3289 179.908 36.2949 179.894 36.2571C179.881 36.2194 179.876 36.1789 179.881 36.1391C179.886 36.0993 179.901 36.0613 179.923 36.028C179.945 35.9948 179.975 35.9672 180.01 35.9477C180.798 35.4327 181.721 35.1658 182.661 35.1813C184.613 35.1813 185.669 36.2729 185.669 38.4002V43.6117C185.674 43.6511 185.67 43.6909 185.656 43.7283C185.643 43.7656 185.622 43.7995 185.594 43.8273C185.566 43.8551 185.531 43.876 185.494 43.8886C185.456 43.9011 185.417 43.9049 185.377 43.8997H185.243C185.204 43.9042 185.165 43.8998 185.128 43.8869C185.091 43.874 185.058 43.8529 185.03 43.8252C185.002 43.7975 184.981 43.764 184.968 43.727C184.956 43.69 184.951 43.6506 184.956 43.6117V42.7757C184.953 42.5187 184.975 42.2621 185.021 42.0093H184.988C184.758 42.6156 184.352 43.1391 183.823 43.5124C183.293 43.8858 182.664 44.0918 182.017 44.1041C180.627 44.1041 179.13 43.3377 179.13 41.6377C179.12 38.7439 182.861 38.7068 184.386 38.7068ZM182.04 43.4399C183.894 43.4399 184.946 41.5169 184.946 39.8308V39.3663H184.399C182.958 39.3663 179.867 39.3663 179.867 41.5819C179.867 42.4877 180.594 43.4399 182.04 43.4399Z" fill="white"/>
<path d="M188.395 35.6782C188.39 35.6391 188.395 35.5995 188.408 35.5624C188.421 35.5252 188.442 35.4914 188.469 35.4634C188.497 35.4354 188.53 35.4139 188.567 35.4004C188.604 35.3869 188.643 35.3818 188.682 35.3855H188.821C188.86 35.3818 188.9 35.3869 188.936 35.4004C188.973 35.4139 189.007 35.4354 189.034 35.4634C189.062 35.4914 189.083 35.5252 189.096 35.5624C189.108 35.5995 189.113 35.6391 189.109 35.6782V36.8858C189.109 37.1198 189.085 37.3532 189.039 37.5826H189.076C189.374 36.8717 189.875 36.2648 190.515 35.8376C191.156 35.4105 191.908 35.1821 192.677 35.1812C194.884 35.1812 195.458 36.4956 195.458 38.5022V43.6116C195.463 43.6505 195.458 43.6899 195.446 43.7269C195.433 43.7638 195.412 43.7974 195.384 43.8251C195.356 43.8528 195.323 43.8738 195.286 43.8867C195.249 43.8996 195.21 43.904 195.171 43.8996H195.037C194.997 43.9048 194.958 43.901 194.92 43.8884C194.883 43.8759 194.849 43.8549 194.82 43.8271C194.792 43.7993 194.771 43.7655 194.758 43.7281C194.744 43.6908 194.74 43.6509 194.745 43.6116V38.7577C194.745 37.276 194.559 35.8825 192.659 35.8825C192.176 35.8908 191.699 35.9957 191.257 36.1909C190.814 36.3861 190.415 36.6678 190.083 37.0195C189.751 37.3711 189.492 37.7857 189.321 38.2389C189.151 38.6921 189.072 39.1748 189.09 39.6588V43.6116C189.094 43.6505 189.09 43.6899 189.077 43.7269C189.064 43.7638 189.043 43.7974 189.016 43.8251C188.988 43.8528 188.955 43.8738 188.918 43.8867C188.881 43.8996 188.841 43.904 188.803 43.8996H188.664C188.625 43.904 188.585 43.8996 188.549 43.8867C188.512 43.8738 188.478 43.8528 188.451 43.8251C188.423 43.7974 188.402 43.7638 188.389 43.7269C188.376 43.6899 188.372 43.6505 188.376 43.6116L188.395 35.6782Z" fill="white"/>
<path d="M198.485 36.0869H197.655C197.616 36.0914 197.576 36.0868 197.539 36.0737C197.501 36.0606 197.467 36.0391 197.439 36.011C197.411 35.9829 197.39 35.9488 197.377 35.9113C197.363 35.8738 197.359 35.8338 197.363 35.7943V35.7293C197.359 35.6898 197.363 35.6498 197.377 35.6122C197.39 35.5747 197.411 35.5406 197.439 35.5125C197.467 35.4844 197.501 35.463 197.539 35.4499C197.576 35.4367 197.616 35.4322 197.655 35.4366H198.485V33.3093C198.48 33.27 198.485 33.2301 198.498 33.1927C198.511 33.1554 198.533 33.1215 198.561 33.0938C198.589 33.066 198.623 33.045 198.661 33.0325C198.698 33.0199 198.738 33.0161 198.777 33.0213H198.911C198.95 33.0169 198.99 33.0212 199.026 33.0341C199.063 33.047 199.097 33.0681 199.124 33.0958C199.152 33.1235 199.173 33.1571 199.186 33.194C199.199 33.231 199.203 33.2704 199.199 33.3093V35.4366H201.136C201.175 35.4321 201.215 35.4365 201.252 35.4497C201.29 35.4628 201.324 35.4843 201.351 35.5126C201.379 35.5408 201.4 35.575 201.412 35.6125C201.425 35.6501 201.429 35.69 201.424 35.7293V35.7943C201.429 35.8336 201.425 35.8735 201.412 35.911C201.4 35.9486 201.379 35.9828 201.351 36.011C201.324 36.0392 201.29 36.0608 201.252 36.0739C201.215 36.0871 201.175 36.0915 201.136 36.0869H199.199V40.769C199.199 43.0496 200.589 43.2679 201.271 43.3051C201.526 43.3051 201.614 43.4072 201.614 43.593V43.6674C201.62 43.7072 201.617 43.7481 201.604 43.7865C201.592 43.8249 201.571 43.8598 201.542 43.8884C201.514 43.9169 201.479 43.9383 201.44 43.9508C201.402 43.9632 201.361 43.9664 201.322 43.96C199.319 43.96 198.485 42.6826 198.485 40.8108V36.0869Z" fill="white"/>
<path d="M202.717 42.6735L202.819 42.5574C202.843 42.5265 202.874 42.5015 202.909 42.4843C202.945 42.4671 202.983 42.4582 203.023 42.4582C203.062 42.4582 203.101 42.4671 203.136 42.4843C203.171 42.5015 203.202 42.5265 203.227 42.5574C203.905 43.1211 204.76 43.4284 205.641 43.426C206.675 43.426 207.593 42.8825 207.593 41.8235C207.593 39.6636 202.921 40.2768 202.921 37.4991C202.921 35.9849 204.195 35.1767 205.641 35.1767C206.475 35.1448 207.295 35.4042 207.959 35.9106C207.991 35.9296 208.019 35.9554 208.041 35.9863C208.062 36.0172 208.077 36.0525 208.084 36.0896C208.09 36.1267 208.089 36.1648 208.079 36.2012C208.07 36.2377 208.052 36.2717 208.028 36.3008L207.926 36.4401C207.905 36.4739 207.877 36.5022 207.843 36.5229C207.809 36.5435 207.77 36.5559 207.731 36.5591C207.691 36.5622 207.651 36.5561 207.614 36.5411C207.577 36.526 207.545 36.5026 207.519 36.4726C206.961 36.0697 206.287 35.8609 205.6 35.8781C204.631 35.8781 203.676 36.3426 203.676 37.4248C203.676 39.6404 208.348 38.9762 208.348 41.8003C208.348 43.1612 207.194 44.1227 205.632 44.1227C204.577 44.1526 203.551 43.7808 202.758 43.0823C202.725 43.0613 202.697 43.0329 202.676 42.9992C202.655 42.9656 202.642 42.9276 202.638 42.8881C202.634 42.8487 202.639 42.8089 202.652 42.7717C202.666 42.7345 202.688 42.7009 202.717 42.6735Z" fill="white"/>
<path d="M56.6793 32.45C56.6005 33.5276 56.7628 34.7725 56.4893 35.9987C54.5334 34.4613 52.7536 32.817 50.895 31.1541L51.1452 32.3664C51.1452 32.4268 51.1962 32.4872 51.2055 32.5522C51.3306 33.4022 51.4372 34.2569 51.5856 35.1069C51.7339 35.9569 51.9378 36.9277 52.1186 37.8334C52.1186 37.8985 52.1788 37.9635 52.1696 38.0192C52.1278 38.3212 52.0722 38.6184 52.0212 38.9157C51.8062 38.7457 51.609 38.5543 51.4326 38.3444C50.8486 37.5083 50.2831 36.6536 49.7223 35.799C49.1615 34.9443 48.6748 34.164 48.1279 33.3604C47.4975 32.4315 46.8301 31.5396 46.1905 30.6246C45.3701 29.4402 44.559 28.2464 43.7386 27.0573C42.9182 25.8683 42.1118 24.7024 41.3006 23.5179C40.9259 22.927 40.5076 22.365 40.0492 21.8365C40.2253 22.5472 40.3968 23.2578 40.573 23.9639C40.6239 24.1636 40.6796 24.3633 40.7352 24.563C40.7908 24.7628 40.8881 25.074 40.9438 25.3341C40.995 25.5168 41.0076 25.7082 40.9808 25.8961C40.9426 25.9519 40.8914 25.9975 40.8316 26.0291C40.7719 26.0606 40.7054 26.0772 40.6379 26.0773C40.4069 26.0324 40.1815 25.9623 39.9658 25.8683C39.2288 25.5849 38.5011 25.283 37.7642 25.0043C37.3841 24.8603 36.9902 24.7488 36.6055 24.6141C36.2208 24.4794 35.7804 24.3169 35.3726 24.1496L35.2382 24.2565C35.3865 24.7581 35.5255 25.2598 35.7017 25.7568C35.8917 26.3281 36.0956 26.8948 36.3042 27.4614C36.5777 28.2139 36.865 28.9617 37.1385 29.7142C37.2683 30.0579 37.3795 30.4063 37.5 30.75L38.1535 32.608C38.3065 33.0725 38.1535 33.2908 37.69 33.2164C37.0319 33.1189 36.383 32.9424 35.7341 32.7891C35.0852 32.6358 34.3436 32.4361 33.6206 32.2503C33.3471 32.1806 33.0783 32.0831 32.6658 31.953C32.8326 32.2689 32.9531 32.4872 33.069 32.7101C33.4769 33.4951 33.8894 34.2755 34.2787 35.0697C34.6681 35.864 34.9879 36.6026 35.354 37.3643C35.5904 37.8288 35.8685 38.3258 36.1003 38.8182C36.1468 38.9684 36.1687 39.1253 36.1651 39.2826C36.0261 39.2826 35.8592 39.3663 35.7526 39.3152C35.2428 39.069 34.7422 38.8135 34.2556 38.5255C33.4676 38.061 32.6982 37.5966 31.9381 37.0903C31.0853 36.5607 30.2324 36.0266 29.375 35.5064C28.8651 35.1952 28.3368 34.9072 27.7667 34.5774C27.1919 35.1115 26.5987 35.6411 26.0286 36.1984C25.9292 36.3161 25.7899 36.3926 25.6374 36.4132C25.485 36.4338 25.3304 36.397 25.2035 36.3099C24.3183 35.799 23.4237 35.2973 22.557 34.7539C21.82 34.2894 21.1202 33.7645 20.4018 33.2722C19.7806 32.8236 19.1303 32.417 18.4551 32.0552C18.278 31.9853 18.0882 31.9536 17.8981 31.9624C17.7079 31.9713 17.5218 32.0203 17.352 32.1063C16.3409 32.6799 15.3714 33.324 14.4505 34.0339C12.9163 35.2602 11.4471 36.5747 9.95001 37.852C8.45291 39.1294 6.96047 40.4253 5.44948 41.6933C4.54567 42.4504 3.59551 43.175 2.66852 43.8996C2.53398 43.9726 2.38834 44.0228 2.23748 44.0483L2.15405 43.895C2.25599 43.7181 2.37062 43.5489 2.49703 43.3887C3.74383 42.0696 5.00453 40.7644 6.24669 39.4359C7.36371 38.2422 8.45291 37.0159 9.56991 35.8222C11.3683 33.9132 13.1527 32.0552 14.9279 30.1415C15.5861 29.4355 16.221 28.7109 16.8607 27.9863C17.1619 27.6379 17.3798 27.5218 17.8386 27.8795C18.7332 28.5994 19.7251 29.1986 20.6706 29.8536C21.783 30.6246 22.8938 31.3987 24.0031 32.176C24.0872 32.2533 24.1632 32.3389 24.2302 32.4315C24.3136 31.9948 24.4017 31.6093 24.4573 31.2191C24.4904 31.0385 24.5601 30.8665 24.6621 30.7139C24.7642 30.5613 24.8964 30.4313 25.0506 30.332C26.1166 29.4913 27.1687 28.6366 28.2301 27.7912C28.4881 27.5786 28.7573 27.3802 29.0366 27.1967C29.6994 26.7601 29.7272 25.9937 29.9914 25.3387C30.2 24.8278 30.3668 24.3029 30.5337 23.7781C30.7006 23.2532 30.7933 22.8491 30.9648 22.3846C31.0469 22.1724 31.1885 21.9885 31.3726 21.8551C32.1003 21.3906 32.8512 20.9261 33.5881 20.4616C34.1719 20.1188 34.7381 19.7467 35.2845 19.3468C35.5023 19.1265 35.6617 18.8551 35.748 18.5572C35.9149 18.1299 36.0354 17.6793 36.1744 17.2427C36.3552 16.6621 36.5267 16.0769 36.726 15.5009C36.8045 15.2586 36.9254 15.0321 37.0829 14.832C37.1484 14.7993 37.2214 14.7842 37.2945 14.7882C37.3676 14.7923 37.4385 14.8154 37.5 14.8553C38.5537 16.1651 39.5919 17.4874 40.6147 18.822C41.6807 20.2154 42.7328 21.6089 43.7896 23.0024C44.4339 23.8524 45.0874 24.6931 45.7177 25.5524C46.501 26.6161 47.2565 27.6983 48.0352 28.7759C48.105 28.9253 48.1608 29.0808 48.2021 29.2404C48.4477 28.4554 48.6656 27.7726 48.8788 27.1038C48.9762 26.803 49.1019 26.5122 49.2542 26.2352C49.282 26.1795 49.5694 26.1887 49.6482 26.2677C50.297 26.8576 50.9274 27.4661 51.5531 28.0746L53.9679 30.4434C54.1904 29.6027 54.4036 28.7574 54.6307 27.9213C54.8578 27.0852 55.0525 26.3931 55.2842 25.6314C55.3166 25.5671 55.3644 25.512 55.4234 25.471C55.4824 25.43 55.5507 25.4044 55.6221 25.3966C55.6934 25.3887 55.7656 25.3989 55.8321 25.4261C55.8985 25.4533 55.9572 25.4967 56.0026 25.5524C56.6654 26.5139 57.3051 27.494 57.9725 28.4508C58.6399 29.4076 59.2842 30.2669 59.9284 31.182C60.5727 32.097 61.1938 33.0399 61.838 33.9364C62.4823 34.8329 63.1358 35.7154 63.7801 36.6118C64.5031 37.6151 65.2169 38.6277 65.9399 39.6403C66.8669 40.9176 67.7939 42.1903 68.6838 43.477C69.101 44.0715 69.4949 44.68 69.8889 45.2885C69.9293 45.3811 69.9529 45.4802 69.9584 45.5811C69.8518 45.5811 69.7128 45.5811 69.6479 45.5114C68.9063 44.8054 68.1554 44.118 67.4463 43.3608C65.5923 41.4146 63.7708 39.422 61.8844 37.499C60.1787 35.7711 58.4035 34.1129 56.6793 32.45Z" fill="#F7F7F7"/>
<path d="M49.2958 24.0289C49.1058 24.3634 48.9482 24.6281 48.8323 24.9068C48.7164 25.1855 48.5496 25.5803 48.3688 25.8915C48.2653 26.0902 48.1036 26.2523 47.9053 26.356C47.8358 26.3885 47.6226 26.1795 47.516 26.0448C46.5195 24.8093 45.5276 23.5691 44.5543 22.3289C43.5809 21.0887 42.7003 19.9275 41.7733 18.7338C41.143 17.9163 40.4987 17.1081 39.8545 16.2952C39.048 15.2733 38.2369 14.2468 37.4165 13.2296C37.347 13.1413 37.1847 13.0066 37.1477 13.0299C37.0356 13.1057 36.9498 13.2144 36.902 13.3411C36.6332 14.0192 36.3783 14.7067 36.1187 15.3895C35.8592 16.0723 35.5393 16.834 35.2844 17.5679C35.0944 18.1253 34.5892 18.2832 34.1628 18.5433C33.3331 19.0496 32.4849 19.5141 31.6414 20.025C31.3849 20.1524 31.1371 20.2967 30.8998 20.457C30.6377 20.6322 30.4215 20.868 30.2694 21.1445C30.1032 21.6613 29.9654 22.187 29.8569 22.7191C29.6695 23.2257 29.5147 23.7439 29.3934 24.2705C29.2034 25.5524 28.0539 25.8358 27.2567 26.4814C26.2092 27.3547 25.0644 28.1164 23.9706 28.9386C23.4375 29.3427 23.2151 29.2823 22.9509 28.7017C22.0239 26.723 21.8802 24.6095 21.8987 22.4915C21.9159 21.3021 22.0952 20.1206 22.4318 18.98C23.4459 15.5394 25.6281 12.5623 28.6009 10.5634C29.8053 9.776 31.1081 9.1513 32.4757 8.7055C34.7931 7.9344 37.1106 8.0227 39.428 8.1946C40.4709 8.2689 41.4906 8.7241 42.5056 9.0446C43.8195 9.4769 45.0467 10.1389 46.1302 11.0001C47.5177 12.012 48.7072 13.2717 49.6388 14.716C50.207 15.6067 50.7089 16.5382 51.1405 17.5029C51.4671 18.4003 51.7258 19.321 51.9145 20.2573C52.3456 21.9573 52.2483 23.6806 52.1092 25.3992C52.095 25.5607 52.051 25.7182 51.9794 25.8637C51.8358 26.1516 51.6967 26.2956 51.3769 25.9658C50.7651 25.3388 50.0559 24.735 49.2958 24.0289Z" fill="white"/>
</svg>
