<svg width="263" height="55" viewBox="0 0 263 55" fill="none" xmlns="http://www.w3.org/2000/svg">
<path d="M78.7341 9.8147H78.2371V45.1891H78.7341V9.8147Z" fill="white"/>
<path d="M67.4879 34.5225C67.4884 35.9066 67.2148 37.2772 66.6828 38.556C66.1509 39.8348 65.3709 40.9967 64.3875 41.9753C63.4042 42.9538 62.2367 43.7298 60.9519 44.2589C59.667 44.7881 58.29 45.0599 56.8996 45.0589H37.6104C39.5987 44.1224 41.3442 42.7437 42.7122 41.029C44.0802 39.3144 45.0341 37.3097 45.5002 35.1699L51.1065 36.379L44.5135 26.1737L34.2653 32.7404L39.8716 33.9495C38.5597 39.9916 35.566 43.4405 32.8077 45.0515H21.1766C18.4845 45.0438 15.8966 44.015 13.9399 42.1745C11.9832 40.3339 10.8048 37.8202 10.6447 35.1451C10.4846 32.47 11.3549 29.8347 13.0783 27.776C14.8018 25.7173 17.2487 24.3899 19.9208 24.0642C20.4216 21.5761 21.4577 19.2255 22.9579 17.174C24.458 15.1224 26.3867 13.4185 28.6112 12.1795C30.8357 10.9404 33.3034 10.1955 35.8446 9.99604C38.3859 9.79656 40.9403 10.1472 43.3325 11.0239C40.3027 11.3196 37.4451 12.564 35.1705 14.5782C32.8959 16.5924 31.3215 19.2727 30.6736 22.2337L25.0412 21.0246L31.6565 31.2261L41.9085 24.6558L36.291 23.4392C37.8421 16.307 41.7291 12.7874 44.8125 11.6415C47.32 12.8315 49.5101 14.5935 51.205 16.7843C52.9 18.9752 54.0519 21.533 54.5674 24.2502C56.1172 23.8979 57.7269 23.8979 59.2767 24.2502C60.8266 24.6025 62.2767 25.2981 63.5193 26.2851C64.7619 27.2722 65.765 28.5254 66.454 29.9515C67.143 31.3776 67.5002 32.94 67.4991 34.5225H67.4879Z" fill="white"/>
<path d="M93.5533 42.4137C94.1823 43.0345 95.0296 43.3868 95.9154 43.3959C97.0142 43.3959 97.885 42.7151 97.885 41.6584C97.885 39.1583 93.3627 39.8503 93.3627 37.0934C93.3627 35.9252 94.4129 34.8202 96.0163 34.8202C96.8396 34.8044 97.6392 35.095 98.2588 35.635L97.9635 36.0889C97.4316 35.6155 96.7447 35.351 96.0312 35.3448C94.7156 35.3448 93.9345 36.2228 93.9345 37.0785C93.9345 39.4038 98.4569 38.6895 98.4569 41.6324C98.4569 42.9011 97.4702 43.9205 95.8892 43.9205C95.3881 43.9278 94.8907 43.8348 94.4265 43.6468C93.9623 43.4589 93.5408 43.18 93.187 42.8267L93.5533 42.4137Z" fill="white"/>
<path d="M104.317 39.932H104.732V39.7199C104.732 38.3247 104.014 37.8597 103.002 37.8597C102.349 37.858 101.714 38.0712 101.196 38.4661L100.912 38.0234C101.52 37.551 102.276 37.3061 103.046 37.3314C104.5 37.3314 105.289 38.135 105.289 39.705V43.7678H104.758V42.9381C104.756 42.7484 104.774 42.5589 104.811 42.3726H104.784C104.611 42.8193 104.309 43.2047 103.916 43.4803C103.523 43.7558 103.056 43.9089 102.576 43.9203C101.551 43.9203 100.426 43.3548 100.426 42.0973C100.4 39.958 103.192 39.932 104.317 39.932ZM102.572 43.4292C103.951 43.4292 104.732 42.008 104.732 40.7617V40.4231H104.328C103.256 40.4231 100.965 40.4231 100.965 42.0601C100.957 42.7261 101.499 43.4292 102.572 43.4292Z" fill="white"/>
<path d="M107.965 34.9727H108.496V42.343C108.496 43.2247 108.952 43.3252 109.243 43.3252C109.306 43.3299 109.368 43.3299 109.43 43.3252V43.8163C109.355 43.8325 109.279 43.8413 109.202 43.8423C108.828 43.8423 107.965 43.7047 107.965 42.5215V34.9727Z" fill="white"/>
<path d="M114.192 37.3313C115.911 37.3313 116.771 38.6744 116.771 40.1961C116.768 40.3105 116.759 40.4248 116.744 40.5384H111.68C111.68 42.3614 112.917 43.4031 114.382 43.4031C115.113 43.3981 115.814 43.1145 116.341 42.6107L116.632 43.0534C116.014 43.6009 115.218 43.9085 114.39 43.9203C113.955 43.9318 113.523 43.8545 113.12 43.6932C112.717 43.5318 112.352 43.2899 112.046 42.9824C111.741 42.6748 111.502 42.3081 111.344 41.9051C111.187 41.502 111.114 41.071 111.131 40.6388C111.123 38.5107 112.577 37.3313 114.192 37.3313ZM116.214 40.0473C116.15 38.5107 115.231 37.815 114.181 37.815C113.563 37.8108 112.967 38.0382 112.511 38.4518C112.054 38.8655 111.771 39.4351 111.718 40.0473H116.214Z" fill="white"/>
<path d="M118.979 42.6108C119.237 42.8651 119.543 43.066 119.879 43.2021C120.215 43.3381 120.575 43.4065 120.938 43.4032C121.708 43.4032 122.392 43.0014 122.392 42.2238C122.392 40.624 118.916 41.0779 118.916 39.0279C118.916 37.9118 119.865 37.3314 120.938 37.3314C121.279 37.3103 121.621 37.3596 121.943 37.4761C122.265 37.5926 122.558 37.7739 122.806 38.0085L122.493 38.4364C122.281 38.2359 122.031 38.0802 121.757 37.9785C121.484 37.8768 121.192 37.8314 120.9 37.8448C120.179 37.8448 119.473 38.1722 119.473 38.9907C119.473 40.624 122.948 40.1329 122.948 42.2238C122.948 43.2284 122.089 43.9204 120.927 43.9204C120.503 43.9354 120.081 43.8625 119.687 43.7062C119.293 43.5499 118.936 43.3137 118.639 43.0126L118.979 42.6108Z" fill="white"/>
<path d="M125.58 37.9975H124.784V37.5175H125.58V37.2311C125.58 35.155 126.944 34.902 127.576 34.902C127.685 34.9005 127.793 34.9092 127.901 34.9281V35.4192C127.806 35.4006 127.71 35.3919 127.613 35.3931C127.108 35.3931 126.118 35.594 126.118 37.2162V37.5175H127.848V37.9975H126.118V43.768H125.58V37.9975Z" fill="white"/>
<path d="M132.547 37.3314C132.977 37.3284 133.403 37.4106 133.802 37.5731C134.2 37.7357 134.561 37.9754 134.866 38.2783C135.17 38.5811 135.411 38.9412 135.574 39.3375C135.737 39.7338 135.82 40.1585 135.817 40.5868C135.817 41.4502 135.472 42.2782 134.859 42.8887C134.246 43.4993 133.414 43.8422 132.547 43.8422C131.679 43.8422 130.847 43.4993 130.234 42.8887C129.621 42.2782 129.276 41.4502 129.276 40.5868C129.273 40.1585 129.356 39.7338 129.519 39.3375C129.682 38.9412 129.923 38.5811 130.227 38.2783C130.532 37.9754 130.893 37.7357 131.291 37.5731C131.69 37.4106 132.116 37.3284 132.547 37.3314ZM132.547 43.4032C132.912 43.3994 133.273 43.3232 133.608 43.1789C133.943 43.0346 134.246 42.8252 134.499 42.563C134.752 42.3007 134.95 41.9909 135.081 41.6515C135.213 41.3122 135.275 40.9502 135.264 40.5868C135.264 39.8694 134.977 39.1815 134.468 38.6742C133.958 38.167 133.267 37.882 132.547 37.882C131.826 37.882 131.135 38.167 130.625 38.6742C130.116 39.1815 129.829 39.8694 129.829 40.5868C129.818 40.9502 129.88 41.3122 130.012 41.6515C130.143 41.9909 130.341 42.3007 130.594 42.563C130.847 42.8252 131.15 43.0346 131.485 43.1789C131.82 43.3232 132.181 43.3994 132.547 43.4032Z" fill="white"/>
<path d="M138.205 37.4802H138.736V38.6931C138.736 38.8668 138.718 39.0401 138.683 39.2102H138.71C139.027 38.2429 139.734 37.4504 140.732 37.4504C140.857 37.4511 140.982 37.4636 141.105 37.4876V38.016C141.009 38.0003 140.912 37.9916 140.814 37.9899C139.831 37.9899 139.21 38.8196 138.945 39.7497C138.814 40.1777 138.75 40.6231 138.754 41.0705V43.7864H138.224L138.205 37.4802Z" fill="white"/>
<path d="M145.762 37.3314C146.181 37.3171 146.598 37.3891 146.987 37.5427C147.376 37.6964 147.729 37.9284 148.024 38.2243L147.698 38.6521C147.186 38.1385 146.49 37.8482 145.762 37.8448C145.022 37.8448 144.312 38.1376 143.788 38.6588C143.265 39.18 142.97 39.8869 142.97 40.624C142.97 41.3611 143.265 42.068 143.788 42.5892C144.312 43.1104 145.022 43.4032 145.762 43.4032C146.159 43.4101 146.552 43.3331 146.916 43.1772C147.28 43.0213 147.607 42.7902 147.874 42.4991L148.151 42.9381C147.842 43.2574 147.471 43.5096 147.06 43.6787C146.649 43.8477 146.207 43.93 145.762 43.9203C145.328 43.9318 144.896 43.8546 144.493 43.6932C144.09 43.5319 143.724 43.29 143.419 42.9824C143.113 42.6749 142.874 42.3082 142.717 41.9051C142.559 41.502 142.487 41.0711 142.503 40.6389C142.488 40.2058 142.561 39.7741 142.719 39.3701C142.877 38.9662 143.115 38.5983 143.42 38.2889C143.725 37.9796 144.09 37.7351 144.492 37.5705C144.895 37.4059 145.327 37.3245 145.762 37.3314Z" fill="white"/>
<path d="M153.136 37.3313C154.852 37.3313 155.712 38.6744 155.712 40.1961C155.709 40.3105 155.7 40.4248 155.685 40.5384H150.621C150.621 42.3614 151.858 43.4031 153.323 43.4031C154.054 43.3981 154.755 43.1145 155.282 42.6107L155.573 43.0534C154.954 43.6009 154.158 43.9085 153.331 43.9203C152.896 43.9318 152.464 43.8545 152.061 43.6932C151.658 43.5318 151.293 43.2899 150.987 42.9824C150.682 42.6748 150.443 42.3081 150.285 41.9051C150.128 41.502 150.055 41.071 150.072 40.6388C150.064 38.5107 151.518 37.3313 153.136 37.3313ZM155.155 40.0473C155.095 38.5107 154.172 37.815 153.121 37.815C152.504 37.8108 151.908 38.0382 151.452 38.4518C150.995 38.8655 150.712 39.4351 150.658 40.0473H155.155Z" fill="white"/>
<path d="M166.296 34.8164C168.393 34.8164 169.454 35.9326 169.454 35.9326L169.125 36.3344C168.338 35.6827 167.343 35.3318 166.319 35.3447C164.143 35.3447 162.488 37.045 162.488 39.3182C162.488 41.5914 164.132 43.4107 166.356 43.4107C167.471 43.4156 168.544 42.9871 169.346 42.2165L169.686 42.5885C169.246 43.0189 168.725 43.3582 168.153 43.5868C167.581 43.8154 166.969 43.9288 166.352 43.9205C163.773 43.9205 161.916 41.8556 161.916 39.3033C161.916 36.7511 163.807 34.8164 166.296 34.8164Z" fill="white"/>
<path d="M174.963 37.3314C175.394 37.3284 175.82 37.4106 176.218 37.5732C176.617 37.7357 176.978 37.9754 177.283 38.2783C177.587 38.5812 177.828 38.9412 177.991 39.3375C178.154 39.7338 178.237 40.1585 178.234 40.5868C178.249 41.0239 178.175 41.4594 178.017 41.8675C177.859 42.2756 177.621 42.6479 177.315 42.9622C177.01 43.2766 176.644 43.5266 176.24 43.6974C175.836 43.8681 175.401 43.9561 174.962 43.9561C174.522 43.9561 174.088 43.8681 173.683 43.6974C173.279 43.5266 172.913 43.2766 172.608 42.9622C172.302 42.6479 172.064 42.2756 171.906 41.8675C171.748 41.4594 171.675 41.0239 171.689 40.5868C171.686 40.1582 171.769 39.7332 171.933 39.3367C172.096 38.9401 172.337 38.5799 172.642 38.2769C172.947 37.974 173.309 37.7344 173.707 37.5721C174.106 37.4098 174.533 37.3279 174.963 37.3314ZM174.963 43.4033C175.328 43.3995 175.689 43.3232 176.024 43.1789C176.359 43.0345 176.662 42.8251 176.915 42.5628C177.168 42.3005 177.365 41.9906 177.496 41.6513C177.627 41.312 177.688 40.9501 177.677 40.5868C177.69 40.2234 177.63 39.8611 177.5 39.5214C177.369 39.1817 177.172 38.8716 176.918 38.6098C176.665 38.3479 176.361 38.1396 176.025 37.9973C175.688 37.8551 175.327 37.7817 174.962 37.7817C174.596 37.7817 174.235 37.8551 173.898 37.9973C173.562 38.1396 173.258 38.3479 173.005 38.6098C172.751 38.8716 172.554 39.1817 172.423 39.5214C172.293 39.8611 172.233 40.2234 172.246 40.5868C172.235 40.9503 172.297 41.3122 172.429 41.6516C172.56 41.9909 172.758 42.3007 173.011 42.563C173.264 42.8252 173.567 43.0346 173.902 43.1789C174.237 43.3232 174.598 43.3995 174.963 43.4033Z" fill="white"/>
<path d="M180.622 37.4802H181.153V38.5964C181.153 38.7689 181.135 38.9409 181.1 39.1098H181.126C181.348 38.5852 181.72 38.1373 182.196 37.8223C182.672 37.5073 183.231 37.3391 183.802 37.3389C185.447 37.3389 185.888 38.3062 185.888 39.7907V43.7753H185.357V39.9693C185.357 38.8754 185.219 37.8449 183.802 37.8449C183.218 37.8575 182.655 38.06 182.197 38.4214C181.74 38.7828 181.413 39.2833 181.268 39.8465C181.194 40.1242 181.16 40.4111 181.168 40.6985V43.7679H180.637L180.622 37.4802Z" fill="white"/>
<path d="M188.452 42.6107C188.71 42.865 189.015 43.066 189.352 43.202C189.688 43.338 190.048 43.4064 190.41 43.4032C191.18 43.4032 191.861 43.0014 191.861 42.2238C191.861 40.624 188.388 41.0779 188.388 39.0279C188.388 37.9118 189.334 37.3314 190.41 37.3314C190.752 37.311 191.094 37.3606 191.415 37.477C191.737 37.5935 192.031 37.7744 192.279 38.0085L191.961 38.4364C191.751 38.2358 191.501 38.08 191.228 37.9783C190.955 37.8766 190.664 37.8312 190.373 37.8448C189.652 37.8448 188.945 38.1722 188.945 38.9907C188.945 40.624 192.417 40.1329 192.417 42.2238C192.417 43.2283 191.558 43.9204 190.395 43.9204C189.972 43.9356 189.551 43.8627 189.157 43.7064C188.764 43.55 188.408 43.3137 188.112 43.0126L188.452 42.6107Z" fill="white"/>
<path d="M194.723 37.4802H195.254V41.2974C195.254 42.3913 195.392 43.4218 196.805 43.4218C198.386 43.4218 199.395 42.0378 199.395 40.5682V37.4988H199.926V43.7864H199.395V42.6703C199.395 42.4966 199.413 42.3233 199.448 42.1532H199.421C199.208 42.6717 198.846 43.1165 198.381 43.432C197.916 43.7475 197.368 43.92 196.805 43.9278C195.254 43.9278 194.723 43.0721 194.723 41.476V37.4802Z" fill="white"/>
<path d="M202.699 34.9727H203.23V42.343C203.23 43.2247 203.686 43.3252 203.977 43.3252C204.041 43.3298 204.105 43.3298 204.168 43.3252V43.8163C204.093 43.8325 204.017 43.8413 203.94 43.8423C203.566 43.8423 202.703 43.7047 202.703 42.5215L202.699 34.9727Z" fill="white"/>
<path d="M206.5 37.9975H205.667V37.5175H206.5V35.7168H207.031V37.5026H208.687V37.9826H207.031V41.4389C207.031 43.0982 208.029 43.2992 208.526 43.2992C208.624 43.3005 208.721 43.2918 208.817 43.2731V43.7642C208.714 43.7825 208.609 43.7912 208.503 43.7903C207.846 43.7903 206.493 43.5521 206.493 41.4612L206.5 37.9975Z" fill="white"/>
<path d="M214.293 39.932H214.712V39.7199C214.712 38.3247 213.99 37.8597 212.981 37.8597C212.329 37.858 211.694 38.0712 211.176 38.4661L210.873 38.0383C211.481 37.5659 212.236 37.321 213.007 37.3463C214.457 37.3463 215.25 38.1499 215.25 39.7199V43.7827H214.719V42.953C214.717 42.7632 214.735 42.5738 214.771 42.3875H214.745C214.572 42.8344 214.269 43.2201 213.875 43.4956C213.481 43.7711 213.014 43.9241 212.533 43.9352C211.509 43.9352 210.387 43.3697 210.387 42.1122C210.38 39.958 213.172 39.932 214.293 39.932ZM212.551 43.4293C213.927 43.4293 214.712 42.008 214.712 40.7617V40.4231H214.308C213.235 40.4231 210.944 40.4231 210.944 42.0601C210.933 42.7261 211.479 43.4293 212.551 43.4293Z" fill="white"/>
<path d="M218.008 37.4802H218.539V38.5964C218.539 38.7689 218.521 38.9409 218.486 39.1098H218.513C218.735 38.5852 219.108 38.1375 219.585 37.8225C220.061 37.5076 220.62 37.3393 221.192 37.3389C222.833 37.3389 223.274 38.3062 223.274 39.7907V43.7753H222.755V39.9693C222.755 38.8754 222.616 37.8449 221.204 37.8449C220.615 37.8518 220.045 38.0517 219.583 38.4136C219.12 38.7754 218.79 39.279 218.643 39.8465C218.571 40.1246 218.537 40.4112 218.543 40.6985V43.7679H218.008V37.4802Z" fill="white"/>
<path d="M226.242 37.9975H225.408V37.5175H226.242V35.7168H226.772V37.5026H228.428V37.9826H226.772V41.4389C226.772 43.0982 227.77 43.2992 228.267 43.2992C228.364 43.3004 228.46 43.2917 228.555 43.2731V43.7642C228.452 43.7827 228.346 43.7915 228.241 43.7903C227.583 43.7903 226.23 43.5522 226.23 41.4612L226.242 37.9975Z" fill="white"/>
<path d="M230.435 42.6107C230.693 42.8645 230.999 43.0651 231.335 43.2011C231.671 43.3371 232.031 43.4057 232.394 43.4031C233.164 43.4031 233.847 43.0013 233.847 42.2237C233.847 40.6239 230.372 41.0778 230.372 39.0278C230.372 37.9117 231.321 37.3313 232.394 37.3313C232.735 37.3111 233.077 37.3608 233.398 37.4773C233.72 37.5937 234.014 37.7745 234.262 38.0084L233.945 38.4363C233.733 38.2358 233.483 38.0801 233.209 37.9784C232.936 37.8767 232.644 37.8313 232.352 37.8447C231.635 37.8447 230.925 38.1721 230.925 38.9906C230.925 40.6239 234.401 40.1328 234.401 42.2237C234.401 43.2283 233.541 43.9203 232.379 43.9203C231.955 43.9353 231.533 43.8624 231.139 43.7061C230.745 43.5498 230.388 43.3136 230.091 43.0125L230.435 42.6107Z" fill="white"/>
<path d="M104.388 30.9247L99.1072 23.5805H95.3697V30.9247H93.501V12.3855H98.9428C102.374 12.3855 105.169 15.0159 105.169 18.2453C105.152 19.3959 104.766 20.5111 104.068 21.428C103.369 22.345 102.395 23.0157 101.286 23.3423L101.092 23.3981L106.664 30.9247H104.388ZM95.351 22.0662H99.01C101.316 22.0662 103.26 20.2915 103.26 18.1895C103.26 15.9869 101.353 14.1937 99.01 14.1937H95.351V22.0662Z" fill="white"/>
<path d="M122.964 30.9246L121.581 27.8329H111.06L109.677 30.9246H107.677L116.273 12.0952H116.326L124.944 30.9246H122.964ZM111.751 26.2703H120.859L116.326 16.0985L111.751 26.2703Z" fill="white"/>
<path d="M138.5 30.9247L133.219 23.5805H129.482V30.9247H127.632V12.3855H133.055C136.489 12.3855 139.281 15.0159 139.281 18.2453C139.266 19.3947 138.882 20.5091 138.185 21.4259C137.489 22.3428 136.516 23.0142 135.409 23.3423L135.215 23.3981L140.784 30.9247H138.5ZM129.459 22.0662H133.122C135.424 22.0662 137.372 20.2915 137.372 18.1895C137.372 15.9869 135.465 14.1937 133.122 14.1937H129.459V22.0662Z" fill="white"/>
<path d="M143.4 30.9247V12.3855H154.224V14.1937H145.25V20.4329H153.028V22.2746H145.25V29.0979H154.224V30.9247H143.4Z" fill="white"/>
<path d="M175.217 30.9247L167.395 21.5788L174.672 12.3706H176.817L169.574 21.5081L177.475 30.9247H175.217ZM164.936 30.9247V12.3855H166.786V30.9247H164.936Z" fill="white"/>
<path d="M193.778 30.9246L192.395 27.8329H181.885L180.521 30.9246H178.525L187.121 12.0952H187.174L195.792 30.9246H193.778ZM182.592 26.2703H191.7L187.151 16.0985L182.592 26.2703Z" fill="white"/>
<path d="M209.326 30.9247L204.045 23.5805H200.307V30.9247H198.461V12.3855H203.88C207.311 12.3855 210.107 15.0159 210.107 18.2453C210.09 19.395 209.706 20.5095 209.008 21.4263C208.311 22.3431 207.338 23.0144 206.231 23.3423L206.037 23.3981L211.609 30.9247H209.326ZM200.289 22.0662H203.948C206.254 22.0662 208.197 20.2915 208.197 18.1895C208.197 15.9869 206.291 14.1937 203.951 14.1937H200.289V22.0662Z" fill="white"/>
<path d="M230.615 30.9248V17.7543L223.353 30.4858L216.076 17.732V30.9248H214.226V12.0359H214.248L223.353 27.1411L232.453 12.0359H232.465V30.9248H230.615Z" fill="white"/>
<path d="M250.412 30.9246L249.029 27.8329H238.508L237.122 30.9246H235.126L243.722 12.0952H243.771L252.393 30.9246H250.412ZM239.2 26.2703H248.308L243.774 16.0985L239.2 26.2703Z" fill="white"/>
</svg>
