<svg width="263" height="55" viewBox="0 0 263 55" fill="none" xmlns="http://www.w3.org/2000/svg">
<path d="M78.7341 9.81464H78.2371V45.189H78.7341V9.81464Z" fill="#3F87C7"/>
<path d="M67.4879 34.5224C67.4884 35.9065 67.2148 37.2772 66.6828 38.556C66.1509 39.8348 65.3709 40.9967 64.3875 41.9752C63.4042 42.9538 62.2367 43.7298 60.9519 44.2589C59.667 44.788 58.29 45.0598 56.8996 45.0589H37.6104C39.5987 44.1224 41.3442 42.7436 42.7122 41.029C44.0802 39.3143 45.0341 37.3097 45.5002 35.1698L51.1065 36.379L44.5135 26.1737L34.2653 32.7403L39.8716 33.9495C38.5597 39.9916 35.566 43.4404 32.8077 45.0514H21.1766C18.4845 45.0438 15.8966 44.0149 13.9399 42.1744C11.9832 40.3339 10.8048 37.8201 10.6447 35.145C10.4846 32.4699 11.3549 29.8347 13.0783 27.776C14.8018 25.7172 17.2487 24.3898 19.9208 24.0641C20.4216 21.5761 21.4577 19.2255 22.9579 17.1739C24.458 15.1224 26.3867 13.4185 28.6112 12.1794C30.8357 10.9403 33.3034 10.1955 35.8446 9.99598C38.3859 9.7965 40.9403 10.1471 43.3325 11.0238C40.3027 11.3195 37.4451 12.5639 35.1705 14.5781C32.8959 16.5923 31.3215 19.2726 30.6736 22.2337L25.0412 21.0245L31.6565 31.2261L41.9085 24.6557L36.291 23.4391C37.8421 16.3069 41.7291 12.7873 44.8125 11.6414C47.32 12.8315 49.5101 14.5935 51.205 16.7843C52.9 18.9751 54.0519 21.533 54.5674 24.2502C56.1172 23.8979 57.7269 23.8979 59.2767 24.2502C60.8266 24.6025 62.2767 25.298 63.5193 26.2851C64.7619 27.2721 65.765 28.5253 66.454 29.9514C67.143 31.3775 67.5002 32.9399 67.4991 34.5224H67.4879Z" fill="#3F87C7"/>
<path d="M93.5533 42.4136C94.1823 43.0344 95.0296 43.3867 95.9154 43.3958C97.0142 43.3958 97.885 42.7149 97.885 41.6583C97.885 39.1582 93.3627 39.8502 93.3627 37.0933C93.3627 35.9251 94.4129 34.8201 96.0163 34.8201C96.8396 34.8043 97.6392 35.0949 98.2588 35.6349L97.9635 36.0888C97.4316 35.6154 96.7447 35.3509 96.0312 35.3447C94.7156 35.3447 93.9345 36.2227 93.9345 37.0784C93.9345 39.4037 98.4569 38.6894 98.4569 41.6323C98.4569 42.901 97.4702 43.9204 95.8892 43.9204C95.3881 43.9277 94.8907 43.8346 94.4265 43.6467C93.9623 43.4588 93.5408 43.1799 93.187 42.8266L93.5533 42.4136Z" fill="#0C1724"/>
<path d="M104.317 39.932H104.732V39.7199C104.732 38.3247 104.014 37.8597 103.002 37.8597C102.349 37.858 101.714 38.0712 101.196 38.4661L100.912 38.0234C101.52 37.551 102.276 37.3061 103.046 37.3314C104.5 37.3314 105.289 38.135 105.289 39.705V43.7678H104.758V42.9381C104.756 42.7484 104.774 42.5589 104.811 42.3726H104.784C104.611 42.8193 104.309 43.2047 103.916 43.4803C103.523 43.7558 103.056 43.9089 102.576 43.9203C101.551 43.9203 100.426 43.3548 100.426 42.0973C100.4 39.958 103.192 39.932 104.317 39.932ZM102.572 43.4292C103.951 43.4292 104.732 42.008 104.732 40.7617V40.4231H104.328C103.256 40.4231 100.965 40.4231 100.965 42.0601C100.957 42.7261 101.499 43.4292 102.572 43.4292Z" fill="#0C1724"/>
<path d="M107.965 34.9726H108.496V42.3429C108.496 43.2246 108.952 43.3251 109.243 43.3251C109.306 43.3298 109.368 43.3298 109.43 43.3251V43.8162C109.355 43.8325 109.279 43.8412 109.202 43.8422C108.828 43.8422 107.965 43.7046 107.965 42.5215V34.9726Z" fill="#0C1724"/>
<path d="M114.192 37.3314C115.911 37.3314 116.771 38.6745 116.771 40.1962C116.768 40.3107 116.759 40.4249 116.744 40.5385H111.68C111.68 42.3615 112.917 43.4033 114.382 43.4033C115.113 43.3983 115.814 43.1146 116.341 42.6108L116.632 43.0535C116.014 43.601 115.218 43.9087 114.39 43.9204C113.955 43.9319 113.523 43.8546 113.12 43.6933C112.717 43.532 112.352 43.29 112.046 42.9825C111.741 42.6749 111.502 42.3083 111.344 41.9052C111.187 41.5021 111.114 41.0711 111.131 40.6389C111.123 38.5108 112.577 37.3314 114.192 37.3314ZM116.214 40.0474C116.15 38.5108 115.231 37.8151 114.181 37.8151C113.563 37.8109 112.967 38.0383 112.511 38.4519C112.054 38.8656 111.771 39.4352 111.718 40.0474H116.214Z" fill="#0C1724"/>
<path d="M118.979 42.6108C119.237 42.8651 119.543 43.066 119.879 43.2021C120.215 43.3381 120.575 43.4065 120.938 43.4032C121.708 43.4032 122.392 43.0014 122.392 42.2238C122.392 40.624 118.916 41.0779 118.916 39.0279C118.916 37.9118 119.865 37.3314 120.938 37.3314C121.279 37.3103 121.621 37.3596 121.943 37.4761C122.265 37.5926 122.558 37.7739 122.806 38.0085L122.493 38.4364C122.281 38.2359 122.031 38.0802 121.757 37.9785C121.484 37.8768 121.192 37.8314 120.9 37.8448C120.179 37.8448 119.473 38.1722 119.473 38.9907C119.473 40.624 122.948 40.1329 122.948 42.2238C122.948 43.2284 122.089 43.9204 120.927 43.9204C120.503 43.9354 120.081 43.8625 119.687 43.7062C119.293 43.5499 118.936 43.3137 118.639 43.0126L118.979 42.6108Z" fill="#0C1724"/>
<path d="M125.58 37.9974H124.784V37.5174H125.58V37.2309C125.58 35.1549 126.944 34.9019 127.576 34.9019C127.685 34.9004 127.793 34.9091 127.901 34.928V35.4191C127.806 35.4005 127.71 35.3917 127.613 35.393C127.108 35.393 126.118 35.5939 126.118 37.2161V37.5174H127.848V37.9974H126.118V43.7678H125.58V37.9974Z" fill="#0C1724"/>
<path d="M132.547 37.3314C132.977 37.3284 133.403 37.4106 133.802 37.5731C134.2 37.7357 134.561 37.9754 134.866 38.2783C135.17 38.5811 135.411 38.9412 135.574 39.3375C135.737 39.7338 135.82 40.1585 135.817 40.5868C135.817 41.4502 135.472 42.2782 134.859 42.8887C134.246 43.4993 133.414 43.8422 132.547 43.8422C131.679 43.8422 130.847 43.4993 130.234 42.8887C129.621 42.2782 129.276 41.4502 129.276 40.5868C129.273 40.1585 129.356 39.7338 129.519 39.3375C129.682 38.9412 129.923 38.5811 130.227 38.2783C130.532 37.9754 130.893 37.7357 131.291 37.5731C131.69 37.4106 132.116 37.3284 132.547 37.3314ZM132.547 43.4032C132.912 43.3994 133.273 43.3232 133.608 43.1789C133.943 43.0346 134.246 42.8252 134.499 42.563C134.752 42.3007 134.95 41.9909 135.081 41.6515C135.213 41.3122 135.275 40.9502 135.264 40.5868C135.264 39.8694 134.977 39.1815 134.468 38.6742C133.958 38.167 133.267 37.882 132.547 37.882C131.826 37.882 131.135 38.167 130.625 38.6742C130.116 39.1815 129.829 39.8694 129.829 40.5868C129.818 40.9502 129.88 41.3122 130.012 41.6515C130.143 41.9909 130.341 42.3007 130.594 42.563C130.847 42.8252 131.15 43.0346 131.485 43.1789C131.82 43.3232 132.181 43.3994 132.547 43.4032Z" fill="#0C1724"/>
<path d="M138.205 37.4802H138.736V38.6931C138.736 38.8668 138.718 39.0401 138.683 39.2102H138.71C139.027 38.2429 139.734 37.4504 140.732 37.4504C140.857 37.4511 140.982 37.4636 141.105 37.4876V38.016C141.009 38.0003 140.912 37.9916 140.814 37.9899C139.831 37.9899 139.21 38.8196 138.945 39.7497C138.814 40.1777 138.75 40.6231 138.754 41.0705V43.7864H138.224L138.205 37.4802Z" fill="#0C1724"/>
<path d="M145.762 37.3314C146.181 37.3172 146.598 37.3891 146.987 37.5428C147.376 37.6965 147.729 37.9285 148.024 38.2243L147.698 38.6522C147.186 38.1386 146.49 37.8482 145.762 37.8448C145.022 37.8448 144.312 38.1377 143.788 38.6589C143.265 39.1801 142.97 39.887 142.97 40.6241C142.97 41.3611 143.265 42.068 143.788 42.5892C144.312 43.1104 145.022 43.4033 145.762 43.4033C146.159 43.4102 146.552 43.3331 146.916 43.1773C147.28 43.0214 147.607 42.7903 147.874 42.4992L148.151 42.9382C147.842 43.2575 147.471 43.5097 147.06 43.6787C146.649 43.8478 146.207 43.9301 145.762 43.9204C145.328 43.9319 144.896 43.8546 144.493 43.6933C144.09 43.532 143.724 43.29 143.419 42.9825C143.113 42.6749 142.874 42.3083 142.717 41.9052C142.559 41.5021 142.487 41.0711 142.503 40.6389C142.488 40.2058 142.561 39.7742 142.719 39.3702C142.877 38.9662 143.115 38.5984 143.42 38.289C143.725 37.9796 144.09 37.7352 144.492 37.5706C144.895 37.406 145.327 37.3246 145.762 37.3314Z" fill="#0C1724"/>
<path d="M153.136 37.3314C154.852 37.3314 155.712 38.6745 155.712 40.1962C155.709 40.3107 155.7 40.4249 155.685 40.5385H150.621C150.621 42.3615 151.858 43.4033 153.323 43.4033C154.054 43.3983 154.755 43.1146 155.282 42.6108L155.573 43.0535C154.954 43.601 154.158 43.9087 153.331 43.9204C152.896 43.9319 152.464 43.8546 152.061 43.6933C151.658 43.532 151.293 43.29 150.987 42.9825C150.682 42.6749 150.443 42.3083 150.285 41.9052C150.128 41.5021 150.055 41.0711 150.072 40.6389C150.064 38.5108 151.518 37.3314 153.136 37.3314ZM155.155 40.0474C155.095 38.5108 154.172 37.8151 153.121 37.8151C152.504 37.8109 151.908 38.0383 151.452 38.4519C150.995 38.8656 150.712 39.4352 150.658 40.0474H155.155Z" fill="#0C1724"/>
<path d="M166.296 34.8163C168.393 34.8163 169.454 35.9325 169.454 35.9325L169.125 36.3343C168.338 35.6826 167.343 35.3317 166.319 35.3447C164.143 35.3447 162.488 37.0449 162.488 39.3181C162.488 41.5914 164.132 43.4107 166.356 43.4107C167.471 43.4155 168.544 42.987 169.346 42.2164L169.686 42.5885C169.246 43.0188 168.725 43.3581 168.153 43.5867C167.581 43.8153 166.969 43.9288 166.352 43.9204C163.773 43.9204 161.916 41.8555 161.916 39.3033C161.916 36.751 163.807 34.8163 166.296 34.8163Z" fill="#0C1724"/>
<path d="M174.963 37.3314C175.394 37.3284 175.82 37.4106 176.218 37.5732C176.617 37.7357 176.978 37.9754 177.283 38.2783C177.587 38.5812 177.828 38.9412 177.991 39.3375C178.154 39.7338 178.237 40.1585 178.234 40.5868C178.249 41.0239 178.175 41.4594 178.017 41.8675C177.859 42.2756 177.621 42.6479 177.315 42.9622C177.01 43.2766 176.644 43.5266 176.24 43.6974C175.836 43.8681 175.401 43.9561 174.962 43.9561C174.522 43.9561 174.088 43.8681 173.683 43.6974C173.279 43.5266 172.913 43.2766 172.608 42.9622C172.302 42.6479 172.064 42.2756 171.906 41.8675C171.748 41.4594 171.675 41.0239 171.689 40.5868C171.686 40.1582 171.769 39.7332 171.933 39.3367C172.096 38.9401 172.337 38.5799 172.642 38.2769C172.947 37.974 173.309 37.7344 173.707 37.5721C174.106 37.4098 174.533 37.3279 174.963 37.3314ZM174.963 43.4033C175.328 43.3995 175.689 43.3232 176.024 43.1789C176.359 43.0345 176.662 42.8251 176.915 42.5628C177.168 42.3005 177.365 41.9906 177.496 41.6513C177.627 41.312 177.688 40.9501 177.677 40.5868C177.69 40.2234 177.63 39.8611 177.5 39.5214C177.369 39.1817 177.172 38.8716 176.918 38.6098C176.665 38.3479 176.361 38.1396 176.025 37.9973C175.688 37.8551 175.327 37.7817 174.962 37.7817C174.596 37.7817 174.235 37.8551 173.898 37.9973C173.562 38.1396 173.258 38.3479 173.005 38.6098C172.751 38.8716 172.554 39.1817 172.423 39.5214C172.293 39.8611 172.233 40.2234 172.246 40.5868C172.235 40.9503 172.297 41.3122 172.429 41.6516C172.56 41.9909 172.758 42.3007 173.011 42.563C173.264 42.8252 173.567 43.0346 173.902 43.1789C174.237 43.3232 174.598 43.3995 174.963 43.4033Z" fill="#0C1724"/>
<path d="M180.622 37.4802H181.153V38.5963C181.153 38.7688 181.135 38.9408 181.1 39.1098H181.126C181.348 38.5852 181.72 38.1373 182.196 37.8223C182.672 37.5072 183.231 37.339 183.802 37.3388C185.447 37.3388 185.888 38.3061 185.888 39.7906V43.7753H185.357V39.9692C185.357 38.8754 185.219 37.8448 183.802 37.8448C183.218 37.8574 182.655 38.0599 182.197 38.4213C181.74 38.7827 181.413 39.2832 181.268 39.8464C181.194 40.1242 181.16 40.4111 181.168 40.6984V43.7678H180.637L180.622 37.4802Z" fill="#0C1724"/>
<path d="M188.452 42.6107C188.71 42.865 189.015 43.066 189.352 43.202C189.688 43.338 190.048 43.4064 190.41 43.4032C191.18 43.4032 191.861 43.0014 191.861 42.2238C191.861 40.624 188.388 41.0779 188.388 39.0279C188.388 37.9118 189.334 37.3314 190.41 37.3314C190.752 37.311 191.094 37.3606 191.415 37.477C191.737 37.5935 192.031 37.7744 192.279 38.0085L191.961 38.4364C191.751 38.2358 191.501 38.08 191.228 37.9783C190.955 37.8766 190.664 37.8312 190.373 37.8448C189.652 37.8448 188.945 38.1722 188.945 38.9907C188.945 40.624 192.417 40.1329 192.417 42.2238C192.417 43.2283 191.558 43.9204 190.395 43.9204C189.972 43.9356 189.551 43.8627 189.157 43.7064C188.764 43.55 188.408 43.3137 188.112 43.0126L188.452 42.6107Z" fill="#0C1724"/>
<path d="M194.723 37.4802H195.254V41.2974C195.254 42.3913 195.392 43.4218 196.805 43.4218C198.386 43.4218 199.395 42.0378 199.395 40.5682V37.4988H199.926V43.7864H199.395V42.6703C199.395 42.4966 199.413 42.3233 199.448 42.1532H199.421C199.208 42.6717 198.846 43.1165 198.381 43.432C197.916 43.7475 197.368 43.92 196.805 43.9278C195.254 43.9278 194.723 43.0721 194.723 41.476V37.4802Z" fill="#0C1724"/>
<path d="M202.699 34.9726H203.23V42.3429C203.23 43.2246 203.686 43.3251 203.977 43.3251C204.041 43.3297 204.105 43.3297 204.168 43.3251V43.8162C204.093 43.8325 204.017 43.8412 203.94 43.8422C203.566 43.8422 202.703 43.7046 202.703 42.5215L202.699 34.9726Z" fill="#0C1724"/>
<path d="M206.5 37.9973H205.667V37.5174H206.5V35.7167H207.031V37.5025H208.687V37.9825H207.031V41.4388C207.031 43.0981 208.029 43.299 208.526 43.299C208.624 43.3004 208.721 43.2917 208.817 43.273V43.7641C208.714 43.7823 208.609 43.7911 208.503 43.7901C207.846 43.7901 206.493 43.552 206.493 41.4611L206.5 37.9973Z" fill="#0C1724"/>
<path d="M214.293 39.932H214.712V39.7199C214.712 38.3247 213.99 37.8597 212.981 37.8597C212.329 37.858 211.694 38.0712 211.176 38.4661L210.873 38.0383C211.481 37.5659 212.236 37.321 213.007 37.3463C214.457 37.3463 215.25 38.1499 215.25 39.7199V43.7827H214.719V42.953C214.717 42.7632 214.735 42.5738 214.771 42.3875H214.745C214.572 42.8344 214.269 43.2201 213.875 43.4956C213.481 43.7711 213.014 43.9241 212.533 43.9352C211.509 43.9352 210.387 43.3697 210.387 42.1122C210.38 39.958 213.172 39.932 214.293 39.932ZM212.551 43.4293C213.927 43.4293 214.712 42.008 214.712 40.7617V40.4231H214.308C213.235 40.4231 210.944 40.4231 210.944 42.0601C210.933 42.7261 211.479 43.4293 212.551 43.4293Z" fill="#0C1724"/>
<path d="M218.008 37.4802H218.539V38.5963C218.539 38.7688 218.521 38.9408 218.486 39.1098H218.513C218.735 38.5852 219.108 38.1374 219.585 37.8225C220.061 37.5075 220.62 37.3393 221.192 37.3388C222.833 37.3388 223.274 38.3061 223.274 39.7906V43.7753H222.755V39.9692C222.755 38.8754 222.616 37.8448 221.204 37.8448C220.615 37.8518 220.045 38.0517 219.583 38.4135C219.12 38.7754 218.79 39.279 218.643 39.8464C218.571 40.1245 218.537 40.4112 218.543 40.6984V43.7678H218.008V37.4802Z" fill="#0C1724"/>
<path d="M226.242 37.9973H225.408V37.5174H226.242V35.7167H226.772V37.5025H228.428V37.9825H226.772V41.4388C226.772 43.0981 227.77 43.299 228.267 43.299C228.364 43.3003 228.46 43.2916 228.555 43.273V43.7641C228.452 43.7826 228.346 43.7913 228.241 43.7901C227.583 43.7901 226.23 43.552 226.23 41.4611L226.242 37.9973Z" fill="#0C1724"/>
<path d="M230.435 42.6108C230.693 42.8646 230.999 43.0652 231.335 43.2012C231.671 43.3372 232.031 43.4058 232.394 43.4032C233.164 43.4032 233.847 43.0014 233.847 42.2238C233.847 40.624 230.372 41.0779 230.372 39.0279C230.372 37.9118 231.321 37.3314 232.394 37.3314C232.735 37.3112 233.077 37.3609 233.398 37.4774C233.72 37.5938 234.014 37.7746 234.262 38.0085L233.945 38.4364C233.733 38.2359 233.483 38.0802 233.209 37.9785C232.936 37.8768 232.644 37.8314 232.352 37.8448C231.635 37.8448 230.925 38.1722 230.925 38.9907C230.925 40.624 234.401 40.1329 234.401 42.2238C234.401 43.2284 233.541 43.9204 232.379 43.9204C231.955 43.9354 231.533 43.8625 231.139 43.7062C230.745 43.5499 230.388 43.3137 230.091 43.0126L230.435 42.6108Z" fill="#0C1724"/>
<path d="M104.388 30.9247L99.1072 23.5805H95.3697V30.9247H93.501V12.3855H98.9428C102.374 12.3855 105.169 15.0159 105.169 18.2453C105.152 19.3959 104.766 20.5111 104.068 21.428C103.369 22.345 102.395 23.0157 101.286 23.3423L101.092 23.3981L106.664 30.9247H104.388ZM95.351 22.0662H99.01C101.316 22.0662 103.26 20.2915 103.26 18.1895C103.26 15.9869 101.353 14.1937 99.01 14.1937H95.351V22.0662Z" fill="#3F87C7"/>
<path d="M122.964 30.9247L121.581 27.833H111.06L109.677 30.9247H107.677L116.273 12.0953H116.326L124.944 30.9247H122.964ZM111.751 26.2704H120.859L116.326 16.0986L111.751 26.2704Z" fill="#3F87C7"/>
<path d="M138.5 30.9247L133.219 23.5805H129.482V30.9247H127.632V12.3855H133.055C136.489 12.3855 139.281 15.0159 139.281 18.2453C139.266 19.3947 138.882 20.5091 138.185 21.4259C137.489 22.3428 136.516 23.0142 135.409 23.3423L135.215 23.3981L140.784 30.9247H138.5ZM129.459 22.0662H133.122C135.424 22.0662 137.372 20.2915 137.372 18.1895C137.372 15.9869 135.465 14.1937 133.122 14.1937H129.459V22.0662Z" fill="#3F87C7"/>
<path d="M143.4 30.9247V12.3855H154.224V14.1937H145.25V20.4329H153.028V22.2746H145.25V29.0979H154.224V30.9247H143.4Z" fill="#3F87C7"/>
<path d="M175.217 30.9247L167.395 21.5788L174.672 12.3706H176.817L169.574 21.5081L177.475 30.9247H175.217ZM164.936 30.9247V12.3855H166.786V30.9247H164.936Z" fill="#224086"/>
<path d="M193.778 30.9247L192.395 27.833H181.885L180.521 30.9247H178.525L187.121 12.0953H187.174L195.792 30.9247H193.778ZM182.592 26.2704H191.7L187.151 16.0986L182.592 26.2704Z" fill="#224086"/>
<path d="M209.326 30.9247L204.045 23.5805H200.307V30.9247H198.461V12.3855H203.88C207.311 12.3855 210.107 15.0159 210.107 18.2453C210.09 19.395 209.706 20.5095 209.008 21.4263C208.311 22.3431 207.338 23.0144 206.231 23.3423L206.037 23.3981L211.609 30.9247H209.326ZM200.289 22.0662H203.948C206.254 22.0662 208.197 20.2915 208.197 18.1895C208.197 15.9869 206.291 14.1937 203.951 14.1937H200.289V22.0662Z" fill="#224086"/>
<path d="M230.615 30.9247V17.7542L223.353 30.4857L216.076 17.7318V30.9247H214.226V12.0358H214.248L223.353 27.141L232.453 12.0358H232.465V30.9247H230.615Z" fill="#224086"/>
<path d="M250.412 30.9247L249.029 27.833H238.508L237.122 30.9247H235.126L243.722 12.0953H243.771L252.393 30.9247H250.412ZM239.2 26.2704H248.308L243.774 16.0986L239.2 26.2704Z" fill="#224086"/>
</svg>
