<svg width="625" height="625" viewBox="0 0 625 625" fill="none" xmlns="http://www.w3.org/2000/svg">
<g clip-path="url(#clip0)">
<path d="M122.218 118.447C231.448 -109.251 254.944 239.079 366.584 292.635C478.225 346.19 660.742 313.95 595.716 449.503C530.689 585.056 328.123 581.912 216.483 528.356C104.842 474.8 57.1916 254 122.218 118.447Z" fill="#EBF6FF"/>
<path d="M318.654 372.54V383.573H336.843V370.801L318.654 372.54Z" fill="#FFE0BD" stroke="#263238" stroke-linecap="round" stroke-linejoin="round"/>
<path d="M313.684 361.83C313.684 361.83 309.379 358.98 310.833 363.978C312.287 368.977 313.684 370.925 315.86 370.687C318.036 370.45 319.215 369.737 318.493 367.836C317.77 365.936 313.684 361.83 313.684 361.83Z" fill="#FFE0BD" stroke="#263238" stroke-linecap="round" stroke-linejoin="round"/>
<path d="M342.468 361.83C342.468 361.83 346.773 358.98 345.319 363.978C343.865 368.977 342.468 370.925 340.292 370.687C338.116 370.45 336.947 369.737 337.66 367.836C338.373 365.936 342.468 361.83 342.468 361.83Z" fill="#FFE0BD" stroke="#263238" stroke-linecap="round" stroke-linejoin="round"/>
<path d="M323.026 338.852C323.026 338.852 315.841 341.238 313.447 347.947C311.052 354.656 313.209 362.781 314.397 366.135C315.585 369.49 321.344 375.952 321.344 375.952H334.267C337.335 372.901 339.847 369.337 341.689 365.423C344.321 359.436 344.322 351.054 344.322 351.054C344.322 351.054 346.469 351.776 346.469 348.897C346.469 346.018 339.817 340.525 339.817 340.525C339.817 340.525 342.934 339.328 340.767 337.674C338.601 336.021 330.951 336.724 330.951 336.724C330.951 336.724 329.963 331.678 323.026 338.852Z" fill="#263238" stroke="#263238" stroke-linecap="round" stroke-linejoin="round"/>
<path d="M351.344 613.857L353.311 615.083C354.564 615.091 355.776 615.523 356.751 616.308C357.977 617.544 357.521 623.645 357.521 623.645C357.521 623.645 356.571 624.367 351.867 624.367C347.163 624.367 336.89 625.507 335.94 623.787C334.99 622.067 336.111 614.835 336.111 614.835L351.344 613.857Z" fill="white" stroke="#263238" stroke-linecap="round" stroke-linejoin="round"/>
<path d="M297.52 459.273C297.52 459.273 296.028 470.087 296.028 472.321C296.028 474.554 295.534 493.702 295.534 493.702C295.534 493.702 295.781 544.067 295.781 545.018C295.781 545.968 291.6 559.766 293.082 569.107C294.564 578.449 297.501 614.322 297.501 614.322C297.501 614.322 296.551 622.191 297.254 622.922C297.957 623.654 307.089 624.642 309.056 623.664C311.023 622.685 309.788 613.096 309.788 613.096C310.471 610.776 310.886 608.384 311.023 605.969V598.101C311.023 595.649 312.249 573.773 313.475 565.173C314.701 556.573 315.442 545.018 315.442 545.018L320.602 491.934L324.537 491.687C324.537 491.687 329.45 548.705 329.697 552.886C329.944 557.067 328.974 565.449 331.189 575.018C333.403 584.588 334.629 610.654 334.629 610.654C334.629 610.654 334.134 613.115 334.629 614.094C335.123 615.073 336.349 618.028 336.349 618.028C338.065 618.186 339.792 618.186 341.509 618.028C344.269 617.893 346.966 617.161 349.415 615.881C350.298 615.168 350.929 614.191 351.217 613.093C351.504 611.995 351.432 610.834 351.012 609.78C349.539 606.178 348.883 605.494 348.883 605.494C348.883 605.494 351.097 574.534 351.097 566.912C351.097 559.291 349.871 549.959 349.871 549.218C349.871 548.477 351.344 493.151 351.344 487.535C351.344 481.918 350.85 466.628 348.389 459.976C345.928 453.324 306.576 455.063 302.68 455.31C301.531 455.408 300.434 455.833 299.519 456.535C298.604 457.238 297.91 458.188 297.52 459.273Z" fill="#263238" stroke="#263238" stroke-linecap="round" stroke-linejoin="round"/>
<path d="M312.021 491.583L333.156 490.604" stroke="#757575" stroke-linecap="round" stroke-linejoin="round"/>
<path d="M324.308 383.088H317.452L311.004 386.281C311.004 386.281 291.828 395.623 287.656 398.074C283.484 400.526 267.006 433.71 267.747 435.43C268.488 437.15 271.681 439.364 274.874 439.859C278.067 440.353 294.327 421.955 294.327 421.955C294.327 421.955 298.993 445.057 298.993 446.035C298.993 447.014 296.294 458.817 297.52 460.784C298.746 462.751 345.937 460.784 345.937 460.784C345.937 460.784 349.377 461.031 349.871 457.838C350.365 454.645 348.921 445.304 348.921 445.304L354.328 417.042C354.328 417.042 364.658 432.703 366.976 435.221C370.996 439.602 375.995 437.768 378.655 434.489C380.984 431.639 378.903 426.127 378.171 424.407C377.439 422.687 364.363 393.447 360.438 392.183C356.514 390.919 340.208 384.218 340.208 384.218L337.033 383.088H324.308Z" fill="#3F87C7" stroke="#263238" stroke-linecap="round" stroke-linejoin="round"/>
<path d="M289.328 408.955L294.327 421.917L285.727 413.317" stroke="#263238" stroke-linecap="round" stroke-linejoin="round"/>
<path d="M287.694 404.708L288.283 406.256" stroke="#263238" stroke-linecap="round" stroke-linejoin="round"/>
<path d="M359.944 402.987L354.29 417.004L363.384 407.169" stroke="#263238" stroke-linecap="round" stroke-linejoin="round"/>
<path d="M265.619 441.579C267.019 445.461 269.49 448.868 272.746 451.405C278.153 455.586 292.702 469.346 292.702 469.346C292.552 470.077 292.552 470.83 292.702 471.56C292.949 472.786 296.883 475.979 296.883 475.979V473.527L297.833 471.56L298.784 469.099C299.88 468.674 300.95 468.182 301.986 467.626C302.461 467.289 302.875 466.875 303.212 466.4C304.672 466.663 306.149 466.825 307.631 466.885C309.351 466.885 311.812 465.165 310.339 464.68C308.866 464.196 307.393 464.68 305.426 463.73C303.459 462.78 302.471 461.763 300.504 461.763H295.344L281.774 439.612L265.619 441.579Z" fill="#FFE0BD" stroke="#263238" stroke-linecap="round" stroke-linejoin="round"/>
<path d="M271.387 426.469C271.387 426.469 268.536 427.324 267.785 428.056C267.035 428.788 263.357 434.452 264.098 437.397C264.839 440.343 265.818 444.525 272.204 445.751C278.59 446.976 282.04 444.278 282.534 443.546C283.028 442.814 284.235 434.109 283.246 434.109C282.258 434.109 279.578 437.397 279.578 437.397C279.578 437.397 272.261 435.744 270.788 434.547C269.315 433.349 271.387 426.469 271.387 426.469Z" fill="#3F87C7" stroke="#263238" stroke-linecap="round" stroke-linejoin="round"/>
<path d="M384.139 441.579C382.738 445.461 380.267 448.868 377.011 451.405C371.604 455.586 357.055 469.346 357.055 469.346C357.205 470.077 357.205 470.83 357.055 471.56C356.808 472.786 351.401 476.568 351.401 476.568V472.986L351.021 470.724L350.917 469.099C349.82 468.674 348.75 468.182 347.714 467.626C347.239 467.289 346.825 466.875 346.488 466.4C345.028 466.663 343.552 466.825 342.069 466.885C340.349 466.885 337.888 465.165 339.361 464.68C340.834 464.196 342.307 464.68 344.274 463.73C346.241 462.78 347.229 461.763 349.197 461.763H354.357L367.87 439.65L384.139 441.579Z" fill="#FFE0BD" stroke="#263238" stroke-linecap="round" stroke-linejoin="round"/>
<path d="M379.349 427.657C379.349 427.657 381.193 427.305 381.925 428.037C382.656 428.769 386.353 434.433 385.612 437.378C384.87 440.324 383.892 444.506 377.506 445.731C371.12 446.957 367.67 444.259 367.176 443.527C366.682 442.795 366.292 434.423 366.938 435.164C367.851 436.101 368.935 436.852 370.131 437.378C370.131 437.378 377.734 436.989 378.941 432.684C379.272 431.03 379.409 429.343 379.349 427.657Z" fill="#3F87C7" stroke="#263238" stroke-linecap="round" stroke-linejoin="round"/>
<path d="M309.075 623.683C310.624 622.903 310.187 616.774 309.93 614.227C308.183 615.048 306.316 615.583 304.4 615.814C302.005 616.143 299.57 615.622 297.52 614.341C297.52 614.341 296.731 622.846 297.396 623.645C298.061 624.443 307.108 624.661 309.075 623.683Z" fill="white" stroke="#263238" stroke-linecap="round" stroke-linejoin="round"/>
<path d="M488.54 295.08C509.273 295.08 526.08 278.273 526.08 257.54C526.08 236.807 509.273 220 488.54 220C467.807 220 451 236.807 451 257.54C451 278.273 467.807 295.08 488.54 295.08Z" fill="white"/>
<g opacity="0.3" filter="url(#filter0_d)">
<path d="M488.54 295.08C509.273 295.08 526.08 278.273 526.08 257.54C526.08 236.807 509.273 220 488.54 220C467.807 220 451 236.807 451 257.54C451 278.273 467.807 295.08 488.54 295.08Z" fill="white"/>
</g>
<path d="M488.77 302.12C479.98 302.122 471.386 299.517 464.077 294.635C456.767 289.752 451.069 282.812 447.705 274.691C444.34 266.57 443.459 257.634 445.173 249.013C446.888 240.391 451.12 232.472 457.336 226.256C463.552 220.041 471.471 215.808 480.093 214.093C488.714 212.379 497.65 213.26 505.771 216.625C513.892 219.99 520.832 225.687 525.715 232.997C530.597 240.306 533.202 248.9 533.2 257.69C533.187 269.47 528.501 280.763 520.172 289.092C511.843 297.422 500.549 302.107 488.77 302.12ZM488.77 214.25C480.178 214.248 471.778 216.794 464.633 221.566C457.488 226.338 451.919 233.122 448.629 241.059C445.34 248.997 444.478 257.731 446.153 266.159C447.828 274.586 451.965 282.327 458.04 288.403C464.115 294.479 471.855 298.618 480.282 300.295C488.708 301.972 497.443 301.112 505.381 297.824C513.32 294.537 520.105 288.969 524.878 281.825C529.652 274.681 532.2 266.282 532.2 257.69C532.2 246.166 527.626 235.113 519.483 226.959C511.34 218.805 500.294 214.216 488.77 214.2V214.25Z" fill="white"/>
<path d="M162.551 150.322C182.082 143.368 192.277 121.896 185.323 102.365C178.368 82.8333 156.896 72.638 137.365 79.5928C117.833 86.5477 107.638 108.019 114.593 127.551C121.548 147.082 143.019 157.277 162.551 150.322Z" fill="white"/>
<g opacity="0.3" filter="url(#filter1_d)">
<path d="M162.551 150.322C182.082 143.368 192.277 121.896 185.323 102.365C178.368 82.8333 156.896 72.638 137.365 79.5928C117.833 86.5477 107.638 108.019 114.593 127.551C121.548 147.082 143.019 157.277 162.551 150.322Z" fill="white"/>
</g>
<path d="M149.955 157.778C141.484 157.778 133.203 155.266 126.16 150.56C119.117 145.853 113.627 139.164 110.385 131.338C107.144 123.512 106.295 114.9 107.948 106.592C109.601 98.2839 113.68 90.6523 119.67 84.6624C125.66 78.6725 133.291 74.5934 141.599 72.9408C149.908 71.2882 158.519 72.1364 166.345 75.3781C174.172 78.6198 180.861 84.1094 185.567 91.1527C190.273 98.1961 192.785 106.477 192.785 114.948C192.774 126.304 188.259 137.192 180.229 145.222C172.199 153.251 161.311 157.767 149.955 157.778ZM149.955 73.1178C141.682 73.1178 133.594 75.5711 126.716 80.1674C119.837 84.7638 114.475 91.2967 111.309 98.9402C108.143 106.584 107.315 114.994 108.929 123.108C110.543 131.223 114.527 138.676 120.377 144.526C126.227 150.376 133.68 154.36 141.794 155.974C149.909 157.588 158.319 156.76 165.963 153.594C173.606 150.428 180.139 145.066 184.735 138.187C189.332 131.308 191.785 123.221 191.785 114.948C191.772 103.858 187.36 93.2259 179.519 85.3842C171.677 77.5424 161.045 73.131 149.955 73.1178Z" fill="white"/>
<path d="M578.021 174.946C579.757 164.311 572.543 154.283 561.909 152.548C551.275 150.812 541.247 158.026 539.511 168.66C537.775 179.294 544.989 189.322 555.623 191.058C566.258 192.794 576.286 185.58 578.021 174.946Z" fill="white"/>
<g opacity="0.3" filter="url(#filter2_d)">
<path d="M578.021 174.946C579.757 164.311 572.543 154.283 561.909 152.548C551.275 150.812 541.247 158.026 539.511 168.66C537.775 179.294 544.989 189.322 555.623 191.058C566.258 192.794 576.286 185.58 578.021 174.946Z" fill="white"/>
</g>
<path d="M558.79 197.64C553.683 197.64 548.691 196.126 544.445 193.289C540.199 190.451 536.89 186.419 534.935 181.701C532.981 176.983 532.47 171.791 533.466 166.783C534.462 161.774 536.921 157.174 540.532 153.563C544.143 149.952 548.744 147.492 553.753 146.496C558.761 145.5 563.953 146.011 568.671 147.965C573.389 149.92 577.421 153.229 580.259 157.475C583.096 161.721 584.61 166.713 584.61 171.82C584.599 178.665 581.876 185.226 577.036 190.066C572.196 194.906 565.635 197.629 558.79 197.64ZM558.79 147C553.881 147 549.082 148.456 545.001 151.183C540.919 153.91 537.738 157.787 535.859 162.322C533.981 166.857 533.489 171.848 534.447 176.662C535.405 181.477 537.768 185.899 541.24 189.37C544.711 192.842 549.133 195.205 553.948 196.163C558.762 197.121 563.753 196.629 568.288 194.751C572.823 192.872 576.7 189.691 579.427 185.609C582.154 181.528 583.61 176.729 583.61 171.82C583.602 165.24 580.985 158.931 576.332 154.278C571.679 149.625 565.37 147.008 558.79 147Z" fill="white"/>
<circle cx="118.5" cy="42.5" r="17.5" fill="#99C33E"/>
<circle cx="412.5" cy="276.5" r="14.5" fill="#99C33E"/>
<circle cx="309.5" cy="17.5" r="8.5" fill="#EADC5F"/>
<circle cx="214.5" cy="310.5" r="16.5" fill="#EADC5F"/>
<circle cx="50.5" cy="182.5" r="8.5" fill="#EADC5F"/>
<circle cx="541.5" cy="295.5" r="8.5" fill="#EADC5F"/>
<circle cx="259.5" cy="56.5" r="7.5" fill="#99C33E"/>
<circle cx="588.5" cy="140.5" r="7.5" fill="#99C33E"/>
<circle cx="504.5" cy="19.5" r="17.5" fill="#EADC5F"/>
<path d="M288.387 299.387C296.006 291.768 296.006 279.415 288.387 271.796C280.768 264.177 268.415 264.177 260.796 271.796C253.177 279.415 253.177 291.768 260.796 299.387C268.415 307.006 280.768 307.006 288.387 299.387Z" fill="white"/>
<g opacity="0.3" filter="url(#filter3_d)">
<path d="M288.387 299.387C296.006 291.768 296.006 279.415 288.387 271.796C280.768 264.177 268.415 264.177 260.796 271.796C253.177 279.415 253.177 291.768 260.796 299.387C268.415 307.006 280.768 307.006 288.387 299.387Z" fill="white"/>
</g>
<path d="M274.599 310.58C269.636 310.58 264.785 309.108 260.659 306.351C256.533 303.595 253.318 299.676 251.419 295.091C249.52 290.507 249.023 285.462 249.991 280.595C250.959 275.728 253.348 271.258 256.857 267.749C260.366 264.24 264.837 261.85 269.704 260.882C274.571 259.914 279.616 260.411 284.2 262.31C288.785 264.209 292.703 267.425 295.46 271.551C298.217 275.677 299.689 280.528 299.689 285.49C299.683 292.143 297.038 298.521 292.334 303.225C287.63 307.93 281.251 310.575 274.599 310.58ZM274.599 261.4C269.834 261.4 265.177 262.813 261.215 265.46C257.253 268.107 254.166 271.869 252.342 276.271C250.519 280.673 250.042 285.517 250.972 290.19C251.901 294.863 254.195 299.155 257.564 302.524C260.934 305.893 265.226 308.188 269.899 309.117C274.572 310.047 279.416 309.569 283.818 307.746C288.219 305.923 291.982 302.835 294.629 298.874C297.276 294.912 298.689 290.254 298.689 285.49C298.681 279.103 296.14 272.981 291.624 268.464C287.108 263.948 280.985 261.408 274.599 261.4Z" fill="white"/>
<path d="M303.6 91.1101C314.375 91.1101 323.11 82.3752 323.11 71.6001C323.11 60.825 314.375 52.0901 303.6 52.0901C292.825 52.0901 284.09 60.825 284.09 71.6001C284.09 82.3752 292.825 91.1101 303.6 91.1101Z" fill="white"/>
<g opacity="0.3" filter="url(#filter4_d)">
<path d="M303.6 91.1101C314.375 91.1101 323.11 82.3752 323.11 71.6001C323.11 60.825 314.375 52.0901 303.6 52.0901C292.825 52.0901 284.09 60.825 284.09 71.6001C284.09 82.3752 292.825 91.1101 303.6 91.1101Z" fill="white"/>
</g>
<path d="M303.6 97.2C298.537 97.2 293.587 95.6986 289.377 92.8856C285.168 90.0727 281.886 86.0745 279.949 81.3967C278.011 76.7189 277.504 71.5716 278.492 66.6057C279.48 61.6398 281.918 57.0783 285.498 53.4981C289.078 49.9179 293.64 47.4797 298.606 46.4919C303.572 45.5041 308.719 46.0111 313.397 47.9487C318.074 49.8863 322.073 53.1675 324.886 57.3774C327.699 61.5873 329.2 66.5368 329.2 71.6C329.192 78.3871 326.492 84.894 321.693 89.6932C316.894 94.4924 310.387 97.1921 303.6 97.2ZM303.6 47C298.735 47 293.978 48.4428 289.933 51.1459C285.888 53.8489 282.735 57.6909 280.873 62.186C279.011 66.6811 278.524 71.6273 279.473 76.3992C280.422 81.1712 282.765 85.5545 286.205 88.9948C289.646 92.4352 294.029 94.7781 298.801 95.7273C303.573 96.6765 308.519 96.1894 313.014 94.3275C317.509 92.4655 321.351 89.3125 324.054 85.267C326.757 81.2216 328.2 76.4654 328.2 71.6C328.192 65.0781 325.598 58.8256 320.986 54.214C316.374 49.6023 310.122 47.008 303.6 47Z" fill="white"/>
<path d="M156.245 228.959C160.235 203.824 143.093 180.214 117.959 176.224C92.8244 172.234 69.2143 189.376 65.2244 214.51C61.2345 239.645 78.3756 263.255 103.51 267.245C128.645 271.235 152.255 254.093 156.245 228.959Z" fill="white"/>
<g opacity="0.3" filter="url(#filter5_d)">
<path d="M156.245 228.959C160.235 203.824 143.093 180.214 117.959 176.224C92.8244 172.234 69.2143 189.376 65.2244 214.51C61.2345 239.645 78.3756 263.255 103.51 267.245C128.645 271.235 152.255 254.093 156.245 228.959Z" fill="white"/>
</g>
<path d="M99.0196 231.371C96.6412 231.371 94.3162 230.665 92.339 229.343C90.3618 228.021 88.8213 226.142 87.9123 223.944C87.0034 221.747 86.767 219.328 87.233 216.996C87.699 214.664 88.8464 212.522 90.5301 210.842C92.2138 209.162 94.358 208.02 96.6914 207.559C99.0248 207.098 101.442 207.34 103.638 208.254C105.834 209.168 107.709 210.713 109.027 212.693C110.344 214.673 111.045 217 111.039 219.378C111.028 222.56 109.757 225.608 107.504 227.855C105.252 230.102 102.201 231.366 99.0196 231.371ZM99.0196 208.389C96.8505 208.389 94.7303 209.032 92.9271 210.238C91.1239 211.443 89.7189 213.157 88.8899 215.161C88.0608 217.165 87.845 219.371 88.2697 221.498C88.6945 223.625 89.7407 225.578 91.2759 227.11C92.8112 228.642 94.7665 229.685 96.8944 230.105C99.0222 230.526 101.227 230.305 103.23 229.472C105.232 228.639 106.943 227.231 108.145 225.425C109.347 223.62 109.986 221.498 109.982 219.329C109.973 216.427 108.815 213.646 106.76 211.595C104.706 209.545 101.922 208.392 99.0196 208.389Z" fill="#3F87C7"/>
<path d="M107.61 198.479C109.676 198.479 111.35 196.805 111.35 194.739C111.35 192.674 109.676 191 107.61 191C105.545 191 103.871 192.674 103.871 194.739C103.871 196.805 105.545 198.479 107.61 198.479Z" fill="#99C33E"/>
<path d="M128.864 225.625C127.624 225.625 126.412 225.258 125.381 224.569C124.349 223.881 123.545 222.902 123.07 221.757C122.594 220.612 122.468 219.351 122.709 218.135C122.949 216.918 123.545 215.8 124.42 214.922C125.295 214.044 126.411 213.445 127.627 213.2C128.842 212.955 130.103 213.077 131.25 213.548C132.397 214.02 133.378 214.82 134.07 215.849C134.762 216.878 135.134 218.089 135.138 219.329C135.14 220.155 134.98 220.973 134.665 221.736C134.351 222.499 133.889 223.193 133.307 223.778C132.724 224.363 132.032 224.827 131.269 225.144C130.507 225.461 129.69 225.624 128.864 225.625ZM128.864 214.134C127.832 214.135 126.823 214.443 125.965 215.018C125.107 215.592 124.44 216.409 124.046 217.363C123.653 218.318 123.552 219.368 123.755 220.38C123.959 221.392 124.458 222.321 125.19 223.049C125.922 223.777 126.854 224.272 127.867 224.47C128.88 224.669 129.93 224.562 130.882 224.164C131.835 223.765 132.648 223.093 133.218 222.233C133.788 221.372 134.09 220.362 134.086 219.329C134.079 217.949 133.526 216.628 132.547 215.654C131.568 214.681 130.244 214.134 128.864 214.134Z" fill="#3F87C7"/>
<path d="M116.065 253.126C114.354 253.126 112.682 252.619 111.259 251.668C109.836 250.717 108.728 249.366 108.073 247.786C107.418 246.205 107.247 244.465 107.581 242.787C107.914 241.109 108.738 239.568 109.948 238.358C111.158 237.148 112.699 236.324 114.377 235.99C116.056 235.657 117.795 235.828 119.376 236.483C120.956 237.137 122.308 238.246 123.258 239.669C124.209 241.092 124.716 242.764 124.716 244.475C124.712 246.768 123.799 248.966 122.177 250.587C120.556 252.209 118.358 253.122 116.065 253.126ZM116.065 236.876C114.562 236.876 113.093 237.322 111.844 238.157C110.594 238.992 109.62 240.179 109.045 241.567C108.47 242.956 108.319 244.483 108.612 245.958C108.906 247.432 109.629 248.785 110.692 249.848C111.755 250.911 113.109 251.635 114.583 251.928C116.057 252.221 117.585 252.071 118.973 251.495C120.362 250.92 121.548 249.946 122.383 248.697C123.218 247.447 123.664 245.978 123.664 244.475C123.652 242.464 122.848 240.539 121.425 239.118C120.002 237.698 118.076 236.896 116.065 236.887V236.876Z" fill="#3F87C7"/>
<path d="M105.701 198.052L102.46 208.399L103.47 208.715L106.71 198.368L105.701 198.052Z" fill="#3F87C7"/>
<path d="M123.113 218.822H110.51V219.88H123.113V218.822Z" fill="#3F87C7"/>
<path d="M105.975 228.486L105.118 229.106L111.437 237.829L112.294 237.209L105.975 228.486Z" fill="#3F87C7"/>
<path d="M102.933 220.485H95.1057C94.5931 220.485 94.0977 220.669 93.7088 221.003C93.3199 221.337 93.0633 221.799 92.9852 222.305L92.4401 225.691H105.566L105.021 222.305C104.944 221.804 104.692 221.347 104.31 221.013C103.928 220.68 103.44 220.493 102.933 220.485Z" fill="#3F87C7"/>
<path d="M102.743 215.399C102.747 216.136 102.532 216.858 102.126 217.473C101.719 218.088 101.139 218.569 100.459 218.854C99.7795 219.139 99.0302 219.216 98.3066 219.075C97.5829 218.934 96.9175 218.581 96.3946 218.061C95.8718 217.541 95.515 216.878 95.3696 216.155C95.2241 215.432 95.2966 214.683 95.5777 214.001C95.8589 213.319 96.336 212.737 96.9488 212.327C97.5615 211.917 98.2822 211.698 99.0194 211.698C100.004 211.696 100.948 212.085 101.646 212.779C102.344 213.473 102.738 214.415 102.743 215.399Z" fill="#3F87C7"/>
<path d="M130.592 219.934H127.076C126.846 219.934 126.623 220.017 126.448 220.167C126.273 220.316 126.157 220.524 126.122 220.752L125.91 222.273H131.808L131.573 220.752C131.536 220.52 131.417 220.309 131.236 220.159C131.056 220.008 130.827 219.929 130.592 219.934Z" fill="#3F87C7"/>
<path d="M130.505 217.65C130.505 217.981 130.407 218.305 130.223 218.58C130.039 218.855 129.778 219.07 129.472 219.196C129.166 219.323 128.83 219.356 128.505 219.291C128.18 219.227 127.882 219.068 127.648 218.833C127.414 218.599 127.255 218.301 127.19 217.977C127.125 217.652 127.159 217.316 127.285 217.01C127.412 216.704 127.626 216.443 127.902 216.259C128.177 216.075 128.5 215.977 128.831 215.977C129.275 215.977 129.701 216.153 130.015 216.467C130.329 216.781 130.505 217.206 130.505 217.65Z" fill="#3F87C7"/>
<path d="M118.856 245.336H113.274C112.908 245.336 112.554 245.466 112.276 245.704C111.998 245.942 111.815 246.272 111.759 246.634L111.383 249.048H120.748L120.372 246.634C120.315 246.272 120.131 245.943 119.853 245.706C119.575 245.468 119.222 245.337 118.856 245.336Z" fill="#3F87C7"/>
<path d="M118.72 241.706C118.721 242.232 118.565 242.747 118.274 243.186C117.982 243.624 117.566 243.966 117.08 244.168C116.594 244.37 116.058 244.423 115.542 244.321C115.025 244.218 114.551 243.965 114.178 243.592C113.806 243.22 113.553 242.745 113.45 242.229C113.348 241.712 113.401 241.177 113.603 240.691C113.805 240.204 114.147 239.789 114.585 239.497C115.023 239.205 115.538 239.05 116.065 239.051C116.769 239.051 117.444 239.331 117.942 239.829C118.44 240.327 118.72 241.002 118.72 241.706Z" fill="#3F87C7"/>
<path d="M110.732 273.723C100.447 273.723 90.3934 270.673 81.8421 264.959C73.2907 259.246 66.6257 251.124 62.69 241.623C58.7542 232.121 57.7244 221.665 59.7309 211.578C61.7373 201.491 66.6898 192.226 73.9622 184.953C81.2345 177.681 90.5 172.729 100.587 170.722C110.674 168.716 121.129 169.746 130.631 173.681C140.133 177.617 148.254 184.282 153.968 192.833C159.682 201.385 162.732 211.438 162.732 221.723C162.732 235.514 157.253 248.741 147.501 258.493C137.749 268.244 124.523 273.723 110.732 273.723ZM110.732 170.723C100.645 170.723 90.7845 173.714 82.3976 179.318C74.0107 184.922 67.4739 192.887 63.6139 202.206C59.7538 211.525 58.7438 221.78 60.7117 231.673C62.6795 241.566 67.5368 250.653 74.6693 257.785C81.8017 264.918 90.8891 269.775 100.782 271.743C110.675 273.711 120.93 272.701 130.249 268.841C139.568 264.981 147.533 258.444 153.137 250.057C158.741 241.67 161.732 231.81 161.732 221.723C161.724 208.202 156.347 195.238 146.784 185.68C137.22 176.122 124.253 170.753 110.732 170.753V170.723Z" fill="white"/>
<path d="M461.15 136.01C486.599 136.01 507.23 115.379 507.23 89.9301C507.23 64.4808 486.599 43.8501 461.15 43.8501C435.701 43.8501 415.07 64.4808 415.07 89.9301C415.07 115.379 435.701 136.01 461.15 136.01Z" fill="white"/>
<g opacity="0.3" filter="url(#filter6_d)">
<path d="M461.21 136.16C486.659 136.16 507.29 115.529 507.29 90.08C507.29 64.6307 486.659 44 461.21 44C435.761 44 415.13 64.6307 415.13 90.08C415.13 115.529 435.761 136.16 461.21 136.16Z" fill="white"/>
</g>
<path d="M434.78 106.925C434.724 106.925 434.667 106.914 434.615 106.892C434.562 106.87 434.515 106.838 434.475 106.798C434.434 106.758 434.402 106.71 434.381 106.658C434.359 106.605 434.348 106.549 434.348 106.492V71.0227C434.348 70.9032 434.395 70.7886 434.48 70.7041C434.564 70.6196 434.679 70.5721 434.798 70.5721C434.918 70.5721 435.033 70.6196 435.117 70.7041C435.202 70.7886 435.249 70.9032 435.249 71.0227V106.492C435.249 106.552 435.237 106.612 435.213 106.667C435.189 106.721 435.154 106.771 435.11 106.812C435.066 106.852 435.014 106.883 434.957 106.903C434.9 106.922 434.84 106.93 434.78 106.925Z" fill="#E0E0E0"/>
<path d="M491.697 106.925H429.563C429.506 106.926 429.449 106.916 429.396 106.894C429.343 106.873 429.294 106.841 429.254 106.801C429.214 106.76 429.182 106.712 429.161 106.659C429.139 106.606 429.129 106.549 429.13 106.492C429.129 106.435 429.139 106.377 429.16 106.324C429.182 106.27 429.213 106.222 429.254 106.181C429.294 106.139 429.342 106.107 429.395 106.084C429.448 106.062 429.505 106.051 429.563 106.051H491.697C491.755 106.051 491.812 106.062 491.865 106.084C491.918 106.107 491.966 106.139 492.006 106.181C492.047 106.222 492.078 106.27 492.1 106.324C492.121 106.377 492.131 106.435 492.13 106.492C492.131 106.549 492.121 106.606 492.099 106.659C492.078 106.712 492.046 106.76 492.006 106.801C491.966 106.841 491.917 106.873 491.864 106.894C491.811 106.916 491.755 106.926 491.697 106.925Z" fill="#E0E0E0"/>
<path d="M445.351 91.2987H438.142V103.014H445.351V91.2987Z" fill="#3F87C7"/>
<path d="M456.165 87.6941H448.955V103.014H456.165V87.6941Z" fill="#B6D377"/>
<path d="M466.979 79.5837H459.769V103.014H466.979V79.5837Z" fill="#3F87C7"/>
<path d="M477.792 77.7814H470.583V103.014H477.792V77.7814Z" fill="#B6D377"/>
<path d="M488.606 72.3745H481.397V103.014H488.606V72.3745Z" fill="#3F87C7"/>
<path d="M461.13 142.86C450.661 142.862 440.427 139.759 431.721 133.945C423.015 128.13 416.23 119.864 412.222 110.192C408.214 100.521 407.165 89.8781 409.206 79.61C411.247 69.342 416.287 59.9098 423.689 52.5064C431.091 45.103 440.522 40.0609 450.79 38.0178C461.058 35.9747 471.701 37.0223 481.373 41.0281C491.045 45.034 499.312 51.8181 505.129 60.5226C510.945 69.2272 514.05 79.461 514.05 89.93C514.031 103.961 508.45 117.411 498.53 127.333C488.61 137.255 475.16 142.839 461.13 142.86ZM461.13 38.01C450.858 38.008 440.817 41.0523 432.275 46.7576C423.734 52.463 417.077 60.5733 413.145 70.0626C409.213 79.552 408.184 89.9942 410.187 100.069C412.191 110.143 417.137 119.397 424.4 126.66C431.663 133.923 440.917 138.869 450.991 140.873C461.066 142.876 471.508 141.847 480.997 137.915C490.487 133.983 498.597 127.326 504.302 118.785C510.008 110.243 513.052 100.202 513.05 89.93C513.029 76.1665 507.552 62.9727 497.82 53.2404C488.087 43.5081 474.894 38.0312 461.13 38.01Z" fill="white"/>
<path d="M162.212 221.743C166.682 221.613 171.152 221.503 175.622 221.443C180.092 221.383 184.622 221.303 189.042 221.303L188.802 221.373L200.632 213.633L212.532 206.003C216.532 203.443 220.532 201.003 224.532 198.443C228.532 195.883 232.532 193.443 236.532 191.003C232.639 193.67 228.735 196.313 224.822 198.933C220.892 201.533 216.992 204.173 213.032 206.743L201.202 214.473L189.282 222.083L189.172 222.153H189.042C184.572 222.153 180.102 222.053 175.622 222.003C171.142 221.953 166.682 221.863 162.212 221.743Z" fill="#837E7E"/>
<path d="M287.009 263.66C290.449 259.393 293.915 255.143 297.409 250.91C300.909 246.68 304.409 242.45 307.929 238.26L318.529 225.67L329.209 213.16L329.339 213H329.529L343.719 213.16L350.819 213.28L357.919 213.43L350.819 213.59L343.719 213.71L329.529 213.86L329.859 213.71L319.279 226.31L308.609 238.83C305.059 243.02 301.459 247.15 297.869 251.3C294.279 255.45 290.599 259.56 287.009 263.66Z" fill="#837E7E"/>
<path d="M181.075 144.098C183.845 146.608 186.555 149.168 189.235 151.758C191.915 154.348 194.565 156.968 197.235 159.578L196.895 159.438C199.185 159.438 201.475 159.438 203.765 159.438L210.645 159.498C215.225 159.588 219.805 159.678 224.385 159.908C219.805 160.138 215.225 160.228 210.645 160.318L203.765 160.378C201.475 160.378 199.185 160.378 196.895 160.378H196.685L196.555 160.238C193.945 157.568 191.295 154.948 188.735 152.238C186.175 149.528 183.585 146.868 181.075 144.098Z" fill="#837E7E"/>
<path d="M303.6 96.6702C303.81 99.4302 303.9 102.19 303.98 104.95C304.06 107.71 304.09 110.48 304.1 113.24C304.11 116 304.1 118.76 303.98 121.53L303.85 125.67C303.76 127.05 303.71 128.43 303.6 129.81C303.49 128.43 303.44 127.05 303.35 125.67L303.22 121.53C303.12 118.76 303.11 116 303.1 113.24C303.09 110.48 303.1 107.71 303.22 104.95C303.34 102.19 303.39 99.4602 303.6 96.6702Z" fill="#837E7E"/>
<path d="M434 174.5C442.251 174.3 450.501 174.2 458.752 174.12L483.504 174L508.256 174.12L520.628 174.26L533 174.5L520.628 174.75L508.256 174.89L483.504 175L458.752 174.89C450.478 174.83 442.251 174.71 434 174.5Z" fill="#837E7E"/>
<path d="M447.78 241.81C443.24 242.01 438.69 242.11 434.15 242.19H433.99L433.87 242.06C431.46 239.47 429.12 236.8 426.75 234.17C424.38 231.54 422.05 228.87 419.75 226.17L416.25 222.17L412.81 218.17C410.5 215.48 408.24 212.75 406 210C408.46 212.547 410.887 215.13 413.28 217.75L416.89 221.65L420.44 225.65C422.8 228.29 425.18 230.91 427.5 233.59C429.82 236.27 432.19 238.91 434.5 241.59L434.22 241.46C438.69 241.52 443.24 241.62 447.78 241.81Z" fill="#837E7E"/>
<path d="M409.32 97.7499C406.32 97.8999 403.23 98.0099 400.19 98.0699C397.15 98.1299 394.11 98.1999 391.07 98.2099L391.39 98.0799C389.72 99.6899 388.08 101.33 386.39 102.9L381.33 107.66C377.93 110.8 374.51 113.93 371 116.96C374.17 113.58 377.45 110.31 380.74 107.04L385.74 102.2C387.39 100.58 389.1 99.0099 390.74 97.4099L390.87 97.2899H391.06C394.06 97.2899 397.14 97.2899 400.18 97.4199C403.22 97.5499 406.28 97.5899 409.32 97.7499Z" fill="#837E7E"/>
<path d="M157.105 96.5179C154.659 95.3968 151.89 95.1998 149.309 95.9633C146.729 96.7268 144.513 98.3992 143.071 100.671C141.629 102.942 141.059 105.66 141.466 108.319C141.873 110.979 143.23 113.401 145.285 115.138C146.063 115.794 146.924 116.345 147.845 116.778C149.298 117.44 150.878 117.781 152.475 117.778C152.815 117.778 153.155 117.778 153.475 117.778C155.939 117.578 158.267 116.563 160.091 114.894C161.914 113.224 163.13 110.995 163.546 108.558C163.962 106.12 163.555 103.614 162.389 101.434C161.222 99.2538 159.363 97.5242 157.105 96.5179ZM162.105 111.068C161.527 112.338 160.704 113.483 159.682 114.434C158.661 115.386 157.463 116.127 156.155 116.615C154.847 117.103 153.455 117.328 152.06 117.277C150.665 117.226 149.294 116.9 148.025 116.318C147.14 115.909 146.313 115.384 145.565 114.758C144.151 113.557 143.075 112.007 142.445 110.262C141.814 108.517 141.651 106.637 141.972 104.81C142.292 102.982 143.085 101.271 144.271 99.844C145.458 98.4175 146.996 97.326 148.735 96.6779C150.04 96.1865 151.43 95.9592 152.824 96.009C154.218 96.0587 155.588 96.3847 156.855 96.9679C158.131 97.5484 159.281 98.3748 160.237 99.3998C161.194 100.425 161.939 101.628 162.43 102.941C162.922 104.255 163.149 105.652 163.1 107.053C163.051 108.454 162.727 109.832 162.145 111.108L162.105 111.068ZM157.105 96.5179C154.659 95.3968 151.89 95.1998 149.309 95.9633C146.729 96.7268 144.513 98.3992 143.071 100.671C141.629 102.942 141.059 105.66 141.466 108.319C141.873 110.979 143.23 113.401 145.285 115.138C146.063 115.794 146.924 116.345 147.845 116.778C149.298 117.44 150.878 117.781 152.475 117.778C152.815 117.778 153.155 117.778 153.475 117.778C155.939 117.578 158.267 116.563 160.091 114.894C161.914 113.224 163.13 110.995 163.546 108.558C163.962 106.12 163.555 103.614 162.389 101.434C161.222 99.2538 159.363 97.5242 157.105 96.5179ZM162.105 111.068C161.527 112.338 160.704 113.483 159.682 114.434C158.661 115.386 157.463 116.127 156.155 116.615C154.847 117.103 153.455 117.328 152.06 117.277C150.665 117.226 149.294 116.9 148.025 116.318C147.14 115.909 146.313 115.384 145.565 114.758C144.151 113.557 143.075 112.007 142.445 110.262C141.814 108.517 141.651 106.637 141.972 104.81C142.292 102.982 143.085 101.271 144.271 99.844C145.458 98.4175 146.996 97.326 148.735 96.6779C150.04 96.1865 151.43 95.9592 152.824 96.009C154.218 96.0587 155.588 96.3847 156.855 96.9679C158.131 97.5484 159.281 98.3748 160.237 99.3998C161.194 100.425 161.939 101.628 162.43 102.941C162.922 104.255 163.149 105.652 163.1 107.053C163.051 108.454 162.727 109.832 162.145 111.108L162.105 111.068ZM166.795 101.298C166.095 99.4101 165.028 97.68 163.655 96.2079C161.589 93.9903 158.913 92.4352 155.963 91.7392C153.014 91.0432 149.924 91.2376 147.085 92.2979C144.465 93.2745 142.162 94.9498 140.426 97.142C138.69 99.3342 137.587 101.96 137.236 104.734C136.886 107.508 137.302 110.326 138.439 112.881C139.575 115.436 141.39 117.631 143.685 119.228L141.685 123.558L141.475 124.008L148.225 127.138L148.435 126.688L150.665 121.868C153.273 122.176 155.915 121.808 158.34 120.801C160.765 119.793 162.89 118.179 164.511 116.114C166.133 114.049 167.196 111.602 167.6 109.007C168.003 106.413 167.733 103.758 166.815 101.298H166.795ZM165.915 112.808C164.609 115.694 162.407 118.084 159.637 119.622C156.867 121.16 153.676 121.765 150.535 121.348H150.345L148.005 126.518L142.165 123.808L144.365 119.098L144.195 118.978C141.848 117.397 140.002 115.178 138.875 112.582C137.749 109.986 137.388 107.122 137.837 104.328C138.285 101.534 139.524 98.9261 141.406 96.8131C143.288 94.7001 145.736 93.1698 148.46 92.4028C151.184 91.6358 154.07 91.6641 156.779 92.4845C159.487 93.3049 161.904 94.883 163.745 97.0326C165.585 99.1822 166.772 101.813 167.165 104.616C167.559 107.418 167.142 110.275 165.965 112.848L165.915 112.808Z" fill="#99C33E"/>
<path d="M166.365 101.518C165.548 99.3332 164.226 97.3721 162.508 95.7943C160.79 94.2165 158.724 93.0666 156.478 92.4379C154.232 91.8093 151.869 91.7198 149.581 92.1767C147.294 92.6336 145.146 93.624 143.314 95.0673C141.482 96.5107 140.016 98.3662 139.036 100.483C138.056 102.6 137.589 104.918 137.674 107.249C137.759 109.58 138.393 111.858 139.524 113.898C140.655 115.938 142.252 117.682 144.185 118.988L144.355 119.108L142.165 123.818L148.005 126.518L150.365 121.368H150.555C153.086 121.695 155.658 121.363 158.023 120.405C160.388 119.447 162.466 117.895 164.055 115.899C165.645 113.904 166.693 111.531 167.097 109.012C167.502 106.492 167.25 103.911 166.365 101.518ZM162.595 111.328C161.779 113.106 160.509 114.638 158.914 115.77C157.318 116.902 155.453 117.595 153.505 117.778C153.165 117.778 152.825 117.778 152.505 117.778C150.908 117.781 149.328 117.44 147.875 116.778C146.954 116.345 146.093 115.794 145.315 115.138C143.733 113.799 142.557 112.045 141.918 110.074C141.279 108.103 141.203 105.993 141.699 103.981C142.195 101.969 143.242 100.135 144.723 98.6862C146.205 97.2373 148.061 96.2307 150.084 95.7797C152.106 95.3287 154.214 95.4513 156.171 96.1336C158.127 96.8159 159.855 98.0308 161.158 99.6416C162.462 101.252 163.289 103.195 163.549 105.251C163.808 107.307 163.488 109.394 162.625 111.278L162.595 111.328Z" fill="#99C33E"/>
<path d="M148.455 126.728L148.005 126.518L142.165 123.808L141.705 123.598L140.365 122.988L133.105 138.638L142.415 142.868L149.655 127.288L148.455 126.728ZM142.195 142.208L133.785 138.398L140.625 123.648L141.495 124.048L148.245 127.178L149.005 127.528L142.195 142.208Z" fill="#263238"/>
<path d="M265.189 285.9C265.367 285.792 265.571 285.735 265.779 285.735C265.987 285.735 266.191 285.792 266.369 285.9L266.679 286.08L266.989 286.23C267.181 286.318 267.345 286.459 267.462 286.635C267.579 286.812 267.643 287.018 267.649 287.23L267.699 288.69L272.439 288.54V287.09C272.439 286.886 272.495 286.686 272.598 286.51C272.702 286.334 272.85 286.189 273.029 286.09C273.24 285.98 273.444 285.856 273.639 285.72C273.809 285.599 274.01 285.529 274.219 285.517C274.427 285.504 274.635 285.55 274.819 285.65L276.099 286.33L278.339 282.15L277.059 281.46C276.878 281.363 276.728 281.219 276.624 281.042C276.52 280.866 276.466 280.665 276.469 280.46C276.484 280.224 276.484 279.986 276.469 279.75C276.447 279.542 276.484 279.333 276.576 279.145C276.668 278.958 276.811 278.8 276.989 278.69L278.229 277.92L275.729 273.92L274.479 274.69C274.302 274.8 274.097 274.858 273.889 274.858C273.68 274.858 273.476 274.8 273.299 274.69L272.999 274.51L272.689 274.35C272.495 274.262 272.329 274.122 272.211 273.946C272.093 273.769 272.026 273.563 272.019 273.35V271.89L267.269 272.04L267.319 273.49C267.318 273.694 267.263 273.894 267.159 274.07C267.055 274.246 266.907 274.391 266.729 274.49C266.519 274.6 266.319 274.73 266.119 274.86C265.949 274.982 265.749 275.054 265.54 275.068C265.332 275.083 265.123 275.038 264.939 274.94L263.659 274.25L261.419 278.44L262.699 279.12C262.877 279.219 263.025 279.364 263.129 279.54C263.233 279.716 263.288 279.916 263.289 280.12C263.274 280.356 263.274 280.594 263.289 280.83C263.309 281.038 263.272 281.247 263.18 281.434C263.088 281.621 262.945 281.779 262.769 281.89L261.529 282.66L264.029 286.66L265.189 285.9ZM266.379 278.41C266.742 277.734 267.296 277.18 267.973 276.819C268.65 276.457 269.419 276.304 270.182 276.378C270.946 276.453 271.671 276.751 272.265 277.236C272.86 277.721 273.298 278.371 273.523 279.105C273.749 279.838 273.753 280.622 273.535 281.357C273.317 282.093 272.886 282.747 272.296 283.239C271.707 283.73 270.985 284.036 270.222 284.118C269.459 284.2 268.689 284.055 268.009 283.7C267.556 283.462 267.155 283.137 266.827 282.744C266.5 282.351 266.254 281.897 266.103 281.408C265.951 280.919 265.898 280.406 265.945 279.897C265.993 279.387 266.14 278.892 266.379 278.44V278.41Z" fill="#3F87C7"/>
<path d="M276.89 291.85C277.014 291.925 277.116 292.033 277.183 292.162C277.25 292.29 277.28 292.435 277.27 292.58V293.07C277.28 293.215 277.25 293.36 277.183 293.488C277.116 293.617 277.014 293.725 276.89 293.8L276 294.31L277.66 297.16L278.55 296.65C278.675 296.574 278.819 296.534 278.965 296.534C279.111 296.534 279.255 296.574 279.38 296.65C279.518 296.743 279.661 296.826 279.81 296.9C279.938 296.968 280.045 297.068 280.12 297.191C280.196 297.315 280.237 297.456 280.24 297.6V298.6H283.57V297.6C283.573 297.454 283.615 297.312 283.693 297.189C283.77 297.065 283.88 296.966 284.01 296.9C284.159 296.826 284.302 296.743 284.44 296.65C284.565 296.574 284.709 296.534 284.855 296.534C285.001 296.534 285.145 296.574 285.27 296.65L286.15 297.16L287.81 294.28L286.92 293.77C286.796 293.695 286.694 293.587 286.627 293.458C286.56 293.33 286.53 293.185 286.54 293.04C286.54 292.96 286.54 292.88 286.54 292.79C286.54 292.7 286.54 292.63 286.54 292.55C286.53 292.404 286.561 292.258 286.63 292.129C286.699 292 286.803 291.893 286.93 291.82L287.81 291.31L286.16 288.45L285.28 288.96C285.155 289.036 285.011 289.076 284.865 289.076C284.719 289.076 284.575 289.036 284.45 288.96C284.312 288.867 284.169 288.784 284.02 288.71C283.888 288.644 283.778 288.542 283.7 288.417C283.622 288.292 283.581 288.147 283.58 288V287H280.25V288C280.249 288.146 280.209 288.289 280.133 288.414C280.057 288.539 279.949 288.641 279.82 288.71C279.67 288.781 279.526 288.865 279.39 288.96C279.265 289.036 279.121 289.076 278.975 289.076C278.829 289.076 278.685 289.036 278.56 288.96L277.67 288.45L276.01 291.34L276.89 291.85ZM281.89 290.1C282.43 290.1 282.959 290.26 283.408 290.561C283.857 290.861 284.207 291.288 284.413 291.788C284.619 292.287 284.673 292.836 284.567 293.366C284.461 293.896 284.2 294.383 283.817 294.764C283.434 295.145 282.947 295.405 282.416 295.509C281.886 295.613 281.337 295.557 280.838 295.349C280.34 295.141 279.914 294.79 279.615 294.339C279.316 293.889 279.158 293.36 279.16 292.82C279.16 292.46 279.231 292.104 279.37 291.772C279.508 291.44 279.711 291.139 279.967 290.886C280.223 290.633 280.526 290.433 280.86 290.298C281.193 290.163 281.55 290.096 281.91 290.1H281.89Z" fill="#99C33E"/>
<path d="M548 169.848H569.45V181.203C569.45 181.502 569.331 181.789 569.12 182C568.909 182.211 568.622 182.33 568.323 182.33H549.127C548.828 182.33 548.541 182.211 548.33 182C548.119 181.789 548 181.502 548 181.203V169.848Z" fill="#3F87C7"/>
<path opacity="0.3" d="M548 169.848L558.022 177.455C558.224 177.609 558.471 177.692 558.725 177.692C558.979 177.692 559.226 177.609 559.428 177.455L569.45 169.848H548Z" fill="black"/>
<path d="M569.45 169.847L559.428 162.237C559.226 162.083 558.979 162 558.725 162C558.471 162 558.224 162.083 558.022 162.237L548 169.847H569.45Z" fill="#3F87C7"/>
<path opacity="0.3" d="M569.45 169.848L566.855 171.818L559.428 177.455C559.226 177.608 558.98 177.691 558.727 177.691C558.473 177.691 558.227 177.608 558.025 177.455L550.595 171.818L548.003 169.848H569.45Z" fill="black"/>
<path d="M566.855 164.283V171.822L559.428 177.455C559.226 177.608 558.98 177.691 558.727 177.691C558.473 177.691 558.227 177.608 558.025 177.455L550.595 171.818V164.283H566.855Z" fill="white"/>
<path d="M566.438 164.713V171.611L559.175 177.123C559.047 177.224 558.888 177.279 558.725 177.278C558.562 177.278 558.404 177.223 558.275 177.123L551.022 171.611V164.713H566.461H566.438ZM566.878 164.296H550.595V171.832L558.025 177.468C558.227 177.621 558.473 177.704 558.727 177.704C558.98 177.704 559.226 177.621 559.428 177.468L566.855 171.835V164.283L566.878 164.296Z" fill="#E0E0E0"/>
<path d="M565.16 166.086H552.29V166.901H565.16V166.086Z" fill="white"/>
<path d="M565.16 168.274H552.29V168.681H565.16V168.274Z" fill="#E0E0E0"/>
<path d="M565.16 169.434H552.29V169.841H565.16V169.434Z" fill="#E0E0E0"/>
<path d="M565.16 170.59H552.29V170.997H565.16V170.59Z" fill="#E0E0E0"/>
<g clip-path="url(#clip1)">
<path d="M292 66.9404V81.0806C292 82.1396 292.857 82.9973 293.917 82.9973H313.083C314.142 82.9973 315 82.1396 315 81.0806V66.9404H292Z" fill="#F2F2F2"/>
<path d="M297.484 70.8375H300.868V79.1966H299.075V72.4284H297.484V70.8375Z" fill="#263238"/>
<path d="M306.059 79.2925C304.903 79.2925 304.038 78.9 303.464 78.1147C302.89 77.3293 302.603 76.2809 302.603 74.9694C302.603 73.6589 302.89 72.609 303.464 71.8242C304.038 71.0398 304.903 70.6464 306.059 70.6464C307.215 70.6464 308.081 71.0397 308.654 71.8242C309.229 72.6095 309.515 73.6589 309.515 74.9694C309.515 76.2809 309.229 77.3298 308.654 78.1147C308.081 78.8995 307.215 79.2925 306.059 79.2925ZM304.827 72.954C304.564 73.4639 304.433 74.1381 304.433 74.9752C304.433 75.8113 304.564 76.486 304.827 76.9963C305.091 77.5066 305.501 77.762 306.059 77.762C306.617 77.762 307.027 77.5066 307.291 76.9963C307.554 76.4865 307.685 75.8113 307.685 74.9752C307.685 74.1381 307.554 73.4644 307.291 72.954C307.027 72.4447 306.617 72.1879 306.059 72.1879C305.501 72.1879 305.09 72.4447 304.827 72.954Z" fill="#263238"/>
<path d="M313.083 61.3663H293.917C292.858 61.3663 292 62.2245 292 63.283V66.9434H315V63.283C315 62.2245 314.142 61.3663 313.083 61.3663Z" fill="#99C33E"/>
<path d="M311.955 64.1543C311.955 64.9032 311.348 65.5103 310.599 65.5103C309.85 65.5103 309.244 64.9032 309.244 64.1543C309.244 63.4053 309.85 62.7982 310.599 62.7982C311.348 62.7982 311.955 63.4053 311.955 64.1543Z" fill="white"/>
<path d="M297.758 64.1543C297.758 64.9032 297.15 65.5103 296.402 65.5103C295.653 65.5103 295.046 64.9032 295.046 64.1543C295.046 63.4053 295.653 62.7982 296.402 62.7982C297.15 62.7982 297.758 63.4053 297.758 64.1543Z" fill="white"/>
<path d="M310.613 60.0026C310.115 60.0026 309.711 60.406 309.711 60.9048L309.697 63.8296C309.697 64.328 310.101 64.7319 310.6 64.7319C311.098 64.7319 311.502 64.328 311.502 63.8296L311.516 60.9048C311.516 60.406 311.112 60.0026 310.613 60.0026Z" fill="#C2C2C2"/>
<path d="M296.416 60.0026C295.918 60.0026 295.513 60.406 295.513 60.9048L295.499 63.8292C295.499 64.3275 295.904 64.7314 296.402 64.7314C296.901 64.7314 297.304 64.3275 297.304 63.8292L297.318 60.9044C297.318 60.406 296.914 60.0026 296.416 60.0026Z" fill="#C2C2C2"/>
</g>
<path d="M502.034 256.231C501.002 265.079 495.316 266.705 494.367 269.067C493.884 270.55 493.488 272.06 493.18 273.589H483.94C483.634 272.057 483.238 270.545 482.753 269.061C481.809 266.687 476.118 265.079 475.086 256.231C474.403 250.415 478.777 241.234 488.557 241.234C498.337 241.234 502.693 250.415 502.034 256.231Z" fill="#EADC5F"/>
<path d="M483.841 259.423L483.257 259.532L486.004 274.238L486.587 274.129L483.841 259.423Z" fill="#263238"/>
<path d="M493.302 259.442L490.553 274.148L491.136 274.257L493.886 259.551L493.302 259.442Z" fill="#263238"/>
<path d="M488.563 264.408C487.827 264.408 487.085 263.815 486.474 262.776C486.474 262.741 486.432 262.705 486.415 262.663C486.319 262.784 486.199 262.882 486.064 262.954C485.928 263.025 485.779 263.068 485.625 263.079C484.219 263.079 483.655 260.201 483.631 260.112L483.928 260.052C484.071 260.824 484.658 262.812 485.625 262.812C485.754 262.794 485.878 262.75 485.988 262.681C486.099 262.613 486.193 262.522 486.266 262.414C485.673 261.227 485.346 259.655 485.774 258.913C485.838 258.792 485.935 258.691 486.054 258.622C486.172 258.553 486.307 258.518 486.444 258.521C486.604 258.516 486.762 258.555 486.901 258.633C487.04 258.712 487.155 258.827 487.234 258.966C487.667 259.726 487.346 261.215 486.8 262.165C486.745 262.262 486.684 262.355 486.616 262.444L486.735 262.658C487.056 263.209 487.72 264.141 488.563 264.141C489.127 264.141 489.691 263.696 490.159 262.883L490.266 262.693C489.706 261.989 489.408 261.112 489.423 260.213C489.423 259.168 489.821 258.521 490.462 258.521C490.586 258.523 490.706 258.559 490.811 258.625C490.916 258.691 491 258.784 491.055 258.895C491.465 259.607 491.245 261.304 490.604 262.646C490.845 262.873 491.163 263 491.495 263.002C492.325 263.002 493.061 260.996 493.275 260.224L493.566 260.302C493.477 260.61 492.699 263.298 491.495 263.298C491.117 263.294 490.753 263.155 490.468 262.907L490.397 263.031C489.869 263.951 489.21 264.438 488.545 264.438L488.563 264.408ZM490.462 258.788C489.916 258.788 489.72 259.542 489.72 260.183C489.715 260.968 489.954 261.735 490.403 262.379C490.955 261.162 491.162 259.613 490.818 259.014C490.786 258.947 490.735 258.89 490.672 258.85C490.609 258.81 490.537 258.789 490.462 258.788ZM486.444 258.788C486.36 258.784 486.276 258.805 486.203 258.849C486.13 258.892 486.072 258.955 486.035 259.032C485.714 259.583 485.922 260.925 486.468 262.112L486.539 261.987C487.038 261.126 487.34 259.72 486.973 259.085C486.922 258.99 486.846 258.911 486.752 258.859C486.659 258.806 486.552 258.782 486.444 258.788Z" fill="#263238"/>
<path d="M494.266 273.197H482.86V275.429H494.266V273.197Z" fill="#263238"/>
<path d="M494.266 275.785H482.86V278.016H494.266V275.785Z" fill="#263238"/>
<path d="M494.266 278.378H482.86V280.61H494.266V278.378Z" fill="#263238"/>
<path d="M488.385 237.685C488.167 237.096 488.057 236.473 488.059 235.846C488.032 235.22 488.12 234.594 488.32 234C488.537 234.587 488.648 235.208 488.646 235.834C488.673 236.462 488.585 237.089 488.385 237.685Z" fill="#263238"/>
<path d="M479.97 240.029C479.493 239.628 479.091 239.146 478.783 238.605C478.449 238.074 478.213 237.487 478.089 236.872C478.564 237.277 478.966 237.761 479.276 238.302C479.61 238.831 479.845 239.416 479.97 240.029Z" fill="#263238"/>
<path d="M473.857 246.272C473.231 246.168 472.628 245.953 472.077 245.637C471.522 245.347 471.025 244.956 470.611 244.486C471.238 244.59 471.841 244.805 472.391 245.121C472.946 245.412 473.443 245.802 473.857 246.272Z" fill="#263238"/>
<path d="M471.685 254.735C471.096 254.953 470.473 255.063 469.846 255.062C469.22 255.088 468.594 255 468 254.8C469.189 254.38 470.482 254.357 471.685 254.735Z" fill="#263238"/>
<path d="M474.036 263.144C473.212 264.098 472.106 264.766 470.878 265.049C471.276 264.569 471.759 264.167 472.303 263.862C472.833 263.523 473.42 263.28 474.036 263.144Z" fill="#263238"/>
<path d="M503.286 262.848C503.912 262.95 504.515 263.163 505.067 263.477C505.62 263.769 506.117 264.159 506.533 264.628C505.906 264.528 505.302 264.315 504.752 263.999C504.201 263.703 503.705 263.313 503.286 262.848Z" fill="#263238"/>
<path d="M505.435 254.385C506.024 254.168 506.646 254.056 507.274 254.053C507.901 254.031 508.526 254.121 509.12 254.32C507.93 254.732 506.639 254.755 505.435 254.385Z" fill="#263238"/>
<path d="M503.091 245.97C503.492 245.493 503.974 245.091 504.515 244.783C505.045 244.448 505.633 244.212 506.248 244.089C505.843 244.564 505.359 244.966 504.818 245.276C504.289 245.61 503.704 245.845 503.091 245.97Z" fill="#263238"/>
<path d="M496.847 239.851C496.951 239.225 497.166 238.622 497.482 238.071C497.773 237.516 498.163 237.019 498.634 236.605C498.397 237.841 497.773 238.969 496.853 239.828L496.847 239.851Z" fill="#263238"/>
<g filter="url(#filter7_d)">
<path d="M263.719 165.865C263.719 169.171 263.062 171.568 261.747 173.057C260.452 174.526 258.335 175.261 255.396 175.261C252.264 175.261 250.089 174.575 248.871 173.202C247.653 171.81 247.044 169.364 247.044 165.865C247.044 162.578 247.701 160.2 249.016 158.731C250.331 157.262 252.457 156.527 255.396 156.527C258.509 156.527 260.674 157.223 261.892 158.615C263.11 159.988 263.719 162.404 263.719 165.865ZM251.278 170.447C251.587 171.008 252.042 171.404 252.641 171.636C253.24 171.868 254.159 171.984 255.396 171.984C257.31 171.984 258.586 171.559 259.224 170.708C259.862 169.838 260.181 168.224 260.181 165.865C260.181 164.724 260.123 163.787 260.007 163.052C259.91 162.317 259.736 161.718 259.485 161.254C259.176 160.674 258.721 160.268 258.122 160.036C257.523 159.785 256.614 159.659 255.396 159.659C253.463 159.659 252.177 160.094 251.539 160.964C250.901 161.834 250.582 163.468 250.582 165.865C250.582 167.006 250.64 167.943 250.756 168.678C250.872 169.413 251.046 170.002 251.278 170.447ZM278.232 167.547V156.817H281.712V167.547C281.712 170.157 281.094 172.1 279.856 173.376C278.619 174.633 276.724 175.261 274.172 175.261C271.562 175.261 269.658 174.652 268.459 173.434C267.261 172.216 266.661 170.254 266.661 167.547V156.817H270.141V167.547C270.141 169.248 270.431 170.418 271.011 171.056C271.591 171.675 272.645 171.984 274.172 171.984C275.719 171.984 276.782 171.665 277.362 171.027C277.942 170.389 278.232 169.229 278.232 167.547ZM298.472 156.817V159.949H292.962V175H289.482V159.949H284.001V156.817H298.472ZM307.651 167.779L303.62 166.822C302.286 166.513 301.348 166.01 300.807 165.314C300.266 164.599 299.995 163.584 299.995 162.269C299.995 160.297 300.536 158.847 301.619 157.919C302.702 156.991 304.384 156.527 306.665 156.527C307.612 156.527 308.453 156.575 309.188 156.672C309.942 156.749 310.638 156.875 311.276 157.049V160.181C310.174 159.968 309.294 159.833 308.637 159.775C307.98 159.698 307.303 159.659 306.607 159.659C305.447 159.659 304.625 159.843 304.142 160.21C303.659 160.558 303.417 161.167 303.417 162.037C303.417 162.54 303.514 162.926 303.707 163.197C303.92 163.448 304.268 163.632 304.751 163.748L308.666 164.676C309.575 164.889 310.251 165.111 310.696 165.343C311.141 165.556 311.508 165.826 311.798 166.155C312.088 166.522 312.301 166.977 312.436 167.518C312.591 168.059 312.668 168.726 312.668 169.519C312.668 171.568 312.127 173.038 311.044 173.927C309.961 174.816 308.279 175.261 305.998 175.261C304.819 175.261 303.678 175.184 302.576 175.029C301.493 174.874 300.643 174.681 300.024 174.449V171.172C300.855 171.423 301.793 171.626 302.837 171.781C303.9 171.916 304.954 171.984 305.998 171.984C307.139 171.984 307.931 171.829 308.376 171.52C308.84 171.191 309.072 170.563 309.072 169.635C309.072 169.055 308.975 168.639 308.782 168.388C308.608 168.117 308.231 167.914 307.651 167.779ZM331.375 165.865C331.375 169.171 330.718 171.568 329.403 173.057C328.108 174.526 325.991 175.261 323.052 175.261C319.92 175.261 317.745 174.575 316.527 173.202C315.309 171.81 314.7 169.364 314.7 165.865C314.7 162.578 315.357 160.2 316.672 158.731C317.987 157.262 320.113 156.527 323.052 156.527C326.165 156.527 328.33 157.223 329.548 158.615C330.766 159.988 331.375 162.404 331.375 165.865ZM318.934 170.447C319.243 171.008 319.698 171.404 320.297 171.636C320.896 171.868 321.815 171.984 323.052 171.984C324.966 171.984 326.242 171.559 326.88 170.708C327.518 169.838 327.837 168.224 327.837 165.865C327.837 164.724 327.779 163.787 327.663 163.052C327.566 162.317 327.392 161.718 327.141 161.254C326.832 160.674 326.377 160.268 325.778 160.036C325.179 159.785 324.27 159.659 323.052 159.659C321.119 159.659 319.833 160.094 319.195 160.964C318.557 161.834 318.238 163.468 318.238 165.865C318.238 167.006 318.296 167.943 318.412 168.678C318.528 169.413 318.702 170.002 318.934 170.447ZM345.888 167.547V156.817H349.368V167.547C349.368 170.157 348.75 172.1 347.512 173.376C346.275 174.633 344.38 175.261 341.828 175.261C339.218 175.261 337.314 174.652 336.115 173.434C334.917 172.216 334.317 170.254 334.317 167.547V156.817H337.797V167.547C337.797 169.248 338.087 170.418 338.667 171.056C339.247 171.675 340.301 171.984 341.828 171.984C343.375 171.984 344.438 171.665 345.018 171.027C345.598 170.389 345.888 169.229 345.888 167.547ZM356.471 168.794V175H352.991V156.817H359.4C362.087 156.817 364.001 157.271 365.142 158.18C366.302 159.089 366.882 160.606 366.882 162.733C366.882 164.26 366.543 165.498 365.867 166.445C365.209 167.373 364.204 168.021 362.851 168.388L367.433 175H363.257L359.168 168.794H356.471ZM363.344 162.733C363.344 161.728 363.044 161.012 362.445 160.587C361.865 160.162 360.85 159.949 359.4 159.949H356.471V165.894H359.4C360.85 165.894 361.865 165.652 362.445 165.169C363.044 164.686 363.344 163.874 363.344 162.733ZM377.417 171.984C378.21 171.984 379.051 171.897 379.94 171.723C380.849 171.549 381.661 171.317 382.376 171.027V174.13C381.313 174.555 380.356 174.845 379.505 175C378.674 175.174 377.804 175.261 376.895 175.261C374.014 175.261 372.004 174.546 370.863 173.115C369.722 171.665 369.152 169.248 369.152 165.865C369.152 162.636 369.829 160.278 371.182 158.789C372.535 157.281 374.71 156.527 377.707 156.527C378.596 156.527 379.389 156.546 380.085 156.585C380.781 156.624 381.409 156.691 381.97 156.788V159.833C381.235 159.775 380.52 159.736 379.824 159.717C379.147 159.678 378.442 159.659 377.707 159.659C375.754 159.659 374.43 160.113 373.734 161.022C373.057 161.931 372.719 163.545 372.719 165.865C372.719 168.185 373.028 169.79 373.647 170.679C374.285 171.549 375.542 171.984 377.417 171.984ZM388.486 156.817V175H385.006V156.817H388.486ZM407.546 156.817V175H404.153L395.54 162.675V175H392.263V156.817H395.656L404.298 169.432V156.817H407.546ZM422.262 167.895H418.318V164.995H425.51V174.159C424.969 174.41 424.002 174.662 422.61 174.913C421.218 175.145 419.952 175.261 418.811 175.261C415.737 175.261 413.601 174.546 412.402 173.115C411.223 171.684 410.633 169.277 410.633 165.894C410.633 162.665 411.329 160.297 412.721 158.789C414.133 157.281 416.356 156.527 419.391 156.527C420.532 156.527 421.547 156.556 422.436 156.614C423.345 156.653 424.041 156.72 424.524 156.817V159.862C423.828 159.804 423.026 159.756 422.117 159.717C421.209 159.678 420.3 159.659 419.391 159.659C417.4 159.659 416.037 160.113 415.302 161.022C414.587 161.931 414.229 163.555 414.229 165.894C414.229 167.015 414.287 167.943 414.403 168.678C414.539 169.413 414.732 170.012 414.983 170.476C415.312 171.056 415.776 171.472 416.375 171.723C416.994 171.974 417.903 172.1 419.101 172.1C419.507 172.1 419.981 172.071 420.522 172.013C421.064 171.955 421.644 171.878 422.262 171.781V167.895Z" fill="#3F87C7"/>
</g>
</g>
<defs>
<filter id="filter0_d" x="435" y="208" width="107.08" height="107.08" filterUnits="userSpaceOnUse" color-interpolation-filters="sRGB">
<feFlood flood-opacity="0" result="BackgroundImageFix"/>
<feColorMatrix in="SourceAlpha" type="matrix" values="0 0 0 0 0 0 0 0 0 0 0 0 0 0 0 0 0 0 127 0" result="hardAlpha"/>
<feOffset dy="4"/>
<feGaussianBlur stdDeviation="8"/>
<feComposite in2="hardAlpha" operator="out"/>
<feColorMatrix type="matrix" values="0 0 0 0 0.310625 0 0 0 0 0.424118 0 0 0 0 0.525 0 0 0 0.87 0"/>
<feBlend mode="normal" in2="BackgroundImageFix" result="effect1_dropShadow"/>
<feBlend mode="normal" in="SourceGraphic" in2="effect1_dropShadow" result="shape"/>
</filter>
<filter id="filter1_d" x="96.4075" y="65.4075" width="107.1" height="107.1" filterUnits="userSpaceOnUse" color-interpolation-filters="sRGB">
<feFlood flood-opacity="0" result="BackgroundImageFix"/>
<feColorMatrix in="SourceAlpha" type="matrix" values="0 0 0 0 0 0 0 0 0 0 0 0 0 0 0 0 0 0 127 0" result="hardAlpha"/>
<feOffset dy="4"/>
<feGaussianBlur stdDeviation="8"/>
<feComposite in2="hardAlpha" operator="out"/>
<feColorMatrix type="matrix" values="0 0 0 0 0.310625 0 0 0 0 0.424118 0 0 0 0 0.525 0 0 0 0.87 0"/>
<feBlend mode="normal" in2="BackgroundImageFix" result="effect1_dropShadow"/>
<feBlend mode="normal" in="SourceGraphic" in2="effect1_dropShadow" result="shape"/>
</filter>
<filter id="filter2_d" x="523.253" y="140.29" width="71.0259" height="71.0259" filterUnits="userSpaceOnUse" color-interpolation-filters="sRGB">
<feFlood flood-opacity="0" result="BackgroundImageFix"/>
<feColorMatrix in="SourceAlpha" type="matrix" values="0 0 0 0 0 0 0 0 0 0 0 0 0 0 0 0 0 0 127 0" result="hardAlpha"/>
<feOffset dy="4"/>
<feGaussianBlur stdDeviation="8"/>
<feComposite in2="hardAlpha" operator="out"/>
<feColorMatrix type="matrix" values="0 0 0 0 0.310625 0 0 0 0 0.424118 0 0 0 0 0.525 0 0 0 0.87 0"/>
<feBlend mode="normal" in2="BackgroundImageFix" result="effect1_dropShadow"/>
<feBlend mode="normal" in="SourceGraphic" in2="effect1_dropShadow" result="shape"/>
</filter>
<filter id="filter3_d" x="239.081" y="254.081" width="71.02" height="71.02" filterUnits="userSpaceOnUse" color-interpolation-filters="sRGB">
<feFlood flood-opacity="0" result="BackgroundImageFix"/>
<feColorMatrix in="SourceAlpha" type="matrix" values="0 0 0 0 0 0 0 0 0 0 0 0 0 0 0 0 0 0 127 0" result="hardAlpha"/>
<feOffset dy="4"/>
<feGaussianBlur stdDeviation="8"/>
<feComposite in2="hardAlpha" operator="out"/>
<feColorMatrix type="matrix" values="0 0 0 0 0.310625 0 0 0 0 0.424118 0 0 0 0 0.525 0 0 0 0.87 0"/>
<feBlend mode="normal" in2="BackgroundImageFix" result="effect1_dropShadow"/>
<feBlend mode="normal" in="SourceGraphic" in2="effect1_dropShadow" result="shape"/>
</filter>
<filter id="filter4_d" x="268.09" y="40.0901" width="71.02" height="71.02" filterUnits="userSpaceOnUse" color-interpolation-filters="sRGB">
<feFlood flood-opacity="0" result="BackgroundImageFix"/>
<feColorMatrix in="SourceAlpha" type="matrix" values="0 0 0 0 0 0 0 0 0 0 0 0 0 0 0 0 0 0 127 0" result="hardAlpha"/>
<feOffset dy="4"/>
<feGaussianBlur stdDeviation="8"/>
<feComposite in2="hardAlpha" operator="out"/>
<feColorMatrix type="matrix" values="0 0 0 0 0.310625 0 0 0 0 0.424118 0 0 0 0 0.525 0 0 0 0.87 0"/>
<feBlend mode="normal" in2="BackgroundImageFix" result="effect1_dropShadow"/>
<feBlend mode="normal" in="SourceGraphic" in2="effect1_dropShadow" result="shape"/>
</filter>
<filter id="filter5_d" x="48.6478" y="163.648" width="124.174" height="124.174" filterUnits="userSpaceOnUse" color-interpolation-filters="sRGB">
<feFlood flood-opacity="0" result="BackgroundImageFix"/>
<feColorMatrix in="SourceAlpha" type="matrix" values="0 0 0 0 0 0 0 0 0 0 0 0 0 0 0 0 0 0 127 0" result="hardAlpha"/>
<feOffset dy="4"/>
<feGaussianBlur stdDeviation="8"/>
<feComposite in2="hardAlpha" operator="out"/>
<feColorMatrix type="matrix" values="0 0 0 0 0.310625 0 0 0 0 0.424118 0 0 0 0 0.525 0 0 0 0.87 0"/>
<feBlend mode="normal" in2="BackgroundImageFix" result="effect1_dropShadow"/>
<feBlend mode="normal" in="SourceGraphic" in2="effect1_dropShadow" result="shape"/>
</filter>
<filter id="filter6_d" x="399.13" y="32" width="124.16" height="124.16" filterUnits="userSpaceOnUse" color-interpolation-filters="sRGB">
<feFlood flood-opacity="0" result="BackgroundImageFix"/>
<feColorMatrix in="SourceAlpha" type="matrix" values="0 0 0 0 0 0 0 0 0 0 0 0 0 0 0 0 0 0 127 0" result="hardAlpha"/>
<feOffset dy="4"/>
<feGaussianBlur stdDeviation="8"/>
<feComposite in2="hardAlpha" operator="out"/>
<feColorMatrix type="matrix" values="0 0 0 0 0.310625 0 0 0 0 0.424118 0 0 0 0 0.525 0 0 0 0.87 0"/>
<feBlend mode="normal" in2="BackgroundImageFix" result="effect1_dropShadow"/>
<feBlend mode="normal" in="SourceGraphic" in2="effect1_dropShadow" result="shape"/>
</filter>
<filter id="filter7_d" x="243.044" y="156.527" width="186.466" height="26.734" filterUnits="userSpaceOnUse" color-interpolation-filters="sRGB">
<feFlood flood-opacity="0" result="BackgroundImageFix"/>
<feColorMatrix in="SourceAlpha" type="matrix" values="0 0 0 0 0 0 0 0 0 0 0 0 0 0 0 0 0 0 127 0" result="hardAlpha"/>
<feOffset dy="4"/>
<feGaussianBlur stdDeviation="2"/>
<feComposite in2="hardAlpha" operator="out"/>
<feColorMatrix type="matrix" values="0 0 0 0 0.247059 0 0 0 0 0.529412 0 0 0 0 0.780392 0 0 0 0.22 0"/>
<feBlend mode="normal" in2="BackgroundImageFix" result="effect1_dropShadow"/>
<feBlend mode="normal" in="SourceGraphic" in2="effect1_dropShadow" result="shape"/>
</filter>
<clipPath id="clip0">
<rect width="625" height="625" fill="white"/>
</clipPath>
<clipPath id="clip1">
<rect width="23" height="23" fill="white" transform="translate(292 60)"/>
</clipPath>
</defs>
</svg>
