<svg width="625" height="625" viewBox="0 0 625 625" fill="none" xmlns="http://www.w3.org/2000/svg">
<g clip-path="url(#clip0_218_1018)">
<path d="M122.218 118.447C231.448 -109.251 254.944 239.079 366.584 292.635C478.225 346.19 660.742 313.95 595.715 449.503C530.689 585.056 328.123 581.911 216.483 528.356C104.842 474.8 57.1915 254 122.218 118.447Z" fill="#EAE9FD"/>
<path d="M318.654 372.54V383.573H336.843V370.801L318.654 372.54Z" fill="#FFE0BD" stroke="#263238" stroke-linecap="round" stroke-linejoin="round"/>
<path d="M313.684 361.83C313.684 361.83 309.379 358.98 310.833 363.978C312.287 368.977 313.684 370.925 315.86 370.687C318.036 370.45 319.215 369.737 318.492 367.836C317.77 365.936 313.684 361.83 313.684 361.83Z" fill="#FFE0BD" stroke="#263238" stroke-linecap="round" stroke-linejoin="round"/>
<path d="M342.468 361.83C342.468 361.83 346.773 358.98 345.319 363.978C343.865 368.977 342.468 370.925 340.292 370.687C338.116 370.45 336.947 369.737 337.66 367.836C338.373 365.936 342.468 361.83 342.468 361.83Z" fill="#FFE0BD" stroke="#263238" stroke-linecap="round" stroke-linejoin="round"/>
<path d="M323.026 338.852C323.026 338.852 315.842 341.238 313.447 347.947C311.052 354.656 313.209 362.781 314.397 366.135C315.585 369.49 321.344 375.952 321.344 375.952H334.268C337.335 372.901 339.847 369.337 341.689 365.423C344.322 359.436 344.322 351.054 344.322 351.054C344.322 351.054 346.469 351.776 346.469 348.897C346.469 346.018 339.817 340.525 339.817 340.525C339.817 340.525 342.934 339.328 340.768 337.674C338.601 336.021 330.951 336.724 330.951 336.724C330.951 336.724 329.963 331.678 323.026 338.852Z" fill="#263238" stroke="#263238" stroke-linecap="round" stroke-linejoin="round"/>
<path d="M351.344 613.857L353.312 615.083C354.564 615.091 355.776 615.523 356.752 616.308C357.977 617.544 357.521 623.645 357.521 623.645C357.521 623.645 356.571 624.367 351.867 624.367C347.163 624.367 336.891 625.507 335.94 623.787C334.99 622.067 336.111 614.835 336.111 614.835L351.344 613.857Z" fill="white" stroke="#263238" stroke-linecap="round" stroke-linejoin="round"/>
<path d="M297.52 459.273C297.52 459.273 296.028 470.087 296.028 472.321C296.028 474.554 295.534 493.702 295.534 493.702C295.534 493.702 295.781 544.067 295.781 545.018C295.781 545.968 291.6 559.766 293.082 569.107C294.565 578.449 297.501 614.322 297.501 614.322C297.501 614.322 296.551 622.191 297.254 622.922C297.957 623.654 307.089 624.642 309.057 623.664C311.024 622.685 309.788 613.096 309.788 613.096C310.471 610.776 310.886 608.384 311.024 605.969V598.101C311.024 595.649 312.25 573.773 313.475 565.173C314.701 556.573 315.442 545.018 315.442 545.018L320.603 491.934L324.537 491.687C324.537 491.687 329.45 548.705 329.697 552.886C329.944 557.067 328.975 565.449 331.189 575.018C333.403 584.588 334.629 610.654 334.629 610.654C334.629 610.654 334.135 613.115 334.629 614.094C335.123 615.073 336.349 618.028 336.349 618.028C338.065 618.186 339.792 618.186 341.509 618.028C344.269 617.893 346.966 617.161 349.415 615.881C350.298 615.168 350.93 614.191 351.217 613.093C351.504 611.995 351.432 610.834 351.012 609.78C349.539 606.178 348.883 605.494 348.883 605.494C348.883 605.494 351.097 574.534 351.097 566.912C351.097 559.291 349.871 549.959 349.871 549.218C349.871 548.477 351.344 493.151 351.344 487.535C351.344 481.918 350.85 466.628 348.389 459.976C345.928 453.324 306.576 455.063 302.68 455.31C301.531 455.408 300.434 455.833 299.519 456.535C298.605 457.238 297.911 458.188 297.52 459.273Z" fill="#263238" stroke="#263238" stroke-linecap="round" stroke-linejoin="round"/>
<path d="M312.021 491.583L333.155 490.604" stroke="#757575" stroke-linecap="round" stroke-linejoin="round"/>
<path d="M324.309 383.088H317.452L311.005 386.281C311.005 386.281 291.828 395.623 287.656 398.074C283.484 400.526 267.006 433.71 267.747 435.43C268.489 437.15 271.682 439.364 274.875 439.859C278.068 440.353 294.327 421.955 294.327 421.955C294.327 421.955 298.993 445.057 298.993 446.035C298.993 447.014 296.294 458.817 297.52 460.784C298.746 462.751 345.937 460.784 345.937 460.784C345.937 460.784 349.377 461.031 349.871 457.838C350.366 454.645 348.921 445.304 348.921 445.304L354.328 417.042C354.328 417.042 364.658 432.703 366.977 435.221C370.996 439.602 375.995 437.768 378.656 434.489C380.984 431.639 378.903 426.127 378.171 424.407C377.439 422.687 364.363 393.447 360.439 392.183C356.514 390.919 340.209 384.218 340.209 384.218L337.033 383.088H324.309Z" fill="#3506B7" stroke="#263238" stroke-linecap="round" stroke-linejoin="round"/>
<path d="M289.328 408.955L294.327 421.917L285.727 413.317" stroke="#263238" stroke-linecap="round" stroke-linejoin="round"/>
<path d="M287.694 404.708L288.283 406.256" stroke="#263238" stroke-linecap="round" stroke-linejoin="round"/>
<path d="M359.944 402.987L354.29 417.004L363.384 407.169" stroke="#263238" stroke-linecap="round" stroke-linejoin="round"/>
<path d="M265.619 441.579C267.019 445.461 269.49 448.868 272.746 451.405C278.153 455.586 292.702 469.346 292.702 469.346C292.552 470.077 292.552 470.83 292.702 471.56C292.949 472.786 296.883 475.979 296.883 475.979V473.527L297.833 471.56L298.784 469.099C299.88 468.674 300.95 468.182 301.986 467.626C302.461 467.289 302.875 466.875 303.212 466.4C304.672 466.663 306.149 466.825 307.631 466.885C309.351 466.885 311.812 465.165 310.339 464.68C308.866 464.196 307.393 464.68 305.426 463.73C303.459 462.78 302.471 461.763 300.504 461.763H295.344L281.774 439.612L265.619 441.579Z" fill="#FFE0BD" stroke="#263238" stroke-linecap="round" stroke-linejoin="round"/>
<path d="M271.387 426.469C271.387 426.469 268.536 427.324 267.785 428.056C267.035 428.788 263.357 434.452 264.098 437.397C264.839 440.343 265.818 444.525 272.204 445.751C278.59 446.976 282.04 444.278 282.534 443.546C283.028 442.814 284.235 434.109 283.246 434.109C282.258 434.109 279.578 437.397 279.578 437.397C279.578 437.397 272.261 435.744 270.788 434.547C269.315 433.349 271.387 426.469 271.387 426.469Z" fill="#3506B7" stroke="#263238" stroke-linecap="round" stroke-linejoin="round"/>
<path d="M384.139 441.579C382.738 445.461 380.267 448.868 377.012 451.405C371.604 455.586 357.055 469.346 357.055 469.346C357.205 470.077 357.205 470.83 357.055 471.56C356.808 472.786 351.401 476.568 351.401 476.568V472.986L351.021 470.724L350.917 469.099C349.82 468.674 348.75 468.182 347.714 467.626C347.239 467.289 346.825 466.875 346.488 466.4C345.028 466.663 343.552 466.825 342.069 466.885C340.349 466.885 337.888 465.165 339.361 464.68C340.834 464.196 342.307 464.68 344.274 463.73C346.241 462.78 347.23 461.763 349.197 461.763H354.357L367.87 439.65L384.139 441.579Z" fill="#FFE0BD" stroke="#263238" stroke-linecap="round" stroke-linejoin="round"/>
<path d="M379.349 427.657C379.349 427.657 381.193 427.305 381.924 428.037C382.656 428.769 386.353 434.433 385.611 437.378C384.87 440.324 383.891 444.506 377.505 445.731C371.119 446.957 367.67 444.259 367.176 443.527C366.682 442.795 366.292 434.423 366.938 435.164C367.85 436.101 368.934 436.852 370.131 437.378C370.131 437.378 377.734 436.989 378.94 432.684C379.272 431.03 379.409 429.343 379.349 427.657Z" fill="#3506B7" stroke="#263238" stroke-linecap="round" stroke-linejoin="round"/>
<path d="M309.075 623.683C310.624 622.903 310.187 616.774 309.93 614.227C308.183 615.047 306.316 615.583 304.4 615.814C302.005 616.143 299.57 615.621 297.52 614.341C297.52 614.341 296.731 622.846 297.396 623.645C298.061 624.443 307.108 624.661 309.075 623.683Z" fill="white" stroke="#263238" stroke-linecap="round" stroke-linejoin="round"/>
<path d="M488.54 295.08C509.273 295.08 526.08 278.273 526.08 257.54C526.08 236.807 509.273 220 488.54 220C467.807 220 451 236.807 451 257.54C451 278.273 467.807 295.08 488.54 295.08Z" fill="white"/>
<g opacity="0.3" filter="url(#filter0_d_218_1018)">
<path d="M488.54 295.08C509.273 295.08 526.08 278.273 526.08 257.54C526.08 236.807 509.273 220 488.54 220C467.807 220 451 236.807 451 257.54C451 278.273 467.807 295.08 488.54 295.08Z" fill="white"/>
</g>
<path d="M488.77 302.12C479.98 302.122 471.386 299.517 464.077 294.635C456.767 289.752 451.069 282.812 447.705 274.691C444.34 266.57 443.459 257.634 445.173 249.013C446.888 240.391 451.12 232.472 457.336 226.256C463.552 220.041 471.471 215.808 480.092 214.093C488.714 212.379 497.65 213.26 505.771 216.625C513.892 219.99 520.832 225.687 525.715 232.997C530.597 240.306 533.202 248.9 533.2 257.69C533.187 269.47 528.501 280.763 520.172 289.092C511.843 297.422 500.549 302.107 488.77 302.12ZM488.77 214.25C480.178 214.248 471.778 216.794 464.633 221.566C457.488 226.338 451.919 233.122 448.629 241.059C445.34 248.997 444.478 257.731 446.153 266.159C447.828 274.586 451.965 282.327 458.04 288.403C464.114 294.479 471.855 298.618 480.281 300.295C488.708 301.972 497.443 301.112 505.381 297.824C513.32 294.537 520.104 288.969 524.878 281.825C529.652 274.681 532.2 266.282 532.2 257.69C532.2 246.166 527.626 235.113 519.483 226.959C511.34 218.805 500.294 214.216 488.77 214.2V214.25Z" fill="white"/>
<path d="M162.551 150.322C182.082 143.368 192.277 121.896 185.323 102.365C178.368 82.8333 156.896 72.638 137.365 79.5928C117.833 86.5477 107.638 108.019 114.593 127.551C121.548 147.082 143.019 157.277 162.551 150.322Z" fill="white"/>
<g opacity="0.3" filter="url(#filter1_d_218_1018)">
<path d="M162.551 150.322C182.082 143.368 192.277 121.896 185.323 102.365C178.368 82.8333 156.896 72.638 137.365 79.5928C117.833 86.5477 107.638 108.019 114.593 127.551C121.548 147.082 143.019 157.277 162.551 150.322Z" fill="white"/>
</g>
<path d="M149.955 157.778C141.484 157.778 133.203 155.266 126.16 150.56C119.117 145.853 113.627 139.164 110.385 131.338C107.144 123.512 106.295 114.9 107.948 106.592C109.601 98.2839 113.68 90.6523 119.67 84.6624C125.66 78.6725 133.291 74.5934 141.599 72.9408C149.908 71.2882 158.519 72.1364 166.345 75.3781C174.172 78.6198 180.861 84.1094 185.567 91.1527C190.273 98.1961 192.785 106.477 192.785 114.948C192.774 126.304 188.259 137.192 180.229 145.222C172.199 153.251 161.311 157.767 149.955 157.778ZM149.955 73.1178C141.682 73.1178 133.594 75.5711 126.716 80.1674C119.837 84.7638 114.475 91.2967 111.309 98.9402C108.143 106.584 107.315 114.994 108.929 123.108C110.543 131.223 114.527 138.676 120.377 144.526C126.227 150.376 133.68 154.36 141.794 155.974C149.909 157.588 158.319 156.76 165.963 153.594C173.606 150.428 180.139 145.066 184.735 138.187C189.332 131.308 191.785 123.221 191.785 114.948C191.772 103.858 187.36 93.2259 179.519 85.3842C171.677 77.5424 161.045 73.131 149.955 73.1178Z" fill="white"/>
<path d="M578.021 174.946C579.757 164.311 572.543 154.283 561.909 152.548C551.275 150.812 541.247 158.026 539.511 168.66C537.775 179.294 544.989 189.322 555.623 191.058C566.258 192.794 576.286 185.58 578.021 174.946Z" fill="white"/>
<g opacity="0.3" filter="url(#filter2_d_218_1018)">
<path d="M578.021 174.946C579.757 164.311 572.543 154.283 561.909 152.548C551.275 150.812 541.247 158.026 539.511 168.66C537.775 179.294 544.989 189.322 555.623 191.058C566.258 192.794 576.286 185.58 578.021 174.946Z" fill="white"/>
</g>
<path d="M558.79 197.64C553.683 197.64 548.691 196.126 544.445 193.289C540.199 190.451 536.889 186.419 534.935 181.701C532.981 176.983 532.47 171.791 533.466 166.783C534.462 161.774 536.921 157.174 540.532 153.563C544.143 149.952 548.744 147.492 553.752 146.496C558.761 145.5 563.953 146.011 568.671 147.965C573.389 149.92 577.421 153.229 580.258 157.475C583.095 161.721 584.61 166.713 584.61 171.82C584.599 178.665 581.875 185.226 577.036 190.066C572.196 194.906 565.634 197.629 558.79 197.64ZM558.79 147C553.881 147 549.082 148.456 545 151.183C540.919 153.91 537.738 157.787 535.859 162.322C533.98 166.857 533.489 171.848 534.447 176.662C535.404 181.477 537.768 185.899 541.239 189.37C544.71 192.842 549.133 195.205 553.948 196.163C558.762 197.121 563.753 196.629 568.288 194.751C572.823 192.872 576.7 189.691 579.427 185.609C582.154 181.528 583.61 176.729 583.61 171.82C583.602 165.24 580.984 158.931 576.331 154.278C571.678 149.625 565.37 147.008 558.79 147Z" fill="white"/>
<circle cx="118.5" cy="42.5" r="17.5" fill="#FFC2AF"/>
<circle cx="412.5" cy="276.5" r="14.5" fill="#FFC2AF"/>
<circle cx="309.5" cy="17.5" r="8.5" fill="#FFE092"/>
<circle cx="214.5" cy="310.5" r="16.5" fill="#FFE092"/>
<circle cx="50.5" cy="182.5" r="8.5" fill="#FFE092"/>
<circle cx="541.5" cy="295.5" r="8.5" fill="#FFE092"/>
<circle cx="259.5" cy="56.5" r="7.5" fill="#FFC2AF"/>
<circle cx="588.5" cy="140.5" r="7.5" fill="#FFC2AF"/>
<circle cx="504.5" cy="19.5" r="17.5" fill="#FFE092"/>
<path d="M288.387 299.387C296.006 291.768 296.006 279.415 288.387 271.796C280.768 264.177 268.415 264.177 260.796 271.796C253.177 279.415 253.177 291.768 260.796 299.387C268.415 307.006 280.768 307.006 288.387 299.387Z" fill="white"/>
<g opacity="0.3" filter="url(#filter3_d_218_1018)">
<path d="M288.387 299.387C296.006 291.768 296.006 279.415 288.387 271.796C280.768 264.177 268.415 264.177 260.796 271.796C253.177 279.415 253.177 291.768 260.796 299.387C268.415 307.006 280.768 307.006 288.387 299.387Z" fill="white"/>
</g>
<path d="M274.599 310.58C269.636 310.58 264.786 309.108 260.66 306.351C256.534 303.595 253.318 299.676 251.419 295.091C249.52 290.507 249.023 285.462 249.991 280.595C250.959 275.728 253.349 271.258 256.857 267.749C260.366 264.24 264.837 261.85 269.704 260.882C274.571 259.914 279.616 260.411 284.2 262.31C288.785 264.209 292.703 267.425 295.46 271.551C298.217 275.677 299.689 280.528 299.689 285.49C299.683 292.143 297.038 298.521 292.334 303.225C287.63 307.93 281.251 310.575 274.599 310.58ZM274.599 261.4C269.834 261.4 265.177 262.813 261.215 265.46C257.254 268.107 254.166 271.869 252.343 276.271C250.519 280.673 250.042 285.517 250.972 290.19C251.901 294.863 254.196 299.155 257.565 302.524C260.934 305.893 265.226 308.188 269.899 309.117C274.572 310.047 279.416 309.569 283.818 307.746C288.22 305.923 291.982 302.835 294.629 298.874C297.276 294.912 298.689 290.254 298.689 285.49C298.681 279.103 296.14 272.981 291.624 268.464C287.108 263.948 280.985 261.408 274.599 261.4Z" fill="white"/>
<path d="M303.6 91.1101C314.375 91.1101 323.11 82.3752 323.11 71.6001C323.11 60.825 314.375 52.0901 303.6 52.0901C292.825 52.0901 284.09 60.825 284.09 71.6001C284.09 82.3752 292.825 91.1101 303.6 91.1101Z" fill="white"/>
<g opacity="0.3" filter="url(#filter4_d_218_1018)">
<path d="M303.6 91.1101C314.375 91.1101 323.11 82.3752 323.11 71.6001C323.11 60.825 314.375 52.0901 303.6 52.0901C292.825 52.0901 284.09 60.825 284.09 71.6001C284.09 82.3752 292.825 91.1101 303.6 91.1101Z" fill="white"/>
</g>
<path d="M303.6 97.2C298.537 97.2 293.587 95.6986 289.377 92.8856C285.168 90.0727 281.886 86.0745 279.949 81.3967C278.011 76.7189 277.504 71.5716 278.492 66.6057C279.48 61.6398 281.918 57.0783 285.498 53.4981C289.078 49.9179 293.64 47.4797 298.606 46.4919C303.572 45.5041 308.719 46.0111 313.397 47.9487C318.074 49.8863 322.073 53.1675 324.886 57.3774C327.699 61.5873 329.2 66.5368 329.2 71.6C329.192 78.3871 326.492 84.894 321.693 89.6932C316.894 94.4924 310.387 97.1921 303.6 97.2ZM303.6 47C298.735 47 293.978 48.4428 289.933 51.1459C285.888 53.8489 282.735 57.6909 280.873 62.186C279.011 66.6811 278.524 71.6273 279.473 76.3992C280.422 81.1712 282.765 85.5545 286.205 88.9948C289.646 92.4352 294.029 94.7781 298.801 95.7273C303.573 96.6765 308.519 96.1894 313.014 94.3275C317.509 92.4655 321.351 89.3125 324.054 85.267C326.757 81.2216 328.2 76.4654 328.2 71.6C328.192 65.0781 325.598 58.8256 320.986 54.214C316.374 49.6023 310.122 47.008 303.6 47Z" fill="white"/>
<path d="M156.245 228.959C160.235 203.824 143.093 180.214 117.959 176.224C92.8244 172.234 69.2143 189.376 65.2244 214.51C61.2345 239.645 78.3756 263.255 103.51 267.245C128.645 271.235 152.255 254.093 156.245 228.959Z" fill="white"/>
<g opacity="0.3" filter="url(#filter5_d_218_1018)">
<path d="M156.245 228.959C160.235 203.824 143.093 180.214 117.959 176.224C92.8244 172.234 69.2143 189.376 65.2244 214.51C61.2345 239.645 78.3756 263.255 103.51 267.245C128.645 271.235 152.255 254.093 156.245 228.959Z" fill="white"/>
</g>
<path d="M99.0196 231.371C96.6412 231.371 94.3162 230.665 92.339 229.343C90.3618 228.021 88.8213 226.142 87.9123 223.944C87.0034 221.747 86.767 219.328 87.233 216.996C87.699 214.664 88.8464 212.522 90.5301 210.842C92.2138 209.162 94.358 208.02 96.6914 207.559C99.0248 207.098 101.442 207.34 103.638 208.254C105.834 209.168 107.709 210.713 109.027 212.693C110.344 214.673 111.045 217 111.039 219.378C111.028 222.56 109.757 225.608 107.504 227.855C105.252 230.102 102.201 231.366 99.0196 231.371ZM99.0196 208.389C96.8505 208.389 94.7303 209.032 92.9271 210.238C91.1239 211.443 89.7189 213.157 88.8899 215.161C88.0608 217.165 87.845 219.371 88.2697 221.498C88.6945 223.625 89.7407 225.578 91.2759 227.11C92.8112 228.642 94.7665 229.685 96.8944 230.105C99.0222 230.526 101.227 230.305 103.23 229.472C105.232 228.639 106.943 227.231 108.145 225.425C109.347 223.62 109.986 221.498 109.982 219.329C109.973 216.427 108.815 213.646 106.76 211.595C104.706 209.545 101.922 208.392 99.0196 208.389Z" fill="#3506B7"/>
<path d="M107.611 198.479C109.676 198.479 111.35 196.805 111.35 194.739C111.35 192.674 109.676 191 107.611 191C105.545 191 103.871 192.674 103.871 194.739C103.871 196.805 105.545 198.479 107.611 198.479Z" fill="#3506B7"/>
<path d="M128.864 225.625C127.624 225.625 126.412 225.258 125.381 224.569C124.349 223.881 123.545 222.902 123.07 221.757C122.594 220.612 122.468 219.351 122.709 218.135C122.949 216.918 123.545 215.8 124.42 214.922C125.295 214.044 126.411 213.445 127.627 213.2C128.842 212.955 130.103 213.077 131.25 213.548C132.397 214.02 133.378 214.82 134.07 215.849C134.762 216.878 135.134 218.089 135.138 219.329C135.14 220.155 134.98 220.973 134.665 221.736C134.351 222.499 133.889 223.193 133.307 223.778C132.724 224.363 132.032 224.827 131.269 225.144C130.507 225.461 129.69 225.624 128.864 225.625ZM128.864 214.134C127.832 214.135 126.823 214.443 125.965 215.018C125.107 215.592 124.44 216.409 124.046 217.363C123.653 218.318 123.552 219.368 123.755 220.38C123.959 221.392 124.458 222.321 125.19 223.049C125.922 223.777 126.854 224.272 127.867 224.47C128.88 224.669 129.93 224.562 130.882 224.164C131.835 223.765 132.648 223.093 133.218 222.233C133.788 221.372 134.09 220.362 134.086 219.329C134.079 217.949 133.526 216.628 132.547 215.654C131.568 214.681 130.244 214.134 128.864 214.134Z" fill="#3506B7"/>
<path d="M116.065 253.126C114.354 253.126 112.682 252.619 111.259 251.668C109.837 250.717 108.728 249.366 108.073 247.786C107.418 246.205 107.247 244.465 107.581 242.787C107.915 241.109 108.738 239.568 109.948 238.358C111.158 237.148 112.7 236.324 114.378 235.99C116.056 235.657 117.795 235.828 119.376 236.483C120.957 237.137 122.308 238.246 123.258 239.669C124.209 241.092 124.716 242.764 124.716 244.475C124.712 246.768 123.799 248.966 122.178 250.587C120.556 252.209 118.358 253.122 116.065 253.126ZM116.065 236.876C114.562 236.876 113.093 237.322 111.844 238.157C110.594 238.992 109.62 240.179 109.045 241.567C108.47 242.956 108.319 244.483 108.613 245.958C108.906 247.432 109.63 248.785 110.692 249.848C111.755 250.911 113.109 251.635 114.583 251.928C116.057 252.221 117.585 252.071 118.973 251.495C120.362 250.92 121.549 249.946 122.384 248.697C123.219 247.447 123.664 245.978 123.664 244.475C123.653 242.464 122.848 240.539 121.425 239.118C120.002 237.698 118.076 236.896 116.065 236.887V236.876Z" fill="#3506B7"/>
<path d="M105.701 198.052L102.46 208.399L103.47 208.715L106.71 198.368L105.701 198.052Z" fill="#3506B7"/>
<path d="M123.113 218.822H110.51V219.88H123.113V218.822Z" fill="#3506B7"/>
<path d="M105.975 228.486L105.118 229.106L111.437 237.829L112.294 237.209L105.975 228.486Z" fill="#3506B7"/>
<path d="M102.933 220.485H95.1055C94.593 220.485 94.0975 220.669 93.7086 221.003C93.3197 221.337 93.0631 221.799 92.985 222.305L92.4399 225.691H105.566L105.021 222.305C104.944 221.804 104.692 221.347 104.31 221.013C103.928 220.68 103.44 220.493 102.933 220.485Z" fill="#3506B7"/>
<path d="M102.742 215.399C102.747 216.136 102.532 216.858 102.126 217.473C101.719 218.088 101.139 218.569 100.459 218.854C99.7794 219.139 99.0302 219.216 98.3065 219.075C97.5829 218.934 96.9175 218.581 96.3946 218.061C95.8717 217.541 95.515 216.878 95.3695 216.155C95.2241 215.432 95.2966 214.683 95.5777 214.001C95.8588 213.319 96.336 212.737 96.9487 212.327C97.5614 211.917 98.2821 211.698 99.0194 211.698C100.003 211.696 100.948 212.085 101.646 212.779C102.344 213.473 102.738 214.415 102.742 215.399Z" fill="#3506B7"/>
<path d="M130.592 219.934H127.076C126.846 219.934 126.623 220.017 126.448 220.167C126.273 220.316 126.157 220.524 126.122 220.752L125.91 222.273H131.808L131.573 220.752C131.536 220.52 131.417 220.309 131.236 220.159C131.056 220.008 130.827 219.929 130.592 219.934Z" fill="#3506B7"/>
<path d="M130.505 217.65C130.505 217.981 130.407 218.305 130.223 218.58C130.039 218.855 129.777 219.07 129.472 219.196C129.166 219.323 128.829 219.356 128.505 219.291C128.18 219.227 127.882 219.068 127.648 218.833C127.414 218.599 127.254 218.301 127.19 217.977C127.125 217.652 127.158 217.316 127.285 217.01C127.412 216.704 127.626 216.443 127.901 216.259C128.177 216.075 128.5 215.977 128.831 215.977C129.275 215.977 129.701 216.153 130.015 216.467C130.328 216.781 130.505 217.206 130.505 217.65Z" fill="#3506B7"/>
<path d="M118.856 245.336H113.274C112.908 245.336 112.554 245.466 112.276 245.704C111.999 245.942 111.815 246.272 111.759 246.634L111.383 249.048H120.748L120.372 246.634C120.315 246.272 120.131 245.943 119.853 245.706C119.575 245.468 119.222 245.337 118.856 245.336Z" fill="#3506B7"/>
<path d="M118.72 241.706C118.721 242.232 118.565 242.747 118.274 243.186C117.982 243.624 117.566 243.966 117.08 244.168C116.594 244.37 116.058 244.423 115.542 244.321C115.025 244.218 114.551 243.965 114.179 243.592C113.806 243.22 113.553 242.745 113.45 242.229C113.348 241.712 113.401 241.177 113.603 240.691C113.805 240.204 114.147 239.789 114.585 239.497C115.023 239.205 115.538 239.05 116.065 239.051C116.769 239.051 117.444 239.331 117.942 239.829C118.44 240.327 118.72 241.002 118.72 241.706Z" fill="#3506B7"/>
<path d="M110.731 273.723C100.447 273.723 90.3932 270.673 81.8418 264.959C73.2905 259.246 66.6255 251.124 62.6897 241.623C58.754 232.121 57.7242 221.665 59.7306 211.578C61.7371 201.491 66.6896 192.226 73.9619 184.953C81.2342 177.681 90.4998 172.729 100.587 170.722C110.674 168.716 121.129 169.746 130.631 173.681C140.133 177.617 148.254 184.282 153.968 192.833C159.682 201.385 162.731 211.438 162.731 221.723C162.731 235.514 157.253 248.741 147.501 258.493C137.749 268.244 124.523 273.723 110.731 273.723ZM110.731 170.723C100.645 170.723 90.7843 173.714 82.3974 179.318C74.0105 184.922 67.4737 192.887 63.6136 202.206C59.7535 211.525 58.7436 221.78 60.7114 231.673C62.6793 241.566 67.5365 250.653 74.669 257.785C81.8015 264.918 90.8888 269.775 100.782 271.743C110.675 273.711 120.929 272.701 130.248 268.841C139.567 264.981 147.532 258.444 153.136 250.057C158.74 241.67 161.731 231.81 161.731 221.723C161.724 208.202 156.347 195.238 146.783 185.68C137.22 176.122 124.252 170.753 110.731 170.753V170.723Z" fill="white"/>
<path d="M461.15 136.01C486.599 136.01 507.23 115.379 507.23 89.9301C507.23 64.4808 486.599 43.8501 461.15 43.8501C435.701 43.8501 415.07 64.4808 415.07 89.9301C415.07 115.379 435.701 136.01 461.15 136.01Z" fill="white"/>
<g opacity="0.3" filter="url(#filter6_d_218_1018)">
<path d="M461.21 136.16C486.659 136.16 507.29 115.529 507.29 90.08C507.29 64.6307 486.659 44 461.21 44C435.761 44 415.13 64.6307 415.13 90.08C415.13 115.529 435.761 136.16 461.21 136.16Z" fill="white"/>
</g>
<path d="M434.78 106.925C434.723 106.925 434.667 106.914 434.615 106.892C434.562 106.87 434.515 106.838 434.474 106.798C434.434 106.758 434.402 106.71 434.381 106.658C434.359 106.605 434.348 106.549 434.348 106.492V71.0227C434.348 70.9032 434.395 70.7886 434.48 70.7041C434.564 70.6196 434.679 70.5721 434.798 70.5721C434.918 70.5721 435.032 70.6196 435.117 70.7041C435.201 70.7886 435.249 70.9032 435.249 71.0227V106.492C435.249 106.552 435.237 106.612 435.213 106.667C435.189 106.721 435.154 106.771 435.11 106.812C435.066 106.852 435.014 106.883 434.957 106.903C434.9 106.922 434.84 106.93 434.78 106.925Z" fill="#E0E0E0"/>
<path d="M491.697 106.925H429.563C429.505 106.926 429.449 106.916 429.396 106.894C429.343 106.873 429.294 106.841 429.254 106.801C429.214 106.76 429.182 106.712 429.16 106.659C429.139 106.606 429.129 106.549 429.13 106.492C429.129 106.435 429.139 106.377 429.16 106.324C429.181 106.27 429.213 106.222 429.253 106.181C429.294 106.139 429.342 106.107 429.395 106.084C429.448 106.062 429.505 106.051 429.563 106.051H491.697C491.755 106.051 491.812 106.062 491.865 106.084C491.918 106.107 491.966 106.139 492.006 106.181C492.047 106.222 492.078 106.27 492.099 106.324C492.121 106.377 492.131 106.435 492.13 106.492C492.131 106.549 492.121 106.606 492.099 106.659C492.078 106.712 492.046 106.76 492.006 106.801C491.965 106.841 491.917 106.873 491.864 106.894C491.811 106.916 491.754 106.926 491.697 106.925Z" fill="#E0E0E0"/>
<path d="M445.351 91.2987H438.142V103.014H445.351V91.2987Z" fill="#3506B7"/>
<path d="M456.164 87.6941H448.955V103.014H456.164V87.6941Z" fill="#7708B2"/>
<path d="M466.978 79.5837H459.769V103.014H466.978V79.5837Z" fill="#3506B7"/>
<path d="M477.792 77.7814H470.583V103.014H477.792V77.7814Z" fill="#7708B2"/>
<path d="M488.606 72.3745H481.397V103.014H488.606V72.3745Z" fill="#3506B7"/>
<path d="M461.13 142.86C450.661 142.862 440.427 139.759 431.721 133.945C423.015 128.13 416.23 119.864 412.222 110.192C408.214 100.521 407.165 89.8781 409.206 79.61C411.247 69.342 416.287 59.9098 423.689 52.5064C431.091 45.103 440.522 40.0609 450.79 38.0178C461.058 35.9747 471.701 37.0223 481.373 41.0281C491.045 45.034 499.312 51.8181 505.129 60.5226C510.945 69.2272 514.05 79.461 514.05 89.93C514.031 103.961 508.45 117.411 498.53 127.333C488.61 137.255 475.16 142.839 461.13 142.86ZM461.13 38.01C450.858 38.008 440.817 41.0523 432.275 46.7576C423.734 52.463 417.077 60.5733 413.145 70.0626C409.213 79.552 408.184 89.9942 410.187 100.069C412.191 110.143 417.137 119.397 424.4 126.66C431.663 133.923 440.917 138.869 450.991 140.873C461.066 142.876 471.508 141.847 480.997 137.915C490.487 133.983 498.597 127.326 504.302 118.785C510.008 110.243 513.052 100.202 513.05 89.93C513.029 76.1665 507.552 62.9727 497.82 53.2404C488.087 43.5081 474.894 38.0312 461.13 38.01Z" fill="white"/>
<path d="M162.212 221.743C166.682 221.613 171.152 221.503 175.622 221.443C180.092 221.383 184.622 221.303 189.042 221.303L188.802 221.373L200.632 213.633L212.532 206.003C216.532 203.443 220.532 201.003 224.532 198.443C228.532 195.883 232.532 193.443 236.532 191.003C232.639 193.67 228.735 196.313 224.822 198.933C220.892 201.533 216.992 204.173 213.032 206.743L201.202 214.473L189.282 222.083L189.172 222.153H189.042C184.572 222.153 180.102 222.053 175.622 222.003C171.142 221.953 166.682 221.863 162.212 221.743Z" fill="#837E7E"/>
<path d="M287.009 263.66C290.449 259.393 293.915 255.143 297.409 250.91C300.909 246.68 304.409 242.45 307.929 238.26L318.529 225.67L329.209 213.16L329.339 213H329.529L343.719 213.16L350.819 213.28L357.919 213.43L350.819 213.59L343.719 213.71L329.529 213.86L329.859 213.71L319.279 226.31L308.609 238.83C305.059 243.02 301.459 247.15 297.869 251.3C294.279 255.45 290.599 259.56 287.009 263.66Z" fill="#837E7E"/>
<path d="M181.075 144.098C183.845 146.608 186.555 149.168 189.235 151.758C191.915 154.348 194.565 156.968 197.235 159.578L196.895 159.438C199.185 159.438 201.475 159.438 203.765 159.438L210.645 159.498C215.225 159.588 219.805 159.678 224.385 159.908C219.805 160.138 215.225 160.228 210.645 160.318L203.765 160.378C201.475 160.378 199.185 160.378 196.895 160.378H196.685L196.555 160.238C193.945 157.568 191.295 154.948 188.735 152.238C186.175 149.528 183.585 146.868 181.075 144.098Z" fill="#837E7E"/>
<path d="M303.6 96.6702C303.81 99.4302 303.9 102.19 303.98 104.95C304.06 107.71 304.09 110.48 304.1 113.24C304.11 116 304.1 118.76 303.98 121.53L303.85 125.67C303.76 127.05 303.71 128.43 303.6 129.81C303.49 128.43 303.44 127.05 303.35 125.67L303.22 121.53C303.12 118.76 303.11 116 303.1 113.24C303.09 110.48 303.1 107.71 303.22 104.95C303.34 102.19 303.39 99.4602 303.6 96.6702Z" fill="#837E7E"/>
<path d="M434 174.5C442.251 174.3 450.501 174.2 458.752 174.12L483.504 174L508.256 174.12L520.628 174.26L533 174.5L520.628 174.75L508.256 174.89L483.504 175L458.752 174.89C450.478 174.83 442.251 174.71 434 174.5Z" fill="#837E7E"/>
<path d="M447.78 241.81C443.24 242.01 438.69 242.11 434.15 242.19H433.99L433.87 242.06C431.46 239.47 429.12 236.8 426.75 234.17C424.38 231.54 422.05 228.87 419.75 226.17L416.25 222.17L412.81 218.17C410.5 215.48 408.24 212.75 406 210C408.46 212.547 410.887 215.13 413.28 217.75L416.89 221.65L420.44 225.65C422.8 228.29 425.18 230.91 427.5 233.59C429.82 236.27 432.19 238.91 434.5 241.59L434.22 241.46C438.69 241.52 443.24 241.62 447.78 241.81Z" fill="#837E7E"/>
<path d="M409.32 97.7499C406.32 97.8999 403.23 98.0099 400.19 98.0699C397.15 98.1299 394.11 98.1999 391.07 98.2099L391.39 98.0799C389.72 99.6899 388.08 101.33 386.39 102.9L381.33 107.66C377.93 110.8 374.51 113.93 371 116.96C374.17 113.58 377.45 110.31 380.74 107.04L385.74 102.2C387.39 100.58 389.1 99.0099 390.74 97.4099L390.87 97.2899H391.06C394.06 97.2899 397.14 97.2899 400.18 97.4199C403.22 97.5499 406.28 97.5899 409.32 97.7499Z" fill="#837E7E"/>
<path d="M157.105 96.5179C154.659 95.3968 151.89 95.1998 149.309 95.9633C146.729 96.7268 144.513 98.3992 143.071 100.671C141.629 102.942 141.059 105.66 141.466 108.319C141.873 110.979 143.23 113.401 145.285 115.138C146.063 115.794 146.924 116.345 147.845 116.778C149.298 117.44 150.878 117.781 152.475 117.778C152.815 117.778 153.155 117.778 153.475 117.778C155.939 117.578 158.267 116.563 160.091 114.894C161.914 113.224 163.13 110.995 163.546 108.558C163.962 106.12 163.555 103.614 162.389 101.434C161.222 99.2538 159.363 97.5242 157.105 96.5179ZM162.105 111.068C161.527 112.338 160.704 113.483 159.682 114.434C158.661 115.386 157.463 116.127 156.155 116.615C154.847 117.103 153.455 117.328 152.06 117.277C150.665 117.226 149.294 116.9 148.025 116.318C147.14 115.909 146.313 115.384 145.565 114.758C144.151 113.557 143.075 112.007 142.445 110.262C141.814 108.517 141.651 106.637 141.972 104.81C142.292 102.982 143.085 101.271 144.271 99.844C145.458 98.4175 146.996 97.326 148.735 96.6779C150.04 96.1865 151.43 95.9592 152.824 96.009C154.218 96.0587 155.588 96.3847 156.855 96.9679C158.131 97.5484 159.281 98.3748 160.237 99.3998C161.194 100.425 161.939 101.628 162.43 102.941C162.922 104.255 163.149 105.652 163.1 107.053C163.051 108.454 162.727 109.832 162.145 111.108L162.105 111.068ZM157.105 96.5179C154.659 95.3968 151.89 95.1998 149.309 95.9633C146.729 96.7268 144.513 98.3992 143.071 100.671C141.629 102.942 141.059 105.66 141.466 108.319C141.873 110.979 143.23 113.401 145.285 115.138C146.063 115.794 146.924 116.345 147.845 116.778C149.298 117.44 150.878 117.781 152.475 117.778C152.815 117.778 153.155 117.778 153.475 117.778C155.939 117.578 158.267 116.563 160.091 114.894C161.914 113.224 163.13 110.995 163.546 108.558C163.962 106.12 163.555 103.614 162.389 101.434C161.222 99.2538 159.363 97.5242 157.105 96.5179ZM162.105 111.068C161.527 112.338 160.704 113.483 159.682 114.434C158.661 115.386 157.463 116.127 156.155 116.615C154.847 117.103 153.455 117.328 152.06 117.277C150.665 117.226 149.294 116.9 148.025 116.318C147.14 115.909 146.313 115.384 145.565 114.758C144.151 113.557 143.075 112.007 142.445 110.262C141.814 108.517 141.651 106.637 141.972 104.81C142.292 102.982 143.085 101.271 144.271 99.844C145.458 98.4175 146.996 97.326 148.735 96.6779C150.04 96.1865 151.43 95.9592 152.824 96.009C154.218 96.0587 155.588 96.3847 156.855 96.9679C158.131 97.5484 159.281 98.3748 160.237 99.3998C161.194 100.425 161.939 101.628 162.43 102.941C162.922 104.255 163.149 105.652 163.1 107.053C163.051 108.454 162.727 109.832 162.145 111.108L162.105 111.068ZM166.795 101.298C166.095 99.4101 165.028 97.68 163.655 96.2079C161.589 93.9903 158.913 92.4352 155.963 91.7392C153.014 91.0432 149.924 91.2376 147.085 92.2979C144.465 93.2745 142.162 94.9498 140.426 97.142C138.69 99.3342 137.587 101.96 137.236 104.734C136.886 107.508 137.302 110.326 138.439 112.881C139.575 115.436 141.39 117.631 143.685 119.228L141.685 123.558L141.475 124.008L148.225 127.138L148.435 126.688L150.665 121.868C153.273 122.176 155.915 121.808 158.34 120.801C160.765 119.793 162.89 118.179 164.511 116.114C166.133 114.049 167.196 111.602 167.6 109.007C168.003 106.413 167.733 103.758 166.815 101.298H166.795ZM165.915 112.808C164.609 115.694 162.407 118.084 159.637 119.622C156.867 121.16 153.676 121.765 150.535 121.348H150.345L148.005 126.518L142.165 123.808L144.365 119.098L144.195 118.978C141.848 117.397 140.002 115.178 138.875 112.582C137.749 109.986 137.388 107.122 137.837 104.328C138.285 101.534 139.524 98.9261 141.406 96.8131C143.288 94.7001 145.736 93.1698 148.46 92.4028C151.184 91.6358 154.07 91.6641 156.779 92.4845C159.487 93.3049 161.904 94.883 163.745 97.0326C165.585 99.1822 166.772 101.813 167.165 104.616C167.559 107.418 167.142 110.275 165.965 112.848L165.915 112.808Z" fill="#EAE9FD"/>
<path d="M166.365 101.518C165.548 99.3332 164.226 97.3721 162.508 95.7943C160.79 94.2165 158.724 93.0666 156.478 92.4379C154.232 91.8093 151.869 91.7198 149.581 92.1767C147.294 92.6336 145.146 93.624 143.314 95.0673C141.482 96.5107 140.016 98.3662 139.036 100.483C138.056 102.6 137.589 104.918 137.674 107.249C137.759 109.58 138.393 111.858 139.524 113.898C140.655 115.938 142.252 117.682 144.185 118.988L144.355 119.108L142.165 123.818L148.005 126.518L150.365 121.368H150.555C153.086 121.695 155.658 121.363 158.023 120.405C160.388 119.447 162.466 117.895 164.055 115.899C165.645 113.904 166.693 111.531 167.097 109.012C167.502 106.492 167.25 103.911 166.365 101.518ZM162.595 111.328C161.779 113.106 160.509 114.638 158.914 115.77C157.318 116.902 155.453 117.595 153.505 117.778C153.165 117.778 152.825 117.778 152.505 117.778C150.908 117.781 149.328 117.44 147.875 116.778C146.954 116.345 146.093 115.794 145.315 115.138C143.733 113.799 142.557 112.045 141.918 110.074C141.279 108.103 141.203 105.993 141.699 103.981C142.195 101.969 143.242 100.135 144.723 98.6862C146.205 97.2373 148.061 96.2307 150.084 95.7797C152.106 95.3287 154.214 95.4513 156.171 96.1336C158.127 96.8159 159.855 98.0308 161.158 99.6416C162.462 101.252 163.289 103.195 163.549 105.251C163.808 107.307 163.488 109.394 162.625 111.278L162.595 111.328Z" fill="#3506B7"/>
<path d="M148.455 126.728L148.005 126.518L142.165 123.808L141.705 123.598L140.365 122.988L133.105 138.638L142.415 142.868L149.655 127.288L148.455 126.728ZM142.195 142.208L133.785 138.398L140.625 123.648L141.495 124.048L148.245 127.178L149.005 127.528L142.195 142.208Z" fill="#263238"/>
<path d="M265.189 285.9C265.367 285.792 265.571 285.735 265.779 285.735C265.987 285.735 266.191 285.792 266.369 285.9L266.679 286.08L266.989 286.23C267.182 286.318 267.346 286.459 267.462 286.635C267.579 286.812 267.644 287.018 267.649 287.23L267.699 288.69L272.439 288.54V287.09C272.44 286.886 272.495 286.686 272.598 286.51C272.702 286.334 272.851 286.189 273.029 286.09C273.24 285.98 273.444 285.856 273.639 285.72C273.81 285.599 274.01 285.529 274.219 285.517C274.427 285.504 274.635 285.55 274.819 285.65L276.099 286.33L278.339 282.15L277.059 281.46C276.879 281.363 276.728 281.219 276.624 281.042C276.52 280.866 276.467 280.665 276.469 280.46C276.484 280.224 276.484 279.986 276.469 279.75C276.447 279.542 276.484 279.333 276.576 279.145C276.668 278.958 276.811 278.8 276.989 278.69L278.229 277.92L275.729 273.92L274.479 274.69C274.302 274.8 274.097 274.858 273.889 274.858C273.68 274.858 273.476 274.8 273.299 274.69L272.999 274.51L272.689 274.35C272.495 274.262 272.33 274.122 272.211 273.946C272.093 273.769 272.026 273.563 272.019 273.35V271.89L267.269 272.04L267.319 273.49C267.318 273.694 267.263 273.894 267.159 274.07C267.056 274.246 266.907 274.391 266.729 274.49C266.519 274.6 266.319 274.73 266.119 274.86C265.949 274.982 265.749 275.054 265.54 275.068C265.332 275.083 265.123 275.038 264.939 274.94L263.659 274.25L261.419 278.44L262.699 279.12C262.877 279.219 263.026 279.364 263.129 279.54C263.233 279.716 263.288 279.916 263.289 280.12C263.274 280.356 263.274 280.594 263.289 280.83C263.31 281.038 263.272 281.247 263.18 281.434C263.088 281.621 262.946 281.779 262.769 281.89L261.529 282.66L264.029 286.66L265.189 285.9ZM266.379 278.41C266.742 277.734 267.297 277.18 267.973 276.819C268.65 276.457 269.419 276.304 270.183 276.378C270.946 276.453 271.671 276.751 272.266 277.236C272.86 277.721 273.298 278.371 273.524 279.105C273.75 279.838 273.754 280.622 273.535 281.357C273.317 282.093 272.886 282.747 272.296 283.239C271.707 283.73 270.985 284.036 270.222 284.118C269.46 284.2 268.689 284.055 268.009 283.7C267.556 283.462 267.155 283.137 266.828 282.744C266.501 282.351 266.254 281.897 266.103 281.408C265.952 280.919 265.898 280.406 265.945 279.897C265.993 279.387 266.14 278.892 266.379 278.44V278.41Z" fill="#3506B7"/>
<path d="M276.89 291.85C277.014 291.925 277.116 292.033 277.183 292.162C277.25 292.29 277.28 292.435 277.27 292.58V293.07C277.28 293.215 277.25 293.36 277.183 293.488C277.116 293.617 277.014 293.725 276.89 293.8L276 294.31L277.66 297.16L278.55 296.65C278.675 296.574 278.819 296.534 278.965 296.534C279.111 296.534 279.255 296.574 279.38 296.65C279.518 296.743 279.661 296.826 279.81 296.9C279.938 296.968 280.045 297.068 280.12 297.191C280.196 297.315 280.237 297.456 280.24 297.6V298.6H283.57V297.6C283.573 297.454 283.615 297.312 283.693 297.189C283.77 297.065 283.88 296.966 284.01 296.9C284.159 296.826 284.302 296.743 284.44 296.65C284.565 296.574 284.709 296.534 284.855 296.534C285.001 296.534 285.145 296.574 285.27 296.65L286.15 297.16L287.81 294.28L286.92 293.77C286.796 293.695 286.694 293.587 286.627 293.458C286.56 293.33 286.53 293.185 286.54 293.04C286.54 292.96 286.54 292.88 286.54 292.79C286.54 292.7 286.54 292.63 286.54 292.55C286.53 292.404 286.561 292.258 286.63 292.129C286.699 292 286.803 291.893 286.93 291.82L287.81 291.31L286.16 288.45L285.28 288.96C285.155 289.036 285.011 289.076 284.865 289.076C284.719 289.076 284.575 289.036 284.45 288.96C284.312 288.867 284.169 288.784 284.02 288.71C283.888 288.644 283.778 288.542 283.7 288.417C283.622 288.292 283.581 288.147 283.58 288V287H280.25V288C280.249 288.146 280.209 288.289 280.133 288.414C280.057 288.539 279.949 288.641 279.82 288.71C279.67 288.781 279.526 288.865 279.39 288.96C279.265 289.036 279.121 289.076 278.975 289.076C278.829 289.076 278.685 289.036 278.56 288.96L277.67 288.45L276.01 291.34L276.89 291.85ZM281.89 290.1C282.43 290.1 282.959 290.26 283.408 290.561C283.857 290.861 284.207 291.288 284.413 291.788C284.619 292.287 284.673 292.836 284.567 293.366C284.461 293.896 284.2 294.383 283.817 294.764C283.434 295.145 282.947 295.405 282.416 295.509C281.886 295.613 281.337 295.557 280.838 295.349C280.34 295.141 279.914 294.79 279.615 294.339C279.316 293.889 279.158 293.36 279.16 292.82C279.16 292.46 279.231 292.104 279.37 291.772C279.508 291.44 279.711 291.139 279.967 290.886C280.223 290.633 280.526 290.433 280.86 290.298C281.193 290.163 281.55 290.096 281.91 290.1H281.89Z" fill="#3506B7"/>
<path d="M548 169.848H569.45V181.203C569.45 181.502 569.331 181.789 569.12 182C568.909 182.211 568.622 182.33 568.323 182.33H549.127C548.828 182.33 548.541 182.211 548.33 182C548.119 181.789 548 181.502 548 181.203V169.848Z" fill="#3506B7"/>
<path opacity="0.3" d="M548 169.848L558.022 177.455C558.224 177.609 558.471 177.692 558.725 177.692C558.979 177.692 559.226 177.609 559.428 177.455L569.45 169.848H548Z" fill="black"/>
<path d="M569.45 169.847L559.428 162.237C559.226 162.083 558.979 162 558.725 162C558.471 162 558.224 162.083 558.022 162.237L548 169.847H569.45Z" fill="#3506B7"/>
<path opacity="0.3" d="M569.45 169.848L566.855 171.818L559.428 177.455C559.226 177.608 558.98 177.691 558.727 177.691C558.473 177.691 558.227 177.608 558.025 177.455L550.595 171.818L548.003 169.848H569.45Z" fill="black"/>
<path d="M566.855 164.283V171.822L559.428 177.455C559.226 177.608 558.98 177.691 558.726 177.691C558.473 177.691 558.227 177.608 558.025 177.455L550.595 171.818V164.283H566.855Z" fill="white"/>
<path d="M566.437 164.713V171.611L559.175 177.123C559.047 177.224 558.888 177.279 558.725 177.278C558.562 177.278 558.403 177.223 558.275 177.123L551.022 171.611V164.713H566.46H566.437ZM566.878 164.296H550.595V171.832L558.025 177.468C558.227 177.621 558.473 177.704 558.726 177.704C558.98 177.704 559.226 177.621 559.428 177.468L566.855 171.835V164.283L566.878 164.296Z" fill="#E0E0E0"/>
<path d="M565.16 166.086H552.29V166.901H565.16V166.086Z" fill="white"/>
<path d="M565.16 168.274H552.29V168.681H565.16V168.274Z" fill="#E0E0E0"/>
<path d="M565.16 169.434H552.29V169.841H565.16V169.434Z" fill="#E0E0E0"/>
<path d="M565.16 170.59H552.29V170.997H565.16V170.59Z" fill="#E0E0E0"/>
<g clip-path="url(#clip1_218_1018)">
<path d="M292 66.9404V81.0806C292 82.1396 292.857 82.9973 293.917 82.9973H313.083C314.142 82.9973 315 82.1396 315 81.0806V66.9404H292Z" fill="#F2F2F2"/>
<path d="M297.484 70.8375H300.868V79.1966H299.075V72.4284H297.484V70.8375Z" fill="#263238"/>
<path d="M306.059 79.2925C304.903 79.2925 304.038 78.9 303.464 78.1147C302.89 77.3293 302.603 76.2809 302.603 74.9694C302.603 73.6589 302.89 72.609 303.464 71.8242C304.038 71.0398 304.903 70.6464 306.059 70.6464C307.215 70.6464 308.08 71.0397 308.654 71.8242C309.228 72.6095 309.515 73.6589 309.515 74.9694C309.515 76.2809 309.228 77.3298 308.654 78.1147C308.08 78.8995 307.215 79.2925 306.059 79.2925ZM304.827 72.954C304.564 73.4639 304.433 74.1381 304.433 74.9752C304.433 75.8113 304.564 76.486 304.827 76.9963C305.09 77.5066 305.501 77.762 306.059 77.762C306.617 77.762 307.027 77.5066 307.291 76.9963C307.554 76.4865 307.685 75.8113 307.685 74.9752C307.685 74.1381 307.554 73.4644 307.291 72.954C307.027 72.4447 306.617 72.1879 306.059 72.1879C305.501 72.1879 305.09 72.4447 304.827 72.954Z" fill="#263238"/>
<path d="M313.083 61.3663H293.917C292.858 61.3663 292 62.2245 292 63.283V66.9434H315V63.283C315 62.2245 314.142 61.3663 313.083 61.3663Z" fill="#EAE9FD"/>
<path d="M311.955 64.1543C311.955 64.9032 311.348 65.5103 310.599 65.5103C309.85 65.5103 309.244 64.9032 309.244 64.1543C309.244 63.4053 309.85 62.7982 310.599 62.7982C311.348 62.7982 311.955 63.4053 311.955 64.1543Z" fill="white"/>
<path d="M297.758 64.1543C297.758 64.9032 297.15 65.5103 296.401 65.5103C295.653 65.5103 295.046 64.9032 295.046 64.1543C295.046 63.4053 295.653 62.7982 296.401 62.7982C297.15 62.7982 297.758 63.4053 297.758 64.1543Z" fill="white"/>
<path d="M310.613 60.0026C310.115 60.0026 309.711 60.406 309.711 60.9048L309.697 63.8296C309.697 64.328 310.101 64.7319 310.6 64.7319C311.098 64.7319 311.502 64.328 311.502 63.8296L311.516 60.9048C311.516 60.406 311.112 60.0026 310.613 60.0026Z" fill="#C2C2C2"/>
<path d="M296.416 60.0026C295.918 60.0026 295.513 60.406 295.513 60.9048L295.5 63.8292C295.5 64.3275 295.904 64.7314 296.402 64.7314C296.901 64.7314 297.304 64.3275 297.304 63.8292L297.318 60.9044C297.318 60.406 296.914 60.0026 296.416 60.0026Z" fill="#C2C2C2"/>
</g>
<path d="M493.903 268.88L493.896 268.896L493.891 268.912C493.445 270.284 493.072 271.678 492.773 273.089H484.348C484.05 271.675 483.677 270.279 483.228 268.906L483.223 268.891L483.218 268.876C482.933 268.161 482.312 267.544 481.639 266.93C481.482 266.786 481.32 266.641 481.153 266.492C480.578 265.977 479.952 265.418 479.32 264.734C477.712 262.997 476.085 260.478 475.582 256.173L475.582 256.172C475.257 253.399 476.14 249.775 478.3 246.848C480.448 243.939 483.844 241.734 488.557 241.734C493.27 241.734 496.661 243.939 498.808 246.848C500.966 249.775 501.851 253.398 501.537 256.173C501.035 260.479 499.409 263.002 497.802 264.742C497.166 265.431 496.536 265.995 495.958 266.512C495.795 266.658 495.637 266.8 495.483 266.94C494.81 267.554 494.189 268.169 493.903 268.88Z" stroke="#3506B7"/>
<mask id="path-99-inside-1_218_1018" fill="white">
<path d="M483.841 259.423L483.257 259.532L486.004 274.238L486.588 274.129L483.841 259.423Z"/>
</mask>
<path d="M483.841 259.423L483.257 259.532L486.004 274.238L486.588 274.129L483.841 259.423Z" fill="#263238"/>
<path d="M483.257 259.532L483.074 258.549L482.091 258.733L482.274 259.716L483.257 259.532ZM483.841 259.423L484.824 259.239L484.64 258.256L483.657 258.44L483.841 259.423ZM486.588 274.129L486.771 275.112L487.754 274.929L487.571 273.946L486.588 274.129ZM486.004 274.238L485.021 274.422L485.205 275.405L486.188 275.221L486.004 274.238ZM483.441 260.515L484.024 260.406L483.657 258.44L483.074 258.549L483.441 260.515ZM482.858 259.607L485.605 274.313L487.571 273.946L484.824 259.239L482.858 259.607ZM486.404 273.146L485.821 273.255L486.188 275.221L486.771 275.112L486.404 273.146ZM486.987 274.055L484.24 259.348L482.274 259.716L485.021 274.422L486.987 274.055Z" fill="#3506B7" mask="url(#path-99-inside-1_218_1018)"/>
<mask id="path-101-inside-2_218_1018" fill="white">
<path d="M493.302 259.442L490.553 274.148L491.136 274.257L493.886 259.551L493.302 259.442Z"/>
</mask>
<path d="M493.302 259.442L490.553 274.148L491.136 274.257L493.886 259.551L493.302 259.442Z" fill="#263238"/>
<path d="M490.553 274.148L489.57 273.964L489.386 274.947L490.369 275.131L490.553 274.148ZM493.302 259.442L493.486 258.459L492.503 258.275L492.319 259.258L493.302 259.442ZM493.886 259.551L494.869 259.734L495.052 258.751L494.069 258.568L493.886 259.551ZM491.136 274.257L490.952 275.24L491.935 275.423L492.119 274.44L491.136 274.257ZM491.536 274.331L494.285 259.625L492.319 259.258L489.57 273.964L491.536 274.331ZM493.118 260.425L493.702 260.534L494.069 258.568L493.486 258.459L493.118 260.425ZM492.903 259.367L490.153 274.073L492.119 274.44L494.869 259.734L492.903 259.367ZM491.32 273.274L490.737 273.165L490.369 275.131L490.952 275.24L491.32 273.274Z" fill="#3506B7" mask="url(#path-101-inside-2_218_1018)"/>
<mask id="path-103-inside-3_218_1018" fill="white">
<path d="M488.563 264.408C487.827 264.408 487.085 263.815 486.474 262.776C486.474 262.741 486.432 262.705 486.415 262.663C486.319 262.784 486.199 262.882 486.064 262.954C485.928 263.025 485.778 263.068 485.625 263.079C484.219 263.079 483.655 260.201 483.631 260.112L483.928 260.052C484.07 260.824 484.658 262.812 485.625 262.812C485.754 262.794 485.878 262.75 485.988 262.681C486.099 262.613 486.193 262.522 486.266 262.414C485.673 261.227 485.346 259.655 485.774 258.913C485.838 258.792 485.935 258.691 486.054 258.622C486.172 258.553 486.307 258.518 486.444 258.521C486.604 258.516 486.762 258.555 486.901 258.633C487.04 258.712 487.155 258.827 487.234 258.966C487.667 259.726 487.346 261.215 486.8 262.165C486.745 262.262 486.684 262.355 486.616 262.444L486.735 262.658C487.056 263.209 487.72 264.141 488.563 264.141C489.127 264.141 489.69 263.696 490.159 262.883L490.266 262.693C489.706 261.989 489.408 261.112 489.423 260.213C489.423 259.168 489.821 258.521 490.462 258.521C490.586 258.523 490.706 258.559 490.811 258.625C490.916 258.691 491 258.784 491.055 258.895C491.465 259.607 491.245 261.304 490.604 262.646C490.845 262.873 491.163 263 491.495 263.002C492.325 263.002 493.061 260.996 493.275 260.224L493.566 260.302C493.477 260.61 492.699 263.298 491.495 263.298C491.117 263.294 490.753 263.155 490.468 262.907L490.397 263.031C489.868 263.951 489.21 264.438 488.545 264.438L488.563 264.408ZM490.462 258.788C489.916 258.788 489.72 259.542 489.72 260.183C489.715 260.968 489.954 261.735 490.403 262.379C490.954 261.162 491.162 259.613 490.818 259.014C490.786 258.947 490.735 258.89 490.672 258.85C490.609 258.81 490.536 258.789 490.462 258.788ZM486.444 258.788C486.36 258.784 486.276 258.805 486.203 258.849C486.13 258.892 486.072 258.955 486.035 259.032C485.714 259.583 485.922 260.925 486.468 262.112L486.539 261.987C487.038 261.126 487.34 259.72 486.972 259.085C486.922 258.99 486.846 258.911 486.752 258.859C486.658 258.806 486.552 258.782 486.444 258.788Z"/>
</mask>
<path d="M488.563 264.408C487.827 264.408 487.085 263.815 486.474 262.776C486.474 262.741 486.432 262.705 486.415 262.663C486.319 262.784 486.199 262.882 486.064 262.954C485.928 263.025 485.778 263.068 485.625 263.079C484.219 263.079 483.655 260.201 483.631 260.112L483.928 260.052C484.07 260.824 484.658 262.812 485.625 262.812C485.754 262.794 485.878 262.75 485.988 262.681C486.099 262.613 486.193 262.522 486.266 262.414C485.673 261.227 485.346 259.655 485.774 258.913C485.838 258.792 485.935 258.691 486.054 258.622C486.172 258.553 486.307 258.518 486.444 258.521C486.604 258.516 486.762 258.555 486.901 258.633C487.04 258.712 487.155 258.827 487.234 258.966C487.667 259.726 487.346 261.215 486.8 262.165C486.745 262.262 486.684 262.355 486.616 262.444L486.735 262.658C487.056 263.209 487.72 264.141 488.563 264.141C489.127 264.141 489.69 263.696 490.159 262.883L490.266 262.693C489.706 261.989 489.408 261.112 489.423 260.213C489.423 259.168 489.821 258.521 490.462 258.521C490.586 258.523 490.706 258.559 490.811 258.625C490.916 258.691 491 258.784 491.055 258.895C491.465 259.607 491.245 261.304 490.604 262.646C490.845 262.873 491.163 263 491.495 263.002C492.325 263.002 493.061 260.996 493.275 260.224L493.566 260.302C493.477 260.61 492.699 263.298 491.495 263.298C491.117 263.294 490.753 263.155 490.468 262.907L490.397 263.031C489.868 263.951 489.21 264.438 488.545 264.438L488.563 264.408ZM490.462 258.788C489.916 258.788 489.72 259.542 489.72 260.183C489.715 260.968 489.954 261.735 490.403 262.379C490.954 261.162 491.162 259.613 490.818 259.014C490.786 258.947 490.735 258.89 490.672 258.85C490.609 258.81 490.536 258.789 490.462 258.788ZM486.444 258.788C486.36 258.784 486.276 258.805 486.203 258.849C486.13 258.892 486.072 258.955 486.035 259.032C485.714 259.583 485.922 260.925 486.468 262.112L486.539 261.987C487.038 261.126 487.34 259.72 486.972 259.085C486.922 258.99 486.846 258.911 486.752 258.859C486.658 258.806 486.552 258.782 486.444 258.788Z" fill="#263238"/>
<path d="M488.563 264.408L489.42 264.923L490.329 263.408H488.563V264.408ZM486.474 262.776H485.474V263.049L485.612 263.283L486.474 262.776ZM486.415 262.663L487.334 262.27L486.675 260.732L485.633 262.04L486.415 262.663ZM485.625 263.079V264.079H485.661L485.696 264.076L485.625 263.079ZM483.631 260.112L483.435 259.131L482.391 259.34L482.665 260.369L483.631 260.112ZM483.928 260.052L484.911 259.871L484.727 258.873L483.732 259.072L483.928 260.052ZM485.625 262.812V263.812H485.693L485.761 263.803L485.625 262.812ZM486.266 262.414L487.094 262.976L487.423 262.491L487.161 261.967L486.266 262.414ZM485.774 258.913L486.64 259.412L486.648 259.398L486.655 259.385L485.774 258.913ZM486.444 258.521L486.422 259.521L486.449 259.522L486.477 259.521L486.444 258.521ZM487.234 258.966L486.361 259.456L486.365 259.462L487.234 258.966ZM486.8 262.165L485.933 261.667L485.931 261.671L486.8 262.165ZM486.616 262.444L485.82 261.839L485.425 262.359L485.742 262.93L486.616 262.444ZM486.735 262.658L485.861 263.143L485.866 263.151L485.87 263.16L486.735 262.658ZM490.159 262.883L491.026 263.383L491.031 263.373L490.159 262.883ZM490.266 262.693L491.138 263.183L491.467 262.597L491.049 262.071L490.266 262.693ZM489.423 260.213L490.423 260.229L490.423 260.221V260.213H489.423ZM490.462 258.521L490.479 257.521L490.471 257.521H490.462V258.521ZM491.055 258.895L490.161 259.342L490.174 259.368L490.188 259.394L491.055 258.895ZM490.604 262.646L489.702 262.215L489.388 262.872L489.918 263.373L490.604 262.646ZM491.495 263.002L491.49 264.002H491.495V263.002ZM493.275 260.224L493.531 259.258L492.575 259.004L492.311 259.958L493.275 260.224ZM493.566 260.302L494.526 260.579L494.81 259.597L493.822 259.335L493.566 260.302ZM491.495 263.298L491.483 264.298H491.495V263.298ZM490.468 262.907L491.125 262.153L490.205 261.351L489.6 262.411L490.468 262.907ZM490.397 263.031L491.264 263.529L491.265 263.528L490.397 263.031ZM488.545 264.438L487.688 263.923L486.779 265.438H488.545V264.438ZM490.462 258.788L490.468 257.788H490.462V258.788ZM489.72 260.183L490.72 260.189V260.183H489.72ZM490.403 262.379L489.582 262.951L490.587 264.392L491.313 262.792L490.403 262.379ZM490.818 259.014L489.917 259.447L489.932 259.48L489.951 259.512L490.818 259.014ZM486.035 259.032L486.9 259.534L486.918 259.502L486.934 259.469L486.035 259.032ZM486.468 262.112L485.56 262.529L486.372 264.295L487.336 262.608L486.468 262.112ZM486.539 261.987L485.674 261.486L485.671 261.491L486.539 261.987ZM486.972 259.085L486.088 259.551L486.097 259.569L486.107 259.586L486.972 259.085ZM488.563 263.408C488.377 263.408 487.896 263.221 487.336 262.269L485.612 263.283C486.274 264.409 487.277 265.408 488.563 265.408V263.408ZM487.474 262.776C487.474 262.573 487.415 262.416 487.374 262.329C487.335 262.243 487.291 262.179 487.278 262.16C487.271 262.149 487.262 262.136 487.262 262.136C487.259 262.133 487.262 262.137 487.267 262.144C487.275 262.157 487.305 262.202 487.334 262.27L485.495 263.057C485.533 263.145 485.575 263.211 485.596 263.243C485.607 263.26 485.617 263.274 485.621 263.28C485.627 263.289 485.625 263.286 485.624 263.284C485.623 263.283 485.591 263.238 485.56 263.17C485.528 263.1 485.474 262.962 485.474 262.776H487.474ZM485.633 262.04C485.623 262.052 485.611 262.062 485.598 262.069L486.529 263.839C486.788 263.703 487.015 263.515 487.197 263.287L485.633 262.04ZM485.598 262.069C485.584 262.076 485.57 262.08 485.554 262.081L485.696 264.076C485.987 264.056 486.271 263.975 486.529 263.839L485.598 262.069ZM485.625 262.079C485.624 262.079 485.623 262.079 485.622 262.079C485.621 262.078 485.614 262.076 485.602 262.07C485.575 262.056 485.526 262.022 485.458 261.949C485.314 261.794 485.165 261.545 485.026 261.228C484.747 260.589 484.629 259.973 484.598 259.854L482.665 260.369C482.657 260.339 482.834 261.207 483.194 262.03C483.375 262.443 483.631 262.919 483.99 263.307C484.353 263.7 484.899 264.079 485.625 264.079V262.079ZM483.827 261.092L484.124 261.033L483.732 259.072L483.435 259.131L483.827 261.092ZM482.945 260.234C483.027 260.681 483.232 261.461 483.566 262.155C483.733 262.5 483.957 262.88 484.256 263.187C484.555 263.494 485.015 263.812 485.625 263.812V261.812C485.752 261.812 485.776 261.881 485.688 261.791C485.601 261.701 485.488 261.536 485.368 261.288C485.131 260.795 484.971 260.196 484.911 259.871L482.945 260.234ZM485.761 263.803C486.028 263.766 486.286 263.674 486.515 263.531L485.461 261.832C485.47 261.826 485.48 261.822 485.49 261.821L485.761 263.803ZM486.515 263.531C486.745 263.389 486.942 263.199 487.094 262.976L485.439 261.853C485.445 261.844 485.452 261.837 485.461 261.832L486.515 263.531ZM487.161 261.967C486.905 261.456 486.709 260.863 486.624 260.337C486.531 259.759 486.605 259.473 486.64 259.412L484.907 258.414C484.515 259.095 484.539 259.966 484.65 260.656C484.77 261.399 485.034 262.185 485.372 262.861L487.161 261.967ZM486.655 259.385C486.633 259.427 486.599 259.462 486.558 259.486L485.549 257.759C485.271 257.921 485.044 258.157 484.892 258.441L486.655 259.385ZM486.558 259.486C486.517 259.51 486.47 259.522 486.422 259.521L486.467 257.521C486.145 257.514 485.827 257.596 485.549 257.759L486.558 259.486ZM486.477 259.521C486.454 259.521 486.43 259.516 486.41 259.504L487.392 257.762C487.094 257.594 486.754 257.511 486.412 257.522L486.477 259.521ZM486.41 259.504C486.39 259.493 486.373 259.476 486.361 259.456L488.106 258.477C487.938 258.178 487.691 257.931 487.392 257.762L486.41 259.504ZM486.365 259.462C486.411 259.543 486.479 259.826 486.397 260.336C486.321 260.806 486.144 261.3 485.933 261.667L487.667 262.663C488.003 262.08 488.259 261.355 488.371 260.653C488.478 259.991 488.489 259.149 488.102 258.471L486.365 259.462ZM485.931 261.671C485.898 261.729 485.861 261.786 485.82 261.839L487.413 263.049C487.507 262.925 487.593 262.794 487.67 262.659L485.931 261.671ZM485.742 262.93L485.861 263.143L487.609 262.172L487.491 261.958L485.742 262.93ZM485.87 263.16C486.052 263.473 486.352 263.932 486.757 264.324C487.15 264.705 487.765 265.141 488.563 265.141V263.141C488.518 263.141 488.38 263.112 488.149 262.888C487.931 262.677 487.739 262.394 487.6 262.155L485.87 263.16ZM488.563 265.141C489.677 265.141 490.502 264.29 491.026 263.383L489.293 262.384C488.879 263.102 488.576 263.141 488.563 263.141V265.141ZM491.031 263.373L491.138 263.183L489.395 262.203L489.288 262.393L491.031 263.373ZM491.049 262.071C490.633 261.548 490.412 260.897 490.423 260.229L488.424 260.196C488.405 261.327 488.779 262.43 489.483 263.316L491.049 262.071ZM490.423 260.213C490.423 259.797 490.505 259.578 490.554 259.499C490.575 259.466 490.577 259.476 490.546 259.495C490.512 259.515 490.477 259.521 490.462 259.521V257.521C489.744 257.521 489.184 257.908 488.85 258.452C488.54 258.957 488.423 259.583 488.423 260.213H490.423ZM490.445 259.521C490.386 259.52 490.328 259.503 490.278 259.471L491.344 257.779C491.085 257.616 490.786 257.527 490.479 257.521L490.445 259.521ZM490.278 259.471C490.228 259.44 490.187 259.395 490.161 259.342L491.95 258.448C491.813 258.174 491.603 257.942 491.344 257.779L490.278 259.471ZM490.188 259.394C490.188 259.393 490.2 259.415 490.215 259.469C490.229 259.521 490.243 259.594 490.252 259.689C490.271 259.88 490.267 260.126 490.231 260.412C490.16 260.988 489.975 261.643 489.702 262.215L491.507 263.077C491.874 262.307 492.119 261.443 492.216 260.657C492.306 259.927 492.296 259.047 491.922 258.397L490.188 259.394ZM489.918 263.373C490.343 263.774 490.905 263.999 491.49 264.002L491.499 262.002C491.422 262.001 491.347 261.972 491.291 261.918L489.918 263.373ZM491.495 264.002C492.112 264.002 492.561 263.638 492.82 263.363C493.098 263.069 493.324 262.704 493.501 262.368C493.858 261.689 494.119 260.924 494.239 260.491L492.311 259.958C492.217 260.297 492.003 260.92 491.731 261.437C491.594 261.698 491.467 261.883 491.366 261.989C491.247 262.115 491.292 262.002 491.495 262.002V264.002ZM493.018 261.191L493.309 261.268L493.822 259.335L493.531 259.258L493.018 261.191ZM492.605 260.024C492.563 260.171 492.367 260.845 492.054 261.468C491.897 261.783 491.736 262.03 491.588 262.185C491.433 262.349 491.404 262.298 491.495 262.298V264.298C492.188 264.298 492.707 263.912 493.039 263.562C493.38 263.203 493.644 262.759 493.843 262.364C494.242 261.565 494.48 260.741 494.526 260.579L492.605 260.024ZM491.506 262.299C491.366 262.297 491.231 262.245 491.125 262.153L489.811 263.66C490.275 264.065 490.867 264.291 491.483 264.298L491.506 262.299ZM489.6 262.411L489.528 262.535L491.265 263.528L491.336 263.403L489.6 262.411ZM489.529 262.533C489.077 263.321 488.685 263.438 488.545 263.438V265.438C489.735 265.438 490.66 264.581 491.264 263.529L489.529 262.533ZM489.403 264.952L489.42 264.923L487.705 263.894L487.688 263.923L489.403 264.952ZM490.462 257.788C489.613 257.788 489.16 258.409 488.97 258.845C488.778 259.285 488.72 259.785 488.72 260.183H490.72C490.72 260.071 490.729 259.96 490.746 259.86C490.763 259.757 490.785 259.686 490.803 259.645C490.822 259.601 490.819 259.631 490.762 259.679C490.731 259.705 490.686 259.735 490.628 259.757C490.569 259.779 490.511 259.788 490.462 259.788V257.788ZM488.72 260.177C488.714 261.168 489.015 262.137 489.582 262.951L491.223 261.807C490.892 261.332 490.717 260.767 490.72 260.189L488.72 260.177ZM491.313 262.792C491.631 262.09 491.848 261.302 491.938 260.591C491.984 260.234 492 259.874 491.973 259.54C491.947 259.221 491.875 258.846 491.685 258.516L489.951 259.512C489.933 259.481 489.965 259.525 489.979 259.703C489.993 259.865 489.987 260.081 489.954 260.339C489.889 260.856 489.726 261.45 489.492 261.965L491.313 262.792ZM491.719 258.581C491.606 258.345 491.429 258.145 491.207 258.005L490.137 259.695C490.042 259.634 489.965 259.548 489.917 259.447L491.719 258.581ZM491.207 258.005C490.986 257.865 490.73 257.79 490.468 257.788L490.456 259.788C490.343 259.788 490.233 259.755 490.137 259.695L491.207 258.005ZM486.49 257.789C486.21 257.776 485.933 257.846 485.692 257.989L486.714 259.708C486.619 259.765 486.509 259.792 486.398 259.787L486.49 257.789ZM485.692 257.989C485.452 258.132 485.258 258.342 485.135 258.594L486.934 259.469C486.886 259.568 486.809 259.652 486.714 259.708L485.692 257.989ZM485.17 258.529C484.986 258.847 484.917 259.2 484.893 259.502C484.869 259.816 484.889 260.149 484.937 260.477C485.032 261.133 485.25 261.857 485.56 262.529L487.377 261.694C487.14 261.179 486.981 260.639 486.916 260.19C486.884 259.966 486.878 259.785 486.888 259.655C486.898 259.514 486.924 259.492 486.9 259.534L485.17 258.529ZM487.336 262.608L487.407 262.483L485.671 261.491L485.6 261.615L487.336 262.608ZM487.405 262.488C487.719 261.946 487.956 261.265 488.066 260.62C488.167 260.031 488.206 259.219 487.838 258.584L486.107 259.586C486.107 259.586 486.178 259.795 486.095 260.283C486.021 260.715 485.858 261.167 485.674 261.486L487.405 262.488ZM487.857 258.619C487.717 258.353 487.504 258.134 487.242 257.987L486.262 259.731C486.188 259.689 486.127 259.626 486.088 259.551L487.857 258.619ZM487.242 257.987C486.98 257.84 486.682 257.772 486.382 257.79L486.506 259.786C486.421 259.792 486.337 259.772 486.262 259.731L487.242 257.987Z" fill="#3506B7" mask="url(#path-103-inside-3_218_1018)"/>
<path d="M483.36 274.929V273.697H493.766V274.929H483.36Z" fill="#263238" stroke="#3506B7"/>
<path d="M483.36 277.516V276.285H493.766V277.516H483.36Z" fill="#263238" stroke="#3506B7"/>
<path d="M483.36 280.11V278.878H493.766V280.11H483.36Z" fill="#263238" stroke="#3506B7"/>
<mask id="path-108-inside-4_218_1018" fill="white">
<path d="M488.385 237.685C488.167 237.096 488.056 236.473 488.058 235.846C488.032 235.22 488.12 234.594 488.319 234C488.537 234.587 488.647 235.208 488.646 235.834C488.673 236.462 488.585 237.089 488.385 237.685Z"/>
</mask>
<path d="M488.385 237.685C488.167 237.096 488.056 236.473 488.058 235.846C488.032 235.22 488.12 234.594 488.319 234C488.537 234.587 488.647 235.208 488.646 235.834C488.673 236.462 488.585 237.089 488.385 237.685Z" fill="#263238"/>
<path d="M488.058 235.846L489.058 235.849L489.058 235.826L489.057 235.803L488.058 235.846ZM488.319 234L489.257 233.653L488.273 230.995L487.371 233.682L488.319 234ZM488.646 235.834L487.646 235.831L487.646 235.854L487.647 235.877L488.646 235.834ZM489.323 237.338C489.146 236.862 489.057 236.357 489.058 235.849L487.058 235.843C487.056 236.59 487.188 237.331 487.447 238.032L489.323 237.338ZM489.057 235.803C489.036 235.299 489.107 234.796 489.268 234.318L487.371 233.682C487.133 234.392 487.027 235.14 487.059 235.888L489.057 235.803ZM487.382 234.347C487.558 234.822 487.647 235.325 487.646 235.831L489.646 235.836C489.648 235.091 489.516 234.352 489.257 233.653L487.382 234.347ZM487.647 235.877C487.669 236.383 487.597 236.888 487.437 237.367L489.333 238.003C489.572 237.291 489.677 236.541 489.645 235.791L487.647 235.877Z" fill="#3506B7" mask="url(#path-108-inside-4_218_1018)"/>
<mask id="path-110-inside-5_218_1018" fill="white">
<path d="M479.97 240.029C479.494 239.628 479.092 239.146 478.783 238.605C478.449 238.074 478.213 237.487 478.089 236.872C478.564 237.277 478.966 237.761 479.276 238.302C479.61 238.831 479.845 239.416 479.97 240.029Z"/>
</mask>
<path d="M479.97 240.029C479.494 239.628 479.092 239.146 478.783 238.605C478.449 238.074 478.213 237.487 478.089 236.872C478.564 237.277 478.966 237.761 479.276 238.302C479.61 238.831 479.845 239.416 479.97 240.029Z" fill="#263238"/>
<path d="M479.97 240.029L479.326 240.795L481.522 242.642L480.95 239.83L479.97 240.029ZM478.783 238.605L479.652 238.11L479.641 238.091L479.629 238.072L478.783 238.605ZM478.089 236.872L478.737 236.11L476.535 234.238L477.109 237.071L478.089 236.872ZM479.276 238.302L478.408 238.799L478.419 238.818L478.431 238.837L479.276 238.302ZM480.614 239.264C480.228 238.939 479.902 238.548 479.652 238.11L477.914 239.1C478.281 239.744 478.759 240.318 479.326 240.795L480.614 239.264ZM479.629 238.072C479.359 237.644 479.17 237.17 479.069 236.674L477.109 237.071C477.257 237.804 477.538 238.505 477.937 239.138L479.629 238.072ZM477.441 237.634C477.828 237.963 478.155 238.357 478.408 238.799L480.144 237.806C479.777 237.164 479.3 236.59 478.737 236.11L477.441 237.634ZM478.431 238.837C478.7 239.263 478.89 239.735 478.99 240.229L480.95 239.83C480.801 239.098 480.52 238.399 480.121 237.768L478.431 238.837Z" fill="#3506B7" mask="url(#path-110-inside-5_218_1018)"/>
<mask id="path-112-inside-6_218_1018" fill="white">
<path d="M473.857 246.272C473.231 246.168 472.628 245.953 472.077 245.637C471.522 245.347 471.025 244.956 470.611 244.486C471.238 244.59 471.841 244.805 472.392 245.121C472.947 245.412 473.444 245.802 473.857 246.272Z"/>
</mask>
<path d="M473.857 246.272C473.231 246.168 472.628 245.953 472.077 245.637C471.522 245.347 471.025 244.956 470.611 244.486C471.238 244.59 471.841 244.805 472.392 245.121C472.947 245.412 473.444 245.802 473.857 246.272Z" fill="#263238"/>
<path d="M472.077 245.637L472.574 244.77L472.558 244.76L472.541 244.752L472.077 245.637ZM470.611 244.486L470.775 243.5L468.005 243.039L469.861 245.147L470.611 244.486ZM472.392 245.121L471.894 245.989L471.911 245.998L471.928 246.007L472.392 245.121ZM474.021 245.286C473.512 245.201 473.022 245.026 472.574 244.77L471.58 246.505C472.234 246.88 472.95 247.135 473.694 247.259L474.021 245.286ZM472.541 244.752C472.095 244.518 471.695 244.204 471.362 243.825L469.861 245.147C470.356 245.709 470.95 246.176 471.613 246.523L472.541 244.752ZM470.447 245.473C470.957 245.557 471.447 245.732 471.894 245.989L472.889 244.254C472.235 243.879 471.519 243.623 470.775 243.5L470.447 245.473ZM471.928 246.007C472.374 246.241 472.774 246.555 473.107 246.933L474.608 245.612C474.113 245.049 473.519 244.583 472.856 244.235L471.928 246.007Z" fill="#3506B7" mask="url(#path-112-inside-6_218_1018)"/>
<mask id="path-114-inside-7_218_1018" fill="white">
<path d="M471.685 254.735C471.096 254.953 470.473 255.063 469.846 255.062C469.22 255.088 468.594 255 468 254.8C469.189 254.38 470.482 254.357 471.685 254.735Z"/>
</mask>
<path d="M471.685 254.735C471.096 254.953 470.473 255.063 469.846 255.062C469.22 255.088 468.594 255 468 254.8C469.189 254.38 470.482 254.357 471.685 254.735Z" fill="#263238"/>
<path d="M469.846 255.062L469.849 254.062L469.826 254.061L469.803 254.062L469.846 255.062ZM468 254.8L467.666 253.858L464.932 254.826L467.682 255.748L468 254.8ZM471.338 253.797C470.862 253.974 470.357 254.063 469.849 254.062L469.843 256.062C470.59 256.064 471.331 255.932 472.032 255.673L471.338 253.797ZM469.803 254.062C469.299 254.084 468.796 254.013 468.318 253.852L467.682 255.748C468.392 255.987 469.14 256.093 469.888 256.061L469.803 254.062ZM468.334 255.743C469.318 255.395 470.389 255.376 471.385 255.689L471.985 253.781C470.575 253.338 469.06 253.365 467.666 253.858L468.334 255.743Z" fill="#3506B7" mask="url(#path-114-inside-7_218_1018)"/>
<mask id="path-116-inside-8_218_1018" fill="white">
<path d="M474.036 263.144C473.212 264.098 472.106 264.766 470.878 265.049C471.276 264.569 471.759 264.167 472.303 263.862C472.833 263.523 473.42 263.28 474.036 263.144Z"/>
</mask>
<path d="M474.036 263.144C473.212 264.098 472.106 264.766 470.878 265.049C471.276 264.569 471.759 264.167 472.303 263.862C472.833 263.523 473.42 263.28 474.036 263.144Z" fill="#263238"/>
<path d="M470.878 265.049L470.109 264.411L468.22 266.69L471.103 266.024L470.878 265.049ZM472.303 263.862L472.792 264.735L472.817 264.72L472.842 264.705L472.303 263.862ZM473.279 262.491C472.594 263.284 471.674 263.839 470.653 264.075L471.103 266.024C472.538 265.692 473.83 264.913 474.793 263.798L473.279 262.491ZM471.648 265.687C471.968 265.302 472.355 264.979 472.792 264.735L471.814 262.99C471.163 263.355 470.585 263.837 470.109 264.411L471.648 265.687ZM472.842 264.705C473.273 264.429 473.75 264.231 474.25 264.121L473.821 262.168C473.09 262.328 472.394 262.617 471.764 263.02L472.842 264.705Z" fill="#3506B7" mask="url(#path-116-inside-8_218_1018)"/>
<mask id="path-118-inside-9_218_1018" fill="white">
<path d="M503.286 262.848C503.912 262.95 504.515 263.163 505.066 263.477C505.62 263.769 506.117 264.159 506.532 264.628C505.906 264.528 505.302 264.315 504.752 263.999C504.201 263.703 503.705 263.313 503.286 262.848Z"/>
</mask>
<path d="M503.286 262.848C503.912 262.95 504.515 263.163 505.066 263.477C505.62 263.769 506.117 264.159 506.532 264.628C505.906 264.528 505.302 264.315 504.752 263.999C504.201 263.703 503.705 263.313 503.286 262.848Z" fill="#263238"/>
<path d="M505.066 263.477L504.572 264.346L504.585 264.353L504.599 264.361L505.066 263.477ZM506.532 264.628L506.375 265.615L509.134 266.055L507.281 263.964L506.532 264.628ZM504.752 263.999L505.25 263.132L505.238 263.125L505.225 263.118L504.752 263.999ZM503.125 263.834C503.634 263.918 504.124 264.091 504.572 264.346L505.561 262.607C504.906 262.235 504.191 261.982 503.447 261.861L503.125 263.834ZM504.599 264.361C505.047 264.597 505.448 264.912 505.784 265.291L507.281 263.964C506.785 263.406 506.194 262.941 505.534 262.592L504.599 264.361ZM506.689 263.64C506.183 263.56 505.695 263.387 505.25 263.132L504.254 264.866C504.91 265.243 505.628 265.497 506.375 265.615L506.689 263.64ZM505.225 263.118C504.775 262.876 504.371 262.559 504.03 262.179L502.542 263.516C503.038 264.067 503.626 264.529 504.279 264.88L505.225 263.118Z" fill="#3506B7" mask="url(#path-118-inside-9_218_1018)"/>
<mask id="path-120-inside-10_218_1018" fill="white">
<path d="M505.435 254.385C506.024 254.168 506.646 254.056 507.274 254.053C507.9 254.031 508.526 254.121 509.12 254.32C507.93 254.732 506.639 254.755 505.435 254.385Z"/>
</mask>
<path d="M505.435 254.385C506.024 254.168 506.646 254.056 507.274 254.053C507.9 254.031 508.526 254.121 509.12 254.32C507.93 254.732 506.639 254.755 505.435 254.385Z" fill="#263238"/>
<path d="M507.274 254.053L507.279 255.053L507.294 255.053L507.309 255.052L507.274 254.053ZM509.12 254.32L509.447 255.265L512.226 254.302L509.437 253.371L509.12 254.32ZM505.78 255.323C506.26 255.147 506.767 255.055 507.279 255.053L507.269 253.053C506.525 253.056 505.788 253.19 505.089 253.446L505.78 255.323ZM507.309 255.052C507.816 255.034 508.322 255.108 508.803 255.268L509.437 253.371C508.729 253.135 507.985 253.027 507.239 253.053L507.309 255.052ZM508.793 253.375C507.803 253.718 506.73 253.737 505.728 253.429L505.141 255.341C506.548 255.773 508.056 255.746 509.447 255.265L508.793 253.375Z" fill="#3506B7" mask="url(#path-120-inside-10_218_1018)"/>
<mask id="path-122-inside-11_218_1018" fill="white">
<path d="M503.091 245.97C503.492 245.493 503.974 245.091 504.515 244.783C505.045 244.448 505.633 244.212 506.248 244.089C505.844 244.564 505.36 244.966 504.818 245.276C504.289 245.61 503.704 245.845 503.091 245.97Z"/>
</mask>
<path d="M503.091 245.97C503.492 245.493 503.974 245.091 504.515 244.783C505.045 244.448 505.633 244.212 506.248 244.089C505.844 244.564 505.36 244.966 504.818 245.276C504.289 245.61 503.704 245.845 503.091 245.97Z" fill="#263238"/>
<path d="M503.091 245.97L502.326 245.326L500.479 247.522L503.29 246.95L503.091 245.97ZM504.515 244.783L505.01 245.652L505.03 245.64L505.05 245.628L504.515 244.783ZM506.248 244.089L507.01 244.736L508.877 242.54L506.051 243.108L506.248 244.089ZM504.818 245.276L504.321 244.407L504.302 244.418L504.283 244.43L504.818 245.276ZM503.856 246.614C504.181 246.227 504.572 245.902 505.01 245.652L504.02 243.914C503.376 244.281 502.803 244.759 502.326 245.326L503.856 246.614ZM505.05 245.628C505.477 245.358 505.95 245.169 506.445 245.069L506.051 243.108C505.316 243.256 504.614 243.537 503.981 243.938L505.05 245.628ZM505.486 243.441C505.157 243.828 504.763 244.155 504.321 244.407L505.314 246.144C505.957 245.776 506.53 245.3 507.01 244.736L505.486 243.441ZM504.283 244.43C503.857 244.7 503.386 244.889 502.892 244.99L503.29 246.95C504.022 246.801 504.721 246.52 505.352 246.121L504.283 244.43Z" fill="#3506B7" mask="url(#path-122-inside-11_218_1018)"/>
<mask id="path-124-inside-12_218_1018" fill="white">
<path d="M496.847 239.851C496.951 239.225 497.166 238.622 497.482 238.071C497.773 237.516 498.163 237.019 498.633 236.605C498.397 237.841 497.773 238.969 496.853 239.828L496.847 239.851Z"/>
</mask>
<path d="M496.847 239.851C496.951 239.225 497.166 238.622 497.482 238.071C497.773 237.516 498.163 237.019 498.633 236.605C498.397 237.841 497.773 238.969 496.853 239.828L496.847 239.851Z" fill="#263238"/>
<path d="M496.847 239.851L495.861 239.687L497.817 240.094L496.847 239.851ZM497.482 238.071L498.35 238.568L498.359 238.552L498.368 238.535L497.482 238.071ZM498.633 236.605L499.616 236.793L500.165 233.924L497.973 235.855L498.633 236.605ZM496.853 239.828L496.171 239.096L495.955 239.298L495.883 239.585L496.853 239.828ZM497.834 240.015C497.918 239.506 498.093 239.016 498.35 238.568L496.615 237.574C496.24 238.228 495.984 238.944 495.861 239.687L497.834 240.015ZM498.368 238.535C498.602 238.089 498.916 237.689 499.294 237.356L497.973 235.855C497.41 236.35 496.944 236.943 496.596 237.607L498.368 238.535ZM497.651 236.417C497.454 237.444 496.936 238.383 496.171 239.096L497.535 240.559C498.61 239.556 499.339 238.237 499.616 236.793L497.651 236.417ZM495.883 239.585L495.877 239.609L497.817 240.094L497.823 240.07L495.883 239.585Z" fill="#3506B7" mask="url(#path-124-inside-12_218_1018)"/>
<g filter="url(#filter7_d_218_1018)">
<path d="M263.719 165.865C263.719 169.171 263.062 171.568 261.747 173.057C260.452 174.526 258.335 175.261 255.396 175.261C252.264 175.261 250.089 174.575 248.871 173.202C247.653 171.81 247.044 169.364 247.044 165.865C247.044 162.578 247.701 160.2 249.016 158.731C250.331 157.262 252.457 156.527 255.396 156.527C258.509 156.527 260.674 157.223 261.892 158.615C263.11 159.988 263.719 162.404 263.719 165.865ZM251.278 170.447C251.587 171.008 252.042 171.404 252.641 171.636C253.24 171.868 254.159 171.984 255.396 171.984C257.31 171.984 258.586 171.559 259.224 170.708C259.862 169.838 260.181 168.224 260.181 165.865C260.181 164.724 260.123 163.787 260.007 163.052C259.91 162.317 259.736 161.718 259.485 161.254C259.176 160.674 258.721 160.268 258.122 160.036C257.523 159.785 256.614 159.659 255.396 159.659C253.463 159.659 252.177 160.094 251.539 160.964C250.901 161.834 250.582 163.468 250.582 165.865C250.582 167.006 250.64 167.943 250.756 168.678C250.872 169.413 251.046 170.002 251.278 170.447ZM278.232 167.547V156.817H281.712V167.547C281.712 170.157 281.094 172.1 279.856 173.376C278.619 174.633 276.724 175.261 274.172 175.261C271.562 175.261 269.658 174.652 268.459 173.434C267.261 172.216 266.661 170.254 266.661 167.547V156.817H270.141V167.547C270.141 169.248 270.431 170.418 271.011 171.056C271.591 171.675 272.645 171.984 274.172 171.984C275.719 171.984 276.782 171.665 277.362 171.027C277.942 170.389 278.232 169.229 278.232 167.547ZM298.472 156.817V159.949H292.962V175H289.482V159.949H284.001V156.817H298.472ZM307.651 167.779L303.62 166.822C302.286 166.513 301.348 166.01 300.807 165.314C300.266 164.599 299.995 163.584 299.995 162.269C299.995 160.297 300.536 158.847 301.619 157.919C302.702 156.991 304.384 156.527 306.665 156.527C307.612 156.527 308.453 156.575 309.188 156.672C309.942 156.749 310.638 156.875 311.276 157.049V160.181C310.174 159.968 309.294 159.833 308.637 159.775C307.98 159.698 307.303 159.659 306.607 159.659C305.447 159.659 304.625 159.843 304.142 160.21C303.659 160.558 303.417 161.167 303.417 162.037C303.417 162.54 303.514 162.926 303.707 163.197C303.92 163.448 304.268 163.632 304.751 163.748L308.666 164.676C309.575 164.889 310.251 165.111 310.696 165.343C311.141 165.556 311.508 165.826 311.798 166.155C312.088 166.522 312.301 166.977 312.436 167.518C312.591 168.059 312.668 168.726 312.668 169.519C312.668 171.568 312.127 173.038 311.044 173.927C309.961 174.816 308.279 175.261 305.998 175.261C304.819 175.261 303.678 175.184 302.576 175.029C301.493 174.874 300.643 174.681 300.024 174.449V171.172C300.855 171.423 301.793 171.626 302.837 171.781C303.9 171.916 304.954 171.984 305.998 171.984C307.139 171.984 307.931 171.829 308.376 171.52C308.84 171.191 309.072 170.563 309.072 169.635C309.072 169.055 308.975 168.639 308.782 168.388C308.608 168.117 308.231 167.914 307.651 167.779ZM331.375 165.865C331.375 169.171 330.718 171.568 329.403 173.057C328.108 174.526 325.991 175.261 323.052 175.261C319.92 175.261 317.745 174.575 316.527 173.202C315.309 171.81 314.7 169.364 314.7 165.865C314.7 162.578 315.357 160.2 316.672 158.731C317.987 157.262 320.113 156.527 323.052 156.527C326.165 156.527 328.33 157.223 329.548 158.615C330.766 159.988 331.375 162.404 331.375 165.865ZM318.934 170.447C319.243 171.008 319.698 171.404 320.297 171.636C320.896 171.868 321.815 171.984 323.052 171.984C324.966 171.984 326.242 171.559 326.88 170.708C327.518 169.838 327.837 168.224 327.837 165.865C327.837 164.724 327.779 163.787 327.663 163.052C327.566 162.317 327.392 161.718 327.141 161.254C326.832 160.674 326.377 160.268 325.778 160.036C325.179 159.785 324.27 159.659 323.052 159.659C321.119 159.659 319.833 160.094 319.195 160.964C318.557 161.834 318.238 163.468 318.238 165.865C318.238 167.006 318.296 167.943 318.412 168.678C318.528 169.413 318.702 170.002 318.934 170.447ZM345.888 167.547V156.817H349.368V167.547C349.368 170.157 348.75 172.1 347.512 173.376C346.275 174.633 344.38 175.261 341.828 175.261C339.218 175.261 337.314 174.652 336.115 173.434C334.917 172.216 334.317 170.254 334.317 167.547V156.817H337.797V167.547C337.797 169.248 338.087 170.418 338.667 171.056C339.247 171.675 340.301 171.984 341.828 171.984C343.375 171.984 344.438 171.665 345.018 171.027C345.598 170.389 345.888 169.229 345.888 167.547ZM356.471 168.794V175H352.991V156.817H359.4C362.087 156.817 364.001 157.271 365.142 158.18C366.302 159.089 366.882 160.606 366.882 162.733C366.882 164.26 366.543 165.498 365.867 166.445C365.209 167.373 364.204 168.021 362.851 168.388L367.433 175H363.257L359.168 168.794H356.471ZM363.344 162.733C363.344 161.728 363.044 161.012 362.445 160.587C361.865 160.162 360.85 159.949 359.4 159.949H356.471V165.894H359.4C360.85 165.894 361.865 165.652 362.445 165.169C363.044 164.686 363.344 163.874 363.344 162.733ZM377.417 171.984C378.21 171.984 379.051 171.897 379.94 171.723C380.849 171.549 381.661 171.317 382.376 171.027V174.13C381.313 174.555 380.356 174.845 379.505 175C378.674 175.174 377.804 175.261 376.895 175.261C374.014 175.261 372.004 174.546 370.863 173.115C369.722 171.665 369.152 169.248 369.152 165.865C369.152 162.636 369.829 160.278 371.182 158.789C372.535 157.281 374.71 156.527 377.707 156.527C378.596 156.527 379.389 156.546 380.085 156.585C380.781 156.624 381.409 156.691 381.97 156.788V159.833C381.235 159.775 380.52 159.736 379.824 159.717C379.147 159.678 378.442 159.659 377.707 159.659C375.754 159.659 374.43 160.113 373.734 161.022C373.057 161.931 372.719 163.545 372.719 165.865C372.719 168.185 373.028 169.79 373.647 170.679C374.285 171.549 375.542 171.984 377.417 171.984ZM388.486 156.817V175H385.006V156.817H388.486ZM407.546 156.817V175H404.153L395.54 162.675V175H392.263V156.817H395.656L404.298 169.432V156.817H407.546ZM422.262 167.895H418.318V164.995H425.51V174.159C424.969 174.41 424.002 174.662 422.61 174.913C421.218 175.145 419.952 175.261 418.811 175.261C415.737 175.261 413.601 174.546 412.402 173.115C411.223 171.684 410.633 169.277 410.633 165.894C410.633 162.665 411.329 160.297 412.721 158.789C414.133 157.281 416.356 156.527 419.391 156.527C420.532 156.527 421.547 156.556 422.436 156.614C423.345 156.653 424.041 156.72 424.524 156.817V159.862C423.828 159.804 423.026 159.756 422.117 159.717C421.209 159.678 420.3 159.659 419.391 159.659C417.4 159.659 416.037 160.113 415.302 161.022C414.587 161.931 414.229 163.555 414.229 165.894C414.229 167.015 414.287 167.943 414.403 168.678C414.539 169.413 414.732 170.012 414.983 170.476C415.312 171.056 415.776 171.472 416.375 171.723C416.994 171.974 417.903 172.1 419.101 172.1C419.507 172.1 419.981 172.071 420.522 172.013C421.064 171.955 421.644 171.878 422.262 171.781V167.895Z" fill="#3506B7"/>
</g>
</g>
<defs>
<filter id="filter0_d_218_1018" x="435" y="208" width="107.08" height="107.08" filterUnits="userSpaceOnUse" color-interpolation-filters="sRGB">
<feFlood flood-opacity="0" result="BackgroundImageFix"/>
<feColorMatrix in="SourceAlpha" type="matrix" values="0 0 0 0 0 0 0 0 0 0 0 0 0 0 0 0 0 0 127 0" result="hardAlpha"/>
<feOffset dy="4"/>
<feGaussianBlur stdDeviation="8"/>
<feComposite in2="hardAlpha" operator="out"/>
<feColorMatrix type="matrix" values="0 0 0 0 0.310625 0 0 0 0 0.424118 0 0 0 0 0.525 0 0 0 0.87 0"/>
<feBlend mode="normal" in2="BackgroundImageFix" result="effect1_dropShadow_218_1018"/>
<feBlend mode="normal" in="SourceGraphic" in2="effect1_dropShadow_218_1018" result="shape"/>
</filter>
<filter id="filter1_d_218_1018" x="96.4072" y="65.4075" width="107.101" height="107.1" filterUnits="userSpaceOnUse" color-interpolation-filters="sRGB">
<feFlood flood-opacity="0" result="BackgroundImageFix"/>
<feColorMatrix in="SourceAlpha" type="matrix" values="0 0 0 0 0 0 0 0 0 0 0 0 0 0 0 0 0 0 127 0" result="hardAlpha"/>
<feOffset dy="4"/>
<feGaussianBlur stdDeviation="8"/>
<feComposite in2="hardAlpha" operator="out"/>
<feColorMatrix type="matrix" values="0 0 0 0 0.310625 0 0 0 0 0.424118 0 0 0 0 0.525 0 0 0 0.87 0"/>
<feBlend mode="normal" in2="BackgroundImageFix" result="effect1_dropShadow_218_1018"/>
<feBlend mode="normal" in="SourceGraphic" in2="effect1_dropShadow_218_1018" result="shape"/>
</filter>
<filter id="filter2_d_218_1018" x="523.253" y="140.29" width="71.0259" height="71.0259" filterUnits="userSpaceOnUse" color-interpolation-filters="sRGB">
<feFlood flood-opacity="0" result="BackgroundImageFix"/>
<feColorMatrix in="SourceAlpha" type="matrix" values="0 0 0 0 0 0 0 0 0 0 0 0 0 0 0 0 0 0 127 0" result="hardAlpha"/>
<feOffset dy="4"/>
<feGaussianBlur stdDeviation="8"/>
<feComposite in2="hardAlpha" operator="out"/>
<feColorMatrix type="matrix" values="0 0 0 0 0.310625 0 0 0 0 0.424118 0 0 0 0 0.525 0 0 0 0.87 0"/>
<feBlend mode="normal" in2="BackgroundImageFix" result="effect1_dropShadow_218_1018"/>
<feBlend mode="normal" in="SourceGraphic" in2="effect1_dropShadow_218_1018" result="shape"/>
</filter>
<filter id="filter3_d_218_1018" x="239.082" y="254.081" width="71.0195" height="71.02" filterUnits="userSpaceOnUse" color-interpolation-filters="sRGB">
<feFlood flood-opacity="0" result="BackgroundImageFix"/>
<feColorMatrix in="SourceAlpha" type="matrix" values="0 0 0 0 0 0 0 0 0 0 0 0 0 0 0 0 0 0 127 0" result="hardAlpha"/>
<feOffset dy="4"/>
<feGaussianBlur stdDeviation="8"/>
<feComposite in2="hardAlpha" operator="out"/>
<feColorMatrix type="matrix" values="0 0 0 0 0.310625 0 0 0 0 0.424118 0 0 0 0 0.525 0 0 0 0.87 0"/>
<feBlend mode="normal" in2="BackgroundImageFix" result="effect1_dropShadow_218_1018"/>
<feBlend mode="normal" in="SourceGraphic" in2="effect1_dropShadow_218_1018" result="shape"/>
</filter>
<filter id="filter4_d_218_1018" x="268.09" y="40.0901" width="71.02" height="71.02" filterUnits="userSpaceOnUse" color-interpolation-filters="sRGB">
<feFlood flood-opacity="0" result="BackgroundImageFix"/>
<feColorMatrix in="SourceAlpha" type="matrix" values="0 0 0 0 0 0 0 0 0 0 0 0 0 0 0 0 0 0 127 0" result="hardAlpha"/>
<feOffset dy="4"/>
<feGaussianBlur stdDeviation="8"/>
<feComposite in2="hardAlpha" operator="out"/>
<feColorMatrix type="matrix" values="0 0 0 0 0.310625 0 0 0 0 0.424118 0 0 0 0 0.525 0 0 0 0.87 0"/>
<feBlend mode="normal" in2="BackgroundImageFix" result="effect1_dropShadow_218_1018"/>
<feBlend mode="normal" in="SourceGraphic" in2="effect1_dropShadow_218_1018" result="shape"/>
</filter>
<filter id="filter5_d_218_1018" x="48.6479" y="163.648" width="124.173" height="124.174" filterUnits="userSpaceOnUse" color-interpolation-filters="sRGB">
<feFlood flood-opacity="0" result="BackgroundImageFix"/>
<feColorMatrix in="SourceAlpha" type="matrix" values="0 0 0 0 0 0 0 0 0 0 0 0 0 0 0 0 0 0 127 0" result="hardAlpha"/>
<feOffset dy="4"/>
<feGaussianBlur stdDeviation="8"/>
<feComposite in2="hardAlpha" operator="out"/>
<feColorMatrix type="matrix" values="0 0 0 0 0.310625 0 0 0 0 0.424118 0 0 0 0 0.525 0 0 0 0.87 0"/>
<feBlend mode="normal" in2="BackgroundImageFix" result="effect1_dropShadow_218_1018"/>
<feBlend mode="normal" in="SourceGraphic" in2="effect1_dropShadow_218_1018" result="shape"/>
</filter>
<filter id="filter6_d_218_1018" x="399.13" y="32" width="124.16" height="124.16" filterUnits="userSpaceOnUse" color-interpolation-filters="sRGB">
<feFlood flood-opacity="0" result="BackgroundImageFix"/>
<feColorMatrix in="SourceAlpha" type="matrix" values="0 0 0 0 0 0 0 0 0 0 0 0 0 0 0 0 0 0 127 0" result="hardAlpha"/>
<feOffset dy="4"/>
<feGaussianBlur stdDeviation="8"/>
<feComposite in2="hardAlpha" operator="out"/>
<feColorMatrix type="matrix" values="0 0 0 0 0.310625 0 0 0 0 0.424118 0 0 0 0 0.525 0 0 0 0.87 0"/>
<feBlend mode="normal" in2="BackgroundImageFix" result="effect1_dropShadow_218_1018"/>
<feBlend mode="normal" in="SourceGraphic" in2="effect1_dropShadow_218_1018" result="shape"/>
</filter>
<filter id="filter7_d_218_1018" x="243.044" y="156.527" width="186.466" height="26.734" filterUnits="userSpaceOnUse" color-interpolation-filters="sRGB">
<feFlood flood-opacity="0" result="BackgroundImageFix"/>
<feColorMatrix in="SourceAlpha" type="matrix" values="0 0 0 0 0 0 0 0 0 0 0 0 0 0 0 0 0 0 127 0" result="hardAlpha"/>
<feOffset dy="4"/>
<feGaussianBlur stdDeviation="2"/>
<feComposite in2="hardAlpha" operator="out"/>
<feColorMatrix type="matrix" values="0 0 0 0 0.207843 0 0 0 0 0.0235294 0 0 0 0 0.717647 0 0 0 0.18 0"/>
<feBlend mode="normal" in2="BackgroundImageFix" result="effect1_dropShadow_218_1018"/>
<feBlend mode="normal" in="SourceGraphic" in2="effect1_dropShadow_218_1018" result="shape"/>
</filter>
<clipPath id="clip0_218_1018">
<rect width="625" height="625" fill="white"/>
</clipPath>
<clipPath id="clip1_218_1018">
<rect width="23" height="23" fill="white" transform="translate(292 60)"/>
</clipPath>
</defs>
</svg>
