<svg width="348" height="348" viewBox="0 0 348 348" fill="none" xmlns="http://www.w3.org/2000/svg">
<path d="M281.547 96.8455C296.482 112.708 304.501 130.5 304.501 159.341C304.501 210.09 268.874 255.577 217.066 278.066L204.117 258.085C252.475 231.927 261.929 197.983 265.699 176.581C257.912 180.612 247.719 182.019 237.728 181.091C211.57 178.669 190.951 157.194 190.951 130.5C190.951 117.04 196.298 104.132 205.815 94.6143C215.333 85.0969 228.241 79.75 241.701 79.75C257.26 79.75 272.137 86.855 281.547 96.8455ZM136.547 96.8455C151.482 112.708 159.501 130.5 159.501 159.341C159.501 210.09 123.874 255.577 72.0656 278.066L59.1171 258.085C107.475 231.927 116.929 197.983 120.699 176.581C112.912 180.612 102.719 182.019 92.7281 181.091C66.5701 178.669 45.9656 157.194 45.9656 130.5C45.9656 117.04 51.3124 104.132 60.8299 94.6143C70.3474 85.0969 83.2558 79.75 96.7156 79.75C112.274 79.75 127.151 86.855 136.562 96.8455H136.547Z" fill="#214185"/>
</svg>
