<svg width="347" height="288" viewBox="0 0 347 288" fill="none" xmlns="http://www.w3.org/2000/svg">
<g filter="url(#filter0_d_1_183)">
<path d="M280.547 57.8455C295.482 73.7085 303.501 91.5 303.501 120.341C303.501 171.09 267.874 216.577 216.066 239.066L203.117 219.085C251.475 192.927 260.929 158.983 264.699 137.581C256.912 141.612 246.719 143.019 236.728 142.091C210.57 139.669 189.951 118.194 189.951 91.5C189.951 78.0403 195.298 65.1318 204.815 55.6143C214.333 46.0969 227.241 40.75 240.701 40.75C256.26 40.75 271.137 47.855 280.547 57.8455ZM135.547 57.8455C150.482 73.7085 158.501 91.5 158.501 120.341C158.501 171.09 122.874 216.577 71.0656 239.066L58.1171 219.085C106.475 192.927 115.929 158.983 119.699 137.581C111.912 141.612 101.719 143.019 91.7281 142.091C65.5701 139.669 44.9656 118.194 44.9656 91.5C44.9656 78.0403 50.3125 65.1318 59.83 55.6143C69.3474 46.0969 82.2559 40.75 95.7156 40.75C111.274 40.75 126.151 47.855 135.562 57.8455H135.547Z" fill="white"/>
</g>
<defs>
<filter id="filter0_d_1_183" x="0.965637" y="0.75" width="346.535" height="286.317" filterUnits="userSpaceOnUse" color-interpolation-filters="sRGB">
<feFlood flood-opacity="0" result="BackgroundImageFix"/>
<feColorMatrix in="SourceAlpha" type="matrix" values="0 0 0 0 0 0 0 0 0 0 0 0 0 0 0 0 0 0 127 0" result="hardAlpha"/>
<feOffset dy="4"/>
<feGaussianBlur stdDeviation="22"/>
<feComposite in2="hardAlpha" operator="out"/>
<feColorMatrix type="matrix" values="0 0 0 0 0.5 0 0 0 0 0.5 0 0 0 0 0.5 0 0 0 0.23 0"/>
<feBlend mode="normal" in2="BackgroundImageFix" result="effect1_dropShadow_1_183"/>
<feBlend mode="normal" in="SourceGraphic" in2="effect1_dropShadow_1_183" result="shape"/>
</filter>
</defs>
</svg>
