<svg width="74" height="74" viewBox="0 0 74 74" fill="none" xmlns="http://www.w3.org/2000/svg">
<rect x="2" y="2" width="70" height="70" rx="5" fill="#1D399B" fill-opacity="0.21" stroke="#E8E9FB" stroke-width="4"/>
<path d="M52.7226 43.3552H50.6363V39.2109C50.6363 38.5055 50.0645 37.9335 49.3589 37.9335H37.7774V33.0511H45.1436C45.8492 33.0511 46.4209 32.4792 46.4209 31.7737V21.6399C46.4209 20.9344 45.8492 20.3625 45.1436 20.3625H27.8564C27.1508 20.3625 26.5791 20.9344 26.5791 21.6399V31.7737C26.5791 32.4792 27.1508 33.0511 27.8564 33.0511H35.2226V37.9335H23.6411C22.9355 37.9335 22.3637 38.5055 22.3637 39.2109V43.3552H20.2774C19.5718 43.3552 19 43.9271 19 44.6326V51.3601C19 52.0655 19.5718 52.6375 20.2774 52.6375H27.0049C27.7105 52.6375 28.2822 52.0655 28.2822 51.3601V44.6326C28.2822 43.9271 27.7105 43.3552 27.0049 43.3552H24.9185V40.4883H35.2226V43.3552H33.1363C32.4306 43.3552 31.8589 43.9271 31.8589 44.6326V51.3601C31.8589 52.0655 32.4306 52.6375 33.1363 52.6375H39.8637C40.5694 52.6375 41.1411 52.0655 41.1411 51.3601V44.6326C41.1411 43.9271 40.5694 43.3552 39.8637 43.3552H37.7774V40.4883H48.0815V43.3552H45.9951C45.2895 43.3552 44.7178 43.9271 44.7178 44.6326V51.3601C44.7178 52.0655 45.2895 52.6375 45.9951 52.6375H52.7226C53.4282 52.6375 54 52.0655 54 51.3601V44.6326C54 43.9271 53.4282 43.3552 52.7226 43.3552Z" fill="#214185"/>
</svg>
