<svg width="74" height="74" viewBox="0 0 74 74" fill="none" xmlns="http://www.w3.org/2000/svg">
<rect x="2" y="2" width="70" height="70" rx="5" fill="#1D399B" fill-opacity="0.21" stroke="#E8E9FB" stroke-width="4"/>
<path d="M52.7534 33.1378C52.3405 31.2795 51.5146 29.4212 50.4822 27.7694L52.547 23.4333L49.6562 20.5426L45.3202 22.6074C43.6683 21.575 42.0165 20.9555 40.1582 20.5426L38.7128 16H34.5832L32.9314 20.5426C31.073 20.9555 29.4212 21.7814 27.7694 22.8138L23.4333 20.749L20.5426 23.4333L22.6074 27.7694C21.575 29.4212 20.9555 31.073 20.5426 32.9314L16 34.5832V38.7128L20.5426 40.3646C20.9555 42.223 21.7814 44.0813 22.6074 45.5266L20.5426 49.8627L23.4333 52.7534L27.7694 50.6886C29.4212 51.721 31.073 52.547 32.9314 52.9599L34.5832 57.296H38.7128L40.3646 52.7534C40.9841 52.547 41.81 52.3405 42.4294 52.134L39.1258 48.8303C31.2795 50.2757 24.2592 44.4942 24.2592 36.648C24.2592 29.8342 29.8342 24.2592 36.648 24.2592C44.2878 24.2592 50.0692 31.073 48.8303 38.2998L52.3405 41.81C52.547 41.1906 52.7534 40.7776 52.7534 40.1582L57.296 38.7128V34.5832L52.7534 33.1378Z" fill="#214185"/>
<path d="M56.607 52.3565L45.2071 40.9565C47.9121 34.9667 42.3088 28.5905 36.1258 30.3294L39.6037 33.8074C41.1495 35.3531 41.1495 37.865 39.6037 39.2175C38.2512 40.7633 35.5461 40.7633 34.1936 39.2175L30.7156 35.9328C28.9766 41.3429 34.58 47.526 40.9562 45.0141L52.3562 56.4141C53.5155 57.5734 55.2545 57.5734 56.4138 56.4141C57.5731 55.448 57.5731 53.5158 56.607 52.3565Z" fill="#214185"/>
</svg>
