<svg width="74" height="74" viewBox="0 0 74 74" fill="none" xmlns="http://www.w3.org/2000/svg">
<rect x="2" y="2" width="70" height="70" rx="5" fill="#1D399B" fill-opacity="0.21" stroke="#E8E9FB" stroke-width="4"/>
<g clip-path="url(#clip0)">
<path d="M26.6881 29.5729C25.6479 29.9843 24.9101 31.0001 24.9101 32.1849C24.9101 33.7324 26.1695 34.9915 27.7175 34.9915C28.9022 34.9915 29.9178 34.254 30.3293 33.2142H26.6881V29.5729Z" fill="#214185"/>
<path d="M32.0375 26.2821V27.8647H33.6202C33.3349 27.1434 32.7589 26.5674 32.0375 26.2821Z" fill="#214185"/>
<path d="M54 46.0453V41.4146H37.5305V42.7638H35.4718V41.4146H19V46.0453H54Z" fill="#214185"/>
<path d="M54 39.3559V21.0861H19V39.3559H54ZM47.2063 26.224V24.7507H49.265V26.224H47.2063ZM49.265 27.9302V30.8155H47.2063V27.9302H49.265ZM43.089 26.224V24.7507H45.1476V26.224H43.089ZM45.1476 27.9302V30.8155H43.089V27.9302H45.1476ZM41.0303 24.7507V26.224H38.9716V24.7507H41.0303ZM32.5835 32.1848C32.5835 34.8676 30.4006 37.0502 27.7174 37.0502C25.0343 37.0502 22.8514 34.8676 22.8514 32.1848C22.8514 29.5017 25.0343 27.3188 27.7174 27.3188H28.7468V31.1555H32.5835V32.1848ZM35.8743 29.9234H29.9789V24.028H31.0082C33.6914 24.028 35.8743 26.2109 35.8743 28.894V29.9234ZM38.9716 27.9302H41.0303V30.8155H38.9716V27.9302ZM45.7835 36.5968L43.2636 35.1618L40.5319 36.8067L39.47 35.043L43.2346 32.7763L45.6555 34.1549L48.5606 32.0705L49.7608 33.7431L45.7835 36.5968Z" fill="#214185"/>
<path d="M35.396 48.104V49.8553H25.1085V51.9139H47.8917V49.8553H37.4547V48.104H35.396Z" fill="#214185"/>
</g>
<defs>
<clipPath id="clip0">
<rect width="35" height="35" fill="white" transform="translate(19 19)"/>
</clipPath>
</defs>
</svg>
