<svg width="74" height="74" viewBox="0 0 74 74" fill="none" xmlns="http://www.w3.org/2000/svg">
<rect x="2" y="2" width="70" height="70" rx="5" fill="#1D399B" fill-opacity="0.21" stroke="#E8E9FB" stroke-width="4"/>
<path d="M52.2021 25.1605V22.2272C52.2021 20.9992 51.2029 20 49.9749 20H46.2816C45.0538 20 44.0546 20.9992 44.0546 22.2272V24.9242H41.1226V22.2272C41.1226 20.9992 40.1234 20 38.8952 20H35.2021C33.9741 20 32.9746 20.9992 32.9746 22.2272V24.9242H30.0429V22.2272C30.0429 20.9992 29.044 20 27.8157 20H24.1226C22.8944 20 21.8954 20.9992 21.8954 22.2272V25.1605C21.166 25.5268 20.6641 26.2814 20.6641 27.1514V38.4659H53.4332V27.1514C53.4332 26.2814 52.9313 25.5268 52.2021 25.1605Z" fill="#214185"/>
<path d="M20.6641 49.7757C20.6641 51.0037 21.6633 52.0029 22.8915 52.0029H51.206C52.434 52.0029 53.4332 51.0037 53.4332 49.7757V38.4609H20.6641V49.7757Z" fill="#214185"/>
<path d="M43.375 36.1745H37.0779L40.2176 27.5703L30.625 40.7474H36.9221L33.7824 49.3516L43.375 36.1745Z" fill="white"/>
</svg>
